<?xml version="1.0" standalone="no"?>
<!DOCTYPE svg PUBLIC "-//W3C//DTD SVG 1.1//EN" "http://www.w3.org/Graphics/SVG/1.1/DTD/svg11.dtd" >
<svg xmlns="http://www.w3.org/2000/svg">
<metadata>
This is a custom SVG webfont generated by Font Squirrel.
Copyright   :  2005 Adobe Systems Incorporated All Rights Reserved
Designer    : Robert Slimbach
Foundry URL : httpwwwadobecomtype
</metadata>
<defs>
<font id="webfontdGfOLWya" horiz-adv-x="995" >
<font-face units-per-em="2048" ascent="1485" descent="-563" />
<missing-glyph horiz-adv-x="407" />
<glyph unicode=" "  horiz-adv-x="407" />
<glyph unicode="&#x09;" horiz-adv-x="407" />
<glyph unicode="&#xa0;" horiz-adv-x="407" />
<glyph unicode="!" horiz-adv-x="595" d="M332 1253q55 0 83.5 -52t26.5 -118q-2 -25 -18 -168l-33 -289q-16 -146 -18 -157q-2 -25 -13.5 -49.5t-27.5 -24.5q-14 0 -26.5 23.5t-14.5 58.5q0 12 -31 262t-39 348q-6 82 33 124t78 42zM330 236q61 0 93 -42t32 -88q0 -55 -36 -93t-91 -38q-49 0 -88 33t-39 98 q0 63 44 96.5t85 33.5z" />
<glyph unicode="&#x22;" horiz-adv-x="618" d="M215 1411q16 0 24.5 -15.5t8.5 -27.5q0 -80 -55 -362q-20 -61 -46 -62q-20 0 -26 51q-35 295 -35 308q0 29 14 36q92 72 115 72zM512 1425q27 0 27 -43q0 -145 -54 -366q-10 -68 -43 -68q-6 0 -10 5t-7 12.5t-5 14.5t-4 15l-2 6q-10 104 -19.5 180t-14.5 106t-5 42 q0 27 31 43q88 53 106 53z" />
<glyph unicode="#" d="M915 881q-18 -70 -32 -70l-156 -6q-6 0 -12 -21l-56 -219q-2 -4 0.5 -9t6.5 -3l165 6q6 0 10.5 -18.5t2.5 -28.5q-4 -23 -18.5 -50.5t-28.5 -27.5l-162 -6q-10 0 -12 -14l-93 -351q-2 -12 -19 -20t-36 -8q-10 0 -19.5 6t-4.5 16l88 351q4 18 -9 18l-198 -8 q-4 0 -12.5 -7.5t-8.5 -9.5l-94 -354q-6 -23 -47 -22q-10 0 -21.5 10t-9.5 16l88 344q6 20 -12 21l-145 -4q-4 0 -9.5 14t-5.5 18q18 88 45 88l150 9q16 0 18 14l56 221q0 16 -9 17l-170 -5l-2 9q0 8 -1 21t1 34q16 55 35 59l166 9q2 0 7 4t5 6l82 317q12 23 62 23 q4 0 12 -7.5t8 -11.5l-80 -315q0 -12 6 -12l211 6q8 0 13 16l82 322q6 20 63 20q2 0 6 -3t7 -9t1 -16l-79 -310q-4 -18 4 -18l155 2q14 -35 6 -53zM631 780q6 23 -6 21l-205 -6q-12 0 -17 -17l-55 -219q-2 -4 2 -11t10 -5l201 8q12 0 17 16z" />
<glyph unicode="$" d="M526 528l-47 -458q0 -10 8 -11q104 12 176 73t72 157q0 82 -45 136t-151 114q-13 -1 -13 -11zM485 766l47 424q0 16 -10 16q-100 -4 -163.5 -63.5t-63.5 -161.5q0 -141 178 -223q12 -4 12 8zM545 1280l16 137q0 6 10 6q16 0 34 -6t18 -14l-13 -121q0 -12 8 -12 q49 -6 177 -43q16 -4 34 -64q14 -82 15 -116q0 -53 -19 -54q-20 0 -34 37q-47 129 -181 172q-4 2 -9 -3t-5 -11l-45 -457q0 -10 8 -18q182 -86 256 -172t74 -205q0 -147 -150 -260q-33 -27 -110.5 -49.5t-145.5 -28.5q-14 0 -14 -16l-20 -154q-2 -6 -15.5 -11t-21.5 -3 q-14 0 -27 12l16 158q0 14 -8 14q-63 6 -114 20q-25 6 -113 33q-31 2 -39 49q-6 23 -18.5 105t-12.5 88q0 35 19 35q27 0 75 -88q78 -143 207 -177q12 -2 13 9l51 485q0 14 -6 18q-135 66 -217 152t-84 219q0 121 96 213q100 106 285 111q6 0 10 10z" />
<glyph unicode="%" horiz-adv-x="1484" d="M379 1292q135 0 210 -114.5t75 -241.5q0 -152 -76 -265.5t-219 -113.5q-141 0 -213 108.5t-72 249.5q0 156 76 266.5t219 110.5zM391 610q39 0 67.5 33t41 85t17.5 98t5 94q0 45 -7 93t-22.5 102t-50 89t-82.5 35q-41 0 -69.5 -31.5t-41.5 -82t-18.5 -95.5t-5.5 -90 q0 -66 13.5 -135.5t53.5 -132t99 -62.5zM1145 1317q12 0 24.5 -9.5t18.5 -18.5t4 -11l-844 -1337q-4 -4 -19.5 -2t-21.5 6q-27 25 -10 51l815 1294q15 27 33 27zM1112 709q135 0 210 -115t75 -242q0 -154 -75 -267.5t-220 -113.5q-96 0 -163 57.5t-94.5 135.5t-27.5 166 q0 154 76 266.5t219 112.5zM1122 25q53 0 85 61t40 122.5t8 125.5q0 61 -11 127.5t-51 129t-99 62.5q-53 0 -86 -57t-42.5 -117.5t-9.5 -124t14.5 -135.5t54.5 -133t97 -61z" />
<glyph unicode="&#x26;" horiz-adv-x="1576" d="M551 1255q115 -2 191.5 -82.5t76.5 -171.5q0 -29 -10 -56t-21.5 -44.5t-40 -40t-41 -31t-49 -31t-41.5 -24.5q-6 -6 0 -12q61 -39 166 -139.5t172 -182.5q12 -18 31 0q76 76 211 283q25 37 25 61q0 27 -88 43q-41 6 -41 27q0 25 51 25q152 0 207 6q135 18 145 18 q45 0 45 -20.5t-45 -32.5q-72 -20 -122 -58t-122 -118l-125 -148l-120 -143q-10 -14 0 -25l110 -159q74 -106 225 -111q82 0 154 45q10 6 16.5 3t6.5 -11q0 -29 -37 -66q-57 -53 -136 -74.5t-141 -19.5q-78 0 -131 21q-51 23 -84 82q-76 137 -96 168l-2 2q-8 2 -10 0 q-135 -160 -238 -222q-98 -55 -194 -55q-150 0 -257.5 104.5t-107.5 260.5q0 164 188 311q82 61 123 86q10 4 2 12q-137 109 -137 236q0 125 96 209q93 75 195 75zM520 1196q-39 0 -82 -41t-43 -123q0 -66 48.5 -128t113.5 -101q14 -8 29 2q20 12 55 53q37 43 37 141 q0 66 -39 130.5t-119 66.5zM541 98q76 0 158.5 54.5t138.5 128.5q14 20 -9 47q-70 96 -193.5 215t-168.5 143q-20 14 -45 -4q-176 -133 -176 -305q0 -121 92 -199q90 -80 203 -80z" />
<glyph unicode="'" horiz-adv-x="356" d="M231 1419q29 0 29 -43q2 -102 -53 -364q-20 -63 -47 -64q-10 0 -20.5 18.5t-12.5 37.5q-20 229 -39 309q0 18 14 33q18 18 62 45.5t67 27.5z" />
<glyph unicode="(" horiz-adv-x="698" d="M264 578q0 -182 17.5 -311.5t67.5 -245t92 -181t141 -207.5q18 -23 4 -41q-27 -23 -45 -22q-27 0 -62 37q-326 365 -325 925q0 299 107.5 552t246.5 397q37 37 59 37q18 0 33.5 -9.5t15.5 -19.5q0 -16 -20 -37q-150 -135 -241 -374.5t-91 -499.5z" />
<glyph unicode=")" horiz-adv-x="698" d="M432 506q0 223 -43 395t-107.5 285.5t-177.5 255.5q-14 23 5 41q23 23 45 22q37 0 69 -39q315 -383 316 -911q0 -297 -106.5 -545t-246.5 -393q-39 -39 -59 -39q-31 0 -39 23q-6 10 16 39q147 152 237.5 383t90.5 483z" />
<glyph unicode="*" horiz-adv-x="669" d="M301 1337q6 2 14.5 -7t14.5 -21q4 -10 41 -187q4 -10 14 -2q92 61 147 88q49 14 50 -10q0 -14 -23 -37q-39 -45 -133 -108q-8 -8 2 -17q119 -68 158 -100q29 -23 28 -31q0 -29 -51 -16q-70 16 -168 65q-2 2 -8 -4q-2 -4 -2 -8q2 -59 2 -154q0 -55 -25 -59q-25 0 -38 41 q-16 57 -29 168q-4 12 -12 10q-100 -59 -162 -82q-20 -6 -34.5 -3t-14.5 14q0 25 22 38q31 25 137 99q6 14 -2 18q-88 45 -143 84q-25 16 -25 35q0 31 48 14q12 -4 163 -61q6 0 11 10q-8 160 -2 191q4 28 20 32z" />
<glyph unicode="+" horiz-adv-x="1277" d="M580 1022q0 10 34.5 19.5t61.5 9.5q14 0 22.5 -8.5t8.5 -14.5l-7 -444q0 -12 13 -13l424 4q4 0 10 -10t6 -18q0 -35 -9 -56.5t-20 -21.5l-411 -6q-12 0 -13 -19l-4 -442q0 -12 -26.5 -22.5t-63.5 -10.5q-8 0 -16 7.5t-8 15.5l-2 448q0 23 -13 23l-401 2q-43 0 -43 51 q0 20 9 38.5t22 18.5l413 -2q12 0 13 15v436z" />
<glyph unicode="," horiz-adv-x="419" d="M184 229q61 0 108.5 -52t47.5 -138q0 -119 -90 -187.5t-146 -68.5q-37 0 -36 18q0 16 36 33q121 72 121 150q0 45 -59 65q-78 29 -78 86q0 45 30.5 69.5t65.5 24.5z" />
<glyph unicode="-" horiz-adv-x="598" d="M106 473q100 14 398 45q4 0 10 -8t6 -14q0 -31 -10 -64t-27 -35l-379 -39q-14 -2 -23 7.5t-9 21.5q0 37 12 60.5t22 25.5z" />
<glyph unicode="." horiz-adv-x="419" d="M209 211q59 0 87 -39t28 -80q0 -49 -33 -84t-82 -35q-43 0 -78 30t-35 89q0 57 38 88t75 31z" />
<glyph unicode="/" horiz-adv-x="825" d="M90 -98l557 1417q16 31 31 31q23 0 49 -11q20 -8 14 -28l-559 -1411q-8 -20 -17 -28.5t-18 -6.5q-27 0 -43 10q-6 2 -11 12.5t-3 14.5z" />
<glyph unicode="0" d="M514 1292q115 0 199 -66.5t126 -172t61.5 -205.5t19.5 -195q0 -231 -69 -395t-165 -225q-92 -61 -188 -58q-109 2 -194 65.5t-132 163t-70.5 207t-23.5 212.5q0 231 70.5 388.5t177.5 225.5q88 55 188 55zM479 1231q-68 0 -125 -78q-104 -158 -104 -506 q0 -94 14.5 -193.5t45 -198.5t87 -161.5t129.5 -62.5q31 0 64 24.5t47 43t22 30.5q80 154 80 512q0 225 -50 369.5t-103 181.5q-58 39 -107 39z" />
<glyph unicode="1" d="M219 10q0 23 68 41q76 16 103.5 42t35.5 89q14 119 14 594q0 276 -8 318q-6 35 -45 41q-12 2 -32.5 5t-36 6t-23.5 5q-39 10 -39 29q0 8 13.5 18t27.5 12q174 37 215 60l78 39q10 2 16 -5.5t6 -15.5q0 -2 -4 -73.5t-2 -161.5q0 -569 2 -811q0 -106 20.5 -137t112.5 -54 q53 -12 54 -37q0 -23 -50 -22q-25 0 -95 4t-103 4q-70 0 -171.5 -5t-105.5 -5q-51 0 -51 20z" />
<glyph unicode="2" d="M113 -6q-10 -2 -25.5 5t-17.5 17q-6 18 26 47q90 82 326 377q211 270 211 457q0 127 -66.5 189.5t-169.5 62.5q-154 0 -252 -127q-35 -43 -43 -43q-4 0 -13 11t-9 18q0 31 26 67q141 217 369 217q137 0 232.5 -102.5t95.5 -243.5q0 -166 -162 -360l-371 -426 q-4 -4 -2 -9.5t6 -7.5q66 -6 243 -6t226 8q47 8 77 23.5t67 56.5q31 35 41 35t14 -8t3 -23.5t-11 -33.5q-53 -115 -64 -185q-4 -18 -30 -18q-2 0 -113 2t-238 4t-170 2q-132 0 -206 -6z" />
<glyph unicode="3" d="M489 1292q133 0 209 -84t76 -172q0 -96 -72 -174q-55 -59 -120 -102q-10 -14 4 -21q174 -39 248 -129q57 -72 57 -188q0 -125 -81 -244t-214 -196q-145 -86 -303 -86q-86 0 -146.5 29.5t-60.5 72.5q0 23 16 47q27 39 56 39q16 0 49 -29q84 -74 207 -73q96 0 170 59 q68 53 100.5 131t32.5 147q0 143 -74 224q-63 70 -184 69q-80 0 -160 -34q-8 -2 -13 3t-3 13q0 29 30 53q29 20 101 58q109 55 152.5 116.5t43.5 141.5q0 84 -58 143t-140 59q-131 0 -226 -114q-29 -37 -43 -37q-18 0 -18 28q0 18 32.5 65.5t80.5 88.5q108 96 251 96z" />
<glyph unicode="4" d="M772 913v-403q0 -16 10 -16l185 4q12 0 12 -18.5t-10.5 -46t-22.5 -34.5l-162 2q-2 0 -7 -5t-5 -9v-168q4 -104 21.5 -130t87.5 -40q45 -10 45 -33q0 -25 -47 -24q-25 -2 -94.5 3t-98.5 5q-37 0 -107.5 -5t-105.5 -5q-53 0 -53 26q0 23 53 33q80 14 98.5 41t24.5 100 q2 14 2 21q6 123 6 162q0 25 -10 26q-20 4 -251.5 3t-291.5 -7q-37 -4 -37 17q0 14 56 90l657 899q20 29 39 29h22q29 0 29 -17q0 -8 -10 -22l-649 -877q-8 -12 4 -16q61 -6 237 -6t197 2q10 10 10 14l2 391q0 18 19 31q16 12 59 24.5t68 12.5q18 -1 18 -54z" />
<glyph unicode="5" d="M866 401q0 -207 -182 -358q-92 -76 -226 -118t-231 -42q-41 0 -47 2q-29 2 -28 17q0 6 14 22.5t27 18.5q209 18 357 123.5t148 281.5q0 96 -55 175t-151 122q-168 72 -330 100q-6 2 -16.5 20.5t-10.5 27.5q0 41 36 160.5t67 193.5q31 68 45 70q41 16 218 44.5t273 28.5 q2 0 9.5 -8t7.5 -10q0 -55 -41 -107.5t-64 -54.5q-379 -27 -389 -27q-20 0 -25 -18q-39 -113 -43 -129q-4 -25 15 -29q96 -20 222 -67t185 -84q104 -61 159.5 -156t55.5 -199z" />
<glyph unicode="6" d="M639 748q137 0 213 -93.5t76 -228.5q0 -231 -185 -365q-115 -88 -251 -88q-188 0 -299 132.5t-111 349.5q0 242 146.5 461t351.5 350q219 137 333 137q41 0 41 -23q0 -12 -41 -32q-180 -72 -344 -220q-143 -129 -228 -305t-85 -356q0 -160 83 -287t220 -127q66 0 111 33 q104 78 104 250q0 135 -66.5 208.5t-168.5 73.5q-59 0 -150 -45q-4 -2 -11 3.5t-7 13.5q0 20 22 45q41 45 117 76q66 37 129 37z" />
<glyph unicode="7" d="M479 1266q141 -2 336 6l107 4q31 0 34 -12q0 -12 -16 -39q-23 -33 -175 -334l-259 -526q-197 -410 -205 -433q-12 -29 -29 -28q-20 0 -35.5 13t-15.5 27.5t19 47.5l244 482q218 429 304 618q2 2 -2 8t-6 6q-129 14 -432 14q-82 0 -123 -8q-39 -2 -62.5 -23.5t-64.5 -82.5 q-25 -45 -43 -45t-18 26q0 20 22 80q10 25 18.5 53.5t12.5 46t7 39t5 27.5q4 31 21 47q10 8 29 0q36 -14 327 -14z" />
<glyph unicode="8" d="M514 1329q150 0 249 -86t99 -219q0 -115 -112 -209q-20 -18 -140 -98q-6 -2 -7 -9.5t3 -9.5q272 -203 273 -381q0 -160 -148 -266q-102 -78 -252 -78q-176 0 -272 95.5t-96 210.5q0 135 143 253q102 84 131 103q4 4 -2 12q-104 74 -164 150q-76 92 -76 204q0 145 111 234 q108 94 260 94zM508 31q98 0 151.5 63.5t53.5 159.5q0 70 -42 138.5t-87 107.5t-121 94q-23 18 -31 10q-63 -43 -113.5 -133t-50.5 -170q0 -92 66 -186q78 -84 174 -84zM494 1274q-80 0 -140.5 -56.5t-60.5 -156.5q0 -94 60.5 -164t181.5 -154q14 -10 24 -4q63 49 92 95 q59 102 60 204q0 31 -18.5 82t-71.5 102.5t-127 51.5z" />
<glyph unicode="9" d="M518 1292q188 0 290.5 -145.5t102.5 -337.5q0 -217 -146.5 -460t-356.5 -374q-145 -92 -246 -92q-12 0 -25.5 7.5t-13.5 15.5q0 10 29 20q203 100 352 281q100 115 163.5 276.5t63.5 315.5q0 106 -36 210.5t-105 161.5q-57 45 -139 46q-92 0 -155 -80t-63 -179 q0 -145 71 -223t190 -78q45 0 120 35q8 2 15.5 -1t7.5 -9q0 -14 -10 -35q-8 -18 -37 -43q-41 -35 -101.5 -56.5t-101.5 -21.5q-135 0 -219 95.5t-84 238.5q0 104 52 207.5t169 169.5q96 55 213 55z" />
<glyph unicode=":" horiz-adv-x="505" d="M254 741q57 0 84 -37.5t27 -78.5q0 -47 -33 -81t-80 -34q-43 0 -78 28.5t-35 90.5q0 57 39 84.5t76 27.5zM254 209q57 0 84 -38t27 -79q0 -47 -33 -81t-80 -34q-43 0 -78 29t-35 88q0 57 39 86t76 29z" />
<glyph unicode=";" horiz-adv-x="505" d="M254 739q57 0 84 -37.5t27 -78.5q0 -47 -33 -81t-80 -34q-41 0 -77 27.5t-36 87.5q0 57 39 86.5t76 29.5zM225 221q61 0 107.5 -50t46.5 -136q0 -82 -50 -144.5t-100.5 -85t-78.5 -22.5q-35 0 -35 16q0 20 26 35q119 68 119 150q0 39 -45 55q-16 4 -32.5 12t-35 28.5 t-18.5 47.5q0 45 31.5 69.5t64.5 24.5z" />
<glyph unicode="&#x3c;" horiz-adv-x="1200" d="M1010 164q4 -6 4 -19.5t-10.5 -36t-26.5 -38.5q-12 -12 -31 -2l-674 374q-86 47 -86 66q0 8 15 31q20 33 63 55l662 371q27 16 41 4q70 -70 34 -90l-632 -342l-4 -5q-2 -2 -4.5 -9t6.5 -9z" />
<glyph unicode="=" horiz-adv-x="1277" d="M1133 772q20 0 20 -24q0 -90 -20 -91h-983q-27 0 -27 33q0 23 9 48.5t22 25.5zM1130 385q6 0 14.5 -10t8.5 -23q0 -76 -29 -76l-972 3q-12 0 -20.5 15t-8.5 30q0 23 9 43t22 20z" />
<glyph unicode="&#x3e;" horiz-adv-x="1200" d="M1010 526q0 -12 -15 -30q-20 -33 -63 -56l-662 -372q-25 -14 -41 -2q-25 23 -37 48t5 42l639 346q4 4 2 9t-7 7l-645 352q-4 6 -3 20.5t11.5 39t26.5 41.5q6 4 16.5 4t12.5 -2l676 -383q84 -48 84 -64z" />
<glyph unicode="?" horiz-adv-x="731" d="M283 1229q78 0 196 -101q37 -29 99.5 -117.5t62.5 -174.5q0 -129 -76 -209q-45 -31 -180 -105q-12 -6 -19.5 -12t-11.5 -16.5t-5 -16.5t-2 -20.5t-1 -20.5q-4 -53 -33 -53q-20 0 -34 57q-27 113 -27 160q0 49 43 81t149 79q100 43 101 114q0 80 -31 126.5t-129 46.5 q-8 0 -43 -4.5t-53 -4.5q-29 0 -57.5 37t-28.5 80q0 25 23.5 49.5t56.5 24.5zM350 221q61 0 90 -40t29 -83q0 -51 -35 -88t-86 -37q-47 0 -84 32t-37 93q0 59 41 91t82 32z" />
<glyph unicode="@" horiz-adv-x="1789" d="M1015.5 686q-65.5 0 -165.5 -108q-72 -80 -130 -185.5t-58 -179.5q0 -45 30 -45q57 0 172 102q78 70 147.5 167.5t102.5 170.5q4 10 3 24.5t-5 18.5q-31 35 -96.5 35zM1073 784q51 0 82 -34q12 -8 16 2l35 84q4 6 16.5 13t22.5 5q37 0 60 -16q6 -2 9 -11.5t1 -15.5 q-190 -459 -217 -616q-8 -45 8 -64.5t65 -19.5q154 0 287 133t133 338q0 248 -167 395t-423 147q-231 0 -408 -119.5t-265 -306t-88 -403.5q0 -113 36.5 -220.5t110.5 -198.5t200 -147.5t287 -56.5q276 0 500 199q8 8 20.5 8t12.5 -16q0 -33 -27 -64q-94 -106 -247.5 -161.5 t-305.5 -55.5q-139 0 -264 42t-229.5 126t-166 226.5t-61.5 326.5q0 250 129.5 457t335 320.5t435.5 113.5q324 0 498.5 -178t174.5 -432q0 -217 -172 -386t-426 -169q-68 0 -103.5 20.5t-35.5 44.5q-2 16 16 70l56 162q4 6 -4 10q-6 2 -11 -4q-299 -303 -432 -303 q-31 0 -51 25.5t-20 60.5q-4 129 194 370q92 113 206 206t177 93z" />
<glyph unicode="A" horiz-adv-x="1384" d="M723 1354q14 0 33 -54q12 -39 90 -253q195 -547 295 -789q47 -119 83 -153.5t109 -53.5q49 -14 49 -35q0 -27 -65 -26q-31 0 -121 5t-137 5q-35 0 -78 -2t-68 -2q-63 0 -63 24.5t49 32.5q45 10 66.5 26.5t19.5 36t-4 42.5q-12 68 -115 350q-6 20 -69 20q-279 0 -336 -8 q-12 0 -23 -16q-106 -266 -106 -359q0 -57 100 -88q55 -16 55 -37q0 -27 -57 -26q-12 0 -65.5 3t-96.5 3t-122.5 -5t-90.5 -5q-47 0 -47 20q0 27 45 41q84 29 116 54.5t73 119.5q25 57 178 452l192 492q12 25 13 43q0 10 4 17q10 14 34.5 55t26.5 45q23 25 33 25zM815 621 q2 0 5 6q2 4 2 6q0 218 -146 425l-14 19q-4 9 -9 9l-8 -9l-52 -136.5l-45.5 -118.5l-32.5 -87.5t-23.5 -70.5t-7.5 -41q0 -9 12 -9q29 0 99.5 1t129.5 2.5t90 3.5z" />
<glyph unicode="B" horiz-adv-x="1206" d="M1024 1014q0 -180 -166 -271q-4 -2 -2 -8t6 -8q252 -113 252 -338q0 -197 -164 -305q-68 -47 -172 -70.5t-194 -23.5q-25 0 -161 4t-187 4q-25 0 -70 -1t-62 -1q-59 0 -59 27q0 23 51 32q100 18 124 41t30 84q16 115 16 672q0 262 -12 324q-8 39 -29.5 55t-99.5 26 q-53 8 -53 33q0 27 55 27h137q31 0 156 7t170 7q195 0 289 -59q72 -43 108.5 -113.5t36.5 -144.5zM852 999q0 125 -79 197t-220 72q-43 0 -88 -17q-18 -10 -25 -32q-12 -98 -12 -455q0 -27 23 -27q76 0 165 14.5t123 36.5q49 33 81 90.5t32 120.5zM922 369q0 180 -170 266 q-76 39 -217 39q-76 0 -91 -15q-10 -16 -14 -59q-3 -35 -3 -115q0 -40 1 -91q2 -153 10 -206q6 -43 33 -67q29 -33 72 -51.5t67 -18.5q133 0 222.5 87.5t89.5 230.5z" />
<glyph unicode="C" horiz-adv-x="1468" d="M883 1354q102 0 241 -33q29 -4 85.5 -20.5t70.5 -18.5q31 0 31 -61q0 -20 14 -179q2 -31 -8 -49t-23 -18q-14 0 -32 53q-29 111 -84 154q-143 106 -328 106q-240 0 -390.5 -171t-150.5 -410q0 -195 72 -338q80 -164 228.5 -246t289.5 -82q129 0 223 55q111 57 191 199 q33 53 43 53q14 0 18 -23q2 -12 2 -23t-2 -21q-4 -37 -30.5 -102.5t-51.5 -104.5q-12 -29 -63 -54q-37 -16 -147.5 -36.5t-225.5 -20.5q-195 0 -350.5 75t-231.5 165q-172 199 -172 471q0 158 72 291t154 200q231 189 555 189z" />
<glyph unicode="D" horiz-adv-x="1546" d="M692 1335q193 0 339.5 -61.5t228.5 -136.5q82 -80 134 -206t52 -247q0 -205 -100.5 -363.5t-227.5 -228.5q-199 -115 -487 -115q-184 0 -402 17q-39 2 -108 2q-66 0 -66 31q0 25 45 28q102 12 128 51t30 166q6 145 6 281q0 246 -10 526q-4 104 -22.5 135t-108.5 43 q-47 8 -47 33q0 27 49 27h57q43 0 227.5 9t282.5 9zM602 1272q-113 0 -141 -17q-18 -12 -21 -26q-8 -49 -8 -389v-297q0 -233 8 -355q6 -72 45 -96q29 -20 81 -36.5t87 -16.5q84 0 194.5 33.5t188.5 99.5q211 180 211 512q0 133 -60.5 263t-158.5 204q-76 55 -192.5 88 t-233.5 33z" />
<glyph unicode="E" horiz-adv-x="1153" d="M457 1317h301q143 0 188 6q4 2 10.5 -6t8.5 -17q0 -53 2 -116.5t2 -77.5q0 -53 -31 -53q-23 0 -33 49q-18 76 -50 103.5t-87 35.5q-71 11 -177 11q-53 0 -114 -3q-4 0 -9 -4t-12 -18.5t-10 -34.5q-4 -41 -6 -243q-1 -101 -1 -157t1 -67q6 -20 15 -20h133q102 0 142 7 t57.5 25.5t37.5 69.5q16 43 37 43q23 0 17 -45q-6 -86 -7 -148q0 -2 7 -125q1 -8 0 -14q0 -45 -23 -45t-35 45q-23 72 -45 87.5t-117 19.5q-66 4 -202 4q-6 0 -12.5 -7.5t-6.5 -11.5q-6 -33 -6 -321q0 -115 21 -170q12 -37 39 -45q82 -14 186 -15q141 0 194 15 q106 27 170 151q29 57 48 58q10 0 15 -19q3 -10 3 -20q0 -8 -2 -17q-2 -16 -33 -111.5t-41 -107.5q-18 -25 -35 -24l-100 4q-98 4 -258 8t-307 4q-57 0 -127 -5t-105 -5q-61 0 -61 26q0 18 57 33q84 20 114 46t36 104q16 229 16 581q0 317 -2 346q-4 68 -25.5 94.5 t-89.5 41.5q-59 14 -59 34q0 29 57 29q43 0 141.5 -4t172.5 -4z" />
<glyph unicode="F" horiz-adv-x="1079" d="M362 1317h267q53 0 131 1t135 3t61 2h4l13 -5q8 -7 8 -15q-2 -41 -1 -62.5t4 -68t3 -70.5q2 -20 -6 -37.5t-23 -17.5q-27 0 -45 63q-25 74 -48 97.5t-74 31.5q-47 6 -169 7h-45q-82 0 -104 -3q-14 -2 -23.5 -11t-9.5 -15q-8 -98 -8 -453q0 -76 21 -76q270 0 295 2 q47 4 67.5 22.5t42.5 71.5q20 49 38.5 49.5t18.5 -45.5q0 -12 -5 -60t-5 -69q0 -55 2 -100t2 -61q0 -47 -30 -47q-18 0 -31 43q-14 53 -31.5 71.5t-52.5 26.5q-55 10 -137 10q-137 0 -181 -6q-10 0 -16 -25q-1 -15 -1 -46q0 -94 9 -339q2 -39 8.5 -58t37 -38.5t94.5 -32.5 q49 -10 49 -39q0 -25 -58 -24q-25 0 -88 3t-106 3q-45 0 -136.5 -6t-107.5 -6q-57 0 -57 20q0 27 55 41q51 12 79 32.5t32 34t6 34.5q16 170 16 620q0 313 -4 366.5t-32.5 82t-96.5 45.5q-51 12 -51 34q0 25 57 25q49 0 123.5 -3t103.5 -3z" />
<glyph unicode="G" horiz-adv-x="1482" d="M850 1354q133 0 344 -45l78 -17q8 0 16 -13t8 -36q0 -18 14.5 -100t14.5 -125q0 -45 -27 -45q-18 0 -36 47q-31 84 -78 143q-39 49 -127 88t-201 39q-254 0 -405.5 -178t-151.5 -432q0 -221 92 -373q80 -135 214 -208.5t282 -73.5q31 0 89 12t95 37q12 8 27.5 47t15.5 59 q0 176 -6 213q-8 29 -19.5 44.5t-52.5 31.5t-112 20q-53 4 -54 35q0 29 62 29q16 0 114.5 -4t131.5 -4q23 0 86 4t98 4q55 0 55 -27q0 -18 -47 -34q-29 -8 -45 -20.5t-19 -20t-10 -23.5q-10 -29 -10 -254q0 -43 29 -59q35 -18 35 -37q0 -20 -31 -29q-10 -4 -75.5 -20.5 l-110.5 -28.5q-133 -37 -283 -37q-338 0 -545 187q-211 203 -211 503q0 313 232 516q96 86 235 135.5t289 49.5z" />
<glyph unicode="H" horiz-adv-x="1671" d="M434 752q0 -18 3 -27.5t7.5 -11.5t12.5 -2q31 0 291 3t471 3q16 0 22 53q1 10 1 81v87q-1 154 -5 207q-4 57 -23.5 77.5t-89.5 39.5q-51 14 -51 38q0 23 64 23q10 0 95 -2t114 -2q41 0 110.5 3t75.5 3q57 0 57 -25q0 -20 -59 -34q-61 -14 -82 -41t-25 -76 q-16 -168 -16 -676q0 -53 4 -174t4 -129q2 -57 22.5 -75.5t94.5 -39.5q47 -16 47 -38.5t-57 -22.5q-12 0 -74 3t-96 3q-23 0 -121 -6t-119 -6q-51 0 -51 22q0 25 45 37q82 25 102.5 57.5t24.5 143.5q8 172 8 330q0 43 -24 43q-123 0 -329 1t-288 2h-53q-51 0 -92 -1 q-6 0 -14.5 -11.5t-8.5 -23.5v-375q2 -74 24.5 -106.5t86.5 -53.5q59 -16 61 -41q0 -8 -9 -12t-22.5 -6t-27.5 -2q-4 0 -43 2t-88 4t-82 2q-20 0 -93 -4t-110 -4q-61 0 -61 20q0 27 47 39q78 20 100.5 43t28.5 84q18 252 18 649v316q-4 55 -22.5 79.5t-79.5 37.5 q-57 10 -58 38q0 23 60 23q29 0 94.5 -2t91.5 -2q47 0 111.5 2t83.5 2q66 0 65 -23q0 -27 -59 -38q-68 -12 -86.5 -39t-22.5 -97q-4 -47 -6 -194q-1 -74 -1 -118.5t1 -59.5z" />
<glyph unicode="I" horiz-adv-x="694" d="M262 668q0 348 -6 448q-2 45 -5 61.5t-14.5 38t-35 29.5t-66.5 17q-57 10 -57 36q0 25 51 25q25 0 106.5 -3t116.5 -3q53 0 120 3t99 3q51 0 51.5 -24.5t-53.5 -34.5q-43 -8 -67.5 -20.5t-36.5 -37t-13 -30.5l-8 -43q-12 -82 -12 -603q0 -207 6 -305q4 -90 30 -123.5 t120 -52.5q53 -8 53 -34.5t-55 -26.5q-57 0 -170 6t-135 6q-29 0 -73 -2t-83 -2q-53 0 -53 29q0 23 61 34q74 16 93.5 44t25.5 106q10 119 10 459z" />
<glyph unicode="J" horiz-adv-x="675" d="M-150 -342q0 35 48 82q27 27 49 27q29 0 63 -25q68 -43 107 -43q47 0 82 39q49 51 57 170q12 190 12 639q0 455 -12 602q-2 27 -9 44t-35 37.5t-77 29.5q-63 10 -63 38q0 25 55 25q29 0 103.5 -3t123.5 -3q37 0 111 3t104 3q55 0 56 -20q0 -29 -62 -41q-66 -12 -91.5 -43 t-25.5 -107q0 -84 -4 -461t-4 -467q-2 -172 -67.5 -306t-153.5 -202q-129 -98 -233 -98q-51 0 -92.5 25.5t-41.5 54.5z" />
<glyph unicode="K" horiz-adv-x="1398" d="M88 1296q0 27 55 27q23 0 94.5 -3t106.5 -3q33 0 100.5 2t90.5 2q55 0 55 -25q0 -20 -60 -34q-55 -10 -75.5 -33t-22.5 -80q-4 -55 -5 -239v-66q0 -120 3 -135q4 -14 14 -15q4 0 19 6l12 9q47 35 226.5 209t230.5 231q33 37 33 62q0 33 -56 49q-47 16 -47 30q0 27 53 27 q20 0 40 -1t38 -1q23 0 148 5t155 5q53 0 54 -25q0 -23 -56 -36q-84 -18 -138 -48t-159 -110q-76 -59 -222 -194.5t-165 -163.5q-4 -14 0 -21q33 -41 547 -569q45 -45 85 -68.5t60.5 -29t69.5 -13.5q41 -10 41 -29q0 -31 -51 -30q-27 0 -149.5 8t-149.5 8q-41 0 -82 -1 t-61.5 -1t-31.5 12.5t-11 24.5q0 16 88 35q6 2 10 9t0 11q-98 125 -443 475q-10 10 -21 23.5t-18.5 19.5t-14.5 15.5t-12 13.5l-10 8q-5 4 -8.5 5t-7.5 1t-10 -43q-2 -22 -2 -90q0 -114 6 -356q2 -41 28.5 -65.5t94.5 -43.5q47 -10 47 -36.5t-53 -26.5q-20 0 -118.5 3 t-133.5 3q-33 0 -99.5 -3t-99.5 -3q-18 0 -33.5 8t-15.5 18q0 20 60 35q80 16 110.5 49t34.5 121q6 209 6 484q0 291 -8 438q-2 53 -25.5 75.5t-87.5 39.5q-53 14 -53 34z" />
<glyph unicode="L" horiz-adv-x="1150" d="M94 1296q0 25 62 25q27 0 73.5 -2t77.5 -2q43 0 145.5 3t122.5 3q51 0 51.5 -22.5t-46.5 -34.5q-82 -18 -108 -36t-30 -44q-12 -92 -12 -602q0 -305 14 -424q2 -20 29 -48t41 -30q68 -10 197 -10q100 0 145 6t82 39q66 66 117 137q27 45 51 45q14 0 14 -21q0 -13 -6 -34 q-47 -145 -63 -221q-2 -14 -20.5 -24.5t-29.5 -10.5q-4 0 -32.5 1t-79.5 3t-120 4t-173 3t-221 1q-84 0 -174 -4l-90 -6q-59 0 -60 22q0 29 49 37q82 16 113 47t39 94q10 129 10 674q0 223 -2 291q-2 41 -22.5 65.5t-85.5 36.5q-58 12 -58 39z" />
<glyph unicode="M" horiz-adv-x="1820" d="M96 1300q0 14 11.5 17.5t48.5 3.5q68 0 142.5 -2t131.5 -2q4 0 12.5 -10.5t10.5 -16.5q20 -63 77 -186q340 -717 381 -772q12 -18 21 -6q401 760 434 843q0 2 9 24l21 49q11 28 17 46q2 8 10.5 18.5t12.5 10.5q43 0 149.5 3t108.5 3q53 0 53 -23q0 -25 -53 -32 q-49 -8 -92 -27q-63 -25 -64 -158q0 -618 29 -886q8 -68 33.5 -93.5t99.5 -48.5q55 -12 55 -38.5t-59 -26.5q-4 0 -107.5 5t-148.5 5q-18 0 -73.5 -3t-82.5 -3q-55 0 -55 29q0 23 53 36q41 12 60.5 35t24.5 44.5t9 68.5q5 57 5 248q0 64 -1 142q-2 314 -6 400q-2 10 -6 14.5 t-10 -1.5l-150 -291l-186 -373q-86 -186 -127 -293q-10 -29 -19.5 -42t-13.5 -14t-14 -1q-20 0 -31 39q-25 88 -76 217q-63 156 -196 434.5l-158 333.5q-12 27 -14 -6q-12 -66 -25 -359q-9 -220 -9 -353q0 -44 1 -79q4 -80 25.5 -110.5t99.5 -55.5q55 -14 55 -38.5 t-55 -24.5q-35 0 -107.5 3t-97 3t-81 -3t-83.5 -3q-53 0 -53 29q0 18 41 28q90 27 116.5 60.5t39.5 128.5q14 102 39.5 434t29.5 450q0 92 -92 119q-68 20 -88 25q-33 9 -33 32z" />
<glyph unicode="N" horiz-adv-x="1579" d="M31 1298q0 25 67 25q14 0 102.5 -3t147.5 -3q16 0 43 -27l162 -203q96 -121 680 -757q8 -8 14 -1t6 15q4 27 4 582q0 98 -10 204q-2 41 -27.5 72t-101.5 53q-55 16 -55 45q0 18 53 19q25 0 83 -1t93 -1q39 0 103.5 4t89.5 4q47 0 47 -22q0 -27 -49 -41q-72 -16 -99.5 -44 t-31.5 -106q-23 -406 -23 -829q0 -49 7 -156t7 -117q0 -43 -28 -43q-20 0 -48 21.5t-44 44.5q-14 16 -55.5 71.5l-71.5 92.5l-731 850q-6 8 -14.5 6t-8.5 -11q0 -14 -3 -54t-5 -93t-2 -125q0 -70 -1 -214t-2 -216q0 -24 -1 -47q0 -46 2 -86q6 -72 30.5 -102.5t98.5 -51.5 q51 -12 51 -37q0 -27 -66 -26q-29 0 -104.5 5t-114.5 5q-25 0 -70.5 -2t-62.5 -2q-53 0 -53 22.5t41 34.5q59 20 80.5 31.5t40 49.5t22.5 112q39 631 39 827q0 78 -14 98q-37 45 -64.5 59.5t-89.5 31.5q-12 2 -18 4q-45 12 -45 32z" />
<glyph unicode="O" horiz-adv-x="1599" d="M788 1354q297 0 504 -194.5t207 -483.5q0 -201 -83 -352.5t-208 -241.5q-170 -119 -403 -119q-156 0 -297 62.5t-236 171.5q-170 188 -170 462q0 338 267 551q76 61 194.5 102.5t224.5 41.5zM743 1286q-68 0 -149.5 -32.5t-132.5 -84.5q-160 -156 -160 -481 q0 -244 160 -449.5t393 -205.5q180 0 270 98q72 63 123 189t51 294q0 166 -66.5 317.5t-180.5 244.5q-61 49 -148.5 79.5t-159.5 30.5z" />
<glyph unicode="P" horiz-adv-x="1116" d="M854 926q0 141 -96 244.5t-238 103.5q-31 0 -59 -19q-18 -12 -21 -79q0 -18 -1 -96.5t-2 -212.5t-1 -224q0 -111 2 -256t2 -154q2 -98 22.5 -127.5t100.5 -52.5q55 -14 55 -38.5t-67 -24.5q-20 0 -93 4t-122 4q-29 0 -101.5 -4t-105.5 -4q-57 0 -57 28q0 20 41 33 q82 18 110.5 51t32.5 101q10 164 10 370q0 371 -6 568q0 35 -2 48t-12 31.5t-34 25.5t-67 14q-63 10 -63 30q0 25 47 29h68q39 0 163.5 8t178.5 8q256 0 383 -121q119 -115 118 -278q0 -195 -143 -318q-106 -90 -235 -90q-70 0 -109 15q-35 14 -35 32.5t25 18.5h51 q96 0 178 85t82 247z" />
<glyph unicode="Q" horiz-adv-x="1597" d="M811 1354q281 0 483.5 -196.5t202.5 -481.5q0 -311 -215 -512q-53 -49 -138 -100.5t-155 -73.5q-16 -6 -4 -21q59 -76 254 -198q209 -131 358 -131q33 0 142 20q27 4 26 -14q0 -23 -30 -45q-88 -70 -215 -70q-215 0 -451 154q-96 57 -295 211q-109 84 -231 122 q-197 63 -319 240.5t-122 392.5q0 186 77 331.5t202 236.5q190 135 430 135zM739 1282q-131 0 -231 -80q-207 -164 -207 -532q0 -242 158 -434q61 -80 178 -139.5t188 -59.5q150 0 256 69q98 70 158.5 214.5t60.5 283.5q0 160 -56 301.5t-159 235.5q-63 63 -160.5 102 t-185.5 39z" />
<glyph unicode="R" horiz-adv-x="1292" d="M1036 985q0 -84 -45 -163t-121 -124q-2 -2 -28.5 -15t-34.5 -19q-4 -4 -7 -14.5t-1 -16.5q20 -47 126.5 -209t190.5 -256q82 -96 201 -121q12 -2 22.5 -12t10.5 -17q0 -12 -29 -26q-35 -14 -113 -15q-72 0 -149.5 38t-122.5 96q-104 143 -258 385q-57 86 -82 102 q-6 6 -54 16.5t-91 10.5q-10 0 -17.5 -9.5t-7.5 -15.5q-2 -36 -2 -87q0 -120 10 -327q4 -66 27.5 -93t95.5 -44q49 -14 49 -35q0 -27 -49 -26q-37 0 -112.5 6t-151.5 6q-20 0 -88 -4t-78 -4q-53 0 -53 28q0 14 45 31q53 16 74.5 26.5t39 32t19.5 60.5q12 190 12 403 q0 463 -12 582q-6 53 -25.5 68.5t-93.5 33.5q-49 12 -49 35q0 25 55 25h115q33 0 152.5 5t179.5 5q229 0 334 -86q51 -43 83.5 -112.5t32.5 -143.5zM854 981q0 41 -25.5 102.5t-66.5 102.5q-37 35 -94.5 56.5t-108.5 21.5q-68 0 -98 -15q-6 -2 -15.5 -19.5t-9.5 -23.5 q-4 -55 -7 -264q-1 -90 -1 -146q0 -75 2 -91q8 -31 33 -31q80 0 154.5 18.5t101.5 34.5q51 33 93 99.5t42 154.5z" />
<glyph unicode="S" horiz-adv-x="968" d="M561 1354q45 0 94.5 -7.5t97.5 -18.5t52 -11q8 -2 16 -18.5t8 -20.5l8 -56l9 -73q4 -33 4 -37q0 -55 -14 -55q-37 0 -50 43q-16 49 -47.5 92t-52.5 55q-61 47 -145 47q-102 0 -169 -68.5t-67 -170.5q0 -43 15.5 -81t30 -61.5t64.5 -63.5t72 -55l103 -69 q139 -94 210.5 -182t71.5 -215q0 -80 -44 -159t-123 -130q-49 -33 -129 -53.5t-150 -20.5q-53 0 -138 15.5t-130 37.5q-14 8 -30.5 33t-16.5 33q-4 27 -12.5 71t-13.5 75.5t-5 45.5q0 6 11 22.5t18 16.5q23 0 75 -116q37 -78 118 -121t149 -43q106 0 176.5 69.5t70.5 178.5 q0 74 -53 147.5t-203 167.5q-145 94 -221 188.5t-76 217.5q0 150 113 249q110 101 303 101z" />
<glyph unicode="T" horiz-adv-x="1366" d="M698 1315q301 0 469 4q94 6 140 37q20 12 28 12q6 0 9.5 -6t3.5 -16.5t-5 -24.5q-29 -88 -45 -234q-2 -14 -12 -26t-22 -12q-20 0 -29 65q-8 78 -38 98.5t-128 24.5q-16 1 -76 1h-71q-123 -1 -140 -5q-6 -2 -12 -12.5t-6 -14.5v-501q0 -432 8 -508q8 -74 31.5 -99.5 t116.5 -46.5q55 -12 55 -36.5t-57 -24.5q-4 0 -45.5 3t-95.5 5t-93 2q-61 0 -145 -7t-88 -7q-61 0 -62 24q0 10 12.5 20.5t26.5 14.5q102 23 126 60.5t28 160.5q14 422 14 697v243q0 27 -16 27q-68 10 -254 10q-111 0 -152 -47q-20 -16 -68 -106q-8 -20 -16 -29.5t-12 -10.5 t-10 -1q-20 0 -21 47q0 10 19.5 104t19.5 166q0 10 10 21.5t21 11.5q4 0 7 -4l9 -13q6 -8 17 -16q37 -37 69 -39q106 -12 479 -12z" />
<glyph unicode="U" horiz-adv-x="1560" d="M76 1298q0 25 59 25q45 0 109.5 -3t101.5 -3q41 0 110.5 2t88.5 2q63 0 63 -23q0 -27 -61 -38q-59 -12 -88 -36t-37 -81q-8 -53 -8 -572q0 -158 29.5 -242.5t84.5 -148.5q43 -47 130 -79.5t167 -32.5q123 0 236 67.5t147 218.5q45 199 45 514q0 166 -8 265 q-4 61 -28.5 87.5t-106.5 45.5q-16 4 -29.5 15t-13.5 22q0 20 47 20q25 0 82 -3t92 -3q45 0 102.5 2t82.5 2q51 0 51 -23q0 -20 -45 -36q-70 -20 -100.5 -58.5t-32.5 -130.5l-10 -217q-7 -168 -9 -205q-14 -483 -256 -618q-117 -66 -295 -66q-123 0 -223 39t-147 82 q-88 84 -126 217t-38 385q0 379 -9 486q-6 66 -110 88q-47 11 -47 34z" />
<glyph unicode="V" horiz-adv-x="1343" d="M-2 1300q0 27 61 27q12 0 85 -5t130 -5q39 0 111 2t92 2q49 0 49 -25q0 -29 -49 -36q-51 -10 -75.5 -28t-23.5 -35t3 -36q27 -80 150.5 -401.5t179.5 -454.5q14 -14 20 -2q6 18 69 165l144 342l119 284q18 41 19 69.5t-16 47t-37.5 27.5t-59.5 22q-45 12 -45 36.5 t59 24.5q20 0 73.5 -2t90.5 -2q33 0 98.5 4t85.5 4q59 0 60 -27q0 -23 -54 -34q-66 -16 -105.5 -54.5t-72.5 -107.5l-78 -165t-94 -204l-98 -233q-162 -391 -193 -496q-16 -47 -43 -47q-10 0 -20 11.5t-12 27.5q-29 137 -107 334q-174 465 -295 755q-31 80 -69.5 121 t-104.5 60q-47 16 -47 34z" />
<glyph unicode="W" horiz-adv-x="2021" d="M-4 1300q0 23 53 23q45 0 111.5 -3t107.5 -3q27 0 96.5 3t75.5 3q51 0 52 -25q0 -23 -56 -38q-68 -18 -67 -61q0 -10 4 -21q197 -483 401 -922q2 -4 7 -5t10 3q53 86 176 362q6 14 -2 29l-197 451q-45 94 -68.5 120.5t-83.5 43.5q-51 14 -51 36.5t60 22.5q8 0 69.5 -1 t98.5 -1q55 0 125 2l69 4q51 0 51 -23q0 -31 -49 -38q-63 -12 -75 -31q-4 -6 -3 -16q0 -19 15 -52q27 -68 147 -336q4 -12 17 0q63 127 129 281q23 60 22 91q0 14 -4 23q-14 28 -82 44q-16 4 -29.5 14t-13.5 16q0 25 59 25q14 0 60.5 -2t83.5 -2q35 0 94 2t74 2q45 0 45 -21 q0 -25 -58 -38q-55 -14 -85.5 -42t-73.5 -106q-68 -115 -195 -364q-6 -20 6 -35q133 -315 205 -447q8 -25 23 0l374 836q21 49 22 80q0 14 -4 24q-13 35 -83 56q-47 14 -47 32q0 25 53 25q25 0 73 -2t66 -2q31 0 96.5 3t98.5 3q53 0 53 -23q0 -25 -51 -36q-61 -12 -98 -44 t-78 -112q-2 -2 -37 -71l-70 -137l-88 -181l-100 -217l-207 -484q-6 -16 -23.5 -31.5t-29.5 -15.5q-18 0 -31 39q-14 51 -49 136t-92.5 211t-77.5 175q-10 14 -16 5q-199 -416 -238 -531q-6 -16 -21.5 -31.5t-25.5 -15.5q-20 0 -37 39q-59 166 -127 326q-223 545 -342 774 q-8 14 -22.5 43.5t-20.5 39t-19.5 28t-24.5 25.5t-30.5 15t-46.5 15q-53 7 -53 36z" />
<glyph unicode="X" horiz-adv-x="1421" d="M47 1302.5q0 24.5 59 24.5q16 0 112.5 -5t135.5 -5q43 0 96.5 2t79.5 2q49 0 49.5 -22.5t-47.5 -34.5q-49 -14 -49 -46q0 -14 11 -32q49 -86 141 -231.5t117 -170.5q4 -4 11 -6t9 2q53 59 152.5 194.5t126.5 184.5q12 24 11 41q0 15 -9 25q-20 20 -82 35q-51 10 -51 34 q0 27 59 27q31 0 93.5 -2t88.5 -2q25 0 109 3t106 3q18 0 33.5 -7t13.5 -16q0 -25 -45 -36q-82 -16 -138 -49t-114 -103q-238 -279 -317 -389q-4 -10 0 -25q8 -23 133 -209l174 -256q51 -66 72.5 -90t63.5 -49.5t110 -42.5q49 -12 49 -39q0 -25 -61 -24q-31 0 -124 6t-163 6 q-33 0 -97.5 -4t-72.5 -4q-51 0 -51 26q0 23 45 35q63 16 78 27q23 16 8 37q-41 74 -150.5 243.5t-128.5 186.5q-14 14 -20 6q-129 -158 -225 -299q-47 -72 -55.5 -111t8 -54t63.5 -32q49 -16 49 -37q0 -27 -51 -26q-25 0 -100.5 3t-110.5 3q-47 0 -121 -5t-92 -5 q-53 0 -53 22q0 33 77 47q68 12 133.5 52.5t106.5 85.5q164 180 326 403q12 18 6 29q-12 33 -133 220t-197 292q-70 96 -203 125q-55 12 -55 36.5z" />
<glyph unicode="Y" horiz-adv-x="1273" d="M6 1305q0 23 55 22q8 0 92.5 -5t141.5 -5q25 0 68 2t88 2t45 -23q0 -27 -45 -38q-55 -13 -55 -39q0 -21 24 -56q45 -86 268 -448q2 -4 10.5 -3t10.5 7q53 78 264 422q21 38 21 60q0 11 -5 19q-14 24 -76 38q-43 12 -43 40q0 18 48 19q27 0 68.5 -1t64.5 -1q43 0 130 4 t97 4q43 0 43 -20.5t-53 -36.5q-119 -31 -224 -160q-57 -72 -160.5 -231.5t-111.5 -169.5q-51 -74 -51 -125q0 -336 12 -435q6 -35 35 -55t111 -41q55 -14 55 -36.5t-62 -22.5q-12 0 -81.5 4t-96.5 4q-74 0 -178 -6t-108 -6q-51 0 -52 22q0 27 58 37q129 29 133 98 q6 84 6 424q0 25 -18 74q-57 123 -261 430q-74 111 -109.5 144.5t-101.5 48.5q-57 12 -57 39z" />
<glyph unicode="Z" horiz-adv-x="1269" d="M641 1313q375 0 451 10q35 6 34 -10q0 -23 -24 -51q-14 -14 -180 -250l-576 -889q-10 -14 8 -27q37 -23 305 -22q223 0 261 6q78 10 120.5 41t133.5 155l12 17.5t12 15.5t9 10.5t9.5 8.5t10.5 2q18 0 18 -45q0 -35 -102 -260q-18 -35 -119 -35q-90 0 -390 4t-339 4h-195 q-12 0 -23 8t-11 21q0 8 10 23.5t36.5 50l41.5 55.5q55 74 354 526.5t336 519.5q6 10 3 18.5t-11 10.5q-100 10 -371 10q-102 0 -150 -10q-115 -27 -184 -156q-23 -45 -45 -45q-6 0 -12 7t-7 22.5t7 40.5q2 4 18 48l36 99q19 55 28 94q4 27 26 27q18 0 33 -18 q25 -25 102 -31q166 -6 324 -6z" />
<glyph unicode="[" horiz-adv-x="700" d="M287 1473h264q49 0 49 -29q0 -12 -16.5 -23.5t-34.5 -13.5q-14 0 -95 -7t-92 -7q-12 0 -21 -16.5t-11 -35.5q-8 -154 -8 -690q0 -68 14 -852q2 -98 37 -102q141 -16 194 -16q14 0 34 -10.5t20 -24.5q0 -29 -60 -29q-8 0 -75.5 -2t-100.5 -2q-35 0 -80 -1t-47 -1 q-20 0 -26.5 14.5t-6.5 57.5v1245v260q0 113 -1 166t-1 55q0 47 15 57q6 7 49 7z" />
<glyph unicode="\" horiz-adv-x="743" d="M670 -102q2 -6 -3 -16.5t-16 -12.5q-25 -6 -37 -6q-25 -4 -32 24l-504 1424q-6 23 12 28q37 10 55 11q14 0 27 -25z" />
<glyph unicode="]" horiz-adv-x="700" d="M416 -387q-72 0 -155 -1t-89 -1q-29 0 -49.5 10t-20.5 21q0 12 18.5 24t49.5 15q12 2 79.5 7t88.5 7q29 4 31 43q8 156 8 698q0 55 -15 848q0 102 -34 105q-41 4 -103.5 11l-79.5 9q-59 8 -59 33q0 14 19.5 23.5t46.5 9.5q2 0 65.5 -1t98 -1t82.5 1t51 1q29 0 28 -72 v-1247q0 -145 1 -262t1 -176v-60q0 -29 -10 -39q-6 -6 -53 -6z" />
<glyph unicode="^" horiz-adv-x="960" d="M483 1315q12 0 33 -25.5t35 -52.5l305 -596q16 -31 2 -45q-20 -20 -49 -31.5t-41 4.5l-274 564q-14 20 -23 2l-283 -572q-6 -4 -17 -5t-31.5 9.5t-37.5 26.5q-12 14 0 41l308 596q40 84 73 84z" />
<glyph unicode="_" horiz-adv-x="1013" d="M0 -254h1014v-100h-1014v100z" />
<glyph unicode="`" horiz-adv-x="819" d="M279 1335q23 0 53 -71q82 -170 125 -299q16 -51 -8.5 -51.5t-47.5 32.5q-102 133 -190 287q-18 31 -18 55q0 23 32 35q25 12 54 12z" />
<glyph unicode="a" horiz-adv-x="813" d="M426 827q119 0 184 -96q41 -57 41 -170q0 -47 -4 -201.5t-4 -158.5q0 -43 18.5 -67.5t34 -30t29.5 -5.5q35 0 78 31q6 4 12 -6q6 -6 6 -21q0 -33 -60.5 -80t-123.5 -47q-98 0 -131 103q0 2 -5 6t-7 2q-96 -68 -185 -94q-35 -12 -82 -12q-55 0 -98 57t-43 133q0 55 39 104 q16 20 82 52q18 6 122 36l117 35q59 18 60 37q4 37 4 168q0 45 -45 91t-115 46q-53 0 -84 -22q-17 -8 -16 -49q0 -15 2 -35q0 -10 -12 -23q-14 -12 -69.5 -39.5t-64 -27.5t-16.5 9t-8 17q0 80 154 181q43 31 101 54t89 23zM365 86q45 0 110 35q8 6 16.5 25.5t8.5 25.5 q4 49 4 160q0 16 -17 16q-84 0 -211 -61q-41 -29 -40 -78q0 -59 43 -91t86 -32z" />
<glyph unicode="b" d="M930 428q0 -223 -178 -360q-111 -92 -279 -93q-51 0 -137 14.5t-123 26.5q-16 8 -43 -6q-12 -6 -24.5 -6t-12.5 27q12 193 12 680q0 455 -10 526q-6 33 -51 70q-41 31 -41 39q0 2 10 14t15 14q154 55 168 64q39 25 51 24q6 0 14 -10t8 -16q-18 -406 -18 -494 q0 -154 4 -176q0 -2 5 -6t7 -2q104 70 234 69q152 0 254 -90q135 -114 135 -309zM760 385q0 61 -25.5 136t-75.5 128q-88 88 -223 88q-82 0 -123 -30q-12 -8 -16 -31q-4 -37 -4 -119q0 -152 16 -328q2 -66 41 -102q39 -41 97.5 -63.5t93.5 -22.5q49 0 125 70 q41 39 67.5 120.5t26.5 153.5z" />
<glyph unicode="c" horiz-adv-x="802" d="M532 821q131 0 191 -47q31 -20 31 -61q0 -23 -30 -52.5t-38 -29.5q-23 0 -80 39q-6 4 -21 15l-20 14l-17 12.5t-18.5 12.5t-16.5 8t-18 7l-18 5q-10 3 -20.5 4.5t-22.5 1.5q-27 0 -65.5 -20.5t-61.5 -49.5q-86 -96 -86 -236q0 -125 53 -204q39 -63 109 -100.5t149 -37.5 q94 0 183 62q10 8 19 9t14.5 -1t5.5 -8q0 -33 -27 -60q-53 -59 -133 -93t-162 -34q-94 0 -173 44.5t-130 119.5q-63 104 -63 240q0 221 198 354q55 39 137 62.5t131 23.5z" />
<glyph unicode="d" horiz-adv-x="1021" d="M553 827q82 0 131 -8q6 -2 10 5t6 18q5 40 6 166v45q-1 164 -8 207q-8 37 -96 83q-20 12 -20 18.5t13 20t21 15.5q90 12 209 57q18 6 27 6q6 0 12 -10t4 -23q-18 -195 -18 -809q0 -350 6 -466q2 -84 31 -84q12 0 58 8t52 8q12 0 13 -12q0 -10 -13.5 -29.5t-21.5 -22.5 q-127 -20 -184 -40q-59 -20 -74 -21q-6 0 -14.5 9t-8.5 17.5t2 38t2 46.5q0 12 -12 12q-115 -102 -266 -102q-150 0 -256 112q-98 111 -98 281q0 248 217 377q127 77 270 77zM477 760q-88 0 -160 -72q-33 -33 -59.5 -105.5t-26.5 -152.5q0 -131 83 -241.5t208 -110.5 q82 0 150 49q2 2 9 21.5t15.5 52t8.5 61.5v77q0 149 -7 263q-4 37 -45 78q-80 80 -176 80z" />
<glyph unicode="e" horiz-adv-x="802" d="M469 825q125 0 203 -77q72 -68 71 -173q0 -10 -11 -22t-27 -12q-373 0 -467 2q-10 0 -17 -17q-10 -27 -10 -71q0 -131 78 -234q35 -49 97.5 -80.5t131.5 -31.5q137 0 187 73q16 25 26 25q16 0 16.5 -24.5t-14.5 -49.5q-104 -154 -297 -153q-166 0 -267 113.5t-101 293.5 q0 127 64.5 237.5t180.5 163.5q80 37 156 37zM449 772q-70 0 -124 -40q-29 -21 -56.5 -54t-27.5 -63q0 -4 2 -9q3 -8 7 -8q45 -2 111 -2t153 2q39 0 54.5 10t15.5 41q0 45 -41 84t-94 39z" />
<glyph unicode="f" horiz-adv-x="602" d="M356 799h114h93l35 2q10 0 19.5 -26.5t9.5 -59.5q0 -4 -11.5 -12.5t-19.5 -8.5q-6 0 -116.5 3t-123.5 3q-2 0 -8 -6t-6 -10q-1 -14 -1 -80t1 -183q2 -234 6 -261q6 -55 29.5 -74.5t107.5 -34.5q47 -8 47 -31q0 -25 -53 -24q-8 0 -74.5 2t-95.5 2q-43 0 -121.5 -5 t-83.5 -5q-51 0 -51 22q0 16 43 33q63 18 76.5 41t15.5 96q4 168 5 441q0 76 -21 75q-63 0 -86 -4q-8 0 -15.5 12.5t-2.5 22.5q0 4 14 12l40 24q26 15 46 32q27 23 27 34q6 199 51 306q66 156 184 241q113 84 234 84q84 0 131 -39q35 -29 34 -69q0 -23 -17 -50.5t-38 -35.5 q-16 -6 -37 -6q-14 0 -55 41q-72 63 -143 63q-76 0 -127 -84q-37 -66 -52.5 -166t-15.5 -299q0 -18 12 -18z" />
<glyph unicode="g" horiz-adv-x="851" d="M420 836q76 0 178 -25l30 -6q19 -4 27 -6q4 0 108.5 -5.5t129.5 -11.5q18 -4 18 -22q0 -20 -14 -43t-23 -23q-86 0 -137 4q-6 0 -10 -6t-2 -10q16 -49 16 -102q0 -170 -114 -258q-100 -78 -224 -78q-6 0 -34.5 1t-36.5 1q-20 4 -31 -2q-16 -8 -40.5 -33t-24.5 -37 q0 -35 30.5 -62.5t52.5 -29.5q27 -2 116 -4t161 -5t100 -7q41 -6 99 -50q86 -74 86 -180q0 -190 -193 -315q-135 -88 -295 -88q-154 0 -256 75q-43 33 -68.5 83.5t-25.5 95.5q0 41 13.5 71.5t20.5 36.5l25 21q29 25 80 63l62 47q6 6 -6 15l-33 14q-31 14 -47 27 q-70 49 -70 151q0 8 10 19q10 8 71.5 48t80.5 58q4 4 -8 18q-156 88 -156 261q0 141 125 233q88 66 209 66zM403 786q-27 0 -57.5 -16t-44.5 -35q-53 -57 -53 -182q0 -88 55 -172t148 -84q23 0 67 29q37 23 57.5 86t20.5 131q0 86 -45 153q-62 90 -148 90zM469 -481 q94 0 162 37q113 74 112 190q0 68 -28 107q-37 49 -109 63q-55 10 -207 10q-80 0 -110 -20q-45 -31 -68.5 -79t-23.5 -89q0 -94 71 -156q82 -63 201 -63z" />
<glyph unicode="h" horiz-adv-x="1050" d="M594 827q150 0 217 -94q59 -80 59 -221l5.5 -193.5t3.5 -185.5q0 -37 18 -53.5t61 -26.5q57 -12 58 -33q0 -27 -55 -26q-35 0 -81 3t-81 3q-23 0 -70 -2t-78 -2q-41 0 -41 24q0 18 43 29q39 12 49.5 27.5t16.5 73.5v296q0 166 -33 205q-57 68 -166 68q-39 0 -79 -10.5 t-59.5 -20.5t-25.5 -16q-31 -31 -32 -101q-4 -59 -6 -218v-93q0 -81 1 -115q2 -47 20.5 -64.5t59.5 -27.5q45 -12 45 -33q0 -25 -51 -24q-4 0 -71.5 2t-96.5 2q-25 0 -82 -3t-73 -3q-47 0 -47 26q0 18 59 35q41 14 58.5 38t21.5 79q20 287 20 848q0 164 -6 209q-4 39 -14 52 t-53 42q-20 10 -21 41l6 10q172 49 205 72q29 14 39 14q12 0 12 -22q-12 -94 -20 -353.5t-8 -363.5q0 -6 3 -9t6 -3h5q131 118 258 118z" />
<glyph unicode="i" horiz-adv-x="518" d="M92 731q0 27 41 35q45 10 121 39t82 31q6 0 12 -10.5t6 -12.5q0 -6 -3 -84t-6 -174t-3 -147q0 -129 4 -273q0 -16 5 -28.5t9.5 -19.5t17.5 -14t17 -9.5t24.5 -7.5t24.5 -7q45 -14 45 -34.5t-47 -20.5q-4 0 -69.5 3t-89.5 3q-37 0 -98.5 -4t-75.5 -4q-53 0 -54 22 q0 18 49 33q74 18 82.5 57t8.5 211q0 307 -2 320q-2 14 -84 74q-17 10 -17 22zM279 1243q39 0 64.5 -33.5t25.5 -66.5q0 -39 -33 -70t-66 -31q-37 0 -65 25q-31 35 -31 76t25 74q29 26 80 26z" />
<glyph unicode="j" horiz-adv-x="481" d="M68 725q0 18 34 31q145 43 193 67q18 10 35 11q2 0 8 -9.5t6 -13.5q-2 -66 -6 -393.5t-4 -347.5q-6 -238 -90 -379q-74 -127 -193 -211q-49 -37 -69 -37q-33 0 -45 10q-4 5 -4 11t6 12q98 61 131 102q111 139 110 512q0 483 -8 543q-4 29 -84 72q-20 10 -20 20zM244 1260 q55 0 81.5 -36t26.5 -67q0 -49 -32.5 -75.5t-67.5 -26.5q-29 0 -62.5 30.5t-35.5 69.5q0 49 39 84q20 21 51 21z" />
<glyph unicode="k" horiz-adv-x="980" d="M537 799h96q76 0 163 12t113 12q14 0 15 -14q0 -16 -15.5 -29.5t-25.5 -15.5q-80 -18 -122 -37.5t-116 -71.5q-41 -31 -99.5 -87t-66.5 -68q-6 -12 -2 -21q49 -59 163 -184t167 -178q59 -55 139 -74q49 -12 49 -33q0 -25 -51 -24q-16 0 -105 6t-151 6h-92q-51 0 -51 27 q0 18 45 28q38 9 38 31q0 12 -12 27q-8 12 -44 51l-90 98l-97 111q-39 47 -51 47q-10 0 -10 -17q-7 -16 -8 -105v-24q1 -111 10 -155q4 -31 19 -44.5t56 -23.5q45 -12 45 -31q0 -23 -49 -22q-25 0 -84 2t-86 2q-39 0 -96 -4t-76 -4q-47 0 -47 22q0 16 47 31q59 14 79 31.5 t28 58.5q14 68 14 703q0 326 -12 432q0 16 -62 53q-27 20 -26 29q0 16 26 26q2 0 29 7.5t48.5 14.5t52 18.5t49.5 23.5q31 18 41 18q4 0 10 -10t4 -16q-18 -88 -19 -754q0 -188 6.5 -206.5t16.5 -18.5t41 26q182 172 217 221q2 6 4 13.5t-18.5 16.5t-63.5 16q-18 2 -18 14 q0 8 12.5 22.5t22.5 14.5z" />
<glyph unicode="l" horiz-adv-x="499" d="M84 1352q0 20 29 28q27 10 63.5 21.5t57 18.5t45 17.5t45.5 22.5q1 0 1 1q4 0 10 -7q7 -8 7 -14q-18 -154 -18 -557q0 -713 6 -746q6 -35 24.5 -54.5t79.5 -35.5q47 -12 47 -31q0 -23 -53 -22q-27 0 -92.5 3t-81.5 3q-25 0 -92.5 -3t-87.5 -3q-57 0 -58 22q0 20 45 29 q66 14 83.5 44t21.5 116q14 272 14 622q0 86 -3 248t-3 180q0 27 -49 58q-41 29 -41 39z" />
<glyph unicode="m" horiz-adv-x="1560" d="M106 719q0 14 41 37q29 12 83.5 41.5t72.5 42.5q10 8 16 8q6 -2 15.5 -9.5t9.5 -11.5q0 -16 -4 -57t-4 -51q0 -4 3 -10.5t9 -1.5q49 41 129 80.5t146 39.5q102 0 159 -41q37 -29 70 -77q4 -8 16 -9q2 0 70 41t80 45q63 31 123 31q106 0 176 -69q61 -70 67 -197 q4 -53 5 -410q4 -74 88 -96q39 -12 39 -29q0 -23 -58 -22q-18 0 -69.5 3t-77.5 3q-33 0 -75 -2t-65 -2q-51 0 -51 27q0 14 45 26q47 14 60.5 37t13.5 80q0 23 -2 162t-2 176q0 84 -33 135q-45 74 -155 74q-90 0 -158 -58q-4 -4 -12.5 -26.5t-8.5 -32.5v-444q4 -51 19.5 -71 t66.5 -32q43 -12 43 -29q0 -25 -49 -24q-23 0 -76 2t-77 2q-20 0 -71.5 -2t-74.5 -2q-53 0 -53 24q0 18 41 29q51 12 64.5 32.5t13.5 78.5v403q0 70 -27 105q-47 61 -153 61q-88 0 -164 -57q-20 -16 -23 -54q-4 -51 -4 -473q0 -70 74 -92q55 -18 55 -37q0 -20 -55 -20 q-2 0 -26.5 1t-62.5 2t-73 1q-37 0 -85 -3t-69 -3q-51 0 -51 22q0 20 49 31q47 12 63.5 39t22.5 96q6 88 7 408q0 41 -15 55q-72 68 -72 74z" />
<glyph unicode="n" horiz-adv-x="1067" d="M109 729q0 25 36 41q106 37 138 59q37 23 49 23q6 0 13 -11.5t7 -19.5q0 -18 -4 -57t-4 -45t12 -6q166 113 275 112q119 0 186 -77q72 -84 72 -250q0 -287 6 -373q6 -53 76 -72q51 -14 51 -35q0 -23 -61 -22q-23 0 -72 2t-80 2q-29 0 -80 -2t-61 -2q-47 0 -47 24 q0 18 47 35q37 14 49 32.5t14 70.5q6 100 6 374q0 51 -19.5 93.5t-41.5 58.5q-53 39 -131 39q-109 0 -183 -66q-20 -20 -20 -49q0 -467 2 -491.5t16.5 -37.5t59.5 -26q37 -10 37 -30q0 -25 -51 -25q-10 0 -55.5 1t-69.5 1q-43 0 -100.5 -3t-69.5 -3q-53 0 -54 26q0 18 43 31 q49 14 65.5 37t20.5 78q10 102 11 448q0 39 -50 80q-38 27 -38 35z" />
<glyph unicode="o" horiz-adv-x="987" d="M512 827q162 0 286 -116.5t124 -300.5q0 -117 -55.5 -213.5t-123.5 -139.5q-113 -82 -254 -82q-145 0 -272 107q-66 53 -108.5 144t-42.5 169q0 199 143 320q129 112 303 112zM473 766q-63 0 -133 -59q-41 -39 -70.5 -112t-29.5 -151q0 -104 24 -182q37 -109 112 -168 t154 -59q57 0 125 67q37 41 65 122t28 149q0 195 -103 313q-74 80 -172 80z" />
<glyph unicode="p" horiz-adv-x="1015" d="M627 823q55 0 117.5 -31.5t109.5 -82.5q96 -109 96 -269q0 -90 -42 -187t-132 -165q-133 -104 -325 -104q-61 0 -115 8q-14 0 -14 -27q0 -264 8 -340q4 -43 23.5 -63.5t74.5 -38.5q57 -16 57 -37q0 -27 -53 -27q-18 0 -108.5 5.5t-135.5 5.5q-23 0 -60.5 -3.5t-70.5 -3.5 q-61 0 -61 27q0 23 47 31q80 16 100.5 47t26.5 141q6 102 6 445v413q0 94 -16 105q-76 55 -76 65q0 8 11 21.5t18 15.5q61 16 155 72q37 18 41 18t13.5 -9t9.5 -15q-2 -20 -4 -60.5t-2 -44.5q0 -6 5 -10t11 0q70 47 133 74q56 24 152 24zM520 719q-121 0 -166 -37 q-18 -14 -26 -61q-8 -45 -10 -176v-35q0 -103 6 -158q8 -66 26 -90q39 -53 99.5 -83t105.5 -30q53 0 94 35q68 57 103.5 149.5t35.5 151.5q0 158 -83 250q-37 39 -91.5 61.5t-93.5 22.5z" />
<glyph unicode="q" horiz-adv-x="1001" d="M516 827q109 0 176 -20q68 -23 78 -23q14 0 49 33q31 27 49 27q4 0 8.5 -5t5.5 -13.5t-3 -22.5q-23 -76 -23 -723q0 -307 6 -440q2 -57 19.5 -77t87.5 -32q14 -2 29.5 -11t15.5 -20q0 -27 -51 -26q-92 0 -226.5 -12.5t-167.5 -12.5q-51 0 -51 24.5t51 32.5q45 8 73 20.5 t40 30t15 30t5 34.5q10 109 11 410q0 10 -3 16t-8 4q-152 -76 -235 -76q-180 0 -299 123q-47 49 -74.5 128t-27.5 155q0 145 67.5 238.5t147.5 138.5q47 29 116.5 49t118.5 20zM467 764q-72 0 -119 -43q-113 -98 -112 -293q0 -164 102 -272q88 -88 231 -88q23 0 64 10t59 24 q6 2 13.5 27t7.5 37q0 262 -11 369q-2 18 -14 62t-20 56q-31 47 -88.5 79t-112.5 32z" />
<glyph unicode="r" horiz-adv-x="696" d="M104 721q0 25 27 35q94 31 152 65q37 25 41 25q6 0 12 -9.5t6 -15.5q0 -18 -2 -55t-2 -57q0 -6 5 -8.5t9 -0.5q133 127 234 127q55 0 78.5 -23.5t23.5 -45.5q0 -8 -12 -29q-55 -80 -84 -94q-10 -6 -29 6q-49 45 -112.5 45t-90.5 -29q-20 -23 -20 -45q0 -258 12 -442 q6 -96 54 -104q14 -4 94 -25q37 -12 37 -33q0 -18 -50 -18q-16 0 -95 5t-146 5q-33 0 -73 -4t-62 -4q-43 0 -43 24q0 12 41 27q59 20 72.5 48t15.5 122v391q0 47 -23 62q-12 10 -26 19l-20 14l-13 10q-6 4 -8.5 7t-2.5 5z" />
<glyph unicode="s" horiz-adv-x="657" d="M379 827q59 0 104 -12q33 -6 66 -22q16 -8 16 -29t3 -69t3 -52q0 -37 -24 -37q-14 0 -31 35q-63 137 -164 137q-57 0 -90 -43t-33 -84q0 -49 47.5 -94t155.5 -104q160 -94 160 -230q0 -115 -119 -200q-72 -47 -172 -48q-51 0 -112.5 12.5t-86.5 32.5q-6 10 -18 63.5 t-12 92.5q0 43 16 43t43 -47q80 -145 186 -145q39 0 82 30q47 37 47 113q0 80 -92 137q-86 61 -125 86q-127 80 -127 207q0 117 113 184q68 43 164 43z" />
<glyph unicode="t" horiz-adv-x="659" d="M336 799q20 0 80.5 2t115 4t56.5 2t12 -6t10 -10l6 -76v-2q0 -23 -53 -23h-223q-6 0 -12 -5t-6 -9q-4 -82 -5 -440q0 -66 35 -101q43 -39 125 -39q49 0 101 31q23 12 30 12q12 0 12.5 -22.5t-28.5 -50.5q-94 -90 -219 -91q-59 0 -109.5 30t-70.5 67q-27 41 -27 135 q0 39 4 229.5t4 225.5q0 18 -78 40q-29 10 -28 23q0 10 12 23q139 111 164 141q39 45 47 45q6 0 17 -9.5t11 -13.5v-96q1 -16 17 -16z" />
<glyph unicode="u" horiz-adv-x="1019" d="M504 78q74 0 155 72q31 27 31 49l4 471q0 8 -12 24.5t-23 20.5q-82 23 -94 24q-41 12 -41 33q0 6 15.5 12.5t31.5 6.5q133 0 220 22q27 8 49 8q14 0 14 -30q-4 -53 -12 -310.5t-8 -369.5q0 -6 7 -17.5t17 -11.5q6 0 47 5t56 5q12 0 24 -39q0 -4 -8 -12t-14 -8 q-53 -4 -187 -39q-63 -18 -71 -19q-6 0 -13.5 9.5t-7.5 19.5q0 6 3 37t5 49q0 8 -3 12t-7 2q-131 -90 -168 -104q-59 -25 -137 -25q-119 0 -180 97q-29 45 -29 96q0 379 -4 487q0 12 -2 21.5t-8.5 16.5t-9.5 12.5t-12 10.5t-13 7t-16.5 6t-14.5 6q-37 16 -37 37q0 18 35 19 q25 0 77 6l95 11q43 5 45 5q16 0 16 -31q1 -13 1 -48q0 -70 -3 -229q-4 -239 -4 -272q0 -78 52 -114q53 -41 139 -41z" />
<glyph unicode="v" horiz-adv-x="866" d="M-16 786q0 23 49 23q20 0 90 -5t80 -5q31 0 75 2t52 2q47 0 47 -23q0 -16 -45 -30q-49 -13 -49 -48q0 -10 4 -22q41 -123 105.5 -272.5t76.5 -159.5q6 -10 16 8q117 281 156 412q12 39 -1 54t-62 34q-33 12 -33 26q0 23 41 23q18 0 51 -3t59 -3q18 0 68.5 5t71.5 5 q41 0 41 -23q0 -14 -43 -30q-51 -20 -103 -80q-12 -20 -38.5 -79.5t-68.5 -162.5l-61 -145q-23 -55 -92 -275q-8 -25 -22.5 -39t-26.5 -14q-16 0 -27 37q-47 143 -73 209q-115 307 -213 481q-27 51 -86 68q-39 12 -39 30z" />
<glyph unicode="w" horiz-adv-x="1339" d="M186 799q27 0 78 3t66 3q53 0 53 -23q0 -20 -51 -32q-45 -9 -45 -45q0 -15 8 -35q18 -57 91 -245.5t85 -209.5q10 -20 18 0q45 90 144 311q10 23 10 41q-8 51 -33 99q-16 29 -23 40t-23.5 25t-39.5 21q-45 14 -45 32q0 20 49 21q12 0 61.5 -3t76.5 -3q18 0 69 3t74 3 q49 0 49 -23q0 -25 -49 -32q-59 -14 -59 -45q0 -6 24 -74q2 -8 34 -92l69 -179l55 -139q6 -23 18 2q18 39 137 342q35 92 35 123q0 45 -80 64q-47 16 -47 32q0 20 47 21q10 0 60.5 -3t66.5 -3q39 0 89.5 5t62.5 5q43 0 43 -21q0 -18 -47 -30q-25 -8 -39 -14.5t-29.5 -25 t-17.5 -21.5t-23 -38q-66 -117 -196 -440q-76 -186 -86 -221q-8 -25 -27 -25q-16 0 -39 31l-12 36l-22 61l-19 55l-127 313q-2 4 -7 3t-7 -5q-125 -262 -187 -414q-31 -84 -51 -84q-27 0 -37 31q-10 25 -61 176q-51 150 -176 438q-29 66 -52.5 96.5t-62.5 41.5 q-51 10 -51 30q0 25 59 25q16 0 65 -4t74 -4z" />
<glyph unicode="x" horiz-adv-x="872" d="M31 793q0 18 53 18q10 0 79.5 -6t98.5 -6q23 0 64 2t57 2q45 0 45 -19q0 -25 -39 -34q-41 -12 -41 -43q0 -8 43 -82t66 -107q4 -8 14 2q66 86 109 168q14 25 10 35t-25 18q-55 23 -55 39q0 23 41 23q8 0 37.5 -2t50.5 -2q27 0 95.5 5t82.5 5q43 0 43 -23q0 -12 -39 -28 q-127 -35 -178 -99q-80 -98 -143 -188q-6 -12 -2 -22q63 -139 170 -291q63 -90 155 -113q47 -10 47 -31q0 -25 -49 -24q-35 0 -108.5 5t-112.5 5q-20 0 -52 -2t-52 -2q-43 0 -43 27q0 16 39 26q23 8 30.5 13.5t7.5 22.5t-18 46q-86 164 -100 176q-6 8 -15 0 q-27 -27 -77 -104.5t-52 -98.5q0 -37 54 -57q29 -10 28.5 -30.5t-43.5 -20.5q-23 0 -48.5 2t-39.5 2q-37 0 -93 -4t-73 -4q-59 0 -59 22q0 20 51 33q96 27 154 94q23 27 84 112t86 116q6 8 0 20q-41 90 -142 244q-66 98 -143 123q-53 14 -53 37z" />
<glyph unicode="y" horiz-adv-x="847" d="M-10 780q0 25 49 25q25 0 77 -4t83 -4q33 0 84 2t59 2q45 0 45 -22.5t-47 -35.5q-43 -12 -50 -25t7 -54q23 -70 94.5 -246t83.5 -197q2 -2 4 -2t6 2t7 8q18 39 85.5 215.5t75.5 202.5q7 20 7 36q0 18 -9 29q-16 22 -76 36q-43 10 -43 28q0 25 52 25q20 0 64 -2t56.5 -2 t55.5 4t74 4q41 0 40 -19q0 -20 -45 -34q-61 -20 -100 -107q-94 -213 -225 -545l-213 -571q-6 -23 -36 -40t-71 -17q-47 0 -69.5 30.5t-22.5 69.5q0 31 25.5 60.5t64.5 29.5q4 0 33 -1t41 -1q16 0 31 35q12 23 49 123t49 141q8 40 8 59q0 10 -2 15q-2 2 -31 84 q-33 92 -109.5 275t-123.5 278q-8 18 -13 25t-15.5 18.5t-27 19.5t-40.5 17q-41 14 -41 30z" />
<glyph unicode="z" horiz-adv-x="802" d="M418 799q82 0 174 4t110 4q8 0 17 -6q18 -14 6 -31q-4 -6 -48 -62.5t-75 -101.5q-41 -59 -313 -502q-6 -6 -3 -12t9 -8q12 -4 106.5 -10t155.5 -6q25 0 49 24q51 51 101 121q31 45 43 45q18 0 17 -24q0 -7 -1 -15q-2 -10 -24.5 -86t-30.5 -119q0 -6 -10.5 -15t-16.5 -9 q-4 0 -86 3t-180.5 5t-141.5 2q-2 0 -190 -8q-6 0 -16.5 10t-10.5 18.5t144 219.5q53 72 299 471q8 12 -6 16q-43 12 -265 12q-14 0 -54 -43t-66 -86q-16 -33 -31 -32q-6 0 -13.5 11t-7.5 23q0 20 17 70q20 68 20 127q0 10 6 16q11 10 18 10q3 0 5 -1q47 -35 106 -35h187z " />
<glyph unicode="{" horiz-adv-x="700" d="M76 608q104 23 151 77t47 122q0 37 -26.5 181.5t-26.5 172.5q0 49 32 121t95 123q123 94 246 94q37 0 37 -18q0 -6 -9.5 -22.5t-15.5 -18.5q-2 0 -14 -3l-30.5 -7.5t-29.5 -6.5q-178 -45 -178 -252q0 -41 28 -157.5t28 -171.5q0 -70 -57.5 -133.5t-145.5 -110.5 q-16 -10 -2 -18q113 -57 160 -126t47 -161q0 -84 -45 -277q-23 -92 -23 -114q0 -182 254 -238q27 -4 27 -16q0 -16 -16.5 -26.5t-33.5 -10.5q-168 0 -266 108.5t-98 245.5q0 18 25.5 156.5t25.5 185.5q0 100 -30.5 147.5t-116.5 73.5q-29 10 -46.5 27.5t-17.5 30.5 q0 16 25 22z" />
<glyph unicode="|" horiz-adv-x="530" d="M203 1522h125v-2030h-125v2030z" />
<glyph unicode="}" horiz-adv-x="700" d="M596 547q-106 -23 -153.5 -78t-47.5 -121q0 -41 25.5 -209t25.5 -190q0 -53 -29.5 -123t-92.5 -121q-119 -94 -234 -94q-14 0 -25.5 8t-11.5 19q0 14 23 26q27 14 82 31q156 39 155 244q0 41 -25.5 179t-25.5 193q0 72 59.5 139.5t147.5 110.5q12 8 0 14 q-117 57 -163 125t-46 164q0 86 43 232q20 90 21 112q0 98 -61.5 146.5t-190.5 89.5q-25 10 -25 18q0 10 17.5 23.5t29.5 13.5q168 0 266.5 -107.5t98.5 -246.5q0 -16 -24.5 -134t-24.5 -163q0 -100 29.5 -148.5t115.5 -74.5q63 -23 63 -52q1 -16 -22 -26z" />
<glyph unicode="~" horiz-adv-x="1277" d="M432 692q68 0 150 -57t156.5 -115.5t119.5 -58.5q74 0 113 47t88 168q8 18 22 18q25 0 51.5 -18.5t18.5 -38.5q-45 -133 -124 -215t-179 -82q-72 0 -153 58.5t-153.5 116.5t-121.5 58q-55 0 -99.5 -47t-93.5 -155q-14 -31 -26 -31q-18 0 -48 17.5t-24 35.5 q41 125 117.5 212t185.5 87z" />
<glyph unicode="&#xa1;" horiz-adv-x="552" d="M252 -360q-61 0 -86 54t-25 116q2 39 34 311t38 315q2 23 14.5 42.5t28.5 19.5q33 0 37 -70q2 -18 32.5 -272t36.5 -349q6 -84 -31.5 -125.5t-78.5 -41.5zM256 670q-59 0 -90 41t-31 84q0 51 35 88t88 37q47 0 84 -32t37 -95q0 -61 -41 -92t-82 -31z" />
<glyph unicode="&#xa2;" d="M276 678q0 -244 199 -338q14 -4 14 12l62 643q-4 10 -8 11q-106 0 -186.5 -102.5t-80.5 -225.5zM123 600q0 250 213 389q94 59 213 80q12 4 12 12l19 148q0 12 12 12q49 0 49 -14l-10 -137q0 -14 8 -15q117 -2 195 -55q35 -27 34 -62q0 -20 -23.5 -42.5t-37.5 -22.5 t-82 57q-45 39 -98 49q-4 0 -9 -6l-63 -655q0 -18 12 -21q16 -4 33 -4q117 0 242 101q6 6 13 1t7 -12q0 -39 -31 -69q-102 -111 -278 -131q-12 0 -12 -17l-17 -159q-14 -14 -45 -15q-20 0 -20 13l18 163q0 4 -5 10.5t-11 6.5q-82 12 -156 57t-117 111q-65 102 -65 227z" />
<glyph unicode="&#xa3;" d="M702 1292q90 0 142.5 -46t52.5 -109q0 -57 -29.5 -90t-60.5 -33q-18 0 -19 14q0 4 1.5 17.5t1.5 19.5q0 70 -35 122t-90 52q-166 0 -226 -541q0 -16 13 -16l254 10q8 0 13 -9t3 -19q0 -10 -7 -24.5t-14 -14.5l-253 -17q-6 0 -13.5 -7t-9.5 -13q-25 -125 -57.5 -202 t-96.5 -146q-4 -2 -3 -9.5t10 -7.5q100 0 190 -47q35 -16 90 -51t96 -55.5t72 -20.5q80 0 108.5 34t30.5 110q0 33 -10 110q0 8 7 17.5t16 9.5q31 0 55 -29t22 -78q-4 -106 -110.5 -204.5t-239.5 -98.5q-20 0 -43.5 7t-41 15.5t-46.5 29t-44 32.5l-53 43q-38 31 -54 45 q-57 47 -117 47q-6 0 -18.5 -15t-31 -43t-30.5 -42q-57 -63 -92 -64q-23 0 -40.5 14.5t-14.5 30.5q0 37 47 94.5t118 88.5q10 4 33 26q68 68 88 346q0 18 -10 19l-133 -2q-6 -2 -10 9t-4 22q0 33 16 36l137 11q14 4 14 18q25 223 79.5 346t142 190.5t204.5 67.5z" />
<glyph unicode="&#xa4;" d="M895 961l-102 -111q-4 -10 0 -23q63 -96 63 -209q0 -109 -70 -208l-4 -13l109 -118q8 -6 4 -24.5t-21 -33.5q-8 -8 -23 -14t-20 0l-124 112q-6 6 -21 -2q-100 -61 -184 -61q-102 0 -189 53q-8 4 -24 -2l-105 -102q-14 -18 -51 10q-37 37 -16 66l94 104q6 12 0 21 q-68 102 -68 210q0 86 70 201q2 2 3 11.5t-3 13.5l-104 121q-8 10 0 28.5t18 28.5q33 31 51 14l105 -106q4 -4 14 -5t14 1q90 53 191 53q98 0 194 -57q12 -6 21 2l102 106q20 20 58 -14q36 -28 18 -53zM502 872q-106 0 -177 -72.5t-71 -183t72.5 -180t175.5 -69.5 q100 0 174 70.5t74 178.5q0 104 -77 180t-171 76z" />
<glyph unicode="&#xa5;" d="M18 1253q0 20 48 21q14 0 62 -3t77 -3q33 0 98.5 3t83.5 3q43 0 43 -20.5t-41 -32.5q-39 -12 -45 -32t12 -59q4 -8 75 -159.5t108 -218.5q6 -14 16 2q78 139 141 276q51 113 52 131q0 35 -76 60q-41 12 -41 32.5t49 20.5q20 0 62 -3t61 -3q29 -2 79 2t68 4q43 0 43 -20.5 t-37 -30.5q-18 -6 -33.5 -12.5t-28.5 -16.5l-22 -16q-8 -6 -21 -23l-17 -21q-4 -5 -19.5 -29t-21.5 -32q-35 -53 -109 -189t-92 -179q-2 -4 -3 -7.5t1 -6.5t6 -3l217 -2q8 0 8 -16q0 -14 -8 -29.5t-16 -15.5h-215q-8 0 -9 -17v-131q0 -2 4.5 -9t6.5 -7h211q12 0 12 -23 q0 -14 -7 -26.5t-16 -12.5l-196 -4q-14 0 -15 -20v-80q0 -141 9.5 -178t46.5 -49q31 -12 69 -21q37 -8 37 -29q0 -8 -14 -15t-33 -7q-25 0 -89 2t-87 2q-29 0 -102.5 -4t-104.5 -4q-39 0 -39 20.5t45 32.5q68 16 84.5 45t20.5 127q2 45 2 154q0 25 -12 24h-211q-16 0 -17 23 q0 12 6 27.5t13 15.5h204q16 0 17 14v129q0 20 -10 21h-193q-14 0 -14 18q0 12 7 29.5t11 17.5l178 -2q8 0 0 19q-12 31 -89 181t-122 224q-27 41 -36 53.5t-31.5 28.5t-59.5 27q-41 14 -41 32z" />
<glyph unicode="&#xa6;" horiz-adv-x="530" d="M203 -354v708h125v-708h-125zM203 1368h125v-709h-125v709z" />
<glyph unicode="&#xa7;" horiz-adv-x="866" d="M535 1305q68 0 116 -35q23 -23 23 -37q0 -35 -60 -84q-10 -8 -49 2q-84 57 -123 57q-117 0 -116 -131q0 -29 28.5 -74t58 -79.5t78 -83.5t60.5 -64q215 -225 215 -411q0 -39 -4 -77t-13.5 -73l-16.5 -59.5t-21.5 -57t-20.5 -45t-22.5 -41t-16.5 -30.5q-49 -88 -133 -159 t-145 -87q-47 -14 -76 -15q-45 0 -77 13.5t-44 28t-12 26.5q0 14 26.5 49t59.5 53q14 8 45 -14q53 -43 117 -43q117 0 116 133q0 39 -69.5 132.5t-132.5 156.5q-145 152 -209 279q-33 76 -33 163q0 90 42 185.5t95 160.5q18 90 109 173q105 88 205 88zM682 233q0 78 -37 160 t-64 118l-108 134q-23 27 -85 94.5t-102 117.5t-59 87q-6 6 -14 -2q-37 -59 -37 -141q0 -178 236 -426q170 -170 221 -291q0 -4 8 -4q2 0 4 4q37 63 37 149z" />
<glyph unicode="&#xa8;" horiz-adv-x="819" d="M238 1229q35 0 59.5 -29t24.5 -65q0 -43 -27 -67t-62 -24q-31 0 -58.5 25t-27.5 63.5t26 67.5t65 29zM583.5 1227q34.5 0 61.5 -29t27 -63q0 -37 -28 -64t-64 -27q-35 0 -61.5 26t-26.5 63q0 43 28.5 68.5t63 25.5z" />
<glyph unicode="&#xa9;" horiz-adv-x="1417" d="M711 1286q268 0 446 -184t178 -449q0 -262 -182 -448.5t-442 -186.5q-270 0 -449.5 185.5t-179.5 449.5q0 262 183.5 447.5t445.5 185.5zM711 1225q-233 0 -393 -165t-160 -405q0 -236 167 -405.5t386 -169.5q231 0 390 166t159 409q0 238 -162 404t-387 166zM745 1010 q76 0 125 -13q14 -2 54.5 -12t46.5 -12q16 -6 18 -47q2 -29 2 -90q0 -37 -22 -37q-16 0 -27 32q-16 53 -68.5 90t-115.5 37q-111 0 -182.5 -76.5t-71.5 -197.5q0 -164 82 -240.5t180 -76.5q53 0 94 20.5t56.5 39.5t37.5 54q29 41 45 41q10 0 11 -26q-4 -63 -29 -111 q-4 -10 -21.5 -25.5t-25.5 -19.5q-84 -35 -184 -35q-98 0 -178 37t-121 84q-92 102 -93 233q0 160 123 256q108 95 264 95z" />
<glyph unicode="&#xaa;" horiz-adv-x="557" d="M287 1096q76 0 119 -53.5t43 -129.5q0 -18 -7 -190q-4 -80 50 -80q23 0 51 21q4 2 6 1t4 -6.5t2 -13.5q0 -16 -16 -37q-47 -51 -113 -51q-68 0 -90 66q-4 12 -12 6q-106 -72 -158 -72q-39 0 -76 38t-37 91q0 72 70 96q4 2 85 25.5t114 36.5q14 12 14 18q2 20 2 74 q0 41 -31 68.5t-67 27.5q-45 0 -64 -10q-14 -8 -14 -59q0 -12 -12 -21q-2 0 -35 -14.5t-45 -16.5q-20 -4 -21 11q0 43 60 98q100 76 178 76zM164 705q0 -25 24.5 -47.5t51.5 -22.5q41 0 71 35q18 14 19 28q2 14 2 86q-2 18 -15 13q-86 -20 -119.5 -39.5t-33.5 -52.5z" />
<glyph unicode="&#xab;" horiz-adv-x="1411" d="M225 379q-16 8 -19 25.5t5 21.5q311 174 461 303q47 41 73 41q23 0 5 -37q-4 -12 -13 -22q-55 -80 -301 -277q-27 -20 -6 -35q8 -8 42 -38l50 -44l47 -43l51 -48l43 -44q24 -25 40 -45t28 -39q6 -10 10 -18t8.5 -18.5t0 -16.5t-16.5 -6q-20 0 -47 22q-217 185 -461 318z M680 379q-16 10 -18.5 26.5t6.5 20.5q289 158 456 303q47 41 68 41q8 0 11 -8t-1 -22.5t-14 -28.5q-66 -94 -297 -277q-23 -18 -6 -35q236 -193 303 -305q10 -16 12 -34.5t-14 -20.5q-14 0 -43 22q-213 181 -463 318z" />
<glyph unicode="&#xac;" horiz-adv-x="1277" d="M154 715h940q25 0 24 -43v-561q0 -20 -31.5 -30.5t-64.5 -10.5q-25 0 -25 30v465q0 41 -34 41h-797q-29 0 -36 5t-7 26q0 25 9.5 51.5t21.5 26.5z" />
<glyph unicode="&#xad;" horiz-adv-x="598" d="M106 473q100 14 398 45q4 0 10 -8t6 -14q0 -31 -10 -64t-27 -35l-379 -39q-14 -2 -23 7.5t-9 21.5q0 37 12 60.5t22 25.5z" />
<glyph unicode="&#xae;" horiz-adv-x="477" d="M188 1040v105q0 14 -3 21.5t-6 9.5t-13 6t-12 9t2 7l8 4q66 6 100 6q39 0 63.5 -16t24.5 -45q0 -25 -37 -43q-4 -4 -2 -8q39 -76 66 -92q12 -6 12 -13q0 -10 -29 -10q-37 0 -55 31q-29 47 -35 59q-2 8 -18 8q-14 0 -14 -8v-22q0 -23 4 -28t28 -15q6 -2 8.5 -7.5t-1 -8.5 t-7.5 -3h-55h-53q-6 0 -9 6t5 11q28 11 28 36zM240 1176v-62q0 -8 18 -8q39 0 39 37q0 16 -10.5 28.5t-26.5 12.5q-20 0 -20 -8zM260 1319q96 0 160.5 -64.5t64.5 -160.5q0 -88 -62.5 -160t-166.5 -72q-94 0 -158.5 66.5t-64.5 165.5q0 90 65.5 157.5t161.5 67.5zM260 1282 q-78 2 -130 -52t-52 -136t52 -136.5t130 -54.5q80 0 130 54.5t50 136.5q0 80 -53 134t-127 54z" />
<glyph unicode="&#xaf;" horiz-adv-x="819" d="M203 1174l428 8q6 0 12 -13.5t6 -19.5q0 -35 -12 -60.5t-31 -25.5h-418q-16 0 -16 24q0 31 10.5 59t20.5 28z" />
<glyph unicode="&#xb0;" horiz-adv-x="577" d="M297 1303q94 0 160.5 -63.5t66.5 -172.5t-69.5 -173.5t-165.5 -64.5q-100 0 -169 63.5t-69 174.5q0 102 74 169t172 67zM283 1231q-59 0 -97.5 -47t-38.5 -117q0 -74 44.5 -119t111.5 -45q53 0 90 45t37 119q0 70 -40.5 117t-106.5 47z" />
<glyph unicode="&#xb1;" horiz-adv-x="1277" d="M580 1116q0 12 32.5 21.5t57.5 9.5q20 0 25 -6t5 -35v-387q0 -25 23 -25h399q18 0 24.5 -5t6.5 -19q0 -37 -9 -60.5t-20 -23.5h-403q-20 0 -21 -27v-389q0 -23 -31.5 -33t-64.5 -10q-25 0 -24 31v393q0 23 -7.5 29t-25.5 6h-383q-27 0 -34 5t-7 25q0 25 9 51.5t22 26.5 h399q10 0 18.5 8.5t8.5 16.5v397zM1122 8q18 0 24.5 -5t6.5 -19q0 -37 -9 -61.5t-20 -24.5h-958q-29 0 -36 5t-7 25q0 25 9 52.5t22 27.5h968z" />
<glyph unicode="&#xb2;" horiz-adv-x="612" d="M285 1583q86 0 145 -60.5t59 -144.5q0 -90 -88 -184q-72 -78 -190 -190q-6 -8 -2 -12.5t8 -4.5h234q27 0 73 60q18 23 33 22q10 0 12 -16.5t-4 -30.5q-33 -66 -47 -137q-4 -12 -16 -13h-39q-41 2 -88 3.5t-95 1.5h-69l-125 -3q-37 0 -37 19q0 16 17 29q96 86 200 206 q90 109 90 228q0 55 -33.5 86t-84.5 31q-84 0 -140 -64q-25 -20 -37 -20q-14 0 -14 16q0 25 19 47q94 131 219 131z" />
<glyph unicode="&#xb3;" horiz-adv-x="612" d="M303 1587q74 0 119 -44t45 -93q0 -78 -105 -145q-4 -2 -3 -6.5t6 -6.5q166 -20 165 -157q0 -76 -51 -143.5t-137 -108.5q-68 -35 -149 -35q-37 0 -79 22.5t-42 49.5q0 20 15 37.5t30 23.5q12 6 22 -4q68 -57 148 -57q49 0 89 49t40 100q0 63 -35 106.5t-100 43.5 q-14 0 -80 -15q-20 -4 -21 4q0 12 4 21q18 31 54 45q68 29 90 53.5t22 75.5q0 35 -28.5 65.5t-65.5 30.5q-53 0 -121 -55q-39 -33 -41 -6q0 14 6 26q74 123 203 123z" />
<glyph unicode="&#xb4;" horiz-adv-x="819" d="M516 1280q20 43 49 43q63 0 78 -16q10 -14 -10 -56q-80 -152 -182 -303q-27 -39 -54 -39q-25 0 -8 56q43 131 127 315z" />
<glyph unicode="&#xb5;" horiz-adv-x="927" d="M188 834q39 0 93 -37q2 0 11 -20.5t9 -26.5q0 -33 -31 -197q-10 -57 -24.5 -158.5t-16.5 -111.5q-4 -35 7 -88q14 -74 98 -74q68 0 141.5 76.5t112.5 177.5q12 37 16 80q8 152 29 323q4 18 14 38t19 20q70 0 120 -52q10 -10 5 -71q-6 -68 -46 -200t-71 -198 q-8 -20 -8 -51q-2 -72 33.5 -109.5t76.5 -37.5q84 0 137 65q4 6 10.5 3t10.5 -13q12 -43 -19 -102q-55 -106 -153 -107q-57 0 -98 56.5t-43 181.5l-11 2l-2 -2q-133 -223 -239 -224q-90 0 -156 146q-2 8 -10 -4q-2 -4 -2 -6q-4 -35 -8.5 -174.5t0.5 -194.5q27 -145 139 -215 q8 -4 2 -31q-8 -20 -60 -45q-29 -14 -59.5 -14t-62.5 51q-25 45 -25 219q0 90 14 463q4 59 -2 111q-18 150 -14 510q0 20 18 32q16 9 45 9z" />
<glyph unicode="&#xb6;" horiz-adv-x="1118" d="M940 1282h72q35 0 35 -43q0 -8 -8.5 -18.5t-12.5 -10.5q-6 0 -97 -2t-112 -2q-14 0 -14 -32q0 -274 2 -563t4 -468.5t2 -185.5q0 -76 -4 -133t-20.5 -128t-44 -117t-82 -78.5t-128.5 -32.5q-96 0 -155.5 63t-59.5 139q0 74 49.5 133.5t122.5 59.5q43 0 75 -31t32 -65 q0 -51 -32 -77t-56 -26q-35 0 -55 12q-18 12 -29 13q-23 0 -23 -27q0 -57 38 -92t106 -35q178 0 182 359q2 102 3 196t1 127q0 25 -16 29q-168 4 -303.5 57t-222.5 170t-87 281q0 205 156 360q61 63 156.5 101t177.5 51q139 16 348 16z" />
<glyph unicode="&#xb7;" horiz-adv-x="419" d="M211 526q63 0 94 -42t31 -89q0 -53 -36 -90t-91 -37q-47 0 -86 33t-39 98.5t42 96t85 30.5z" />
<glyph unicode="&#xb8;" horiz-adv-x="819" d="M539 -279q0 -90 -101 -167q-84 -63 -139 -64q-33 0 -49 29q-6 10 -6 33.5t4 29.5q10 14 22 15q61 -12 86 -13q35 0 54.5 23.5t19.5 54.5q0 41 -35 68.5t-80 27.5q-18 0 -32 -2q-8 0 -20.5 11.5t-12.5 19.5q0 10 14 27l154 196h65q-78 -100 -88 -110q-6 -12 13 -25 q45 -23 67.5 -37t43 -45t20.5 -72z" />
<glyph unicode="&#xb9;" horiz-adv-x="612" d="M385 1569q0 -4 -1 -22.5t-2 -57.5t-1 -84q0 -164 4 -389q0 -29 2 -42t18.5 -24.5t24.5 -14.5t49 -15q31 -12 31 -23q0 -25 -37 -25q-6 0 -71.5 2.5t-92.5 2.5q-47 0 -98 -3l-51 -2q-39 0 -39 21q0 23 55 35q41 8 55.5 22.5t18.5 42.5q10 72 10 289q0 96 -4 145 q0 23 -23 31l-65 23q-37 10 -37 24q0 16 35 21q113 8 199 57q20 15 20 -14z" />
<glyph unicode="&#xba;" horiz-adv-x="657" d="M330 1096q111 0 193.5 -75t82.5 -200q0 -109 -83 -186.5t-199 -77.5q-109 0 -191 80t-82 190.5t82 189.5t197 79zM317 1051q-72 0 -104.5 -64.5t-32.5 -146.5q0 -90 47 -160t121 -70q70 0 100.5 61.5t30.5 145.5q0 86 -50.5 160t-111.5 74z" />
<glyph unicode="&#xbb;" horiz-adv-x="1411" d="M1184 428q16 -8 19 -25.5t-5 -21.5q-301 -166 -461 -301q-47 -41 -73 -41q-25 0 2 47l8 12q61 88 301 275q27 20 6 35q-8 6 -76 67l-97 89q-30 28 -74 74t-62 77q-37 55 6 55q20 0 47 -22q191 -168 459 -320zM729 428q16 -10 19.5 -26.5t-5.5 -20.5q-133 -70 -262 -157 t-194 -144q-47 -41 -70 -41q-8 0 -12 7t0 20.5t14 27.5q53 80 301 281q23 16 6 33q-236 195 -309 307q-10 14 -10 34.5t16.5 20.5t44.5 -22q201 -175 461 -320z" />
<glyph unicode="&#xbc;" horiz-adv-x="1345" d="M385 1266q0 -4 -1 -22.5t-2 -57.5t-1 -84q0 -164 4 -389q0 -29 2 -42.5t18.5 -24.5t24.5 -14t49 -16q31 -12 31 -22q0 -25 -37 -25q-6 0 -71.5 2t-92.5 2q-47 0 -98 -2l-51 -2q-39 0 -39 21q0 23 55 35q41 8 55.5 22.5t18.5 42.5q10 72 10 289q0 96 -4 145q0 23 -23 31 l-65 23q-37 10 -37 24q0 16 35 21q113 8 199 57q20 15 20 -14zM1139 1317q20 0 33.5 -13.5t3.5 -29.5l-320 -510l-350 -557q-133 -211 -172 -264q-6 -14 -25 0q-35 27 -16 55l308 492l339 541q139 222 166 261q15 25 33 25zM1190 717q16 0 16 -23q0 -2 1 -82t1 -175v-130 q0 -14 11 -14l114 4q10 0 10 -18q0 -12 -7 -34t-13 -24l-104 2q-8 0 -9 -16q0 -14 2 -93t0 -100q0 -20 -18 -26q-27 -10 -92 -11q-6 0 -12.5 6.5t-6.5 14.5q0 174 2 213q0 12 -12 12q-180 0 -299 -8q-14 0 -14 25q0 4 7 11l16 16q9 9 12 14q287 334 313 378q14 18 40 38 t42 20zM1087 301q0 16 4.5 106.5t4.5 141.5q0 4 -5.5 5t-7.5 -1q-174 -205 -202 -244q-4 -6 -2 -11t8 -5l184 -2q16 0 16 10z" />
<glyph unicode="&#xbd;" horiz-adv-x="1390" d="M385 1266q0 -4 -1 -22.5t-2 -57.5t-1 -84q0 -164 4 -389q0 -29 2 -42.5t18.5 -24.5t24.5 -14t49 -16q31 -12 31 -22q0 -25 -37 -25q-6 0 -71.5 2t-92.5 2q-47 0 -98 -2l-51 -2q-39 0 -39 21q0 23 55 35q41 8 55.5 22.5t18.5 42.5q10 72 10 289q0 96 -4 145q0 23 -23 31 l-65 23q-37 10 -37 24q0 16 35 21q113 8 199 57q20 15 20 -14zM1100 1317q20 0 33.5 -13.5t3.5 -29.5l-320 -510l-350 -557q-133 -211 -172 -264q-6 -14 -25 0q-35 27 -16 55l308 492l339 541q139 222 166 261q15 25 33 25zM1063 707q86 0 145.5 -60.5t59.5 -144.5 q0 -90 -88 -185q-72 -78 -191 -190q-6 -8 -2 -12t8 -4h234q27 0 74 59q18 23 32 23q10 0 12.5 -16.5t-4.5 -31.5q-33 -66 -47 -137q-4 -12 -16 -12h-39q-41 2 -88 3t-95 1h-69l-125 -2q-37 0 -37 18q0 16 17 29q96 86 200 207q90 109 91 227q0 55 -34 86t-85 31 q-84 0 -139 -64q-25 -20 -37 -20q-14 0 -15 16q0 25 19 47q94 132 219 132z" />
<glyph unicode="&#xbe;" horiz-adv-x="1298" d="M303 1284q74 0 119 -44t45 -93q0 -78 -105 -146q-4 -2 -3 -6t6 -6q166 -20 165 -158q0 -76 -51 -143t-137 -108q-68 -35 -149 -35q-37 0 -79 22.5t-42 48.5q0 20 15 38t30 24q12 6 22 -4q68 -57 148 -58q49 0 89 49.5t40 100.5q0 63 -35 106t-100 43q-14 0 -80 -14 q-20 -4 -21 4q0 12 4 21q18 31 54 45q68 29 90 53.5t22 75.5q0 35 -28.5 65.5t-65.5 30.5q-53 0 -121 -55q-39 -33 -41 -6q0 14 6 26q74 123 203 123zM1096 1317q20 0 33.5 -13.5t3.5 -29.5l-320 -510l-350 -557q-133 -211 -172 -264q-6 -14 -25 0q-35 27 -16 55l308 492 l339 541q139 222 166 261q15 25 33 25zM1140.5 717q16.5 0 16.5 -23q0 -2 1 -82t1 -175v-130q0 -14 10 -14l115 4q10 0 10 -18q0 -12 -7 -34t-13 -24l-105 2q-8 0 -8 -16q0 -14 2 -93t0 -100q0 -20 -18 -26q-27 -10 -92 -11q-6 0 -12.5 6.5t-6.5 14.5q0 174 2 213 q0 12 -12 12q-180 0 -299 -8q-14 0 -14 25q0 4 7 11l16 16q9 9 11 14q287 334 314 378q14 18 39.5 38t42 20zM1038 301q0 16 4.5 106.5t4.5 141.5q0 4 -5.5 5t-7.5 -1q-174 -205 -203 -244q-4 -6 -2 -11t9 -5l184 -2q16 0 16 10z" />
<glyph unicode="&#xbf;" horiz-adv-x="688" d="M444 -336q-82 0 -198 98q-20 18 -51 53t-70 109t-39 135q0 131 76 207q33 23 180 105q8 4 14 9t10.5 11t6.5 10.5t4 13.5t3 12t2 14.5t1 15.5q4 53 31 53q10 0 20 -18.5t15 -36.5q25 -129 24 -162q0 -47 -41 -79t-149 -81q-100 -47 -101 -115q0 -39 5.5 -64.5t19.5 -52 t48 -41t85 -14.5q8 0 44 4.5t54 4.5q23 0 53.5 -33t30.5 -86q0 -23 -22.5 -47.5t-55.5 -24.5zM375 676q-49 0 -81 39t-32 80q0 49 34 83.5t83 34.5q45 0 80 -29.5t35 -90.5q0 -57 -40 -87t-79 -30z" />
<glyph unicode="&#xc0;" horiz-adv-x="1384" d="M723 1354q14 0 33 -54q12 -39 90 -253q195 -547 295 -789q47 -119 83 -153.5t109 -53.5q49 -14 49 -35q0 -27 -65 -26q-31 0 -121 5t-137 5q-35 0 -78 -2t-68 -2q-63 0 -63 24.5t49 32.5q45 10 66.5 26.5t19.5 36t-4 42.5q-12 68 -115 350q-6 20 -69 20q-279 0 -336 -8 q-12 0 -23 -16q-106 -266 -106 -359q0 -57 100 -88q55 -16 55 -37q0 -27 -57 -26q-12 0 -65.5 3t-96.5 3t-122.5 -5t-90.5 -5q-47 0 -47 20q0 27 45 41q84 29 116 54.5t73 119.5q25 57 178 452l192 492q12 25 13 43q0 10 4 17q10 14 34.5 55t26.5 45q23 25 33 25zM815 621 q2 0 5 6t1 10q-133 399 -159 440q-8 18 -17 0q-141 -377 -160 -448q-4 -14 11 -15q29 0 99.5 1t129.5 2.5t90 3.5zM469 1679q12 0 80 -49q63 -45 215 -168q29 -29 20 -43q-20 -25 -67 0q-197 88 -287 146q-39 23 -39 43t37 47q25 24 41 24z" />
<glyph unicode="&#xc1;" horiz-adv-x="1384" d="M723 1354q14 0 33 -54q12 -39 90 -253q195 -547 295 -789q47 -119 83 -153.5t109 -53.5q49 -14 49 -35q0 -27 -65 -26q-31 0 -121 5t-137 5q-35 0 -78 -2t-68 -2q-63 0 -63 24.5t49 32.5q45 10 66.5 26.5t19.5 36t-4 42.5q-12 68 -115 350q-6 20 -69 20q-279 0 -336 -8 q-12 0 -23 -16q-106 -266 -106 -359q0 -57 100 -88q55 -16 55 -37q0 -27 -57 -26q-12 0 -65.5 3t-96.5 3t-122.5 -5t-90.5 -5q-47 0 -47 20q0 27 45 41q84 29 116 54.5t73 119.5q25 57 178 452l192 492q12 25 13 43q0 10 4 17q10 14 34.5 55t26.5 45q23 25 33 25zM815 621 q2 0 5 6t1 10q-133 399 -159 440q-8 18 -17 0q-141 -377 -160 -448q-4 -14 11 -15q29 0 99.5 1t129.5 2.5t90 3.5zM926 1673q31 20 57 10q18 -8 38.5 -27.5t20.5 -37.5q0 -29 -41 -53q-182 -100 -307 -148q-49 -20 -69 0q-2 0 -2 6.5t6 18.5t20 24q121 103 277 207z" />
<glyph unicode="&#xc2;" horiz-adv-x="1384" d="M723 1354q14 0 33 -54q12 -39 90 -253q195 -547 295 -789q47 -119 83 -153.5t109 -53.5q49 -14 49 -35q0 -27 -65 -26q-31 0 -121 5t-137 5q-35 0 -78 -2t-68 -2q-63 0 -63 24.5t49 32.5q45 10 66.5 26.5t19.5 36t-4 42.5q-12 68 -115 350q-6 20 -69 20q-279 0 -336 -8 q-12 0 -23 -16q-106 -266 -106 -359q0 -57 100 -88q55 -16 55 -37q0 -27 -57 -26q-12 0 -65.5 3t-96.5 3t-122.5 -5t-90.5 -5q-47 0 -47 20q0 27 45 41q84 29 116 54.5t73 119.5q25 57 178 452l192 492q12 25 13 43q0 10 4 17q10 14 34.5 55t26.5 45q23 25 33 25zM815 621 q2 0 5 6t1 10q-133 399 -159 440q-8 18 -17 0q-141 -377 -160 -448q-4 -14 11 -15q29 0 99.5 1t129.5 2.5t90 3.5zM719 1630q20 0 76 -45l168 -143q35 -25 22 -45q-4 -8 -18 -8q-18 0 -58 16q-29 12 -59 28l-67 32l-56 28q-14 6 -33 -2l-176 -84q-2 0 -23.5 -9t-31.5 -9 q-55 0 0 49l4 4l83 71l93 78q49 39 76 39z" />
<glyph unicode="&#xc3;" horiz-adv-x="1384" d="M723 1354q14 0 33 -54q12 -39 90 -253q195 -547 295 -789q47 -119 83 -153.5t109 -53.5q49 -14 49 -35q0 -27 -65 -26q-31 0 -121 5t-137 5q-35 0 -78 -2t-68 -2q-63 0 -63 24.5t49 32.5q45 10 66.5 26.5t19.5 36t-4 42.5q-12 68 -115 350q-6 20 -69 20q-279 0 -336 -8 q-12 0 -23 -16q-106 -266 -106 -359q0 -57 100 -88q55 -16 55 -37q0 -27 -57 -26q-12 0 -65.5 3t-96.5 3t-122.5 -5t-90.5 -5q-47 0 -47 20q0 27 45 41q84 29 116 54.5t73 119.5q25 57 178 452l192 492q12 25 13 43q0 10 4 17q10 14 34.5 55t26.5 45q23 25 33 25zM815 621 q2 0 5 6t1 10q-133 399 -159 440q-8 18 -17 0q-141 -377 -160 -448q-4 -14 11 -15q29 0 99.5 1t129.5 2.5t90 3.5zM471 1460q35 53 68 96q14 18 51 19q254 0 289 8q31 8 65 62q14 14 19 14q16 0 30 -29q8 -16 -6 -31q-12 -12 -53 -65t-51 -64q-12 -12 -29 -12 q-285 0 -299 -4q-20 -6 -57 -55q-8 -14 -19 -15q-14 0 -22 10.5t-8 16.5q-1 12 22 49z" />
<glyph unicode="&#xc4;" horiz-adv-x="1384" d="M723 1354q14 0 33 -54q12 -39 90 -253q195 -547 295 -789q47 -119 83 -153.5t109 -53.5q49 -14 49 -35q0 -27 -65 -26q-31 0 -121 5t-137 5q-35 0 -78 -2t-68 -2q-63 0 -63 24.5t49 32.5q45 10 66.5 26.5t19.5 36t-4 42.5q-12 68 -115 350q-6 20 -69 20q-279 0 -336 -8 q-12 0 -23 -16q-106 -266 -106 -359q0 -57 100 -88q55 -16 55 -37q0 -27 -57 -26q-12 0 -65.5 3t-96.5 3t-122.5 -5t-90.5 -5q-47 0 -47 20q0 27 45 41q84 29 116 54.5t73 119.5q25 57 178 452l192 492q12 25 13 43q0 10 4 17q10 14 34.5 55t26.5 45q23 25 33 25zM815 621 q2 0 5 6t1 10q-133 399 -159 440q-8 18 -17 0q-141 -377 -160 -448q-4 -14 11 -15q29 0 99.5 1t129.5 2.5t90 3.5zM510 1593q37 0 63.5 -29.5t26.5 -68.5q0 -43 -28.5 -66.5t-69.5 -23.5q-31 0 -57.5 24.5t-26.5 69.5q0 37 26.5 65.5t65.5 28.5zM922 1591q35 0 60.5 -29.5 t25.5 -66.5t-28 -63.5t-65 -26.5q-35 0 -61.5 25.5t-26.5 64.5q0 43 28 69.5t67 26.5z" />
<glyph unicode="&#xc5;" horiz-adv-x="1384" d="M723 1354q14 0 33 -54q12 -39 90 -253q195 -547 295 -789q47 -119 83 -153.5t109 -53.5q49 -14 49 -35q0 -27 -65 -26q-31 0 -121 5t-137 5q-35 0 -78 -2t-68 -2q-63 0 -63 24.5t49 32.5q45 10 66.5 26.5t19.5 36t-4 42.5q-12 68 -115 350q-6 20 -69 20q-279 0 -336 -8 q-12 0 -23 -16q-106 -266 -106 -359q0 -57 100 -88q55 -16 55 -37q0 -27 -57 -26q-12 0 -65.5 3t-96.5 3t-122.5 -5t-90.5 -5q-47 0 -47 20q0 27 45 41q84 29 116 54.5t73 119.5q25 57 178 452l192 492q12 25 13 43q0 10 4 17q10 14 34.5 55t26.5 45q23 25 33 25zM815 621 q2 0 5 6t1 10q-133 399 -159 440q-8 18 -17 0q-141 -377 -160 -448q-4 -14 11 -15q29 0 99.5 1t129.5 2.5t90 3.5zM712.5 1708q69.5 0 113.5 -46t44 -110q0 -66 -44 -112.5t-113.5 -46.5t-113.5 47t-44 112q0 63 44 109.5t113.5 46.5zM713 1653q-37 0 -61.5 -29t-24.5 -72 q0 -47 24.5 -74.5t61.5 -27.5q39 0 62.5 27.5t23.5 78.5q0 41 -24.5 69t-61.5 28z" />
<glyph unicode="&#xc6;" horiz-adv-x="1849" d="M1032 1317h412q29 0 57.5 2t51 4t40 4t27.5 4t12 2q6 0 15.5 -10t9.5 -23q0 -37 31 -213q2 -12 -5.5 -25t-17.5 -13q-25 0 -45 45q-63 133 -137 143q-12 2 -312 2q-8 0 -14 -8t-6 -14v-496q0 -45 20 -45q238 0 277 8q41 10 76 90q8 12 23.5 23.5t23.5 11.5t13 -14.5 t1 -34.5q-8 -39 -8 -281q0 -39 -23 -39q-25 0 -43 49q-16 61 -37.5 80t-87.5 19q-14 0 -84.5 1t-123.5 1q-20 0 -25 -27q-12 -55 2 -366q4 -104 96 -119q100 -12 258 -8q59 2 100.5 32.5t123.5 124.5q39 45 49 45t19 -16t5 -31q-31 -94 -86 -207q-16 -29 -73 -28 q-12 0 -85 3t-197 5t-259 2q-27 0 -135.5 -5t-136.5 -5q-20 0 -34 7t-14 15q0 27 52 39q78 16 100.5 42t30.5 89q8 72 8 373q0 23 -14 23q-59 4 -177 4t-153 -2q-6 0 -20.5 -11.5t-18.5 -19.5q-211 -397 -211 -430q0 -35 90 -60q41 -10 41 -24.5t-13.5 -27.5t-37.5 -13 q-20 0 -78.5 3t-105.5 3q-33 0 -131.5 -6t-110.5 -6q-18 0 -35.5 8t-17.5 18q0 29 69 41q86 12 139.5 48t124.5 139q90 125 564 964q14 23 -15 31q-16 4 -80.5 13.5t-80.5 13.5q-39 12 -39 32q0 25 59 25q37 0 150.5 -2t156.5 -2zM981 1178q0 35 -5 35.5t-20 -21.5 q-6 -8 -16 -25q-113 -176 -260 -471q-6 -20 14 -24q31 -2 264 -2q18 0 19 32q0 2 2 225.5t2 250.5z" />
<glyph unicode="&#xc7;" horiz-adv-x="1468" d="M883 1354q102 0 241 -33q29 -4 85.5 -20.5t70.5 -18.5q31 0 31 -61q0 -20 14 -179q2 -31 -8 -49t-23 -18q-14 0 -32 53q-29 111 -84 154q-143 106 -328 106q-240 0 -390.5 -171t-150.5 -410q0 -195 72 -338q82 -162 229.5 -245t288.5 -83q125 0 225 55q109 57 189 199 q35 49 45 51q29 0 16 -65q-8 -76 -80 -207q-14 -31 -65 -54q-31 -14 -127 -32.5t-203 -22.5l-26 -34q-13 -17 -19 -26t-8 -11q-6 -14 14 -27q37 -18 53.5 -28.5t40 -31t33.5 -45t10 -57.5q0 -90 -106 -178q-88 -68 -150 -68q-31 0 -51 31q-18 31 0 64q12 20 29 18 q76 -14 86 -14q37 0 58.5 25.5t21.5 58.5q0 43 -39 72.5t-86 29.5q-20 0 -37 -2q-6 0 -18.5 11t-12.5 20q0 12 15 28q10 14 127 162q-188 6 -337 80t-223 160q-172 199 -172 471q0 158 72 291t154 200q231 189 555 189z" />
<glyph unicode="&#xc8;" horiz-adv-x="1153" d="M457 1317h301q143 0 188 6q4 2 10.5 -6t8.5 -17q0 -53 2 -116.5t2 -77.5q0 -53 -31 -53q-23 0 -33 49q-18 76 -50 103.5t-87 35.5q-106 16 -291 8q-4 0 -9 -4t-12 -18.5t-10 -34.5q-4 -41 -6 -242.5t0 -224.5q6 -20 15 -20h133q102 0 142 7t57.5 25.5t37.5 69.5 q16 43 37 43q23 0 17 -45q-6 -86 -7 -148q0 -2 7 -125q4 -59 -23 -59q-23 0 -35 45q-23 72 -45 87.5t-117 19.5q-66 4 -202 4q-6 0 -12.5 -7.5t-6.5 -11.5q-6 -33 -6 -321q0 -115 21 -170q12 -37 39 -45q82 -14 186 -15q141 0 194 15q106 27 170 151q29 57 48 58 q10 0 15 -18.5t1 -37.5q-2 -16 -33 -111.5t-41 -107.5q-18 -25 -35 -24l-100 4q-98 4 -258 8t-307 4q-57 0 -127 -5t-105 -5q-61 0 -61 26q0 18 57 33q84 20 114 46t36 104q16 229 16 581q0 317 -2 346q-4 68 -25.5 94.5t-89.5 41.5q-59 14 -59 34q0 29 57 29q43 0 141.5 -4 t172.5 -4zM371 1694q12 0 80 -49q63 -45 215 -168q29 -29 20 -43q-20 -25 -68 0q-197 88 -286 145q-39 23 -39 43t37 47q25 25 41 25z" />
<glyph unicode="&#xc9;" horiz-adv-x="1153" d="M457 1317h301q143 0 188 6q4 2 10.5 -6t8.5 -17q0 -53 2 -116.5t2 -77.5q0 -53 -31 -53q-23 0 -33 49q-18 76 -50 103.5t-87 35.5q-106 16 -291 8q-4 0 -9 -4t-12 -18.5t-10 -34.5q-4 -41 -6 -242.5t0 -224.5q6 -20 15 -20h133q102 0 142 7t57.5 25.5t37.5 69.5 q16 43 37 43q23 0 17 -45q-6 -86 -7 -148q0 -2 7 -125q4 -59 -23 -59q-23 0 -35 45q-23 72 -45 87.5t-117 19.5q-66 4 -202 4q-6 0 -12.5 -7.5t-6.5 -11.5q-6 -33 -6 -321q0 -115 21 -170q12 -37 39 -45q82 -14 186 -15q141 0 194 15q106 27 170 151q29 57 48 58 q10 0 15 -18.5t1 -37.5q-2 -16 -33 -111.5t-41 -107.5q-18 -25 -35 -24l-100 4q-98 4 -258 8t-307 4q-57 0 -127 -5t-105 -5q-61 0 -61 26q0 18 57 33q84 20 114 46t36 104q16 229 16 581q0 317 -2 346q-4 68 -25.5 94.5t-89.5 41.5q-59 14 -59 34q0 29 57 29q43 0 141.5 -4 t172.5 -4zM784 1669q31 20 58 10q18 -8 38.5 -27.5t20.5 -37.5q0 -29 -41 -53q-182 -100 -307 -148q-49 -20 -70 0q-2 0 -2 6t6.5 18.5t20.5 24.5q120 103 276 207z" />
<glyph unicode="&#xca;" horiz-adv-x="1153" d="M457 1317h301q143 0 188 6q4 2 10.5 -6t8.5 -17q0 -53 2 -116.5t2 -77.5q0 -53 -31 -53q-23 0 -33 49q-18 76 -50 103.5t-87 35.5q-106 16 -291 8q-4 0 -9 -4t-12 -18.5t-10 -34.5q-4 -41 -6 -242.5t0 -224.5q6 -20 15 -20h133q102 0 142 7t57.5 25.5t37.5 69.5 q16 43 37 43q23 0 17 -45q-6 -86 -7 -148q0 -2 7 -125q4 -59 -23 -59q-23 0 -35 45q-23 72 -45 87.5t-117 19.5q-66 4 -202 4q-6 0 -12.5 -7.5t-6.5 -11.5q-6 -33 -6 -321q0 -115 21 -170q12 -37 39 -45q82 -14 186 -15q141 0 194 15q106 27 170 151q29 57 48 58 q10 0 15 -18.5t1 -37.5q-2 -16 -33 -111.5t-41 -107.5q-18 -25 -35 -24l-100 4q-98 4 -258 8t-307 4q-57 0 -127 -5t-105 -5q-61 0 -61 26q0 18 57 33q84 20 114 46t36 104q16 229 16 581q0 317 -2 346q-4 68 -25.5 94.5t-89.5 41.5q-59 14 -59 34q0 29 57 29q43 0 141.5 -4 t172.5 -4zM590 1657q20 0 76 -45l168 -144q35 -25 22 -45q-4 -8 -18 -8q-18 0 -58 17q-29 12 -59 27l-67 33l-56 28q-14 8 -33 -2l-176 -84q-2 0 -23.5 -9.5t-31.5 -9.5q-55 0 0 49l4 4l83 72l93 78q49 39 76 39z" />
<glyph unicode="&#xcb;" horiz-adv-x="1153" d="M457 1317h301q143 0 188 6q4 2 10.5 -6t8.5 -17q0 -53 2 -116.5t2 -77.5q0 -53 -31 -53q-23 0 -33 49q-18 76 -50 103.5t-87 35.5q-106 16 -291 8q-4 0 -9 -4t-12 -18.5t-10 -34.5q-4 -41 -6 -242.5t0 -224.5q6 -20 15 -20h133q102 0 142 7t57.5 25.5t37.5 69.5 q16 43 37 43q23 0 17 -45q-6 -86 -7 -148q0 -2 7 -125q4 -59 -23 -59q-23 0 -35 45q-23 72 -45 87.5t-117 19.5q-66 4 -202 4q-6 0 -12.5 -7.5t-6.5 -11.5q-6 -33 -6 -321q0 -115 21 -170q12 -37 39 -45q82 -14 186 -15q141 0 194 15q106 27 170 151q29 57 48 58 q10 0 15 -18.5t1 -37.5q-2 -16 -33 -111.5t-41 -107.5q-18 -25 -35 -24l-100 4q-98 4 -258 8t-307 4q-57 0 -127 -5t-105 -5q-61 0 -61 26q0 18 57 33q84 20 114 46t36 104q16 229 16 581q0 317 -2 346q-4 68 -25.5 94.5t-89.5 41.5q-59 14 -59 34q0 29 57 29q43 0 141.5 -4 t172.5 -4zM379 1618q37 0 63.5 -29.5t26.5 -68.5q0 -43 -28.5 -66.5t-69.5 -23.5q-31 0 -57.5 24.5t-26.5 69.5q0 37 26.5 65.5t65.5 28.5zM791 1616q35 0 60.5 -30t25.5 -66.5t-28 -63t-65 -26.5q-35 0 -61.5 25.5t-26.5 64.5q0 43 28 69.5t67 26.5z" />
<glyph unicode="&#xcc;" horiz-adv-x="694" d="M262 668q0 348 -6 448q-2 45 -5 61.5t-14.5 38t-35 29.5t-66.5 17q-57 10 -57 36q0 25 51 25q25 0 106.5 -3t116.5 -3q53 0 120 3t99 3q51 0 51.5 -24.5t-53.5 -34.5q-43 -8 -67.5 -20.5t-36.5 -37t-13 -30.5l-8 -43q-12 -82 -12 -603q0 -207 6 -305q4 -90 30 -123.5 t120 -52.5q53 -8 53 -34.5t-55 -26.5q-57 0 -170 6t-135 6q-29 0 -73 -2t-83 -2q-53 0 -53 29q0 23 61 34q74 16 93.5 44t25.5 106q10 119 10 459zM139 1700q12 0 80 -49q63 -45 215 -168q29 -29 21 -43q-20 -25 -68 0q-197 88 -287 145q-39 23 -39 43.5t37 46.5 q25 25 41 25z" />
<glyph unicode="&#xcd;" horiz-adv-x="694" d="M262 668q0 348 -6 448q-2 45 -5 61.5t-14.5 38t-35 29.5t-66.5 17q-57 10 -57 36q0 25 51 25q25 0 106.5 -3t116.5 -3q53 0 120 3t99 3q51 0 51.5 -24.5t-53.5 -34.5q-43 -8 -67.5 -20.5t-36.5 -37t-13 -30.5l-8 -43q-12 -82 -12 -603q0 -207 6 -305q4 -90 30 -123.5 t120 -52.5q53 -8 53 -34.5t-55 -26.5q-57 0 -170 6t-135 6q-29 0 -73 -2t-83 -2q-53 0 -53 29q0 23 61 34q74 16 93.5 44t25.5 106q10 119 10 459zM559 1690q31 20 57 10q18 -8 39 -27.5t21 -38.5q0 -29 -41 -53q-182 -100 -307 -147q-49 -20 -70 0q-2 0 -2 6t6 18t21 25 q120 103 276 207z" />
<glyph unicode="&#xce;" horiz-adv-x="694" d="M262 668q0 348 -6 448q-2 45 -5 61.5t-14.5 38t-35 29.5t-66.5 17q-57 10 -57 36q0 25 51 25q25 0 106.5 -3t116.5 -3q53 0 120 3t99 3q51 0 51.5 -24.5t-53.5 -34.5q-43 -8 -67.5 -20.5t-36.5 -37t-13 -30.5l-8 -43q-12 -82 -12 -603q0 -207 6 -305q4 -90 30 -123.5 t120 -52.5q53 -8 53 -34.5t-55 -26.5q-57 0 -170 6t-135 6q-29 0 -73 -2t-83 -2q-53 0 -53 29q0 23 61 34q74 16 93.5 44t25.5 106q10 119 10 459zM365 1671q20 0 75 -45l168 -143q35 -25 23 -45q-4 -8 -19 -8q-18 0 -57 16q-29 12 -59 28l-67 32l-56 28q-14 6 -33 -2 l-176 -84q-2 0 -23.5 -9t-31.5 -9q-55 0 0 49l4 4l83 71l93 78q49 39 76 39z" />
<glyph unicode="&#xcf;" horiz-adv-x="694" d="M262 668q0 348 -6 448q-2 45 -5 61.5t-14.5 38t-35 29.5t-66.5 17q-57 10 -57 36q0 25 51 25q25 0 106.5 -3t116.5 -3q53 0 120 3t99 3q51 0 51.5 -24.5t-53.5 -34.5q-43 -8 -67.5 -20.5t-36.5 -37t-13 -30.5l-8 -43q-12 -82 -12 -603q0 -207 6 -305q4 -90 30 -123.5 t120 -52.5q53 -8 53 -34.5t-55 -26.5q-57 0 -170 6t-135 6q-29 0 -73 -2t-83 -2q-53 0 -53 29q0 23 61 34q74 16 93.5 44t25.5 106q10 119 10 459zM150 1618q37 0 63.5 -29.5t26.5 -68.5q0 -43 -29 -66.5t-70 -23.5q-31 0 -57.5 24.5t-26.5 69.5q0 37 27 65.5t66 28.5z M561 1616q35 0 60.5 -30t25.5 -66.5t-27.5 -63t-64.5 -26.5q-35 0 -61.5 25.5t-26.5 64.5q0 43 27.5 69.5t66.5 26.5z" />
<glyph unicode="&#xd0;" horiz-adv-x="1546" d="M90 715l156 2q16 0 16 22q-2 55 -5 179t-3 161q-4 104 -22.5 135t-108.5 43q-47 8 -47 31q0 29 49 29h59q41 0 225.5 9t282.5 9q193 0 339.5 -61.5t228.5 -136.5q82 -80 134 -206t52 -247q0 -205 -100.5 -363.5t-227.5 -228.5q-199 -115 -487 -115q-184 0 -402 17 q-39 2 -108 2q-66 0 -66 31q0 23 43 30q104 12 131 51t29 164q0 61 2 171t2 171q0 23 -12 23l-150 2q-27 0 -26 31q0 45 16 45zM805 641l-361 -4q-12 0 -12 -21q6 -379 8 -419q8 -82 45 -105q29 -20 81 -36.5t89 -16.5q84 0 192.5 33.5t188.5 99.5q211 180 211 512 q0 133 -60.5 263t-158.5 206q-76 55 -192.5 87t-233.5 32q-113 0 -139 -17q-18 -12 -23 -28q-2 -10 -3 -92t-2 -206t-3 -192q0 -20 14 -20h353q33 0 32 -17q0 -20 -8 -39.5t-18 -19.5z" />
<glyph unicode="&#xd1;" horiz-adv-x="1579" d="M31 1298q0 25 67 25q14 0 102.5 -3t147.5 -3q16 0 43 -27l162 -203q96 -121 680 -757q8 -8 14 -1t6 15q4 27 4 582q0 98 -10 204q-2 41 -27.5 72t-101.5 53q-55 16 -55 45q0 18 53 19q25 0 83 -1t93 -1q39 0 103.5 4t89.5 4q47 0 47 -22q0 -27 -49 -41q-72 -16 -99.5 -44 t-31.5 -106q-23 -406 -23 -829q0 -49 7 -156t7 -117q0 -43 -28 -43q-20 0 -48 21.5t-44 44.5q-14 16 -55.5 71.5l-71.5 92.5l-731 850q-6 8 -14.5 6t-8.5 -11q0 -14 -3 -54t-5 -93t-2 -125q0 -70 -1 -214t-2 -216t1 -133q6 -72 30.5 -102.5t98.5 -51.5q51 -12 51 -37 q0 -27 -66 -26q-29 0 -104.5 5t-114.5 5q-25 0 -70.5 -2t-62.5 -2q-53 0 -53 22.5t41 34.5q59 20 80.5 31.5t40 49.5t22.5 112q39 631 39 827q0 78 -14 98q-37 45 -64.5 59.5t-89.5 31.5q-12 2 -18 4q-45 12 -45 32zM573 1481q35 53 68 96q14 18 51 18q254 0 289 9 q31 8 66 61q14 14 18 14q16 0 31 -28q8 -16 -6 -31q-12 -12 -53.5 -65.5t-51.5 -63.5q-12 -12 -29 -12q-285 0 -299 -4q-20 -6 -57 -56q-8 -14 -18 -14q-14 0 -22.5 10t-8.5 17q-1 12 22 49z" />
<glyph unicode="&#xd2;" horiz-adv-x="1599" d="M788 1354q297 0 504 -194.5t207 -483.5q0 -201 -83 -352.5t-208 -241.5q-170 -119 -403 -119q-156 0 -297 62.5t-236 171.5q-170 188 -170 462q0 338 267 551q76 61 194.5 102.5t224.5 41.5zM743 1286q-68 0 -149.5 -32.5t-132.5 -84.5q-160 -156 -160 -481 q0 -244 160 -449.5t393 -205.5q180 0 270 98q72 63 123 189t51 294q0 166 -66.5 317.5t-180.5 244.5q-61 49 -148.5 79.5t-159.5 30.5zM616 1720q12 0 80 -49q63 -45 215 -168q29 -29 21 -43q-20 -25 -68 0q-197 88 -286 146q-39 23 -39 43t36 47q25 24 41 24z" />
<glyph unicode="&#xd3;" horiz-adv-x="1599" d="M788 1354q297 0 504 -194.5t207 -483.5q0 -201 -83 -352.5t-208 -241.5q-170 -119 -403 -119q-156 0 -297 62.5t-236 171.5q-170 188 -170 462q0 338 267 551q76 61 194.5 102.5t224.5 41.5zM743 1286q-68 0 -149.5 -32.5t-132.5 -84.5q-160 -156 -160 -481 q0 -244 160 -449.5t393 -205.5q180 0 270 98q72 63 123 189t51 294q0 166 -66.5 317.5t-180.5 244.5q-61 49 -148.5 79.5t-159.5 30.5zM975 1708q31 20 57 10q18 -8 39 -27.5t21 -37.5q0 -29 -41 -54q-182 -100 -308 -147q-49 -20 -69 0q-2 0 -2 6t6 18.5t20 24.5 q121 103 277 207z" />
<glyph unicode="&#xd4;" horiz-adv-x="1599" d="M788 1354q297 0 504 -194.5t207 -483.5q0 -201 -83 -352.5t-208 -241.5q-170 -119 -403 -119q-156 0 -297 62.5t-236 171.5q-170 188 -170 462q0 338 267 551q76 61 194.5 102.5t224.5 41.5zM743 1286q-68 0 -149.5 -32.5t-132.5 -84.5q-160 -156 -160 -481 q0 -244 160 -449.5t393 -205.5q180 0 270 98q72 63 123 189t51 294q0 166 -66.5 317.5t-180.5 244.5q-61 49 -148.5 79.5t-159.5 30.5zM815 1686q20 0 76 -46l168 -143q35 -25 22 -45q-4 -8 -18 -8q-18 0 -57 16q-29 12 -60 28l-66 33l-57 27q-14 8 -32 -2l-177 -84 q-2 0 -23.5 -9t-31.5 -9q-55 0 0 49l4 4l83 72l93 78q49 39 76 39z" />
<glyph unicode="&#xd5;" horiz-adv-x="1599" d="M788 1354q297 0 504 -194.5t207 -483.5q0 -201 -83 -352.5t-208 -241.5q-170 -119 -403 -119q-156 0 -297 62.5t-236 171.5q-170 188 -170 462q0 338 267 551q76 61 194.5 102.5t224.5 41.5zM743 1286q-68 0 -149.5 -32.5t-132.5 -84.5q-160 -156 -160 -481 q0 -244 160 -449.5t393 -205.5q180 0 270 98q72 63 123 189t51 294q0 166 -66.5 317.5t-180.5 244.5q-61 49 -148.5 79.5t-159.5 30.5zM547 1520q35 53 67 96q16 18 52 18q254 0 288 8q31 8 66 62q14 14 18 14q16 0 31 -28q8 -16 -6 -31q-12 -12 -53 -65.5t-52 -63.5 q-12 -12 -28 -12q-283 0 -299 -5q-20 -6 -58 -55q-8 -14 -18 -14q-14 0 -22.5 10t-8.5 16q0 13 23 50z" />
<glyph unicode="&#xd6;" horiz-adv-x="1599" d="M788 1354q297 0 504 -194.5t207 -483.5q0 -201 -83 -352.5t-208 -241.5q-170 -119 -403 -119q-156 0 -297 62.5t-236 171.5q-170 188 -170 462q0 338 267 551q76 61 194.5 102.5t224.5 41.5zM743 1286q-68 0 -149.5 -32.5t-132.5 -84.5q-160 -156 -160 -481 q0 -244 160 -449.5t393 -205.5q180 0 270 98q72 63 123 189t51 294q0 166 -66.5 317.5t-180.5 244.5q-61 49 -148.5 79.5t-159.5 30.5zM602 1638q37 0 63.5 -29.5t26.5 -68.5q0 -43 -28.5 -66.5t-69.5 -23.5q-31 0 -57.5 24.5t-26.5 69.5q0 37 26.5 65.5t65.5 28.5z M1014 1636q35 0 60.5 -29.5t25.5 -66.5t-28 -63.5t-64 -26.5q-35 0 -61.5 25.5t-26.5 64.5q0 43 27.5 69.5t66.5 26.5z" />
<glyph unicode="&#xd7;" horiz-adv-x="1277" d="M190 874q-14 12 46 72q27 29 57 -2l330 -332q18 -16 36 -2l336 346q20 23 37 5q57 -55 37 -76l-340 -348q-6 -8 -4 -21.5t8 -19.5l342 -340q29 -33 -33 -95q-18 -18 -41 5l-350 352q-16 16 -24.5 16t-22.5 -16l-321 -326q-20 -18 -29.5 -20t-24.5 10q-16 14 -27.5 41 t-2.5 35l336 338q18 18 0 34z" />
<glyph unicode="&#xd8;" horiz-adv-x="1599" d="M788 1354q219 0 404 -117q8 -4 20 8q10 12 31 40t29 36q23 29 33 29q20 0 34 -25q4 -2 5.5 -11t-3.5 -11q-6 -10 -77 -105q-6 -6 0 -12q113 -96 174 -231.5t61 -280.5q0 -199 -84 -350.5t-211 -241.5q-170 -119 -403 -119q-205 0 -377 109q-18 6 -25 -2l-37 -45l-34 -42 l-29 -36q-4 -8 -23.5 -6t-27.5 10t-10 21.5t2 17.5l96 127q6 10 -4 20q-229 207 -230 520q0 340 263 547q76 63 197.5 106.5t225.5 43.5zM737 1282q-68 0 -144.5 -30.5t-127.5 -82.5q-160 -150 -160 -479q0 -231 137 -424q6 -8 15 2l657 848q6 10 0 17q-160 149 -377 149z M846 31q164 0 272 94q72 68 126 196t54 295q0 109 -35.5 228t-93.5 209q-8 14 -16 2l-651 -848q-2 -2 -2 -8t2 -11q66 -66 163 -111.5t181 -45.5z" />
<glyph unicode="&#xd9;" horiz-adv-x="1560" d="M76 1298q0 25 59 25q45 0 109.5 -3t101.5 -3q41 0 110.5 2t88.5 2q63 0 63 -23q0 -27 -61 -38q-59 -12 -88 -36t-37 -81q-8 -53 -8 -572q0 -158 29.5 -242.5t84.5 -148.5q43 -47 130 -79.5t167 -32.5q123 0 236 67.5t147 218.5q45 199 45 514q0 166 -8 265 q-4 61 -28.5 87.5t-106.5 45.5q-16 4 -29.5 15t-13.5 22q0 20 47 20q25 0 82 -3t92 -3q45 0 102.5 2t82.5 2q51 0 51 -23q0 -20 -45 -36q-70 -20 -100.5 -58.5t-32.5 -130.5l-10 -217q-7 -168 -9 -205q-14 -483 -256 -618q-117 -66 -295 -66q-123 0 -223 39t-147 82 q-88 84 -126 217t-38 385q0 379 -9 486q-6 66 -110 88q-47 11 -47 34zM608 1692q12 0 80 -50q63 -45 215 -167q29 -29 21 -43q-20 -25 -68 0q-197 88 -287 145q-39 23 -39 43t37 47q25 25 41 25z" />
<glyph unicode="&#xda;" horiz-adv-x="1560" d="M76 1298q0 25 59 25q45 0 109.5 -3t101.5 -3q41 0 110.5 2t88.5 2q63 0 63 -23q0 -27 -61 -38q-59 -12 -88 -36t-37 -81q-8 -53 -8 -572q0 -158 29.5 -242.5t84.5 -148.5q43 -47 130 -79.5t167 -32.5q123 0 236 67.5t147 218.5q45 199 45 514q0 166 -8 265 q-4 61 -28.5 87.5t-106.5 45.5q-16 4 -29.5 15t-13.5 22q0 20 47 20q25 0 82 -3t92 -3q45 0 102.5 2t82.5 2q51 0 51 -23q0 -20 -45 -36q-70 -20 -100.5 -58.5t-32.5 -130.5l-10 -217q-7 -168 -9 -205q-14 -483 -256 -618q-117 -66 -295 -66q-123 0 -223 39t-147 82 q-88 84 -126 217t-38 385q0 379 -9 486q-6 66 -110 88q-47 11 -47 34zM1020 1673q31 20 57 10q18 -8 39 -27.5t21 -37.5q0 -29 -41 -53q-182 -100 -308 -148q-49 -20 -69 0q-2 0 -2 6.5t6 18.5t20 24q121 103 277 207z" />
<glyph unicode="&#xdb;" horiz-adv-x="1560" d="M76 1298q0 25 59 25q45 0 109.5 -3t101.5 -3q41 0 110.5 2t88.5 2q63 0 63 -23q0 -27 -61 -38q-59 -12 -88 -36t-37 -81q-8 -53 -8 -572q0 -158 29.5 -242.5t84.5 -148.5q43 -47 130 -79.5t167 -32.5q123 0 236 67.5t147 218.5q45 199 45 514q0 166 -8 265 q-4 61 -28.5 87.5t-106.5 45.5q-16 4 -29.5 15t-13.5 22q0 20 47 20q25 0 82 -3t92 -3q45 0 102.5 2t82.5 2q51 0 51 -23q0 -20 -45 -36q-70 -20 -100.5 -58.5t-32.5 -130.5l-10 -217q-7 -168 -9 -205q-14 -483 -256 -618q-117 -66 -295 -66q-123 0 -223 39t-147 82 q-88 84 -126 217t-38 385q0 379 -9 486q-6 66 -110 88q-47 11 -47 34zM829 1671q20 0 76 -45l168 -143q35 -25 23 -45q-4 -8 -19 -8q-18 0 -57 16q-29 12 -59 28l-67 32l-56 28q-14 6 -33 -2l-176 -84q-2 0 -23.5 -9t-32.5 -9q-55 0 0 49l5 4l82 71l94 78q48 39 75 39z" />
<glyph unicode="&#xdc;" horiz-adv-x="1560" d="M76 1298q0 25 59 25q45 0 109.5 -3t101.5 -3q41 0 110.5 2t88.5 2q63 0 63 -23q0 -27 -61 -38q-59 -12 -88 -36t-37 -81q-8 -53 -8 -572q0 -158 29.5 -242.5t84.5 -148.5q43 -47 130 -79.5t167 -32.5q123 0 236 67.5t147 218.5q45 199 45 514q0 166 -8 265 q-4 61 -28.5 87.5t-106.5 45.5q-16 4 -29.5 15t-13.5 22q0 20 47 20q25 0 82 -3t92 -3q45 0 102.5 2t82.5 2q51 0 51 -23q0 -20 -45 -36q-70 -20 -100.5 -58.5t-32.5 -130.5l-10 -217q-7 -168 -9 -205q-14 -483 -256 -618q-117 -66 -295 -66q-123 0 -223 39t-147 82 q-88 84 -126 217t-38 385q0 379 -9 486q-6 66 -110 88q-47 11 -47 34zM629 1616q37 0 63.5 -30t26.5 -68q0 -43 -28.5 -67t-69.5 -24q-31 0 -57.5 25t-26.5 70q0 37 26.5 65.5t65.5 28.5zM1040 1614q35 0 60.5 -30t25.5 -66.5t-27.5 -63.5t-64.5 -27q-35 0 -61.5 26 t-26.5 65q0 43 27.5 69.5t66.5 26.5z" />
<glyph unicode="&#xdd;" horiz-adv-x="1273" d="M6 1305q0 23 55 22q8 0 92.5 -5t141.5 -5q25 0 68 2t88 2t45 -23q0 -27 -45 -38q-51 -12 -54.5 -34t23.5 -61q45 -86 268 -448q2 -4 10.5 -3t10.5 7q53 78 264 422q31 55 16.5 78.5t-76.5 38.5q-43 12 -43 40q0 18 48 19q27 0 68.5 -1t64.5 -1q43 0 130 4t97 4 q43 0 43 -20.5t-53 -36.5q-119 -31 -224 -160q-57 -72 -160.5 -231.5t-111.5 -169.5q-51 -74 -51 -125q0 -336 12 -435q6 -35 35 -55t111 -41q55 -14 55 -36.5t-62 -22.5q-12 0 -81.5 4t-96.5 4q-74 0 -178 -6t-108 -6q-51 0 -52 22q0 27 58 37q129 29 133 98q6 84 6 424 q0 25 -18 74q-57 123 -261 430q-74 111 -109.5 144.5t-101.5 48.5q-57 12 -57 39zM887 1669q31 20 57 10q18 -8 39 -27.5t21 -37.5q0 -29 -41 -53q-182 -100 -308 -148q-49 -20 -69 0q-2 0 -2 6t6 18.5t20 24.5q121 103 277 207z" />
<glyph unicode="&#xde;" horiz-adv-x="1124" d="M252 285q8 113 8 809q0 29 -2 50t-3 36.5t-8 27t-9 17.5t-17.5 12t-19.5 8t-26.5 9.5t-31.5 9.5q-41 12 -41 32q0 25 50 25q29 0 99.5 -2t94.5 -2q20 0 94 2t111 2q51 0 51 -27q0 -20 -53 -34q-86 -20 -101.5 -45t-15.5 -152q0 -6 5 -12.5t9.5 -6.5t65.5 3.5t104 3.5 q174 0 300 -89.5t126 -275.5q0 -178 -124.5 -283.5t-307.5 -105.5q-100 0 -161 22q-16 4 -17 -10q0 -133 11.5 -171t43.5 -52q49 -18 105 -29q16 -2 31.5 -11t15.5 -21q0 -31 -66 -31q-16 0 -101 3t-136 3q-37 0 -110.5 -3t-102.5 -3q-47 0 -47 26q0 25 45 37 q88 25 105.5 55t25.5 173zM860 670q0 166 -94 240.5t-227 74.5q-84 0 -97 -31q-10 -37 -10 -67v-465q0 -29 21 -35q57 -16 108 -16q115 0 207 81t92 218z" />
<glyph unicode="&#xdf;" horiz-adv-x="1028" d="M645 1462q143 0 217 -93t74 -198q0 -20 -1 -38.5t-5 -34.5l-7 -29q-3 -12 -10.5 -25.5t-10.5 -20.5t-13 -19.5t-13.5 -15.5t-15.5 -16.5t-14 -15.5q-10 -12 -131 -122q-2 -2 -14.5 -13.5t-15.5 -15.5t-13 -14.5l-14 -14.5l-10 -14q-7 -10 -9 -17.5t-4 -16.5t-2 -19 q0 -45 51 -78q123 -90 176 -133q37 -31 54.5 -50.5t34 -60.5t16.5 -94q0 -94 -62.5 -170t-157.5 -117q-72 -31 -127 -31q-20 0 -42.5 5.5t-47 27t-24.5 53.5q0 16 11 42t22 36q29 18 41 8q31 -25 76.5 -43t70.5 -18q66 0 98.5 33t32.5 82q0 39 -12.5 68.5t-55.5 65.5t-63 50 l-98 66q-127 80 -127 200q0 49 39 92l127 123q84 78 116.5 146.5t32.5 152.5q0 78 -58.5 147.5t-163 69.5t-152.5 -60t-76 -189q-25 -111 -25 -594q0 -305 10 -418q2 -29 17.5 -43.5t46.5 -24.5q49 -18 49 -33q0 -25 -57 -24q-8 0 -55.5 2t-88.5 2q-25 0 -84 -4t-74 -4 q-51 0 -51 20.5t53 34.5q43 14 57.5 30.5t20.5 43.5q8 41 9 350q0 61 -1.5 126t-1.5 69q0 31 -28 34q-8 2 -34 5.5t-34 5.5t-9 19.5t7 25.5t21 16l28 19q16 10 27 18q25 20 25 41q0 301 157 475q129 137 295 137z" />
<glyph unicode="&#xe0;" horiz-adv-x="813" d="M274 1335q23 0 54 -71q82 -170 125 -299q16 -51 -8.5 -51.5t-47.5 32.5q-102 133 -190 287q-18 31 -19 55q0 23 33 35q24 12 53 12zM426 827q119 0 184 -96q41 -57 41 -170q0 -47 -4 -201.5t-4 -158.5q0 -43 18.5 -67.5t34 -30t29.5 -5.5q35 0 78 31q6 4 12 -6 q6 -6 6 -21q0 -33 -60.5 -80t-123.5 -47q-98 0 -131 103q0 2 -5 6t-7 2q-96 -68 -185 -94q-35 -12 -82 -12q-55 0 -98 57t-43 133q0 55 39 104q16 20 82 52q18 6 122 36l117 35q59 18 60 37q4 37 4 168q0 45 -45 91t-115 46q-53 0 -84 -22q-23 -10 -14 -84q0 -10 -12 -23 q-14 -12 -69.5 -39.5t-64 -27.5t-16.5 9t-8 17q0 80 154 181q43 31 101 54t89 23zM365 86q45 0 110 35q8 6 16.5 25.5t8.5 25.5q4 49 4 160q0 16 -17 16q-84 0 -211 -61q-41 -29 -40 -78q0 -59 43 -91t86 -32z" />
<glyph unicode="&#xe1;" horiz-adv-x="813" d="M481 1280q23 43 49 43q63 0 78 -16q10 -14 -10 -56q-80 -152 -182 -303q-27 -39 -54 -39q-25 0 -8 56q43 131 127 315zM426 827q119 0 184 -96q41 -57 41 -170q0 -47 -4 -201.5t-4 -158.5q0 -43 18.5 -67.5t34 -30t29.5 -5.5q35 0 78 31q6 4 12 -6q6 -6 6 -21 q0 -33 -60.5 -80t-123.5 -47q-98 0 -131 103q0 2 -5 6t-7 2q-96 -68 -185 -94q-35 -12 -82 -12q-55 0 -98 57t-43 133q0 55 39 104q16 20 82 52q18 6 122 36l117 35q59 18 60 37q4 37 4 168q0 45 -45 91t-115 46q-53 0 -84 -22q-23 -10 -14 -84q0 -10 -12 -23 q-14 -12 -69.5 -39.5t-64 -27.5t-16.5 9t-8 17q0 80 154 181q43 31 101 54t89 23zM365 86q45 0 110 35q8 6 16.5 25.5t8.5 25.5q4 49 4 160q0 16 -17 16q-84 0 -211 -61q-41 -29 -40 -78q0 -59 43 -91t86 -32z" />
<glyph unicode="&#xe2;" horiz-adv-x="813" d="M389 1305q18 0 57 -78l136 -256q31 -70 -4 -70q-20 0 -50 39q-14 23 -65 91.5t-70 96.5q-8 16 -18 2q-76 -117 -137 -194q-20 -31 -43 -31q-10 0 -13.5 15.5t2.5 31.5q29 68 148 285q37 68 57 68zM426 827q119 0 184 -96q41 -57 41 -170q0 -47 -4 -201.5t-4 -158.5 q0 -43 18.5 -67.5t34 -30t29.5 -5.5q35 0 78 31q6 4 12 -6q6 -6 6 -21q0 -33 -60.5 -80t-123.5 -47q-98 0 -131 103q0 2 -5 6t-7 2q-96 -68 -185 -94q-35 -12 -82 -12q-55 0 -98 57t-43 133q0 55 39 104q16 20 82 52q18 6 122 36l117 35q59 18 60 37q4 37 4 168q0 45 -45 91 t-115 46q-53 0 -84 -22q-23 -10 -14 -84q0 -10 -12 -23q-14 -12 -69.5 -39.5t-64 -27.5t-16.5 9t-8 17q0 80 154 181q43 31 101 54t89 23zM365 86q45 0 110 35q8 6 16.5 25.5t8.5 25.5q4 49 4 160q0 16 -17 16q-84 0 -211 -61q-41 -29 -40 -78q0 -59 43 -91t86 -32z" />
<glyph unicode="&#xe3;" horiz-adv-x="813" d="M254 1049q-18 0 -61 -48q-10 -12 -21 -12q-4 0 -15.5 14.5t-11.5 18.5q0 2 16.5 24.5t49.5 56.5t65 54q14 12 31 8q68 -18 195 -18q43 0 59 12q25 18 51 51q6 6 24.5 -7t18.5 -21t-6 -13l-127 -127q-12 -14 -22 -14q-8 0 -104.5 10.5t-141.5 10.5zM426 827q119 0 184 -96 q41 -57 41 -170q0 -47 -4 -201.5t-4 -158.5q0 -43 18.5 -67.5t34 -30t29.5 -5.5q35 0 78 31q6 4 12 -6q6 -6 6 -21q0 -33 -60.5 -80t-123.5 -47q-98 0 -131 103q0 2 -5 6t-7 2q-96 -68 -185 -94q-35 -12 -82 -12q-55 0 -98 57t-43 133q0 55 39 104q16 20 82 52q18 6 122 36 l117 35q59 18 60 37q4 37 4 168q0 45 -45 91t-115 46q-53 0 -84 -22q-23 -10 -14 -84q0 -10 -12 -23q-14 -12 -69.5 -39.5t-64 -27.5t-16.5 9t-8 17q0 80 154 181q43 31 101 54t89 23zM365 86q45 0 110 35q8 6 16.5 25.5t8.5 25.5q4 49 4 160q0 16 -17 16q-84 0 -211 -61 q-41 -29 -40 -78q0 -59 43 -91t86 -32z" />
<glyph unicode="&#xe4;" horiz-adv-x="813" d="M219 1229q35 0 59.5 -29t24.5 -65q0 -43 -26.5 -67t-61.5 -24q-31 0 -58.5 25t-27.5 63.5t25.5 67.5t64.5 29zM565 1227q35 0 61.5 -29t26.5 -63q0 -37 -27.5 -64t-64.5 -27q-35 0 -61.5 26t-26.5 63q0 43 28.5 68.5t63.5 25.5zM426 827q119 0 184 -96q41 -57 41 -170 q0 -47 -4 -201.5t-4 -158.5q0 -43 18.5 -67.5t34 -30t29.5 -5.5q35 0 78 31q6 4 12 -6q6 -6 6 -21q0 -33 -60.5 -80t-123.5 -47q-98 0 -131 103q0 2 -5 6t-7 2q-96 -68 -185 -94q-35 -12 -82 -12q-55 0 -98 57t-43 133q0 55 39 104q16 20 82 52q18 6 122 36l117 35 q59 18 60 37q4 37 4 168q0 45 -45 91t-115 46q-53 0 -84 -22q-23 -10 -14 -84q0 -10 -12 -23q-14 -12 -69.5 -39.5t-64 -27.5t-16.5 9t-8 17q0 80 154 181q43 31 101 54t89 23zM365 86q45 0 110 35q8 6 16.5 25.5t8.5 25.5q4 49 4 160q0 16 -17 16q-84 0 -211 -61 q-41 -29 -40 -78q0 -59 43 -91t86 -32z" />
<glyph unicode="&#xe5;" horiz-adv-x="813" d="M385 1288q74 0 120 -49t46 -116.5t-46 -118t-120 -50.5t-120 50.5t-46 118t46 116.5t120 49zM383 1227q-39 0 -64.5 -31t-25.5 -74q0 -49 26.5 -77.5t65.5 -28.5q41 0 66.5 28.5t25.5 81.5q0 41 -27.5 71t-66.5 30zM426 827q119 0 184 -96q41 -57 41 -170 q0 -47 -4 -201.5t-4 -158.5q0 -43 18.5 -67.5t34 -30t29.5 -5.5q35 0 78 31q6 4 12 -6q6 -6 6 -21q0 -33 -60.5 -80t-123.5 -47q-98 0 -131 103q0 2 -5 6t-7 2q-96 -68 -185 -94q-35 -12 -82 -12q-55 0 -98 57t-43 133q0 55 39 104q16 20 82 52q18 6 122 36l117 35 q59 18 60 37q4 37 4 168q0 45 -45 91t-115 46q-53 0 -84 -22q-23 -10 -14 -84q0 -10 -12 -23q-14 -12 -69.5 -39.5t-64 -27.5t-16.5 9t-8 17q0 80 154 181q43 31 101 54t89 23zM365 86q45 0 110 35q8 6 16.5 25.5t8.5 25.5q4 49 4 160q0 16 -17 16q-84 0 -211 -61 q-41 -29 -40 -78q0 -59 43 -91t86 -32z" />
<glyph unicode="&#xe6;" horiz-adv-x="1150" d="M82 571q0 45 63 101q102 84 203 137q43 23 92 22q104 0 181 -104q8 -8 16 0q141 104 244 104q104 0 162.5 -71.5t58.5 -155.5q0 -12 -11.5 -27.5t-25.5 -19.5q-221 -61 -393 -115q-18 -8 -19 -24q0 -139 6.5 -182t30.5 -74q47 -61 172 -62q41 0 79 11.5t58.5 23.5 t44.5 30l31 21q10 6 20.5 5t10.5 -7q0 -29 -14 -49q-43 -66 -129 -113t-183 -47q-160 0 -237 119q-12 12 -19 6q-172 -125 -250 -125q-66 0 -125 59.5t-59 147.5q0 111 131 156q33 10 118 42t122 42q33 10 41 18.5t8 24.5v60q0 32 1 48.5t1 36t-1 28.5t-3 19.5t-5 16.5 t-9 12q-55 51 -136 51q-47 0 -75 -24q-18 -14 -17 -39q2 -43 -6 -51q-115 -78 -154 -78q-8 0 -16 8t-8 18zM807 748q-68 0 -129 -56q-25 -20 -25 -65v-123q0 -4 7.5 -7t9.5 -1q160 39 227 71q49 20 49 68q0 18 -7 39.5t-41 47.5t-91 26zM367 86q33 0 75.5 21.5t59.5 52.5 q8 23 8 57v143q0 2 -3 5.5t-9 5.5t-17 0q-135 -45 -186 -75t-51 -85t36 -90t87 -35z" />
<glyph unicode="&#xe7;" horiz-adv-x="802" d="M522 827q147 0 215 -51q29 -23 29 -63q0 -18 -24.5 -46t-47.5 -28q-8 0 -16 4t-15 9l-25 19l-32 23q-51 37 -81.5 47.5t-80.5 10.5q-33 0 -71.5 -20.5t-61.5 -49.5q-86 -102 -86 -242q0 -156 89 -247t225 -91q117 0 194 70q8 8 16.5 5t8.5 -17q0 -39 -27 -62 q-82 -84 -199 -110l-30 -41l-26 -33q-9 -12 -11 -14q-6 -12 12 -25q45 -23 67.5 -37t43 -45t20.5 -72q0 -86 -100 -167q-82 -63 -141 -64q-33 0 -50 29q-14 31 -2 61q14 18 29 17q61 -12 82 -13q35 0 54.5 23.5t19.5 54.5q0 41 -35 68.5t-80 27.5q-20 0 -35 -2 q-8 0 -19.5 11.5t-11.5 19.5q0 10 13 27q45 61 129 161h-19q-201 0 -315 166q-61 104 -61 236q0 227 202 364q121 86 254 86z" />
<glyph unicode="&#xe8;" horiz-adv-x="802" d="M322 1335q23 0 53 -71q82 -170 125 -299q16 -51 -8.5 -51.5t-47.5 32.5q-102 133 -190 287q-18 31 -18 55q0 23 32 35q25 12 54 12zM469 825q125 0 203 -77q72 -68 71 -173q0 -10 -11 -22t-27 -12q-373 0 -467 2q-10 0 -17 -17q-10 -27 -10 -71q0 -131 78 -234 q35 -49 97.5 -80.5t131.5 -31.5q137 0 187 73q16 25 26 25q16 0 16.5 -24.5t-14.5 -49.5q-104 -154 -297 -153q-166 0 -267 113.5t-101 293.5q0 127 64.5 237.5t180.5 163.5q80 37 156 37zM449 772q-70 0 -124.5 -40t-82.5 -111q-2 -6 1 -14.5t7 -8.5q90 -4 264 0 q39 0 54.5 10t15.5 41q0 45 -41 84t-94 39z" />
<glyph unicode="&#xe9;" horiz-adv-x="802" d="M516 1280q20 43 49 43q63 0 78 -16q10 -14 -10 -56q-80 -152 -182 -303q-27 -39 -54 -39q-25 0 -8 56q43 131 127 315zM469 825q125 0 203 -77q72 -68 71 -173q0 -10 -11 -22t-27 -12q-373 0 -467 2q-10 0 -17 -17q-10 -27 -10 -71q0 -131 78 -234q35 -49 97.5 -80.5 t131.5 -31.5q137 0 187 73q16 25 26 25q16 0 16.5 -24.5t-14.5 -49.5q-104 -154 -297 -153q-166 0 -267 113.5t-101 293.5q0 127 64.5 237.5t180.5 163.5q80 37 156 37zM449 772q-70 0 -124.5 -40t-82.5 -111q-2 -6 1 -14.5t7 -8.5q90 -4 264 0q39 0 54.5 10t15.5 41 q0 45 -41 84t-94 39z" />
<glyph unicode="&#xea;" horiz-adv-x="802" d="M432 1313q18 0 57 -78l136 -256q31 -70 -4 -70q-20 0 -50 39q-14 23 -65 91.5t-70 97.5q-8 16 -18 2q-76 -117 -137 -195q-20 -31 -43 -31q-10 0 -13.5 15.5t2.5 32.5q29 68 148 284q37 68 57 68zM469 825q125 0 203 -77q72 -68 71 -173q0 -10 -11 -22t-27 -12 q-373 0 -467 2q-10 0 -17 -17q-10 -27 -10 -71q0 -131 78 -234q35 -49 97.5 -80.5t131.5 -31.5q137 0 187 73q16 25 26 25q16 0 16.5 -24.5t-14.5 -49.5q-104 -154 -297 -153q-166 0 -267 113.5t-101 293.5q0 127 64.5 237.5t180.5 163.5q80 37 156 37zM449 772 q-70 0 -124.5 -40t-82.5 -111q-2 -6 1 -14.5t7 -8.5q90 -4 264 0q39 0 54.5 10t15.5 41q0 45 -41 84t-94 39z" />
<glyph unicode="&#xeb;" horiz-adv-x="802" d="M266 1229q35 0 59.5 -29t24.5 -65q0 -43 -26.5 -67t-61.5 -24q-31 0 -58.5 25t-27.5 63.5t25.5 67.5t64.5 29zM612.5 1227q34.5 0 61 -29t26.5 -63q0 -37 -27.5 -64t-64.5 -27q-35 0 -61.5 26t-26.5 63q0 43 29 68.5t63.5 25.5zM469 825q125 0 203 -77q72 -68 71 -173 q0 -10 -11 -22t-27 -12q-373 0 -467 2q-10 0 -17 -17q-10 -27 -10 -71q0 -131 78 -234q35 -49 97.5 -80.5t131.5 -31.5q137 0 187 73q16 25 26 25q16 0 16.5 -24.5t-14.5 -49.5q-104 -154 -297 -153q-166 0 -267 113.5t-101 293.5q0 127 64.5 237.5t180.5 163.5 q80 37 156 37zM449 772q-70 0 -124.5 -40t-82.5 -111q-2 -6 1 -14.5t7 -8.5q90 -4 264 0q39 0 54.5 10t15.5 41q0 45 -41 84t-94 39z" />
<glyph unicode="&#xec;" horiz-adv-x="518" d="M123 1335q23 0 53 -71q82 -170 125 -299q16 -51 -8.5 -51.5t-46.5 32.5q-102 133 -191 287q-18 31 -18 55q0 23 33 35q24 12 53 12zM92 735q0 23 41 31q45 10 121 39t82 31q6 0 12 -10.5t6 -12.5q0 -6 -3 -84t-6 -174t-3 -147q0 -129 4 -273q0 -16 5 -28.5t9.5 -19.5 t17.5 -14t17 -9.5t24.5 -7.5t24.5 -7q45 -14 45 -34.5t-47 -20.5q-4 0 -69.5 3t-89.5 3q-37 0 -98.5 -4t-75.5 -4q-53 0 -54 22q0 18 49 33q74 18 82.5 57t8.5 211q0 307 -2 320q-2 18 -80 74q-21 12 -21 26z" />
<glyph unicode="&#xed;" horiz-adv-x="518" d="M332 1280q20 43 49 43q63 0 78 -16q10 -14 -10 -56q-80 -152 -183 -303q-27 -39 -53 -39q-25 0 -8 56q43 131 127 315zM92 735q0 23 41 31q45 10 121 39t82 31q6 0 12 -10.5t6 -12.5q0 -6 -3 -84t-6 -174t-3 -147q0 -129 4 -273q0 -16 5 -28.5t9.5 -19.5t17.5 -14 t17 -9.5t24.5 -7.5t24.5 -7q45 -14 45 -34.5t-47 -20.5q-4 0 -69.5 3t-89.5 3q-37 0 -98.5 -4t-75.5 -4q-53 0 -54 22q0 18 49 33q74 18 82.5 57t8.5 211q0 307 -2 320q-2 18 -80 74q-21 12 -21 26z" />
<glyph unicode="&#xee;" horiz-adv-x="518" d="M264 1313q18 0 58 -78l135 -256q31 -70 -4 -70q-20 0 -50 39q-14 23 -65 91.5t-70 97.5q-8 16 -18 2q-76 -117 -137 -195q-20 -31 -43 -31q-10 0 -13.5 15.5t2.5 32.5q29 68 148 284q37 68 57 68zM92 735q0 23 41 31q45 10 121 39t82 31q6 0 12 -10.5t6 -12.5 q0 -6 -3 -84t-6 -174t-3 -147q0 -129 4 -273q0 -16 5 -28.5t9.5 -19.5t17.5 -14t17 -9.5t24.5 -7.5t24.5 -7q45 -14 45 -34.5t-47 -20.5q-4 0 -69.5 3t-89.5 3q-37 0 -98.5 -4t-75.5 -4q-53 0 -54 22q0 18 49 33q74 18 82.5 57t8.5 211q0 307 -2 320q-2 18 -80 74 q-21 12 -21 26z" />
<glyph unicode="&#xef;" horiz-adv-x="518" d="M94 1229q35 0 59.5 -29t24.5 -65q0 -43 -26.5 -67t-61.5 -24q-31 0 -58.5 25t-27.5 63.5t25.5 67.5t64.5 29zM440.5 1227q34.5 0 61 -29t26.5 -63q0 -37 -27.5 -64t-64.5 -27q-35 0 -61.5 26t-26.5 63q0 43 29 68.5t63.5 25.5zM92 735q0 23 41 31q45 10 121 39t82 31 q6 0 12 -10.5t6 -12.5q0 -6 -3 -84t-6 -174t-3 -147q0 -129 4 -273q0 -16 5 -28.5t9.5 -19.5t17.5 -14t17 -9.5t24.5 -7.5t24.5 -7q45 -14 45 -34.5t-47 -20.5q-4 0 -69.5 3t-89.5 3q-37 0 -98.5 -4t-75.5 -4q-53 0 -54 22q0 18 49 33q74 18 82.5 57t8.5 211q0 307 -2 320 q-2 18 -80 74q-21 12 -21 26z" />
<glyph unicode="&#xf0;" horiz-adv-x="983" d="M131 1434q0 10 11.5 19t27.5 9q88 0 216 -61.5t224 -143.5q4 -4 13.5 -5t13.5 3l207 109q4 4 12 -1t8 -13q4 -27 -2 -43.5t-26 -28.5q-111 -57 -146 -78q-14 -8 -2 -20q211 -260 211 -652q0 -330 -194 -477q-102 -76 -220 -76q-176 0 -297.5 120t-121.5 306q0 125 71 236 q55 84 163 138t232 54q80 0 156 -32q8 -4 15.5 0t5.5 12q-33 174 -131 305q-12 16 -27 8l-264 -125q-8 -4 -16.5 0t-8.5 13q-2 20 0 34q4 10 17 19q18 10 221 115q10 6 6 16q-74 76 -168 133t-172 78q-35 6 -35 29zM494 760q-117 0 -181 -96q-72 -104 -71 -258 q0 -129 77.5 -247t198.5 -118q90 0 160 121q61 113 61 293q0 145 -57 211q-90 94 -188 94z" />
<glyph unicode="&#xf1;" horiz-adv-x="1067" d="M387 1051q-18 0 -61 -47q-10 -12 -21 -13q-4 0 -15 14.5t-11 18.5q0 2 16 24.5t49 56.5t66 54q14 12 30 8q68 -18 195 -18q43 0 59 12q25 18 51 51q6 6 24.5 -7t18.5 -21t-6 -13l-127 -127q-12 -14 -22 -14t-104.5 10.5t-141.5 10.5zM109 729q0 25 36 41q106 37 138 59 q37 23 49 23q6 0 13 -11.5t7 -19.5q0 -18 -4 -57t-4 -45t12 -6q166 113 275 112q119 0 186 -77q72 -84 72 -250q0 -287 6 -373q6 -53 76 -72q51 -14 51 -35q0 -23 -61 -22q-23 0 -72 2t-80 2q-29 0 -80 -2t-61 -2q-47 0 -47 24q0 18 47 35q37 14 49 32.5t14 70.5 q6 100 6 374q0 51 -19.5 93.5t-41.5 58.5q-53 39 -131 39q-109 0 -183 -66q-20 -20 -20 -49q0 -467 2 -491.5t16.5 -37.5t59.5 -26q37 -10 37 -30q0 -25 -51 -25q-10 0 -55.5 1t-69.5 1q-43 0 -100.5 -3t-69.5 -3q-53 0 -54 26q0 18 43 31q49 14 65.5 37t20.5 78 q10 102 11 448q0 39 -50 80q-38 27 -38 35z" />
<glyph unicode="&#xf2;" horiz-adv-x="987" d="M377 1339q23 0 53 -71q82 -170 125 -299q16 -51 -8.5 -51t-46.5 32q-102 133 -191 287q-18 31 -18 55q0 23 33 35q24 12 53 12zM512 827q162 0 286 -116.5t124 -300.5q0 -117 -55.5 -213.5t-123.5 -139.5q-113 -82 -254 -82q-145 0 -272 107q-66 53 -108.5 144t-42.5 169 q0 199 143 320q129 112 303 112zM473 766q-63 0 -133 -59q-41 -39 -70.5 -112t-29.5 -151q0 -104 24 -182q37 -109 112 -168t154 -59q57 0 125 67q37 41 65 122t28 149q0 195 -103 313q-74 80 -172 80z" />
<glyph unicode="&#xf3;" horiz-adv-x="987" d="M563 1280q23 43 49 43q63 0 78 -16q10 -14 -10 -56q-80 -152 -182 -303q-27 -39 -54 -39q-25 0 -8 56q43 131 127 315zM512 827q162 0 286 -116.5t124 -300.5q0 -117 -55.5 -213.5t-123.5 -139.5q-113 -82 -254 -82q-145 0 -272 107q-66 53 -108.5 144t-42.5 169 q0 199 143 320q129 112 303 112zM473 766q-63 0 -133 -59q-41 -39 -70.5 -112t-29.5 -151q0 -104 24 -182q37 -109 112 -168t154 -59q57 0 125 67q37 41 65 122t28 149q0 195 -103 313q-74 80 -172 80z" />
<glyph unicode="&#xf4;" horiz-adv-x="987" d="M492 1313q18 0 57 -78l135 -256q31 -70 -4 -70q-20 0 -49 39q-14 23 -65.5 91.5t-69.5 97.5q-8 16 -19 2q-76 -117 -137 -195q-20 -31 -43 -31q-10 0 -13 15.5t3 32.5q29 68 147 284q38 68 58 68zM512 827q162 0 286 -116.5t124 -300.5q0 -117 -55.5 -213.5 t-123.5 -139.5q-113 -82 -254 -82q-145 0 -272 107q-66 53 -108.5 144t-42.5 169q0 199 143 320q129 112 303 112zM473 766q-63 0 -133 -59q-41 -39 -70.5 -112t-29.5 -151q0 -104 24 -182q37 -109 112 -168t154 -59q57 0 125 67q37 41 65 122t28 149q0 195 -103 313 q-74 80 -172 80z" />
<glyph unicode="&#xf5;" horiz-adv-x="987" d="M346 1036q-18 0 -61 -47q-10 -12 -21 -12q-4 0 -15 14.5t-11 18.5q0 2 16 24.5t49 56t66 54.5q14 12 30 8q68 -18 195 -18q43 0 59 12q25 18 52 51q6 6 24.5 -7t18.5 -21.5t-7 -12.5l-127 -127q-12 -14 -22 -14t-104.5 10t-141.5 10zM512 827q162 0 286 -116.5 t124 -300.5q0 -117 -55.5 -213.5t-123.5 -139.5q-113 -82 -254 -82q-145 0 -272 107q-66 53 -108.5 144t-42.5 169q0 199 143 320q129 112 303 112zM473 766q-63 0 -133 -59q-41 -39 -70.5 -112t-29.5 -151q0 -104 24 -182q37 -109 112 -168t154 -59q57 0 125 67 q37 41 65 122t28 149q0 195 -103 313q-74 80 -172 80z" />
<glyph unicode="&#xf6;" horiz-adv-x="987" d="M326 1229q35 0 59.5 -29t24.5 -65q0 -43 -27 -67t-61 -24q-31 0 -58.5 25t-27.5 63.5t25.5 67.5t64.5 29zM672 1227q35 0 61.5 -29t26.5 -63q0 -37 -27.5 -64t-64.5 -27q-35 0 -61.5 26t-26.5 63q0 43 28.5 68.5t63.5 25.5zM512 827q162 0 286 -116.5t124 -300.5 q0 -117 -55.5 -213.5t-123.5 -139.5q-113 -82 -254 -82q-145 0 -272 107q-66 53 -108.5 144t-42.5 169q0 199 143 320q129 112 303 112zM473 766q-63 0 -133 -59q-41 -39 -70.5 -112t-29.5 -151q0 -104 24 -182q37 -109 112 -168t154 -59q57 0 125 67q37 41 65 122t28 149 q0 195 -103 313q-74 80 -172 80z" />
<glyph unicode="&#xf7;" horiz-adv-x="1277" d="M637 285q43 0 73.5 -32t30.5 -73q0 -47 -29.5 -79.5t-74.5 -32.5t-77 32.5t-32 79.5q0 41 32 73t77 32zM637 745q-41 0 -73 32t-32 75q0 45 32 78t73 33q47 0 77.5 -33t30.5 -78q0 -43 -30.5 -75t-77.5 -32zM1122 573q20 0 25.5 -4t5.5 -20q0 -35 -9 -58.5t-20 -23.5 h-958q-29 0 -36 5t-7 26q0 23 9 49t22 26h968z" />
<glyph unicode="&#xf8;" horiz-adv-x="987" d="M516 827q96 0 193 -51q10 -10 18 0l53 64q18 18 29 18q12 0 24.5 -15.5t6.5 -23.5l-28 -38l-30 -42q-4 -10 4 -18q135 -129 136 -326q0 -102 -57.5 -201.5t-121.5 -140.5q-106 -78 -254 -78q-100 0 -210 64q-16 8 -23 0l-70 -84q-8 -8 -18 -2q-37 27 -23 41q37 49 64 80 q6 6 -8 20q-135 127 -135 295q0 205 141 324q131 114 309 114zM344 127q92 -92 178 -92q74 0 137 65q37 43 65 127t28 154q0 127 -47 221q-2 4 -6.5 8t-7.5 4t-5 -2l-344 -456q-8 -13 2 -29zM471 766q-72 0 -131 -53q-41 -37 -72.5 -114t-31.5 -155q0 -147 51 -231 q2 -4 8 -6t12 2l342 459q2 4 -6 22q-80 76 -172 76z" />
<glyph unicode="&#xf9;" horiz-adv-x="1019" d="M369 1335q23 0 53 -71q82 -170 125 -299q16 -51 -8.5 -51.5t-46.5 32.5q-102 133 -191 287q-18 31 -18 55q0 23 32 35q25 12 54 12zM504 78q74 0 155 72q31 27 31 49l4 471q0 8 -12 24.5t-23 20.5q-82 23 -94 24q-41 12 -41 33q0 6 15.5 12.5t31.5 6.5q133 0 220 22 q27 8 49 8q14 0 14 -30q-4 -53 -12 -310.5t-8 -369.5q0 -6 7 -17.5t17 -11.5q6 0 47 5t56 5q12 0 24 -39q0 -4 -8 -12t-14 -8q-53 -4 -187 -39q-63 -18 -71 -19q-6 0 -13.5 9.5t-7.5 19.5q0 6 3 37t5 49q0 8 -3 12t-7 2q-131 -90 -168 -104q-59 -25 -137 -25q-119 0 -180 97 q-29 45 -29 96q0 379 -4 487q0 12 -2 21.5t-8.5 16.5t-9.5 12.5t-12 10.5t-13 7t-16.5 6t-14.5 6q-37 16 -37 37q0 18 35 19q25 0 77 6l95 11q43 5 45 5q16 0 16 -31q2 -39 -2 -277.5t-4 -271.5q0 -78 52 -114q53 -41 139 -41z" />
<glyph unicode="&#xfa;" horiz-adv-x="1019" d="M555 1282q23 43 49 43q63 0 78 -16q10 -14 -10 -56q-80 -152 -183 -303q-27 -39 -53 -39q-25 0 -8 56q43 131 127 315zM504 78q74 0 155 72q31 27 31 49l4 471q0 8 -12 24.5t-23 20.5q-82 23 -94 24q-41 12 -41 33q0 6 15.5 12.5t31.5 6.5q133 0 220 22q27 8 49 8 q14 0 14 -30q-4 -53 -12 -310.5t-8 -369.5q0 -6 7 -17.5t17 -11.5q6 0 47 5t56 5q12 0 24 -39q0 -4 -8 -12t-14 -8q-53 -4 -187 -39q-63 -18 -71 -19q-6 0 -13.5 9.5t-7.5 19.5q0 6 3 37t5 49q0 8 -3 12t-7 2q-131 -90 -168 -104q-59 -25 -137 -25q-119 0 -180 97 q-29 45 -29 96q0 379 -4 487q0 12 -2 21.5t-8.5 16.5t-9.5 12.5t-12 10.5t-13 7t-16.5 6t-14.5 6q-37 16 -37 37q0 18 35 19q25 0 77 6l95 11q43 5 45 5q16 0 16 -31q2 -39 -2 -277.5t-4 -271.5q0 -78 52 -114q53 -41 139 -41z" />
<glyph unicode="&#xfb;" horiz-adv-x="1019" d="M492 1313q18 0 57 -78l135 -256q31 -70 -4 -70q-20 0 -49 39q-14 23 -65.5 91.5t-69.5 97.5q-8 16 -19 2q-76 -117 -137 -195q-20 -31 -43 -31q-10 0 -13 15.5t3 32.5q29 68 147 284q38 68 58 68zM504 78q74 0 155 72q31 27 31 49l4 471q0 8 -12 24.5t-23 20.5 q-82 23 -94 24q-41 12 -41 33q0 6 15.5 12.5t31.5 6.5q133 0 220 22q27 8 49 8q14 0 14 -30q-4 -53 -12 -310.5t-8 -369.5q0 -6 7 -17.5t17 -11.5q6 0 47 5t56 5q12 0 24 -39q0 -4 -8 -12t-14 -8q-53 -4 -187 -39q-63 -18 -71 -19q-6 0 -13.5 9.5t-7.5 19.5q0 6 3 37t5 49 q0 8 -3 12t-7 2q-131 -90 -168 -104q-59 -25 -137 -25q-119 0 -180 97q-29 45 -29 96q0 379 -4 487q0 12 -2 21.5t-8.5 16.5t-9.5 12.5t-12 10.5t-13 7t-16.5 6t-14.5 6q-37 16 -37 37q0 18 35 19q25 0 77 6l95 11q43 5 45 5q16 0 16 -31q2 -39 -2 -277.5t-4 -271.5 q0 -78 52 -114q53 -41 139 -41z" />
<glyph unicode="&#xfc;" horiz-adv-x="1019" d="M311 1229q35 0 59.5 -29t24.5 -65q0 -43 -26.5 -67t-61.5 -24q-31 0 -58.5 25t-27.5 63.5t25.5 67.5t64.5 29zM657.5 1227q34.5 0 61 -29t26.5 -63q0 -37 -27.5 -64t-64.5 -27q-35 0 -61.5 26t-26.5 63q0 43 29 68.5t63.5 25.5zM504 78q74 0 155 72q31 27 31 49l4 471 q0 8 -12 24.5t-23 20.5q-82 23 -94 24q-41 12 -41 33q0 6 15.5 12.5t31.5 6.5q133 0 220 22q27 8 49 8q14 0 14 -30q-4 -53 -12 -310.5t-8 -369.5q0 -6 7 -17.5t17 -11.5q6 0 47 5t56 5q12 0 24 -39q0 -4 -8 -12t-14 -8q-53 -4 -187 -39q-63 -18 -71 -19q-6 0 -13.5 9.5 t-7.5 19.5q0 6 3 37t5 49q0 8 -3 12t-7 2q-131 -90 -168 -104q-59 -25 -137 -25q-119 0 -180 97q-29 45 -29 96q0 379 -4 487q0 12 -2 21.5t-8.5 16.5t-9.5 12.5t-12 10.5t-13 7t-16.5 6t-14.5 6q-37 16 -37 37q0 18 35 19q25 0 77 6l95 11q43 5 45 5q16 0 16 -31 q2 -39 -2 -277.5t-4 -271.5q0 -78 52 -114q53 -41 139 -41z" />
<glyph unicode="&#xfd;" horiz-adv-x="847" d="M541 1280q20 43 49 43q63 0 78 -16q10 -14 -11 -56q-80 -152 -182 -303q-27 -39 -53 -39q-25 0 -8 56q43 131 127 315zM-10 780q0 25 49 25q25 0 77 -4t83 -4q33 0 84 2t59 2q45 0 45 -22.5t-47 -35.5q-43 -12 -50 -25t7 -54q23 -70 94.5 -246t83.5 -197q2 -2 4 -2t6 2 t7 8q18 39 85.5 215.5t75.5 202.5q14 43 -2 64.5t-76 36.5q-43 10 -43 28q0 25 52 25q20 0 64 -2t56.5 -2t55.5 4t74 4q41 0 40 -19q0 -20 -45 -34q-61 -20 -100 -107q-94 -213 -225 -545l-213 -571q-6 -23 -36 -40t-71 -17q-47 0 -69.5 30.5t-22.5 69.5q0 31 25.5 60.5 t64.5 29.5q4 0 33 -1t41 -1q16 0 31 35q12 23 49 123t49 141q12 59 6 74q-2 2 -31 84q-33 92 -109.5 275t-123.5 278q-8 18 -13 25t-15.5 18.5t-27 19.5t-40.5 17q-41 14 -41 30z" />
<glyph unicode="&#xfe;" horiz-adv-x="978" d="M145 154v421q0 483 -8 682q0 31 -10 41l-29 21l-23 16l-18 12q-8 5 -11 9t-3 8q0 6 16.5 18.5t22.5 14.5l65 16q68 18 91 31q37 18 43 18t15 -8t9 -16q0 -2 -8 -686q0 -6 6 -10.5t10 -0.5q49 29 133 60q57 20 142 20q57 0 120.5 -30.5t108.5 -81.5q98 -111 98 -269 q0 -88 -43 -186t-133 -166q-131 -102 -315 -102q-72 0 -109 6q-4 0 -12 -9.5t-8 -17.5q0 -283 6 -340q4 -43 23.5 -64.5t72.5 -39.5q59 -14 60 -35q0 -27 -54 -27q-18 0 -109 5.5t-134 5.5q-23 0 -62 -2.5t-71 -2.5q-59 0 -60 29q0 8 13.5 17.5t35.5 13.5q82 20 99.5 46 t23.5 138q6 103 6 445zM483 723q-121 0 -157 -27q-20 -16 -25 -61q-8 -45 -9 -177t3 -196q6 -63 24 -90q39 -55 99.5 -88t103.5 -33q55 0 92 35q70 57 104 147.5t34 151.5q0 156 -84 248q-37 39 -92.5 64.5t-92.5 25.5z" />
<glyph unicode="&#xff;" horiz-adv-x="847" d="M281 1229q35 0 59.5 -29t24.5 -65q0 -43 -27 -67t-62 -24q-31 0 -58.5 25t-27.5 63.5t26 67.5t65 29zM627 1227q35 0 61.5 -29t26.5 -63q0 -37 -28 -64t-64 -27q-35 0 -61.5 26t-26.5 63q0 43 28.5 68.5t63.5 25.5zM-10 780q0 25 49 25q25 0 77 -4t83 -4q33 0 84 2t59 2 q45 0 45 -22.5t-47 -35.5q-43 -12 -50 -25t7 -54q23 -70 94.5 -246t83.5 -197q2 -2 4 -2t6 2t7 8q18 39 85.5 215.5t75.5 202.5q14 43 -2 64.5t-76 36.5q-43 10 -43 28q0 25 52 25q20 0 64 -2t56.5 -2t55.5 4t74 4q41 0 40 -19q0 -20 -45 -34q-61 -20 -100 -107 q-94 -213 -225 -545l-213 -571q-6 -23 -36 -40t-71 -17q-47 0 -69.5 30.5t-22.5 69.5q0 31 25.5 60.5t64.5 29.5q4 0 33 -1t41 -1q16 0 31 35q12 23 49 123t49 141q12 59 6 74q-2 2 -31 84q-33 92 -109.5 275t-123.5 278q-8 18 -13 25t-15.5 18.5t-27 19.5t-40.5 17 q-41 14 -41 30z" />
<glyph unicode="&#x152;" horiz-adv-x="2170" d="M764 1282q-176 0 -291 -104q-168 -154 -168 -490q0 -160 60.5 -304t186.5 -242.5t292 -98.5q129 0 233 78q82 63 133.5 195.5t51.5 322.5q0 176 -36 289.5t-122 201.5q-145 152 -340 152zM1477 1317h286q39 0 102.5 2t76.5 2q6 0 16 -8t10 -19q2 -8 4 -89t0 -105 q-4 -53 -35 -53q-16 0 -30 43q-12 43 -22.5 68.5t-29 49t-40.5 25.5q-63 10 -340 10q-18 0 -25 -31q-14 -82 -14 -481q0 -8 6 -17t16 -9h168q113 0 146.5 20t60.5 100q12 33 34.5 33t22.5 -41q0 -12 -4 -59t-4 -72q-2 -41 3 -106.5t5 -75.5q0 -47 -28 -47q-23 0 -33 39 q-12 37 -17.5 49t-18.5 34.5t-32.5 29.5t-50.5 9q-76 4 -260 5q-14 0 -14 -21q0 -352 2 -379q10 -100 22 -117q18 -27 58.5 -36t158.5 -9q84 0 126 4.5t81 11.5t65.5 34.5t50 58.5t66.5 98q23 37 35 37q25 0 25 -47q0 -12 -43 -126t-53 -126q-20 -20 -52 -20q-6 0 -241.5 7 t-274.5 7q-29 0 -89 -2t-85 -2q-16 0 -21 13.5t-5 51.5l4 142q0 23 -13 4q-84 -113 -212 -177.5t-281 -64.5q-276 0 -467 204t-191 486q0 336 256 547q80 66 193 108t219 42q287 0 481 -226q4 -4 9.5 -1t5.5 12q0 27 -2 71.5t-2 61.5q0 47 22 47h193z" />
<glyph unicode="&#x153;" horiz-adv-x="1423" d="M512 827q84 0 160 -37.5t112 -74.5q14 -14 29 -2q133 109 279 108q143 0 213.5 -84t70.5 -170q0 -18 -27.5 -38.5t-66.5 -20.5h-397q-14 0 -19 -16q-8 -23 -8 -62q0 -137 65.5 -230.5t196.5 -93.5q119 0 213 87q10 10 20.5 9t10.5 -18q0 -27 -25 -57q-115 -143 -301 -143 q-80 0 -147.5 33.5t-106.5 76.5q-10 10 -18 -4q-115 -115 -287 -115q-174 0 -293.5 130.5t-119.5 289.5q0 236 176 350q120 82 270 82zM461 764q-61 0 -113 -47q-45 -37 -76.5 -116t-31.5 -177q0 -143 70.5 -264t201.5 -121q82 0 131 55q70 90 70 309q0 152 -57.5 256.5 t-194.5 104.5zM1071 760q-72 0 -122 -47t-72 -121q-6 -16 10 -25q6 0 120.5 4t135.5 4q27 0 45 19.5t18 34.5q0 47 -30.5 89t-104.5 42z" />
<glyph unicode="&#x178;" horiz-adv-x="1273" d="M6 1305q0 23 55 22q8 0 92.5 -5t141.5 -5q25 0 68 2t88 2t45 -23q0 -27 -45 -38q-51 -12 -54.5 -34t23.5 -61q45 -86 268 -448q2 -4 10.5 -3t10.5 7q53 78 264 422q31 55 16.5 78.5t-76.5 38.5q-43 12 -43 40q0 18 48 19q27 0 68.5 -1t64.5 -1q43 0 130 4t97 4 q43 0 43 -20.5t-53 -36.5q-119 -31 -224 -160q-57 -72 -160.5 -231.5t-111.5 -169.5q-51 -74 -51 -125q0 -336 12 -435q6 -35 35 -55t111 -41q55 -14 55 -36.5t-62 -22.5q-12 0 -81.5 4t-96.5 4q-74 0 -178 -6t-108 -6q-51 0 -52 22q0 27 58 37q129 29 133 98q6 84 6 424 q0 25 -18 74q-57 123 -261 430q-74 111 -109.5 144.5t-101.5 48.5q-57 12 -57 39zM489 1618q37 0 64 -29.5t27 -68.5q0 -43 -29 -66.5t-70 -23.5q-31 0 -57.5 24.5t-26.5 69.5q0 37 26.5 65.5t65.5 28.5zM901 1616q35 0 60.5 -30t25.5 -66.5t-27.5 -63t-64.5 -26.5 q-35 0 -61.5 25.5t-26.5 64.5q0 43 27.5 69.5t66.5 26.5z" />
<glyph unicode="&#x2c6;" horiz-adv-x="819" d="M410 1313q18 0 57 -78l135 -256q31 -70 -4 -70q-20 0 -49 39q-14 23 -65.5 91.5t-69.5 97.5q-8 16 -19 2q-76 -117 -137 -195q-20 -31 -43 -31q-10 0 -13 15.5t3 32.5q29 68 147 284q38 68 58 68z" />
<glyph unicode="&#x2dc;" horiz-adv-x="819" d="M264 1055q-18 0 -61 -47q-10 -12 -21 -13q-4 0 -15 14.5t-11 18.5q0 2 16 24.5t49 56.5t66 54q14 12 30 8q68 -18 195 -18q43 0 59 12q25 18 52 52q6 6 24.5 -7.5t18.5 -21.5t-7 -12l-127 -127q-12 -14 -22 -14.5t-104.5 10t-141.5 10.5z" />
<glyph unicode="&#x2000;" horiz-adv-x="860" />
<glyph unicode="&#x2001;" horiz-adv-x="1720" />
<glyph unicode="&#x2002;" horiz-adv-x="860" />
<glyph unicode="&#x2003;" horiz-adv-x="1720" />
<glyph unicode="&#x2004;" horiz-adv-x="573" />
<glyph unicode="&#x2005;" horiz-adv-x="430" />
<glyph unicode="&#x2006;" horiz-adv-x="286" />
<glyph unicode="&#x2007;" horiz-adv-x="286" />
<glyph unicode="&#x2008;" horiz-adv-x="215" />
<glyph unicode="&#x2009;" horiz-adv-x="344" />
<glyph unicode="&#x200a;" horiz-adv-x="94" />
<glyph unicode="&#x2010;" horiz-adv-x="598" d="M106 473q100 14 398 45q4 0 10 -8t6 -14q0 -31 -10 -64t-27 -35l-379 -39q-14 -2 -23 7.5t-9 21.5q0 37 12 60.5t22 25.5z" />
<glyph unicode="&#x2011;" horiz-adv-x="598" d="M106 473q100 14 398 45q4 0 10 -8t6 -14q0 -31 -10 -64t-27 -35l-379 -39q-14 -2 -23 7.5t-9 21.5q0 37 12 60.5t22 25.5z" />
<glyph unicode="&#x2012;" horiz-adv-x="598" d="M106 473q100 14 398 45q4 0 10 -8t6 -14q0 -31 -10 -64t-27 -35l-379 -39q-14 -2 -23 7.5t-9 21.5q0 37 12 60.5t22 25.5z" />
<glyph unicode="&#x2013;" horiz-adv-x="1128" d="M139 492l869 -3q6 0 12 -9t6 -17q2 -20 -10 -52t-23 -32l-868 2q-8 0 -15.5 11t-7.5 18q0 29 13.5 55.5t23.5 26.5z" />
<glyph unicode="&#x2014;" horiz-adv-x="1951" d="M139 492l1696 -3q6 0 12 -9t6 -17q0 -23 -11 -53.5t-21 -30.5l-1696 2q-8 0 -15.5 11t-7.5 18q0 29 13.5 55.5t23.5 26.5z" />
<glyph unicode="&#x2018;" horiz-adv-x="432" d="M242 971q-76 0 -117 53t-41 135q0 98 87 172t146 74q31 0 31 -21q0 -16 -31 -30q-121 -76 -120 -148q0 -43 21.5 -61.5t68.5 -30.5q41 -10 47 -43q2 -8 2 -18q0 -33 -28.5 -57.5t-65.5 -24.5z" />
<glyph unicode="&#x2019;" horiz-adv-x="432" d="M188 1405q76 0 118 -55.5t42 -135.5q0 -59 -30.5 -110t-71.5 -78t-75 -41t-50 -14q-37 0 -37 20q0 12 27 33q123 66 122 145q0 25 -4 39.5t-19 25.5t-25.5 15l-39.5 15l-21 6q-7 2 -17.5 16t-10.5 37q0 33 27.5 57.5t64.5 24.5z" />
<glyph unicode="&#x201a;" horiz-adv-x="438" d="M188 238q82 0 125 -58.5t43 -144.5q0 -117 -96 -187.5t-149 -70.5q-33 0 -33 20q0 16 28 35q131 70 132 152q0 41 -21.5 61.5t-73.5 36.5q-16 6 -34.5 24.5t-18.5 40.5q0 33 30.5 62t67.5 29z" />
<glyph unicode="&#x201c;" horiz-adv-x="757" d="M250 971q-76 0 -117 53t-41 131q0 111 92 180.5t140 69.5q33 0 32 -19q0 -20 -30 -32q-123 -74 -123 -148q0 -43 19.5 -59.5t72.5 -32.5l21 -6q7 -2 17.5 -16.5t10.5 -38.5q0 -33 -28.5 -57.5t-65.5 -24.5zM559 971q-76 0 -118 55t-42 135q0 78 53.5 138.5t103.5 83 t75 22.5q35 0 35 -19q0 -20 -33 -32q-121 -70 -121 -148q0 -43 19.5 -59.5t70.5 -32.5q12 -2 16.5 -4t15.5 -8t16 -18.5t5 -30.5q0 -33 -29.5 -57.5t-66.5 -24.5z" />
<glyph unicode="&#x201d;" horiz-adv-x="757" d="M197 1405q78 0 118.5 -55.5t40.5 -135.5q0 -78 -53 -138t-103 -82.5t-75 -22.5q-35 0 -35 18q0 16 31 37q121 63 121 143q0 25 -4.5 39.5t-19.5 25.5t-25.5 15l-38.5 15q-14 4 -22.5 7t-19 16t-10.5 36q0 33 29 57.5t66 24.5zM508 1405q74 0 116 -55.5t42 -135.5 q0 -111 -92.5 -177t-141.5 -66q-37 0 -37 18q0 14 33 37q123 66 123 143q0 25 -4 39.5t-19.5 25.5t-25.5 15l-39 15q-14 4 -22.5 7t-18.5 16t-10 36q0 33 29.5 57.5t66.5 24.5z" />
<glyph unicode="&#x201e;" horiz-adv-x="788" d="M190 238q80 0 124 -58.5t44 -144.5q0 -111 -98 -184.5t-147 -73.5q-35 0 -35 22q0 14 31 35q129 72 129 154q0 41 -19.5 57t-73.5 35q-18 6 -36.5 24.5t-18.5 45.5q0 35 30.5 61.5t69.5 26.5zM539 238q80 0 125 -58.5t45 -144.5q0 -117 -96.5 -187.5t-149.5 -70.5 q-37 0 -37 22q0 16 31 35q53 27 91 69t38 85q0 41 -19.5 57t-70.5 35q-57 16 -58 70q0 35 32 61.5t69 26.5z" />
<glyph unicode="&#x2022;" horiz-adv-x="886" d="M444 731q123 0 221.5 -97t98.5 -237q0 -135 -97.5 -233t-220.5 -98q-135 0 -230 96t-95 235.5t98 236.5t225 97z" />
<glyph unicode="&#x2026;" horiz-adv-x="1441" d="M231 205q55 0 81 -37t26 -76q0 -47 -32 -79.5t-77 -32.5q-43 0 -75.5 27.5t-32.5 85t36.5 85t73.5 27.5zM713 211q55 0 83.5 -39t28.5 -80q-2 -49 -34.5 -84t-79.5 -35q-45 0 -81 30t-36 89.5t40 89t79 29.5zM1194 211q57 0 86 -39t29 -80q-2 -49 -35 -84t-82 -35 q-45 0 -80 30t-35 89.5t39 89t78 29.5z" />
<glyph unicode="&#x202f;" horiz-adv-x="344" />
<glyph unicode="&#x2039;" horiz-adv-x="989" d="M223 381q-16 8 -19 26.5t7 22.5q311 160 485 299q51 41 74 41q8 0 12 -6t0 -18.5t-14 -26.5q-63 -88 -326 -293q-20 -14 0 -29q266 -217 324 -305q35 -53 -6 -53q-16 0 -47 24q-218 171 -490 318z" />
<glyph unicode="&#x203a;" horiz-adv-x="989" d="M764 426q16 -8 19 -26.5t-7 -22.5q-305 -158 -485 -297q-51 -41 -74 -41q-8 0 -11 7t1 19.5t14 26.5q37 49 141.5 140.5t184.5 148.5q20 14 0 29q-268 219 -324 307q-35 53 6 53q16 0 47 -25q80 -66 223.5 -159.5t264.5 -159.5z" />
<glyph unicode="&#x205f;" horiz-adv-x="430" />
<glyph unicode="&#x20ac;" d="M752 766q0 -20 -11.5 -36.5t-25.5 -16.5l-400 6q-2 0 -7 -4t-5 -10q-2 -20 -2 -58.5t2 -48.5q2 -12 14 -12l381 4q6 0 11.5 -18.5t5.5 -26.5q0 -14 -12.5 -23.5t-20.5 -9.5l-365 6q-6 0 -6 -14q12 -182 102.5 -316.5t236 -134.5t220.5 168q29 59 45 60q23 0 23 -43 q0 -80 -41 -154l-10 -16.5t-10.5 -11.5l-10.5 -8t-14 -9t-18 -10q-76 -43 -224 -43q-193 0 -322.5 140t-158.5 378q-2 14 -18 16l-80 2q-23 0 -23 17q0 12 14.5 27.5t24.5 17.5h64q14 0 14 14q0 10 1 56t1 55q0 12 -12 12l-52 2q-18 0 -18 12q0 14 12.5 28.5t24.5 14.5h43 q2 0 8 6.5t6 10.5q6 43 21.5 97t53.5 128t91 132t142.5 100t197.5 42q84 0 143 -20q82 -27 121 -33q16 0 17 -70v-129q0 -18 -4 -30.5t-9.5 -17.5t-9.5 -5q-23 0 -35 43q-31 94 -77 142q-18 20 -64.5 43.5t-93.5 23.5q-135 0 -215 -118.5t-107 -325.5q-4 -16 11 -17l417 8 q13 1 13 -22z" />
<glyph unicode="&#x2122;" horiz-adv-x="792" d="M90 1231h184q37 0 62 12q4 2 10 0t6 -6q-8 -29 -8 -90q0 -6 -5 -9t-12.5 -1t-9.5 8q-2 2 -7 19.5t-12 25.5t-17 8h-58v-176v-8q0 -41 19 -47l15 -5q9 -3 11 -4q12 -4 10 -16t-12 -12q-8 0 -37.5 1t-40.5 1q-23 0 -43 -1t-34 -1q-12 0 -14.5 10t9.5 16l25 9q27 12 27 63 v129q0 41 -11 41h-45q-16 0 -23 -5t-14.5 -20.5t-9.5 -17.5q-8 -16 -14 -16q-14 0 -14 20l2 37q2 35 2 43q2 4 10 5t12 -1q14 -10 37 -12zM705 1231q2 0 41.5 1t46.5 1q16 0 18 -9.5t-14 -17.5q-4 -2 -14.5 -3t-14.5 -3q-10 -6 -14 -29q0 -55 4 -149q2 -43 12 -51 q4 -2 14.5 -5t14.5 -5q20 -10 14 -19.5t-20 -9.5h-64q-10 0 -27.5 -1t-25.5 -1q-20 0 -24.5 8t18.5 18q16 8 20 15.5t6 36.5q2 33 2 147q0 14 -6 2q-27 -51 -80 -174q-4 -8 -9 -21.5t-9 -19.5l-2 -8q-10 -8 -19 0l-16 37q-63 135 -76 157q-4 14 -8 0q0 -27 -2 -65.5 t-2 -56.5q0 -20 8 -26.5t43 -18.5q16 -6 12 -18.5t-20 -12.5q-12 0 -34.5 1t-37.5 1q-12 0 -30.5 -1t-22.5 -1q-14 0 -18 10t10 16q2 2 10 5.5t10 4.5l9 4q6 3 8 6t5 7t5 10t2 13q18 123 18 149q2 16 -6 31q-6 8 -34 16q-33 8 -23 25q6 8 20 6q29 -2 68 -2h18q10 0 23 -29 q25 -59 82 -155q4 -10 10 -3q78 156 86 177q5 10 15 10z" />
<glyph unicode="&#xe000;" horiz-adv-x="810" d="M0 810h810v-810h-810v810z" />
<glyph unicode="&#xfb01;" horiz-adv-x="1052" d="M371 801q27 -2 184 -2q164 -2 254 26q47 14 63 15q6 0 7.5 -17.5t-0.5 -71t-2 -94.5q0 -469 6 -536q2 -29 21.5 -42t68.5 -28q27 -8 35 -15t8 -20q0 -23 -47 -22q-25 0 -78 3t-80 3q-37 0 -95.5 -4t-80.5 -4q-39 0 -39 22q0 16 43 32.5t59.5 33t18.5 41.5q10 211 10 549 q0 8 -9 18t-16 12q-45 6 -157.5 7.5t-184.5 -7.5q-4 0 -12 -8t-8 -18q0 -395 6 -518q4 -51 20.5 -68.5t86.5 -36.5q43 -16 43 -35q0 -23 -45 -22q-14 0 -81 3t-104 3q-41 0 -101.5 -5t-68.5 -5q-41 0 -41 24q0 18 43 31q49 16 63.5 31.5t22.5 62.5q6 41 6 535q0 4 -7 12 t-15 10q-70 10 -74 11q-8 0 -12 8t-2 14q6 23 92 68q18 14 18 26q0 178 56 305q68 154 178 236q125 98 260 98q156 0 217 -92q18 -25 19 -47q0 -33 -41 -66.5t-64 -33.5q-12 0 -80 63q-68 70 -168 74q-76 0 -127 -64q-98 -115 -98 -475q0 -6 9.5 -13t19.5 -7z" />
<glyph unicode="&#xfb02;" horiz-adv-x="1058" d="M659 1460q43 0 113 -35q12 -6 35 7q37 23 61 22q14 0 15 -33l-2 -131q0 -131 -2 -298t-2 -259q0 -551 2 -590q2 -37 20.5 -58.5t69.5 -33.5q43 -10 43 -26q0 -29 -45 -29q-20 0 -84 2t-84 2q-45 2 -91 -2t-53 -4q-55 0 -55 24q0 18 43 31q47 12 61.5 36t18.5 71 q0 4 6 522q0 25 -16 24q-27 2 -174.5 4.5t-178.5 2.5q-18 0 -18 -29q-4 -133 2 -469q2 -92 19.5 -117.5t78.5 -40.5q49 -14 50 -30q0 -12 -16.5 -20.5t-33.5 -8.5q-31 0 -84 3t-71 3q-66 0 -121 -4t-68 -4q-45 0 -45 22q0 16 47 31q76 20 84 84q6 45 6 533q0 33 -20 34 l-76 11q-12 4 -12 12q0 14 14.5 27.5t40 27.5t31.5 19q23 16 22 34q2 109 27 211q49 217 195 336q110 86 247 86zM555 1362q-96 0 -147 -86q-66 -111 -66 -459q0 -16 23 -16h8h26q16 0 38 -1t46 -1h52h53h49q23 0 42 1t32 1q18 4 18 24q0 18 -10 342q-4 115 -19 129 q-23 23 -32 31t-41.5 21.5t-71.5 13.5z" />
<glyph unicode="&#xfb03;" horiz-adv-x="1593" d="M713 707h-353q-20 0 -20 -48q0 -436 8 -487q4 -49 25.5 -75.5t72.5 -41.5q55 -14 56 -37q0 -27 -60 -26q-12 0 -91 4t-101 4q-41 0 -96.5 -5t-57.5 -5q-47 0 -47 24q0 20 43 33q66 18 80 41t18 98q0 25 1.5 231t-1.5 259q0 18 -22 22l-74 2q-23 0 -22 37q0 4 18 15l43 24 l35 21q27 18 27 34q0 150 57 275q63 139 201 223q121 80 239 80q147 0 221 -78q6 -10 17 0q55 57 137 94t160 37q150 0 215 -92q16 -25 16 -47q0 -33 -40 -66.5t-64 -33.5q-8 0 -78 63q-68 72 -162 74q-72 0 -127 -62q-102 -119 -102 -475q0 -20 16 -20q20 0 87 -1t110 -1 q166 -2 252 26q47 14 55 15q12 0 12 -183q0 -469 6 -536q2 -29 21.5 -42t68.5 -28q29 -10 36 -16t7 -19q0 -23 -47 -22q-25 0 -78 3t-81 3q-37 0 -95.5 -4t-78.5 -4q-39 0 -39 24q0 16 43 33t59 32t18 40q10 160 11 549q0 8 -7.5 17t-13.5 11q-47 6 -163.5 8.5t-188.5 -6.5 q-2 0 -5 -2t-6 -7t-3 -11q0 -457 4 -510q0 -39 1 -50t12 -29.5t35.5 -27t72.5 -18.5q45 -10 45 -32.5t-52 -22.5q-8 0 -86.5 4t-109.5 4q-41 0 -96.5 -4t-77.5 -4q-45 0 -45 22.5t41 30.5q68 18 85 44t17 99q0 29 2 231t2 269q0 6 -7 12.5t-11 6.5zM362 799h351q18 0 18 16 q0 213 94 385q4 10 -4 23q-78 96 -235 96q-92 0 -162 -98q-82 -104 -82 -398q0 -24 20 -24z" />
<glyph unicode="&#xfb04;" horiz-adv-x="1593" d="M721 707h-363q-18 0 -18 -48q0 -18 3 -253.5t3 -245.5q0 -45 22.5 -67.5t77.5 -39.5q53 -14 54 -35q0 -27 -58 -26q-12 0 -91 4t-101 4q-41 0 -95.5 -4t-56.5 -4q-45 0 -45 20.5t39 30.5q63 18 78.5 43t19.5 100v490q0 18 -24 22l-66 13q-16 0 -16 34q0 4 14 12l37 18 q23 11 33 18q25 16 25 34q0 147 63 285q61 141 199 225q111 74 237 74q59 0 118.5 -20.5t90.5 -53.5q10 -10 14 0q123 123 261 123q63 0 133 -35q12 -8 22 -2q43 31 72 31q14 0 14 -33l-2 -131q-2 -131 -3 -298t-1 -259q0 -551 2 -590q2 -37 20.5 -58.5t69.5 -33.5 q43 -10 43 -26q0 -29 -45 -29q-20 0 -83.5 2t-84.5 2q-43 2 -90 -2t-53 -4q-55 0 -55 24q0 20 43 33q47 14 62 37t20 68q0 4 6 524q0 25 -11 25q-68 2 -176 2t-186 2q-12 0 -12 -27t1 -263.5t1 -246.5q0 -63 19.5 -83.5t107.5 -39.5q43 -12 43 -34.5t-49 -22.5q-8 0 -89 4 t-112 4q-41 0 -94.5 -4t-75.5 -4q-18 0 -33.5 8t-15.5 18q0 23 43 31q68 18 86 43t18 96v502q0 17 -10 17zM365 799h356q10 0 10 16q0 221 90 389q2 2 0 9.5t-4 11.5q-78 96 -235 96q-92 0 -160 -96q-80 -102 -80 -402q0 -24 23 -24zM1094 1362q-92 0 -142 -88 q-72 -121 -71 -457q0 -16 20 -16h8h26q15 0 37.5 -1t47.5 -1h51h52q26 0 48.5 1t42 2t31.5 1q20 4 21 24q-2 20 -4 165t-2 175q-2 106 -25 129q-61 66 -141 66z" />
</font>
</defs>
</svg>
