<?xml version="1.0" standalone="no"?>
<!DOCTYPE svg PUBLIC "-//W3C//DTD SVG 1.1//EN" "http://www.w3.org/Graphics/SVG/1.1/DTD/svg11.dtd" >
<svg xmlns="http://www.w3.org/2000/svg">
<metadata>
This is a custom SVG webfont generated by Font Squirrel.
Copyright   :  2005 Adobe Systems Incorporated All Rights Reserved
Designer    : Robert Slimbach
Foundry URL : httpwwwadobecomtype
</metadata>
<defs>
<font id="webfontoGYTYdkp" horiz-adv-x="997" >
<font-face units-per-em="2048" ascent="1485" descent="-563" />
<missing-glyph horiz-adv-x="407" />
<glyph unicode=" "  horiz-adv-x="407" />
<glyph unicode="&#x09;" horiz-adv-x="407" />
<glyph unicode="&#xa0;" horiz-adv-x="407" />
<glyph unicode="!" horiz-adv-x="571" d="M559 1255q51 0 64.5 -69.5t-11.5 -128.5q-20 -63 -131.5 -330.5t-132.5 -306.5q-14 -37 -45 -37q-29 0 -20 47q49 311 131 662q20 84 62 123.5t83 39.5zM244 209q104 0 104 -109q0 -59 -38 -94t-87 -35t-75.5 30t-26.5 73q0 57 39 96t84 39z" />
<glyph unicode="&#x22;" horiz-adv-x="598" d="M492 1436q27 0 14 -52q-12 -61 -70.5 -174.5t-107.5 -185.5q-33 -43 -70 -43q-8 0 -9 15.5t5 31.5q88 252 98 328q6 20 23 30q76 50 117 50zM788 1436q23 0 15 -52q-14 -61 -73.5 -181t-108.5 -185q-33 -43 -68 -43q-8 0 -9 14.5t5 30.5q84 246 96 336q0 12 19 28 q65 52 124 52z" />
<glyph unicode="#" d="M1018 874q-31 -63 -43 -63l-150 -6q-10 0 -20 -21l-92 -217q-2 -6 0 -10t8 -2l164 6q6 0 7 -20.5t-3 -28.5q-27 -74 -55 -74l-158 -6q-6 0 -11.5 -3t-8.5 -6t-3 -5l-145 -355q-10 -29 -51 -28q-29 0 -21 22l139 355q6 14 -12 14l-196 -4q-4 0 -13.5 -7t-9.5 -9l-151 -359 q-8 -23 -52 -22q-10 0 -16 10t-4 16l141 348q10 20 -10 21l-143 -4q-4 0 -7.5 14t-1.5 19q29 86 56 86l151 8q16 0 21 14l86 215q4 8 1 15.5t-12 5.5l-161 -7q0 43 6 66q4 12 21.5 32.5t25.5 22.5l156 6q20 0 24 13l127 321q2 8 23.5 16.5t40.5 8.5q6 0 12 -8.5t4 -12.5 l-129 -323q-4 -12 4 -13l199 7q18 0 26 18l140 328q10 20 61 20q2 0 5 -3t5 -9t-2 -16l-127 -316q-8 -18 4 -18l154 2q2 -10 1 -29t-5 -25zM725 780q4 20 -6 21l-205 -6q-14 0 -18 -17l-90 -217q-2 -4 1 -11t9 -5l194 6q18 0 27 18z" />
<glyph unicode="$" d="M745 1286l46 127q6 12 24 12q33 0 33 -18l-41 -123q-4 -12 8 -16q8 -4 38 -15.5t53.5 -21.5t33.5 -17q20 -14 43 -10q10 0 29.5 5t25.5 5t11.5 -13t1.5 -21q-78 -154 -88 -224q-8 -47 -33 -47q-29 0 -21 60q23 166 -110 237q-12 6 -17 -6l-147 -469q-4 -12 8 -24 q233 -186 234 -365q0 -82 -51.5 -160t-139.5 -125q-104 -57 -262 -57q-14 0 -21 -14l-51 -154q-6 -20 -37 -20q-10 0 -16 7t-6 13l49 160q2 2 -2 8t-8 6q-127 29 -176 64q-31 20 -70 -2q-43 -18 -55 -9q-14 14 -6 39q37 82 94 287q12 49 34.5 49t20.5 -59q-6 -104 21.5 -172 t61.5 -92.5t91 -47.5q16 -6 21 15l153 489q4 10 -6 23q-70 61 -107.5 99t-77.5 108.5t-40 140.5q0 158 127 255t313 83q8 0 14 10zM586 768l135 436q0 18 -6 19q-109 10 -194 -56.5t-85 -177.5q0 -23 4 -42t13.5 -39.5t16.5 -33t23.5 -32t23.5 -26.5l28 -28l24 -24 q13 -10 17 4zM573 524l-141 -456q0 -2 -1 -5.5t3 -7.5t10 -4q125 2 199 79t74 173q0 94 -129 227q-4 4 -8.5 2t-6.5 -8z" />
<glyph unicode="%" horiz-adv-x="1476" d="M610 1292q88 0 137.5 -70.5t49.5 -164.5q0 -141 -81 -274.5t-186 -186.5q-66 -35 -137 -35q-84 0 -132 65.5t-48 145.5q-2 111 48 229.5t147 208.5q93 82 202 82zM596 1241q-53 0 -119 -84q-55 -74 -94 -192.5t-37 -231.5q0 -119 72 -119q53 0 108.5 74t103.5 201t48 231 q0 121 -82 121zM1309 1294q23 0 34 -26q10 -16 0 -27l-1034 -1278q-16 -18 -33 -18q-8 0 -20 10t-14 20q-4 12 6 23l1024 1272q23 24 37 24zM1202 709q88 0 139.5 -72t51.5 -166q0 -139 -82 -272t-187 -189q-74 -35 -137 -35q-86 0 -133 67t-47 146q0 111 48 229t144 208 q97 84 203 84zM1190 655q-55 0 -121 -82q-53 -74 -92 -193.5t-37 -232.5q0 -119 70 -118q53 0 110 73q55 72 101.5 199t46.5 234q0 120 -78 120z" />
<glyph unicode="&#x26;" horiz-adv-x="1626" d="M571 995q47 0 88 -47t48 -135q0 -2 3 -4t7 -3t10 3q96 84 175 199.5t79 205.5q0 51 -45 111q-18 18 2 51q31 45 76 45q37 0 63.5 -40t26.5 -93q0 -223 -377 -553q-59 -53 -140 -111l-167 -116q-86 -57 -109 -74q-16 -16 -14 -33q16 -141 112.5 -235t229.5 -94 q164 0 295 92q121 90 208 235.5t93 262.5q2 20 -6 43q-2 4 -15.5 11t-39 12t-56.5 5q-133 0 -133 -110q2 -51 31 -111q8 -23 2 -31q-14 -20 -60 -20q-33 0 -65.5 26.5t-32.5 59.5q0 49 24.5 87t86.5 101q115 100 223 101q139 0 276 -127q29 -33 58 -33q33 0 33 51 q0 70 -41 131q-29 43 20 43t83 -45t34 -94q0 -35 -14.5 -65.5t-38.5 -39.5q-14 -6 -142 -73q-31 -16 -49 2q-47 53 -98 88q-4 4 -12.5 -1t-8.5 -14q0 -37 -10 -84q-20 -104 -71.5 -213.5t-110.5 -177.5q-115 -129 -249 -192.5t-249 -63.5q-104 0 -185 32t-130 81t-81 113.5 t-43 124t-11 118.5q0 279 190 463q49 47 115.5 91t111.5 44zM291 516q0 -20 16 -10q35 20 143.5 96t120.5 88q16 12 17 76q-2 39 -29 83t-67 44q-86 0 -146.5 -120t-54.5 -257z" />
<glyph unicode="'" horiz-adv-x="309" d="M500 1436q27 0 14 -52q-12 -59 -72.5 -173.5t-111.5 -186.5q-8 -14 -31 -28.5t-39 -14.5q-25 0 -6 47q80 236 92 328q4 18 23 30q25 18 65.5 34t65.5 16z" />
<glyph unicode="(" horiz-adv-x="724" d="M920 1499q18 0 18 -14.5t-35 -42.5q-309 -246 -448.5 -546t-139.5 -697q0 -178 36 -339t69 -227q8 -18 4 -27t-12 -9q-31 0 -66 47q-27 35 -55.5 89t-65.5 202.5t-37 320.5q0 373 160 686t455 506q78 51 117 51z" />
<glyph unicode=")" horiz-adv-x="724" d="M-74 -403q-18 0 -18 18q0 12 35 41q309 244 448 544t139 699q0 176 -35.5 339t-68.5 226q-20 35 6 35q35 0 68 -45q25 -33 53.5 -87t65 -203.5t36.5 -321.5q0 -373 -160.5 -687.5t-453.5 -504.5q-78 -53 -115 -53z" />
<glyph unicode="*" horiz-adv-x="714" d="M817 1151q43 8 43 -18q0 -23 -33 -33q-45 -18 -170 -58q-12 -2 0 -18q25 -25 70 -80t55 -65q16 -25 17 -45q0 -10 -16.5 -10.5t-32.5 7.5q-55 35 -160 140q-12 12 -17 -2q-35 -119 -63 -178q-18 -43 -41 -43t-14 57q2 35 19.5 105.5t17.5 76.5q4 12 -17 8 q-162 -43 -199 -43q-41 -2 -40 19q0 16 32 33q27 12 53.5 21t66.5 21.5t71 24.5q18 6 4 21q-2 2 -66.5 60t-81.5 89q-14 20 -6 32.5t35 2.5q37 -8 170 -127q16 -14 21 2q14 57 57 168q16 43 39 43q6 0 12 -15.5t4 -33.5q-4 -33 -24 -172q-2 -12 2 -17.5t16 -3.5 q98 21 176 31z" />
<glyph unicode="+" horiz-adv-x="1277" d="M608 1022q0 10 32 19.5t56 9.5q14 0 24.5 -8.5t10.5 -16.5v-432q0 -18 19 -19l417 -2q4 0 10.5 -10t6.5 -18q0 -35 -9.5 -56.5t-19.5 -21.5h-407q-16 0 -17 -18l-6 -447q0 -12 -26.5 -22.5t-65.5 -10.5q-8 0 -16.5 7.5t-8.5 15.5v452q0 23 -16 23l-397 2q-27 0 -34 6 t-7 27q0 23 9 47t19 24l412 2q14 0 14 15v432z" />
<glyph unicode="," horiz-adv-x="462" d="M147 260q61 0 93 -51t32 -111q0 -88 -66.5 -165.5t-133 -114.5t-127.5 -58q-18 -6 -34.5 -2t-16.5 15q0 14 47 41q193 113 192 243q0 51 -82 74q-29 12 -28 35q0 35 34.5 64.5t89.5 29.5z" />
<glyph unicode="-" horiz-adv-x="624" d="M133 481q20 4 211 26.5t201 22.5q6 0 13 -10t5 -22q-4 -29 -22.5 -60.5t-42.5 -34.5q-49 -8 -210 -24.5t-182 -16.5q-18 -2 -18 25q0 16 16.5 54t28.5 40z" />
<glyph unicode="." horiz-adv-x="462" d="M150 209q49 0 75.5 -28.5t26.5 -80.5q0 -57 -38 -93t-87 -36q-51 0 -76.5 30t-25.5 75q0 57 40 95t85 38z" />
<glyph unicode="/" horiz-adv-x="692" d="M-57 -92l815 1411q16 23 37 22q29 0 45 -6q20 -10 8 -28l-811 -1407q-20 -35 -41 -35t-41 10q-8 4 -12 14.5t0 18.5z" />
<glyph unicode="0" d="M725 1292q84 0 143.5 -34.5t89 -94t43 -120t13.5 -128.5q0 -190 -67.5 -396t-178.5 -345q-168 -199 -354 -199q-88 0 -150.5 35t-93.5 94.5t-44 118t-13 123.5q0 197 70.5 402.5t176.5 336.5q170 207 365 207zM715 1233q-125 0 -242 -215q-84 -158 -139 -373t-55 -377 q0 -233 133 -233q61 0 114.5 40t97.5 116.5t66.5 127t52.5 134.5q109 303 109 557q0 223 -137 223z" />
<glyph unicode="1" d="M121 12q0 25 65 33q53 6 84 24.5t44.5 39t33.5 69.5q12 31 182 596q82 268 93 356q0 25 -19 25q-23 4 -51.5 10t-50.5 9q-18 4 -31.5 10t-11.5 14q0 20 43 27q20 2 70.5 8t81 10t68.5 13.5t58 19.5q31 16 43 16q8 0 11.5 -11t-0.5 -19q0 -4 -12.5 -39t-33.5 -99l-40 -131 q-188 -670 -218 -784q-27 -86 -11 -116t120 -48q41 -8 41 -25q0 -25 -66 -24q-33 0 -94 2t-90 2q-61 0 -137 -4t-105 -4q-67 0 -67 20z" />
<glyph unicode="2" d="M664 1292q125 0 215 -88t90 -223q0 -66 -19.5 -124t-65.5 -115.5t-76 -87.5l-93 -89q-94 -90 -277 -236l-217 -175q-10 -8 -7 -15.5t11 -7.5q430 0 492 10q27 4 42 8.5t47 28t58 62.5q23 31 39 30q18 0 4 -53q-10 -43 -44 -109.5t-56 -93.5q-20 -23 -59 -22 q-8 0 -228.5 4t-275.5 4h-140l-73 -2q-39 0 -39 20q0 18 37 52q160 109 434 364q168 162 250 278.5t82 258.5q0 92 -58.5 145t-130.5 53q-158 0 -274 -120q-41 -43 -56 -43q-16 0 -16 14q4 29 25 57q68 94 167 154.5t212 60.5z" />
<glyph unicode="3" d="M672 1292q121 0 191.5 -73.5t70.5 -159.5q0 -57 -33 -110.5t-63.5 -79t-89.5 -68.5q-25 -16 -75 -45t-59 -33q-23 -10 -2 -16q135 -33 219 -136q57 -66 58 -184q0 -129 -101.5 -243.5t-295.5 -192.5q-139 -53 -273 -53q-193 0 -192 149q8 33 24 37q10 6 41 -18 q96 -82 240 -82q154 0 235 65q141 115 142 307q0 121 -67 182.5t-159 61.5q-45 0 -110 -12q-8 0 -31 -6.5t-29 -6.5q-23 0 -22 17q0 10 11 27.5t30 25.5q4 2 77.5 31t125.5 53q231 123 231 293q0 78 -47 129t-129 51q-80 0 -146.5 -57.5t-95.5 -128.5q-2 -4 -11 -8t-13 -2 q-43 27 -43 69q0 25 49 64q178 153 342 153z" />
<glyph unicode="4" d="M575 387q-6 0 -487 -20q-27 0 -37 12t2 31l316 312l352 348q147 146 178 179q8 10 41 26.5t49 16.5q6 0 10.5 -11t-0.5 -28l-211 -743q-2 -6 1.5 -12t7.5 -6q27 0 99.5 3t94.5 3q4 2 6 -1t4.5 -9.5t2.5 -16.5q0 -14 -17.5 -41t-25.5 -27q-4 0 -85 -5t-104 -5 q-18 0 -22 -16l-119 -428q-4 -25 -33 -35q-29 -12 -111 -12q-8 0 -22 8t-12 14q2 10 53 174t80 275q5 14 -11 14zM602 479q18 4 21 19l178 546q6 10 -2 19q-4 6 -13 -4l-571 -584q-2 -4 -2 -8t3 -6t9 -2q68 2 206 10z" />
<glyph unicode="5" d="M535 1241q61 12 239 31.5t211 19.5q6 0 13.5 -9t7.5 -15q-2 -27 -33 -73t-58 -65q-12 -10 -49 -18q-45 -4 -360 -4q-6 0 -18.5 -8t-12.5 -10q-29 -39 -65.5 -102.5t-36.5 -82.5q0 -20 37 -41l77 -39l102 -52q44 -24 77 -46q215 -141 215 -332q0 -182 -183 -332 q-80 -66 -209 -115.5t-251 -49.5q-63 0 -117.5 32.5t-57.5 104.5q0 23 13 37q14 20 43 2q117 -76 246 -76q158 0 257 80t99 235q0 129 -92 218.5t-250 158.5q-125 55 -125 105q0 25 33 98q84 186 180 297q16 20 38 35.5t30 15.5z" />
<glyph unicode="6" d="M707 844q106 0 172.5 -91t66.5 -200q0 -141 -59.5 -263t-155.5 -206q-133 -113 -289 -113q-131 0 -219 92.5t-88 276.5q0 236 176 491.5t443 417.5q231 143 350 144q41 0 41 -25q0 -6 -27 -18q-406 -170 -637 -533q-4 -6 0 -11t13 -3q131 41 213 41zM588 774 q-98 0 -164 -80q-51 -63 -91 -180t-40 -240q0 -250 153 -249q102 0 187 112q66 86 105.5 200t39.5 216q0 100 -51 160.5t-139 60.5z" />
<glyph unicode="7" d="M700 1268q145 0 283.5 3t159.5 3q25 0 24 -17q0 -35 -63 -118l-862 -1205q-23 -35 -43 -34q-12 0 -23.5 12t-11.5 31q0 20 55 90l770 1061q6 8 2 14t-10 6q-37 4 -274 4q-182 0 -275 -6q-14 0 -25.5 -2t-22.5 -8t-19.5 -9t-18.5 -13.5t-15 -14.5t-16 -18l-13 -19l-15 -20 q-12 -16 -15 -21q-25 -35 -45 -35q-27 0 -12 49q4 14 71.5 122t88.5 134q16 16 33 17q2 0 100 -3t192 -3z" />
<glyph unicode="8" d="M727 1319q129 0 205 -81t76 -187q0 -111 -107 -201q-82 -70 -227 -160q-6 -6 0 -14l102 -118q29 -34 62.5 -99.5t33.5 -124.5q0 -166 -170 -279q-129 -80 -292 -80q-135 0 -225.5 76t-90.5 182q0 57 24.5 106.5t51.5 75t76 64.5q16 12 227 154q8 8 4 18 q-158 170 -158 310q0 168 160 280q115 78 248 78zM678 1257q-88 0 -152.5 -60t-64.5 -175q0 -135 162 -293q12 -8 22 -2q223 164 223 313q0 98 -53 157.5t-137 59.5zM479 41q106 0 171 65.5t65 161.5q0 127 -183 318q-16 16 -28 8q-129 -88 -195.5 -165t-66.5 -161 q0 -106 69.5 -166.5t167.5 -60.5z" />
<glyph unicode="9" d="M711 1292q147 0 222 -106.5t75 -247.5q0 -139 -60.5 -294t-161.5 -290q-109 -143 -255 -253.5t-242 -161.5q-90 -51 -142 -52q-31 0 -30 13q-2 8 16 20q152 82 310.5 235.5t248.5 307.5q10 18 -10 16q-133 -41 -223 -41q-98 0 -173 82t-75 236q0 88 44 189.5t122 178.5 q164 168 334 168zM696 1235q-92 0 -194 -125q-57 -68 -91 -167t-34 -193q0 -115 55 -176.5t137 -61.5q125 0 185 92q33 57 67.5 181t34.5 223q0 227 -160 227z" />
<glyph unicode=":" horiz-adv-x="542" d="M354 791q49 0 76 -29t27 -80q0 -57 -38 -92t-85 -35q-51 0 -76 29.5t-25 72.5q0 57 39 95.5t82 38.5zM186 207q49 0 77 -28.5t28 -80.5q0 -57 -39 -92t-86 -35q-49 0 -74.5 29t-25.5 74q0 57 38.5 95t81.5 38z" />
<glyph unicode=";" horiz-adv-x="542" d="M354 791q49 0 76 -29t27 -80q0 -57 -38 -92t-85 -35q-51 0 -76 29.5t-25 72.5q0 57 39 95.5t82 38.5zM186 260q63 0 95 -50t32 -112q0 -88 -66.5 -165.5t-134 -114.5t-128.5 -58q-18 -6 -34 -2t-16 15q0 14 48 41q193 113 192 243q0 51 -82 74q-29 12 -29 35 q0 35 35 64.5t88 29.5z" />
<glyph unicode="&#x3c;" horiz-adv-x="1220" d="M1032 164q4 -6 4 -19.5t-11 -36t-28 -38.5q-12 -14 -39 0l-665 372q-86 47 -86 66q0 12 14 33q20 31 64 53l669 377q25 8 35 -2q70 -70 33 -90l-631 -342q-4 -2 -6 -10.5t4 -12.5z" />
<glyph unicode="=" horiz-adv-x="1277" d="M1153 764q18 0 24.5 -5t6.5 -20q0 -35 -9.5 -58.5t-19.5 -23.5h-960q-27 0 -34 5.5t-7 25.5q0 23 9 49.5t19 26.5h971zM1153 385q18 0 24.5 -5t6.5 -20q0 -37 -9.5 -59t-19.5 -22h-960q-27 0 -34 4t-7 24q0 23 9 50.5t19 27.5h971z" />
<glyph unicode="&#x3e;" horiz-adv-x="1220" d="M1079 526.5q0 -10.5 -14 -32.5q-20 -31 -64 -54l-661 -372q-27 -16 -39 -5q-25 23 -38 49.5t3 43.5l629 342q20 10 4 20l-643 352q-4 6 -3 20.5t11 39t27 41.5q14 8 16 7l23 -11l667 -377q53 -31 67.5 -42t14.5 -21.5z" />
<glyph unicode="?" horiz-adv-x="741" d="M547 1268q82 0 170 -72q37 -29 64.5 -88t27.5 -123q0 -59 -36 -113.5t-77 -74.5q-57 -41 -213 -133q-68 -41 -71 -115q-2 -53 61 -164q2 -4 0 -10t-10 -9.5t-23 1.5q-18 6 -39.5 20t-50 43t-47 76t-18.5 106q2 86 61 146q53 55 252 149q127 59 127 142q0 125 -129 125 q-55 0 -86 -60q-14 -25 -27.5 -34t-40.5 -9q-29 0 -49 19.5t-20 56.5q0 51 51 86t123 35zM322 209q104 0 104 -109q0 -57 -38 -93t-87 -36q-51 0 -76.5 30t-25.5 73q0 57 39 96t84 39z" />
<glyph unicode="@" horiz-adv-x="1789" d="M680 190q0 -45 29 -45q66 0 176 103q74 63 148.5 177t115.5 200q4 16 -6 26q-35 35 -101 35q-86 0 -180 -108q-70 -80 -126 -191t-56 -197zM520 117q-2 57 45 157.5t146 221.5q90 106 207.5 197t181.5 91q39 0 86 -34q10 0 12 2q20 39 39 92q4 10 20 10q53 4 82 -25 q4 -4 4 -14q-49 -115 -124.5 -320.5t-94.5 -297.5q-8 -45 8.5 -65.5t63.5 -20.5q158 0 290 133t132 348q0 246 -166 389t-424 143q-172 0 -319.5 -74.5t-241.5 -194.5t-147.5 -264.5t-53.5 -287.5q0 -119 36 -228.5t108.5 -201.5t197.5 -147.5t287 -55.5q289 0 502 199 q10 10 23.5 12t15.5 -12q0 -33 -37 -70q-96 -106 -244.5 -161.5t-298.5 -55.5q-139 0 -265 42t-229.5 125t-165 226.5t-61.5 327.5q0 242 128 450t335 324.5t434 116.5q326 0 500 -174t174 -426q0 -221 -177 -393t-421 -172q-66 0 -99.5 24.5t-33.5 48.5q-2 14 14 62l49 141 q4 8 -6 8q-6 0 -12 -6q-115 -121 -233.5 -199.5t-202.5 -78.5q-27 0 -45.5 26.5t-18.5 61.5z" />
<glyph unicode="A" horiz-adv-x="1302" d="M1282 1362q15 0 15 -19q0 -16 -11 -47q-55 -141 -69 -200q-14 -68 -61 -259l-82 -348q-36 -156 -52 -251q-12 -60 -12 -98q0 -31 8 -48q18 -37 119 -49q39 -6 39 -27q0 -23 -62 -22q-35 0 -83 3t-87 3q-90 0 -174 -7t-111 -7q-16 0 -31.5 6t-13.5 14q0 20 41 29 q49 6 81 18.5t50.5 35t26.5 39.5t18 52q66 221 91 338q2 6 -4.5 15.5t-14.5 9.5q-150 0 -291 -19q-39 -4 -92 -57q-68 -68 -203 -262q-34 -52 -34 -89q0 -60 92 -77q14 -6 14 -12q0 -10 -13.5 -20.5t-25.5 -10.5q-41 0 -106.5 2t-116.5 2q-25 0 -106.5 -4t-90.5 -4 q-57 0 -57 28q0 18 51 23q86 2 140.5 28.5t121.5 100.5q135 145 327 374l343 416q152 187 158 195q41 45 61 76q8 16 12 16q27 4 41.5 7.5t38 12.5t43 26.5t36 42t36.5 24.5zM647 594q137 0 268 16q23 4 37 37q14 41 48 186.5t40 184.5q4 25 6.5 38t2.5 20t-1 9t-6 2 q-12 0 -47 -36q-86 -94 -354 -439q-4 -7 -4 -11q0 -7 10 -7z" />
<glyph unicode="B" horiz-adv-x="1189" d="M1167 1079q0 -244 -352 -338q-6 -2 -8 -11t6 -13q133 -63 172 -99q98 -90 98 -233q0 -104 -60 -189t-146 -128q-137 -76 -383 -76q-61 0 -154.5 4t-132.5 4q-6 0 -91 -5t-126 -5q-53 0 -53 22q0 20 61 29q104 10 140 44t79 161q29 84 142.5 459.5t129.5 447.5q9 37 10 62 q0 47 -34 49q-8 0 -109 6q-49 4 -49 26.5t53 22.5q8 0 93.5 1t134.5 1q4 0 76.5 8t123.5 8q184 0 271 -55q108 -72 108 -203zM995 1065q0 84 -62.5 150.5t-193.5 66.5q-27 0 -39 -15.5t-34 -84.5q-106 -344 -121 -406q-2 -6 5 -13t15 -7q160 0 234 32q76 33 136 108t60 169z M899 389q0 63 -26.5 132t-65.5 100q-96 88 -258 88q-20 0 -39 -45q-72 -168 -141 -476q-4 -17 -5 -32q0 -48 44 -76q20 -12 70 -24.5t67 -12.5q70 0 143.5 37t124.5 94q86 100 86 215z" />
<glyph unicode="C" horiz-adv-x="1347" d="M172 489q0 174 75 338t208 289q250 240 589 240q147 0 283 -56q23 -10 44 -10t40 10q35 20 45 15q13 -18 13 -33q0 -9 -5 -16q-94 -147 -121 -279q0 -14 -16 -14q-12 0 -22.5 20.5t-8.5 32.5q6 34 6 64q0 81 -45 129q-84 84 -196 84q-106 0 -227 -54.5t-230 -161.5 q-113 -115 -176 -288.5t-63 -331.5q0 -182 81 -291q57 -76 135 -112.5t146 -36.5q59 0 139 29.5t121 60.5q137 121 189 184q12 12 18 12q10 0 10 -21q0 -17 -6 -46q-12 -39 -76.5 -141.5t-83.5 -118.5q-6 -6 -19 -11.5t-18 -1.5q-40 33 -80 34q-12 0 -24 -3l-55 -12 q-55 -12 -102.5 -19.5t-88.5 -7.5q-119 0 -241.5 65.5t-188.5 196.5q-49 98 -49 262z" />
<glyph unicode="D" horiz-adv-x="1495" d="M803 1327q279 0 442 -129q205 -156 205 -442q0 -207 -107.5 -374t-259.5 -261q-217 -131 -571 -131q-57 0 -142 5t-126 5q-47 0 -140.5 -4t-107.5 -4q-70 0 -70 26q0 23 58 27q113 8 154.5 38t76.5 150l268 897q11 39 12 66q0 56 -49 61q-82 10 -110 11q-59 4 -60 26 q0 25 68 25q18 0 76.5 -1t87.5 -1q25 0 134.5 5t160.5 5zM786 1272q-20 0 -55 -10q-16 -4 -35 -37q-47 -92 -184 -551q-121 -414 -121 -500v-12q0 -66 43 -86q76 -35 133 -35q98 0 212 41t198 100q125 88 204 262t79 344q0 117 -41 223.5t-121 170.5q-111 90 -312 90z" />
<glyph unicode="E" horiz-adv-x="1226" d="M553 690l231 8q104 4 140.5 24.5t81.5 82.5q25 33 45 33q8 0 10 -12.5t-2 -30t-12 -33.5q-59 -106 -97 -266q-10 -41 -30 -41q-25 0 -25 51q0 5 0.5 14.5t0.5 13.5q0 49 -18 66q-22 20 -63 21l-264 -7q-57 0 -70 -39q-10 -29 -98 -356q-9 -37 -9 -65q0 -34 13 -54 q27 -37 68 -39q147 -10 299 -10q88 0 141 37q96 49 174 158q35 53 53 53q20 0 8 -55q-33 -129 -96 -201q-39 -43 -57 -45q-55 -12 -92 -12q-45 0 -317.5 7t-334.5 7q-66 0 -150.5 -6t-109.5 -6q-59 0 -59 26q0 23 63 29q80 6 124 27.5t59.5 47t34.5 85.5l288 899 q20 42 20 75q0 21 -8 38q-22 44 -133 59q-53 4 -53 29q0 20 66 20q18 0 99 -3t140 -3h191q393 0 469 20q4 0 8 -6t6 -14q1 -4 1 -7t-1 -5q-29 -51 -56.5 -129t-31.5 -107q0 -16 -16 -16q-12 0 -26.5 16t-16.5 43q-6 98 -23 117q-8 10 -24 16q-31 14 -256 15q-104 0 -138 -43 q-31 -43 -170 -498q-2 -8 6.5 -18.5t16.5 -10.5z" />
<glyph unicode="F" horiz-adv-x="1097" d="M602 1317h166q432 0 492 24q3 1 6 1q5 0 8 -3q9 -9 9 -24q0 -8 -5 -12q-23 -31 -53.5 -113t-38.5 -119q-4 -29 -21 -29q-12 0 -24.5 17.5t-12.5 54.5q2 84 -38.5 116t-139.5 32q-188 0 -217 -7q-14 -2 -22.5 -7t-20.5 -23.5t-26 -57.5q-23 -59 -70 -219t-59 -213 q-8 -33 18 -39q37 -10 98 -10q106 0 158 6q90 12 141 80q27 41 49 41q4 0 7.5 -6t2.5 -19.5t-10 -31.5q-49 -111 -86 -273q-8 -51 -32 -51q-23 0 -23 51q-2 53 -14.5 83t-22.5 35t-28 7q-49 4 -111 4q-147 0 -170 -4q-16 -2 -31 -39q-2 -8 -22.5 -75.5t-39 -136 t-28.5 -117.5q-14 -63 -16 -100.5t16.5 -57t41 -26.5t73.5 -13q49 -12 49 -27q0 -25 -61 -24q-31 0 -105 4t-117 4t-142 -7t-138 -7q-20 0 -34.5 8t-14.5 16q0 20 53 27q76 8 115 31.5t51 46t35 94.5q6 14 8 22q182 561 270 877q18 54 19 88q0 23 -9 37q-20 35 -129 43 q-55 4 -59 27q0 25 63 24q45 0 113 -5t129 -5z" />
<glyph unicode="G" horiz-adv-x="1427" d="M1087 1356q141 0 259 -35q22 -4 46 -4t52 4q10 2 24.5 7t20.5 5q8 0 12 -15l2 -10q0 -9 -6 -16q-98 -123 -139 -274q-14 -51 -29 -51q-25 0 -25 56q0 24 4 57q3 32 4 47.5t-1 36t-8 32.5q-25 47 -88.5 78t-153.5 31q-240 0 -451 -228q-109 -117 -174 -286.5t-65 -321.5 q0 -199 98 -326t299 -127q57 0 106 37q23 16 33 35q55 86 119 311q13 32 13 58q0 23 -11 40q-23 36 -115 42q-72 8 -71 30q0 27 71 27q14 0 81 -3t122 -3q63 0 137 8t86 8q51 0 52 -22q-2 -20 -56 -31q-53 -12 -74.5 -31.5t-43.5 -66.5q-49 -111 -74 -195q-35 -127 -39 -188 q-2 -8 -21.5 -23.5t-31.5 -19.5q-16 -4 -88 -25.5t-130.5 -33t-111.5 -11.5q-121 0 -217 33t-156.5 84t-99.5 121.5t-54.5 141.5t-15.5 146q0 129 60.5 296t189.5 300q258 275 659 275z" />
<glyph unicode="H" horiz-adv-x="1587" d="M332 1303q0 23 61 22q31 0 104.5 -4t118.5 -4q76 0 145.5 4t74.5 4q53 0 53 -20q0 -29 -64 -33q-41 -2 -69.5 -12.5t-47 -35t-24.5 -36.5t-20 -49q-82 -211 -115 -357q-7 -30 -7 -46q0 -20 9 -23q27 -4 174 -4q90 -1 167 -2q194 0 312 8q31 2 39 11t25 48q53 141 104 359 q9 35 9 60q0 29 -12 45q-22 30 -97 40q-47 4 -47 25q0 23 59 22q18 0 97 -4t124 -4q43 0 119 4t105 4q49 0 49 -22q-2 -20 -62 -29q-70 -8 -104.5 -42t-63.5 -106q-66 -158 -161 -478t-115 -425q-13 -54 -13 -89q0 -27 8 -44q17 -37 101 -47q49 -8 49 -29q0 -23 -53 -22 q-37 0 -131 4t-129 4q-47 0 -114.5 -4t-90.5 -4q-55 0 -55 22q4 20 57 27q76 6 108.5 37t59.5 94q49 123 143 438q0 4 -6 11.5t-8 7.5q-40 1 -102 1q-185 0 -566 -9q-20 0 -49 -70q-20 -49 -55 -165t-45 -181q-7 -38 -7 -66q0 -34 11 -52q20 -32 100 -46q53 -6 53.5 -30.5 t-63.5 -24.5q-14 0 -98 7t-133 7q-47 0 -101.5 -3t-91.5 -6t-41 -3q-57 0 -57 26q0 23 55 29q82 8 119 40t72 128q31 78 147.5 460t138.5 468q11 36 11 60q0 23 -9 37q-18 30 -104 40q-51 9 -51 27z" />
<glyph unicode="I" horiz-adv-x="700" d="M326 1298q0 23 57 23q39 0 94 -2t88 -2q63 0 146.5 3t103.5 3q53 0 53 -18q0 -25 -61 -35q-80 -14 -104.5 -37t-57.5 -107q-33 -82 -135 -448.5t-123 -464.5q-10 -54 -10 -86q0 -27 7 -39q15 -27 87 -41q49 -8 49 -30.5t-59 -22.5q-39 0 -93.5 3t-86.5 3q-45 0 -139.5 -5 t-125.5 -5q-57 0 -57 22q0 8 15.5 17.5t37.5 11.5q88 12 124 46t73 136q29 78 126 416t126 457q14 58 14 93q0 23 -6 36q-14 35 -84 43q-57 10 -59 30z" />
<glyph unicode="J" horiz-adv-x="700" d="M-139 -424q-106 0 -146 47q-27 31 -26 82q0 27 8 46.5t16 25.5t15 6q29 0 122 -72q68 -49 119 -49q57 0 112.5 108.5t151.5 434.5q193 657 246 882q15 54 16 91q0 27 -9 44q-19 40 -109 48q-59 6 -60 33q0 20 56 20q33 0 105.5 -3t109.5 -3q66 0 139.5 3t97.5 3 q55 0 56 -20q0 -18 -56 -31q-76 -14 -99.5 -41t-55.5 -121q-18 -53 -246 -848q-43 -170 -107 -319q-74 -178 -208.5 -272.5t-247.5 -94.5z" />
<glyph unicode="K" horiz-adv-x="1372" d="M342 1300q0 20 59 21q39 0 96.5 -2t108.5 -2q45 0 115 3t100 3q55 0 55.5 -20.5t-55.5 -30.5q-72 -12 -108.5 -42t-57.5 -95q-94 -281 -129 -400q-6 -27 14.5 -26.5t61.5 11.5t55 19q102 63 259 193.5t249 222.5q39 45 40 68q0 5 -2 8q-9 23 -68 35q-35 12 -35 32 q0 18 61 19q14 0 49 -1t54 -1q74 0 165 6t132 6q55 0 55 -20q0 -23 -62 -31q-72 -10 -137 -39t-105 -58.5t-116 -91.5l-434 -344q-27 -27 -27 -34q0 -31 39 -115q150 -334 238 -447q98 -109 213 -108q61 0 61 -26.5t-78 -26.5q-47 0 -123.5 5t-126.5 5q-37 0 -51 8 q-49 31 -108 156q-66 129 -201 438q-31 66 -70 66q-20 0 -36 -48q-63 -190 -111 -399q-8 -34 -8 -61q0 -34 13 -55q24 -38 99 -54q59 -14 60 -37q0 -20 -56 -20q-16 0 -112 5t-133 5q-29 0 -115 -5t-109 -5q-61 0 -61 24q0 18 61 31q72 14 110 49t65 105q35 90 134 419.5 t140 477.5q24 74 24 110q0 11 -3 19q-9 33 -91 43q-57 9 -57 32z" />
<glyph unicode="L" horiz-adv-x="1255" d="M575 47q274 0 322 19q119 51 213 227q18 37 28.5 49t24.5 12q11 -4 11 -22q0 -24 -13 -62q-14 -41 -62 -137l-55 -108q-12 -29 -40 -33q-41 -10 -207 -10q-55 0 -284.5 9t-301.5 9q-43 0 -124 -5t-101 -5q-63 0 -64 24q0 20 64 27q88 10 133 40t74 105 q51 135 154.5 447.5t139.5 435.5q31 101 31 140q0 10 -2 17q-10 30 -86 44q-59 12 -59 35q0 20 57 20q20 0 78.5 -4t91.5 -4q16 0 129 5t166 5q55 0 55 -22q0 -20 -55 -29q-94 -8 -135 -39t-72 -109q-43 -104 -167 -479t-148 -479q-2 -11 -2 -21q0 -48 41 -73 q48 -29 165 -29z" />
<glyph unicode="M" horiz-adv-x="1808" d="M326 1303q0 25 63 24q10 0 93 -5t126 -5q16 0 51 2t37 2q25 0 31 -53q23 -209 92 -621q51 -281 58 -291q10 -23 24 2l281 374q190 251 248 312q104 111 184 252q16 20 31 21q51 0 148 5t128 5q55 0 55 -20q0 -23 -82 -33q-78 -6 -109.5 -41t-58.5 -107 q-63 -178 -138 -459.5t-105 -439.5q-9 -45 -9 -77q0 -36 11 -58q20 -41 102 -49q61 -8 62 -31q0 -25 -60 -24q-16 0 -128.5 6t-162.5 6q-39 0 -92 -6t-84 -6q-55 0 -55 22.5t57 32.5q72 12 105 47t53 103q57 168 264 868q6 20 -4 21t-16 -9q-96 -102 -275.5 -339.5 t-257.5 -358.5q-154 -238 -182 -291q-37 -66 -63 -66q-25 0 -25 70q-10 152 -39 358q-78 549 -82 560q-12 31 -26.5 8t-129 -319t-133.5 -369q-34 -103 -34 -165q0 -20 4 -36q14 -66 116 -78q51 -2 52 -29q0 -25 -62 -24q-16 0 -81.5 3t-115 3t-127 -6t-106.5 -6 q-25 0 -40 8t-15 16q0 20 59 29q104 12 146.5 53t95.5 178l327 807q22 66 22 104q0 15 -3 25q-12 37 -68 49q-20 6 -102 19q-55 9 -55 27z" />
<glyph unicode="N" horiz-adv-x="1546" d="M285 1300q0 23 69 23q29 0 101.5 -3t130.5 -3q63 0 96 4q8 2 22.5 -16.5t22.5 -44.5q33 -102 191.5 -506t201.5 -490q10 -25 21 -6q63 184 149 483t101 375q7 34 6 59q0 38 -15 56q-25 31 -120 43q-61 8 -62 29q0 23 57 22q31 0 100.5 -4t96.5 -4q117 0 219 8q7 1 14 1 q10 0 19 -2q14 -3 20.5 -8t6.5 -11q0 -18 -62 -33q-74 -16 -117 -53t-86 -156q-104 -291 -266 -854q-12 -41 -12 -64q0 -55 67 -98l9.5 -5t8.5 -5l6 -4q3 -2 5 -4t3 -5.5t1 -7.5q0 -23 -45 -22q-14 0 -53 2t-45 2q-74 0 -98 -4q-10 0 -20.5 9t-12.5 20q-10 66 -60 182 l-297 772q-57 145 -63 151.5t-15.5 0t-13.5 -16.5q-43 -119 -130 -427t-103 -413q-9 -55 -9 -94q0 -46 12 -70q22 -46 107 -63q63 -12 64 -33q0 -25 -66 -24q-23 0 -95.5 6t-115.5 6t-122.5 -6t-106.5 -6q-66 0 -65 26q0 23 57 29q92 14 144 48t79 120q264 829 277 874 q23 84 18 107q-14 51 -55 61q-14 4 -36 8l-45 6q-24 3 -32 5q-59 10 -59 28z" />
<glyph unicode="O" horiz-adv-x="1400" d="M950 1358q186 0 307 -138.5t121 -365.5q0 -215 -120.5 -451.5t-313.5 -349.5q-160 -94 -332 -94q-203 0 -317 115q-139 139 -139 375q0 190 100 410t272 351q191 148 422 148zM950 1300q-150 0 -295 -137q-152 -143 -238.5 -365.5t-86.5 -461.5q0 -59 13 -111.5 t43 -101.5t86 -78t132 -29q135 0 287 138q111 98 214 338.5t103 461.5q0 57 -11 111.5t-37.5 111t-81 90t-128.5 33.5z" />
<glyph unicode="P" horiz-adv-x="1167" d="M758 1331q213 0 319 -71q133 -86 133 -252q0 -156 -94 -258.5t-203 -145.5q-113 -47 -223 -47q-74 0 -74 31q0 14 25 20h6q84 14 152 41q106 39 167 143q63 107 62 213q0 84 -35 152q-37 72 -106 96q-61 25 -164 25q-23 0 -35 -31q-88 -203 -297 -1016q-12 -45 -13 -75.5 t4 -49t26.5 -31t38 -17.5t55.5 -15q53 -12 53 -32.5t-63 -20.5q-16 0 -90 5t-113 5q-41 0 -138.5 -6t-142.5 -6q-53 0 -53 20q0 23 57 33q96 12 129 46t64 126l67 219l119 394l88 296q9 42 10 70q0 26 -9 39q-17 27 -85 33q-92 10 -92 34q0 18 51 19h135q191 14 269 14z" />
<glyph unicode="Q" horiz-adv-x="1386" d="M963 1356q90 0 162.5 -30t117.5 -76t76 -105.5t43 -113.5t12 -105q0 -279 -131 -489t-340 -339q-186 -115 -551 -243q-18 -6 -20 -13l8 -4q96 0 177 -13t158 -46t111.5 -51.5t112.5 -65.5q135 -84 211 -115.5t154 -31.5q166 0 278 94q39 29 47 6q0 -14 -28 -51 q-135 -174 -367 -174q-92 0 -191.5 34.5t-157 67.5t-153.5 96q-84 53 -129 79t-131 54.5t-168 28.5q-150 0 -260 -57q-8 -6 -26.5 -5t-18.5 15q-4 25 61 59q90 47 181.5 87t197 82t111.5 44q27 12 -2 21q-45 12 -98.5 44t-112.5 85t-98 140t-39 192q0 260 134 476t296 316 q172 107 373 107zM952 1303q-150 0 -282 -119q-143 -129 -240.5 -363.5t-97.5 -441.5q0 -164 74.5 -253t177.5 -89q66 0 141 45q203 125 338 379t135 502q0 45 -9 94t-32.5 108.5t-77 98.5t-127.5 39z" />
<glyph unicode="R" horiz-adv-x="1265" d="M1194 1061q0 -180 -178 -303q-23 -16 -174 -74q-2 0 -5 -5t-4.5 -11t1.5 -15q49 -254 129 -434q41 -94 85 -134t130 -50q49 -6 49 -26.5t-56 -24.5q-25 -3 -57 -3q-57 0 -139 9q-74 6 -107.5 39.5t-72.5 150.5q-27 74 -63 209t-44 162q-10 33 -32.5 63.5t-49.5 30.5 q-23 0 -50.5 -1t-33.5 -1q-23 0 -49 -72q-59 -176 -92 -340q-12 -56 -12 -91q0 -32 10 -48q20 -33 115 -49q49 -8 49 -27q0 -25 -62 -24q-49 0 -133 4t-112 4q-31 0 -107 -4t-109 -4q-57 0 -57 22.5t60 30.5q55 8 89.5 26.5t44 33t21.5 40.5q47 109 307 981q16 45 16 74 q0 23 -9 37q-23 31 -130 31q-18 0 -31.5 5t-18.5 10t-5 9q0 25 51 25q16 0 55.5 1t88.5 3t73 2q14 0 94.5 5t118.5 5q217 0 308 -71q98 -76 98 -201zM1022 1049q0 90 -68.5 159.5t-216.5 69.5q-12 0 -28.5 -15.5t-20.5 -29.5q-35 -78 -94 -274.5t-70 -243.5q-3 -8 -2 -14 q0 -11 10 -11q127 0 213 23q113 35 195 127t82 209z" />
<glyph unicode="S" horiz-adv-x="968" d="M698 1354q88 0 205 -39q55 -18 64 -19q20 -2 55 4q2 0 6 -5t6 -13t2 -12q-66 -127 -86 -256q-4 -41 -24 -41q-12 0 -20.5 19.5t-6.5 47.5v22q0 93 -33 148q-53 92 -174 93q-117 0 -172 -76t-55 -158q0 -111 76 -213q12 -16 90 -111.5t121 -152.5q63 -84 82.5 -140.5 t19.5 -125.5q0 -94 -49 -175t-129 -126q-109 -61 -270 -62q-68 0 -246 55q-10 3 -23 3q-31 0 -80 -17q-4 -2 -17 4t-15 8q-6 6 -7 12q0 3 2 5q23 45 113 305q18 51 39 51q17 0 17 -37q0 -15 -3 -37q-3 -34 -3 -62q0 -91 30 -128q82 -111 223 -111q96 0 174 64q35 25 55.5 73 t20.5 95q0 84 -40 162.5t-140 199.5q-109 135 -153 215t-44 174q0 147 111 252q112 105 278 105z" />
<glyph unicode="T" horiz-adv-x="1331" d="M647 1317h606q174 0 222 22l24 9q4 0 9 -7q8 -9 8 -21q0 -8 -5 -15q-88 -143 -112 -261q0 -29 -19 -28q-10 0 -19 14t-9 35q0 16 2 48t2 43t-2 31.5t-7.5 28t-14.5 17.5t-24.5 14t-37.5 6q-68 8 -139 8q-60 0 -121 -6q-16 0 -33 -32q-39 -98 -151.5 -480.5t-141.5 -504.5 q-13 -57 -13 -93q0 -30 9 -46q20 -34 119 -52q51 -8 51 -33q0 -23 -55 -22q-16 0 -102.5 4t-119.5 4q-70 0 -168 -6t-147 -6q-57 0 -57 24.5t51 28.5q119 18 161 51t85 152q109 301 303 983q2 8 -3 17t-12 9q-61 4 -115 4q-87 0 -159 -10q-57 -8 -114.5 -54t-102.5 -120 q-27 -45 -55 -45q-23 0 -13 37q2 4 45 98t64 168q2 6 15.5 18.5t21.5 12.5t14 -12q14 -25 100 -31q54 -2 160 -2z" />
<glyph unicode="U" horiz-adv-x="1470" d="M295 1303q0 20 61 20q35 0 112 -3t105 -3q20 0 96 4t109 4q51 0 51 -22q0 -16 -57 -29q-55 -10 -86 -36t-53 -85q-47 -123 -176 -594q-40 -149 -41 -245q0 -74 24 -117q33 -57 115 -96.5t164 -39.5q283 0 389 248q59 139 139 384t105 364q14 78 14 121q0 30 -7 43 q-17 31 -112 47q-57 10 -57 28q0 23 55 23q29 0 80 -1t82 -1q37 0 116 4t115 4q53 0 54 -22q4 -20 -58 -31q-70 -10 -103.5 -49t-80.5 -156q-8 -20 -244 -688q-4 -8 -16 -41t-16 -42l-16 -36q-11 -27 -18 -39l-19 -33q-11 -20 -24 -35l-28 -32q-154 -158 -426 -158 q-102 0 -201.5 43t-148.5 133q-50 86 -50 179q0 34 7 69q12 63 186 668q28 78 29 124q0 17 -4 30q-14 48 -109 61q-57 8 -57 33z" />
<glyph unicode="V" horiz-adv-x="1288" d="M256 1303q0 18 59 18q12 0 84 -2t115 -2q49 0 128 3t85 3q53 0 53 -20q0 -23 -55 -31q-68 -14 -93.5 -44t-45.5 -120q-27 -106 -76 -392t-66 -403q-2 -12 2.5 -15t9.5 0t9 5l2 2l383 426q209 238 297 354q45 61 58.5 98.5t-2 58t-58.5 28.5q-51 10 -51 30.5t51 20.5 q4 0 52 -2t97 -2q41 0 127 4t113 4q35 0 35 -22q0 -18 -53 -31q-88 -16 -142.5 -53t-138.5 -138l-791 -895q-137 -166 -157 -192q-31 -37 -43 -37q-14 0 -25 19q-6 11 -6 23q0 9 4 19q41 178 64 287q49 229 133 787q8 47 7 79q0 36 -9 54q-18 33 -117 47q-39 6 -39 31z" />
<glyph unicode="W" horiz-adv-x="1949" d="M244 1300q0 23 63 23q33 0 88.5 -3t87.5 -3q35 0 110 4t112 4q20 0 35.5 -6t13.5 -14q0 -23 -45 -31q-59 -10 -83 -29.5t-42 -83.5q-20 -63 -82 -425.5t-62 -401.5q0 -10 3 -12.5t8.5 0t9.5 8.5q158 174 366.5 433t245.5 341q18 31 19 55q1 10 0 19q0 39 -14 58 q-17 24 -83 34q-49 8 -49 30q2 20 58 21q18 0 82.5 -2t99.5 -2t123 4t106 4q53 0 53 -20q0 -23 -53 -35q-80 -16 -108.5 -36t-42.5 -75q-20 -78 -58 -449q-30 -304 -30 -383q0 -17 2 -24q4 -12 6 -13t16 11q106 109 344 409t283 386q31 59 42 91t-2.5 49t-27.5 21.5 t-57 10.5q-49 10 -49 30q2 23 61 23q8 0 71.5 -2t108.5 -2t114 4t85 4q53 0 53 -20q0 -25 -63 -35q-55 -8 -106.5 -44t-75 -63.5t-74.5 -93.5q-252 -326 -621 -764q-106 -125 -231 -295q-39 -45 -60 -45q-10 0 -16 14.5t-4 26.5q33 238 41 313q57 553 61 639q0 6 -6 7 q-14 0 -24 -13q-63 -84 -278 -348l-292 -356l-114.5 -149t-71.5 -95q-39 -45 -68 -45q-17 0 -17 22q0 12 5 29q35 125 72 332q55 279 116 745q6 43 6 74q0 42 -11 61q-19 34 -95 48q-55 10 -55 30z" />
<glyph unicode="X" horiz-adv-x="1296" d="M266 1303q0 20 70 20q16 0 84.5 -3t114.5 -3q70 0 136 4t72 4q53 0 54 -22q0 -25 -60 -31q-57 -8 -73 -28q-12 -14 -12 -44q0 -11 1 -24q6 -59 49 -195.5t64 -187.5q4 -8 14 0q53 53 181.5 200.5t152.5 194.5q10 17 10 30q0 41 -90 58q-31 8 -30 24q0 20 57 21 q16 0 87 -3t89 -3q43 0 111.5 5t85.5 5q57 0 57 -20.5t-51 -30.5q-90 -14 -144.5 -44t-138.5 -120q-20 -23 -100 -103l-142 -147l-110 -123q-16 -25 -12 -43q10 -49 68.5 -239.5t88.5 -266.5q29 -70 69 -100.5t122 -44.5q59 -8 59 -29q0 -25 -61 -24q-10 0 -121 5t-162 5 q-47 0 -101.5 -5t-68.5 -5q-57 0 -57 26q0 14 41 27q45 14 71.5 32.5t32.5 32t4 23.5q-4 53 -52 230.5t-67 216.5q-4 16 -12 8q-51 -49 -148.5 -170t-150.5 -199q-31 -45 -43 -76.5t-1 -57.5t56 -34q49 -8 50 -24q0 -6 -18.5 -18.5t-33.5 -12.5q-39 0 -77.5 3t-75.5 3 q-63 0 -146.5 -7t-99.5 -7q-80 0 -80 24q0 27 60 31q96 10 159.5 47t165.5 145l176 206l174 204q16 16 13 43q-12 70 -117 385l-35 96q-8 23 -29.5 53.5t-46 39t-69.5 12.5q-64 8 -64 31z" />
<glyph unicode="Y" horiz-adv-x="1216" d="M240 1303q2 20 59 20q20 0 100 -3t119 -3q57 0 113.5 2t68.5 2q45 0 50 -18q0 -20 -50 -31q-70 -14 -85 -42q-9 -17 -9 -40q0 -15 4 -33q4 -14 30 -128t47.5 -196.5t35.5 -117.5q4 -8 16 -4q313 360 371 448q23 35 23 60q0 42 -64 55q-49 6 -49 31q0 18 59 18 q8 0 59.5 -3t100.5 -3q27 0 105.5 4t91.5 4q51 0 51 -18q0 -20 -62 -35q-82 -16 -122.5 -45t-155.5 -144q-119 -113 -377 -419q-43 -51 -65 -129q-92 -338 -97 -361q2 -14 -1 -39.5t26 -54.5t84 -37q63 -8 63 -30.5t-71 -22.5q-25 0 -126.5 5t-117.5 5q-37 0 -114 -5 t-115 -5q-57 0 -58 26q0 18 62 27q104 10 139 47t72 148l88 266q27 82 27 141q0 17 -3 33q-18 143 -102 401q-37 117 -66.5 151t-103.5 44q-51 9 -51 29z" />
<glyph unicode="Z" horiz-adv-x="1316" d="M743 1317q121 0 372 5t257 5q37 0 37 -16q0 -20 -37 -49q-92 -72 -239 -228l-434 -473l-414 -465q-31 -31 -9 -37q39 -6 465 -6q150 0 234 39q57 25 120.5 87.5t100.5 123.5q35 53 45 53q8 0 15.5 -19.5t0.5 -39.5q-12 -37 -94 -195q-41 -74 -73 -98q-16 -14 -218 -14 q-117 0 -384 5t-289.5 5t-100.5 -4t-102 -4q-10 0 -14 7q-2 4 -3 10q0 4 2 9q3 12 15 25q205 195 625.5 653.5t488.5 546.5q2 6 -2 11.5t-10 5.5q-223 0 -412 -9q-100 -4 -149.5 -18t-83.5 -49q-80 -78 -125 -166q-20 -43 -39 -43q-16 0 -17 27q0 14 4 34q2 18 22 64l45 102 q26 57 36 86q4 8 19.5 23.5t25.5 15.5q6 0 44 -5t54 -5h221z" />
<glyph unicode="[" horiz-adv-x="710" d="M600 1456q70 0 162 1t98 1q45 0 45 -20q0 -27 -61 -37q-2 0 -75 -6t-101 -9q-39 -2 -58 -53q-27 -76 -202 -678l-228 -835q-27 -100 15 -111q27 -8 170 -12q47 0 47 -27q0 -23 -62 -28q-49 -6 -174 -7q-100 0 -127 7q-10 2 -14 23.5t0 37.5l352 1221q123 434 141 489 q6 29 25 39q6 4 47 4z" />
<glyph unicode="\" horiz-adv-x="790" d="M575 -98q0 -2 -6 -10.5t-20 -15.5t-31 -7h-10q-20 0 -21 22q-88 780 -145 1428q0 2 9 10t14 8l43 4q14 0 24 -14q24 -276 143 -1425z" />
<glyph unicode="]" horiz-adv-x="710" d="M207 -362q-70 0 -161 -1.5t-95 -1.5q-47 0 -47 21q0 27 63 35q33 6 174 12q37 2 56 55q57 160 204 682l230 834q27 98 -17 106q-18 6 -170 15q-49 8 -47 28q0 23 62 29q49 6 176 6q100 0 125 -6q10 -2 14 -23.5t0 -39.5l-352 -1223l-73 -256l-50 -172q-14 -47 -16 -57 q-8 -29 -25 -39q-6 -4 -51 -4z" />
<glyph unicode="^" horiz-adv-x="960" d="M551 1315q12 0 24.5 -9.5t17.5 -17.5t15 -27l13 -24l303 -596q14 -29 4 -39q-23 -25 -48.5 -38t-41.5 3l-277 568q-12 25 -22 4l-283 -576q-6 -4 -17.5 -5t-31 8t-35.5 26q-14 14 0 41l303 598q41 84 76 84z" />
<glyph unicode="_" horiz-adv-x="1013" d="M-123 -254h1014v-100h-1014v100z" />
<glyph unicode="`" horiz-adv-x="819" d="M618 1341q25 0 31 -98q12 -160 13 -287q0 -53 -25 -53q-10 0 -21.5 15.5t-15.5 29.5q-25 88 -63 269q-6 31 -2 57q4 18 32 42.5t51 24.5z" />
<glyph unicode="a" horiz-adv-x="919" d="M620.5 797q38.5 0 81.5 -47q2 -2 8.5 0t8.5 8q4 8 17.5 29.5t15.5 27.5q2 4 13 11.5t15 7.5q33 0 78 -29q2 -4 2 -9q0 -8 -6 -20q-37 -84 -121 -302t-108 -308q-3 -12 -3 -21q0 -34 42 -34q29 0 73.5 29.5t79.5 68.5q35 37 41 10q0 -25 -18 -51q-57 -92 -139.5 -146.5 t-151.5 -54.5q-78 0 -82 76q0 8 72 201q6 14 -4 22q-4 6 -11 0q-102 -109 -229 -204t-217 -95q-29 0 -60.5 24.5t-31.5 53.5q0 86 88 223q184 303 450 488q58 41 96.5 41zM588 688q-51 0 -115.5 -41t-122.5 -115q-63 -78 -125.5 -199.5t-62.5 -189.5q0 -18 13 -38.5 t28 -20.5q76 0 207 141q133 135 241 365q14 35 14 52q0 8 -3 11q-39 35 -74 35z" />
<glyph unicode="b" horiz-adv-x="937" d="M727 827q70 0 116 -50t46 -122q0 -145 -122 -329.5t-290 -282.5q-131 -76 -225 -76q-72 0 -122 48t-50 143q0 68 98 370q27 88 130.5 390.5t115.5 341.5q9 36 9 56q0 13 -4 19q-9 16 -50 41q-27 18 -27 31q0 14 51 27q18 4 119 19t115 15q4 0 6 -6t3 -14t-3 -16 q-35 -70 -165 -419t-179 -499q-2 -4 2 -6q8 0 12 6q242 313 414 313zM686 760q-84 0 -176 -95.5t-172 -224.5q-123 -203 -123 -317q0 -23 25.5 -60.5t54.5 -37.5q45 0 135 77q109 102 217.5 287.5t108.5 306.5q0 27 -20.5 45.5t-49.5 18.5z" />
<glyph unicode="c" horiz-adv-x="641" d="M561 827q51 0 88 -18q23 -8 23 -41q0 -45 -29 -80t-47 -35t-31 23q-43 90 -90 90q-74 0 -158 -162q-123 -223 -122 -414q0 -49 17 -74.5t33.5 -29.5t41.5 -4q100 0 205 98q8 6 17 6t9 -6q0 -29 -20 -53q-129 -152 -295 -152q-72 0 -115 62.5t-43 132.5q0 150 90 324 q117 219 275 299q67 34 151 34z" />
<glyph unicode="d" horiz-adv-x="987" d="M25 111q0 154 131 363.5t297 301.5q88 51 151 51q59 0 121 -55q4 -2 12 0t11 6q6 23 30.5 97.5t54 175l60.5 215.5q6 29 6 46q0 12 -3 19q-7 16 -40 33q-57 25 -57 37q0 4 12 14t20 12q33 10 119 25.5t119 15.5q10 0 10 -21t-10 -63q-16 -57 -45 -149l-77 -240l-85 -266 l-58 -194l-65 -213l-43 -146q-6 -18 -5 -31q0 -28 28 -28q29 0 83 43t99 104q6 8 12.5 10t9.5 -2t3 -14q0 -14 -8 -39q-29 -86 -129.5 -171t-174.5 -85q-18 0 -40.5 28.5t-22.5 49.5q0 45 74 274q0 4 -3.5 9.5t-7.5 7.5t-6 0q-113 -168 -235.5 -266.5t-229.5 -98.5 q-59 0 -90 33q-28 35 -28 111zM168 111q0 -23 12.5 -37.5t26.5 -14.5q51 0 148.5 71t181.5 181q90 127 141 273q20 53 20 94q0 26 -8 47q-18 35 -53 35q-88 0 -221 -148q-106 -119 -177 -262t-71 -239z" />
<glyph unicode="e" horiz-adv-x="706" d="M565 827q80 0 115 -38.5t35 -86.5q0 -49 -43 -104t-115 -96q-94 -51 -299 -111q-27 -8 -33 -31q-27 -72 -26 -159q0 -123 108 -123q96 0 201 96q31 31 51 31q12 0 12 -12q0 -18 -24 -52q-51 -59 -144.5 -114.5t-193.5 -55.5q-45 0 -101.5 61.5t-56.5 151.5 q0 111 61.5 247t163.5 243q152 153 289 153zM557 778q-74 0 -170 -112.5t-125 -204.5q-2 -2 -2 -7t2 -8.5t6 -3.5q324 113 324 285q0 51 -35 51z" />
<glyph unicode="f" horiz-adv-x="520" d="M444 807l187 6q16 0 16 -27q0 -12 -15.5 -28.5t-33.5 -16.5q-20 0 -84.5 -3t-95.5 -3q-10 0 -17 -16q-57 -184 -260 -909q-12 -41 -26.5 -76t-30.5 -61.5t-29.5 -45t-32.5 -37.5l-29 -26q-9 -8 -29.5 -23.5t-24.5 -17.5q-53 -37 -125 -63.5t-105 -26.5q-68 0 -106 26 q-37 25 -37 62q0 24 33.5 61t54.5 37q18 4 33 -14q61 -80 133 -80q51 0 96 54t86 216q164 608 260 924q2 4 -1 10t-11 6l-125 -4q-20 0 -21 21q0 18 13.5 33.5t25.5 15.5q20 0 71.5 1t64.5 1q8 0 14 14q154 451 342 576q109 76 201 75q74 0 113 -38q38 -37 38 -86 q0 -62 -36 -104q-34 -40 -64 -40q-16 0 -17 21q0 4 1 20q1 19 2 32q0 53 -22 93q-24 43 -65 43q-49 0 -93 -37t-101 -137q-78 -139 -156 -408q-2 -6 2 -13t6 -7z" />
<glyph unicode="g" horiz-adv-x="792" d="M551 829q45 0 108 -28q18 -10 58 -6l62 16q54 14 81 14q45 0 45 -57q0 -59 -45 -59q-29 0 -72 10t-69 10q-29 0 -21 -24q10 -37 11 -64q-2 -133 -104.5 -269t-201.5 -173q-14 -6 -137 -33q-8 0 -14 -10q-10 -25 -10 -52q0 -47 55 -92q31 -23 126 -80l116 -69 q119 -82 118 -178q0 -29 -29.5 -73t-72.5 -71q-186 -111 -385 -110q-135 0 -250 65q-51 29 -80.5 73t-29.5 81q0 33 23.5 64.5t44 47t61.5 42t122 66.5l99 48q4 2 7 5t3 5t-2 4q-51 66 -51 82q0 31 20 62q10 16 23 29l25 27l18 18q8 18 2 20q-123 53 -123 152 q0 84 29.5 161.5t77 133t79 86t60.5 51.5q114 75 223 75zM526 778q-45 0 -100 -51q-86 -78 -154.5 -210t-68.5 -214q0 -41 22.5 -65.5t53.5 -24.5q25 0 92 57q59 53 141 189.5t82 226.5q0 41 -21.5 66.5t-46.5 25.5zM268 -496q88 0 168 37t80 105q0 49 -49 88 q-37 31 -112.5 80t-114.5 67q-8 4 -29 5q-4 0 -8 1q-14 0 -19 -4q-61 -20 -147 -86.5t-86 -140.5q0 -45 49 -78q104 -74 268 -74z" />
<glyph unicode="h" horiz-adv-x="1003" d="M930 692q0 -141 -74 -316t-143 -255q-49 -53 -133 -111q-76 -49 -103 -49q-47 0 -76 25q-18 20 -18 39q0 10 20.5 38.5t30.5 34.5q8 6 12 4q10 -4 32 -15t41.5 -17.5t37.5 -6.5q23 0 41 31q47 66 112.5 273.5t65.5 296.5q0 82 -59 81q-51 0 -120 -67.5t-196 -231.5 q-43 -59 -133 -210.5t-127 -225.5q-10 -16 -29.5 -29.5t-27.5 -13.5q-25 0 -41 22.5t-12 41.5l381 1224q16 37 6 59.5t-62 35.5q-43 10 -43 32q0 14 37 25q231 61 250 61q6 0 11 -15t3 -28l-121 -374l-138 -412q-58 -174 -62 -188q-2 -10 0 -14.5t7 -4.5t9 6 q170 219 289 307q113 82 201 82q66 0 98.5 -46t32.5 -89z" />
<glyph unicode="i" horiz-adv-x="548" d="M422 827q12 0 29.5 -17t17.5 -32q0 -18 -20 -69l-234 -557q-4 -10 2 -22.5t21 -12.5q23 0 86 47t104 90q35 39 47 39q10 0 10 -12q0 -31 -36 -74q-74 -86 -182.5 -163t-168.5 -77q-23 0 -42 17.5t-19 33.5q0 14 10 37l254 604q6 12 -1 22.5t-15 6.5q-78 -25 -152 -90 q-8 -8 -17.5 -6t-9.5 12q0 20 27 51q35 43 137.5 107.5t151.5 64.5zM473 1239q33 0 53.5 -24.5t20.5 -57.5q0 -41 -30 -75.5t-64 -34.5q-14 0 -31 6q-45 27 -45 76t41 85q30 25 55 25z" />
<glyph unicode="j" horiz-adv-x="493" d="M451 1245q76 0 75 -96q0 -41 -32.5 -71.5t-61.5 -30.5t-52.5 25.5t-23.5 57.5q0 57 47 97q25 18 48 18zM416 840q18 0 28 -36q6 -20 6 -39q0 -15 -4 -30q-225 -758 -303 -936q-106 -242 -268 -323q-80 -43 -141 -43q-57 0 -95 29.5t-38 54.5q0 39 45 73q33 18 53 2 q76 -70 137 -69q43 0 69.5 37t67.5 127q43 104 166 501.5t142 470.5q6 29 -23 29q-35 0 -127 -67q-14 -10 -25.5 -12.5t-17.5 0.5t-6 9q0 16 24 46q45 49 148 112.5t162 63.5z" />
<glyph unicode="k" horiz-adv-x="907" d="M758 825q47 0 77.5 -25.5t30.5 -58.5q0 -39 -44 -104.5t-115 -114.5q-109 -72 -220 -114q-12 -4 -12 -21q29 -131 68 -221q35 -74 73 -74q27 0 74 36t82 81q18 25 31 24q27 0 2 -53q-6 -12 -14 -24q-55 -80 -122 -135.5t-116 -55.5q-63 0 -117 125q-31 76 -71 199 q-12 35 -35 56.5t-39 21.5q-33 0 -51 -41l-140 -328q-12 -27 -30 -27q-23 0 -47.5 15.5t-24.5 29.5q0 16 18 68q51 125 402 1192q8 23 1 35t-42 24q-35 14 -35 25q2 18 31 33q20 12 113.5 33.5t119.5 21.5q4 0 6 -6t2 -16.5t-2 -20.5q-4 -16 -59 -164l-133 -359l-123 -341 q-6 -14 6 -15q16 0 25 15q111 164 260 239q88 45 170 45zM651 739q-43 0 -102 -34q-121 -74 -211 -246q-3 -7 -3 -13q0 -7 4 -13q6 -10 16 -9h3q119 8 240 102.5t121 169.5q0 43 -68 43z" />
<glyph unicode="l" horiz-adv-x="528" d="M346 1391q0 8 10.5 18t26.5 12q4 0 49 7l89 15q44 7 63 13q37 12 59 12q11 0 11 -17q0 -16 -9 -46l-258 -710q-160 -452 -192 -552q-10 -29 -7.5 -57.5t19.5 -28.5q18 0 71.5 46.5t108.5 101.5t70 63q20 14 24 -2q0 -23 -12 -47q-55 -111 -160.5 -181.5t-195.5 -70.5 q-29 0 -57.5 26.5t-28.5 51.5q0 14 67 211l357 1010q12 39 11 60q0 11 -3 16q-10 15 -64 28q-49 11 -49 21z" />
<glyph unicode="m" horiz-adv-x="1515" d="M369 827q47 0 80 -18q25 -18 12 -49q-45 -137 -107 -252q-10 -18 5.5 -20.5t31.5 18.5q190 217 262 264q94 57 164 57q43 0 78 -29.5t35 -68.5q0 -43 -74 -217q-4 -10 2 -14t14 4q180 213 265 268q86 57 159 57q53 0 84 -36.5t31 -81.5q0 -66 -29 -119 q-27 -47 -100.5 -198.5t-101.5 -219.5q-8 -8 -8.5 -15t4 -11.5t8.5 -2.5q29 4 98.5 49.5t126.5 94.5q35 25 41 6q0 -29 -27 -64q-59 -78 -195 -170t-204 -92q-27 0 -47 29q-12 12 -4 33l69 143l133 274q67 139 76 168q22 46 23 85q0 7 -1 14q-5 43 -42 43q-47 0 -134 -86 t-173 -205q-47 -66 -99 -147l-101 -164l-71 -117q-43 -70 -92 -70q-14 0 -24.5 11.5t-10.5 29.5q0 20 15 60q25 63 92 216l121 274q53 122 55 136q8 29 -7.5 48.5t-37.5 19.5q-57 0 -168 -113.5t-238 -310.5l-194 -307q-45 -63 -64 -64q-16 0 -34 14q-23 17 -24 44 q0 33 26 81l262 566q7 15 6 25q0 22 -29 22q-70 0 -166 -103q-29 -29 -39 -28q-4 0 -7 5t-4 15t3 27q20 82 92 137t183 55z" />
<glyph unicode="n" horiz-adv-x="1038" d="M809 827q55 0 86 -35.5t31 -80.5q0 -47 -29 -121q-31 -80 -98.5 -228.5t-85.5 -181.5q-13 -25 -13 -38q0 -17 19 -17q53 0 184 123q8 6 17.5 10t16.5 2t7 -8q0 -20 -24 -59q-51 -78 -165 -152t-171 -74q-37 0 -66 35q-11 11 -11 27q0 17 13 41q27 49 149 303t134 297 q9 29 9 48q0 12 -4 20q-9 22 -34 22q-86 0 -231 -176q-39 -43 -108 -144l-140 -211q-72 -111 -92 -139q-80 -125 -105 -125q-18 0 -37.5 20.5t-19.5 38.5q0 24 63 169l65 139l85 185q39 87 65 157q16 33 -18 33q-29 0 -61.5 -17.5t-43.5 -27.5l-53 -48q-20 -20 -26 -20 q-12 0 -13 20q0 57 76 135t191 78q49 0 75 -41q10 -18 -4 -53l-125 -297q-6 -12 6.5 -13t18.5 11q35 51 120 150.5t134 140.5q119 102 213 102z" />
<glyph unicode="o" horiz-adv-x="821" d="M559 827q86 0 139.5 -72.5t53.5 -156.5q0 -190 -107.5 -353t-249.5 -235q-90 -43 -170 -43q-66 0 -122 60.5t-56 158.5q0 109 69.5 269.5t188.5 263.5q123 108 254 108zM543 774q-70 0 -148 -92q-78 -90 -141.5 -256t-63.5 -311q0 -39 20.5 -64.5t57.5 -25.5q61 0 135 92 q74 90 144.5 260t70.5 299q1 98 -75 98z" />
<glyph unicode="p" horiz-adv-x="884" d="M821 596q0 -168 -124 -340t-279 -250q-66 -35 -109 -35q-49 0 -106 27q-45 -137 -105 -379q-4 -15 -4 -28q0 -24 16 -36q24 -19 87 -34q51 -8 51 -29q0 -25 -58 -24q-33 0 -74.5 1t-56.5 1q-37 0 -121.5 -8.5t-111.5 -8.5h-8q-51 0 -51 25q0 20 53 30q59 12 84.5 35 t40.5 68l348 1106q0 10 -8 8q-109 -31 -176 -70q-16 -8 -28.5 -10t-18 1t-5.5 9q0 25 31 45q70 47 223 105q8 2 17 18q41 113 53 125q20 27 88 27q23 0 23 -33q0 -10 -29 -102q-4 -12 8 -13q150 0 250 -58t100 -173zM670 612q0 70 -63.5 106t-145.5 36q-18 0 -27 -19 q-174 -541 -196 -620q-2 -6 -2 -11q0 -8 4 -14q12 -25 32.5 -45t30.5 -20q53 0 109 51q106 94 182 241.5t76 294.5z" />
<glyph unicode="q" horiz-adv-x="927" d="M625 827q39 0 78.5 -33.5t56.5 -70.5q2 -6 10 -5t12 7q23 55 54 100q35 49 59 49q10 0 14 -20q2 -8 2 -15q0 -11 -4 -20q-70 -203 -129 -409q-127 -430 -219 -789q-10 -41 9.5 -57.5t62.5 -22.5q55 -8 55 -26q0 -20 -51 -27q-270 -31 -367 -53q-9 -2 -18.5 -2t-19.5 2 q-19 4 -19 16q0 16 43 35q86 31 112.5 57.5t53.5 106.5q86 225 219 663q2 6 -3 8.5t-9 -2.5q-92 -125 -248 -236.5t-252 -111.5q-33 0 -71 31t-38 100q0 186 162 416q121 180 291 266q84 43 154 43zM602 774q-27 0 -86 -39t-121 -119q-86 -113 -155.5 -265t-69.5 -224 q0 -68 53 -68q43 0 135.5 72t171.5 176q147 199 148 357q0 27 -22.5 68.5t-53.5 41.5z" />
<glyph unicode="r" horiz-adv-x="724" d="M303 827q41 0 63.5 -28.5t22.5 -63.5q0 -90 -67 -262q-8 -25 2 -24q12 2 34 38q72 123 162 224q100 117 178 116q41 0 59.5 -25.5t18.5 -58.5q0 -53 -37 -103t-59 -50q-25 0 -25 45q-2 31 -13 53.5t-26 22.5q-47 0 -135 -140q-82 -123 -286 -532q-35 -74 -86 -74 q-33 0 -48 29q-2 4 -2 15t2 16q147 377 209 567q11 35 11 58q0 38 -31 38q-51 0 -115 -80q-33 -41 -45 -41q-8 0 -11 20.5t3 39.5q33 88 94 144t127 56z" />
<glyph unicode="s" horiz-adv-x="573" d="M449 827q61 0 94 -36q20 -20 20 -46q0 -16 -19.5 -43.5t-33.5 -37.5q-10 -6 -31 6q-16 8 -40.5 28.5t-44 29.5t-44.5 9q-23 0 -52.5 -26.5t-29.5 -69.5q0 -66 97 -199q82 -131 81 -180q0 -96 -112 -190q-55 -49 -125 -75t-113 -26q-39 0 -84 32t-45 77q0 35 39 82 q14 14 31 0q92 -92 180 -92q45 0 77 31.5t32 78.5t-90 182q-78 119 -78 187q0 98 112 199q95 79 179 79z" />
<glyph unicode="t" horiz-adv-x="612" d="M514 1034q23 0 10 -45l-25 -87q-22 -73 -24 -81q-2 -6 1 -12t9 -6q31 0 191 -6q8 0 8 -17q2 -10 -11.5 -26.5t-29.5 -18.5q-123 -8 -190 -8q-12 0 -19 -16q-74 -168 -196 -516q-8 -23 -9 -37q0 -21 19 -21q29 0 99.5 46t105.5 85q16 14 29.5 18.5t15.5 -12.5 q0 -20 -19 -49q-61 -88 -186 -171t-197 -83q-14 0 -33.5 17.5t-19.5 29.5q0 20 10 52q2 6 43 115l99 264l96 253q10 25 -4 25q-14 2 -54 4t-55 2q-33 4 -33 19q0 10 15.5 25.5t25.5 17.5q61 6 125 6q16 0 23 20q55 104 84 154q37 59 96 59z" />
<glyph unicode="u" horiz-adv-x="1011" d="M434 827q23 0 35 -32q6 -16 -6 -39q-31 -57 -122 -290t-103 -282q-7 -27 -7 -44q0 -35 27 -36q59 0 183 130.5t206 267.5q55 88 156 270q31 55 59 55q14 0 37 -16t23 -33q0 -25 -27 -84q-160 -393 -203 -524q-14 -41 17 -41q25 0 83 39t119 104q23 23 37 13q2 -2 2 -6 q0 -12 -16 -46q-43 -84 -163 -175t-183 -91q-16 0 -34.5 19.5t-18.5 36.5q0 6 8 34q4 12 51 134t53 143q10 33 0 33q-8 -2 -26 -23q-76 -90 -184.5 -184t-194.5 -150q-68 -43 -117 -43q-35 0 -55 25q-17 19 -17 46q0 19 8 42q20 57 107.5 272t122.5 291q14 29 -6 29 q-12 0 -135 -82q-14 -10 -29 -11t-17 9q0 14 15 33q25 45 137 125.5t178 80.5z" />
<glyph unicode="v" horiz-adv-x="860" d="M209 -25q-45 0 -72.5 37t-27.5 92.5t30 145.5q23 72 82 230l70 186q4 23 -12 22q-43 0 -156 -108q-6 -6 -12.5 -8.5t-11.5 -2.5t-8 3t-3 10q0 20 21 47q45 63 135 130.5t157 67.5q20 0 39 -34q9 -18 9.5 -42t-9.5 -53q-18 -53 -93 -250.5t-87 -234.5q-7 -26 -7 -46 q0 -26 12 -42q22 -29 50 -29q131 0 262.5 176.5t131.5 333.5q0 43 -29 90q-16 27 -16 41q0 29 35.5 59.5t68.5 30.5q29 0 48.5 -33.5t19.5 -78.5q0 -109 -72 -258.5t-178 -263.5q-199 -218 -377 -218z" />
<glyph unicode="w" horiz-adv-x="1296" d="M414 827q27 0 37 -32q10 -22 9 -44q0 -28 -16 -57q-84 -186 -186 -487q-13 -35 -13 -65q0 -13 3 -24q8 -38 39 -38q53 0 135 72.5t151 175.5q49 78 52 90q51 172 67 213q23 66 45 90q16 16 52 35.5t61 19.5q33 0 33 -39q0 -42 -37 -129q-2 -2 -2 -4l-111 -221 q-29 -57 -35 -107q-9 -51 -8 -89q0 -104 66 -103q33 0 94 33t98 76q188 217 191 376q0 33 -6.5 58.5t-14.5 43t-10 23.5q-4 16 6 37q14 33 53 64.5t68 31.5q18 0 28.5 -35.5t10.5 -80.5q-2 -160 -141.5 -368t-282.5 -300q-100 -72 -203 -72q-49 0 -70 70q-10 32 -11 74 q0 48 14 108q2 6 -7 6q-6 0 -8 -2q-129 -133 -178 -168q-121 -88 -205 -88q-31 0 -53 38q-21 35 -21 88q0 75 52 200l143 371q10 23 -12 22q-39 0 -176 -110q-6 -4 -13.5 1t-5.5 13q0 20 15 43q45 63 143.5 126.5t159.5 63.5z" />
<glyph unicode="x" horiz-adv-x="897" d="M338 821q41 0 70 -100l69 -215q2 -10 15 2l87 104q60 74 102 119t77 68q33 29 80 28q80 0 80 -77q0 -27 -31 -72t-60 -45q-18 0 -28 24q-2 10 -14.5 26.5t-24.5 16.5q-16 0 -43 -19t-60 -53l-58 -63l-57 -67l-40 -49q-10 -14 -6 -27q80 -248 94 -275q18 -33 40.5 -32.5 t59.5 43.5t66 90q10 20 22 20q14 0 15 -35q-2 -94 -83 -177t-139 -83q-72 0 -118 146l-30 97.5t-28 88.5q-2 10 -10 2q-160 -201 -235.5 -273.5t-141.5 -72.5q-31 0 -54.5 25.5t-21.5 48.5q0 39 27 77t51 52q41 23 43 -6q8 -39 16.5 -51.5t30.5 -12.5q10 0 26.5 9.5 t39.5 30.5l40 38q17 16 46 50l42 48.5l43 50t34 39.5q4 6 5 17.5t-1 17.5t-18 57l-34 111q-19 61 -24 72q-12 45 -35 45q-41 0 -114 -107q-14 -20 -19 -20q-16 0 -16 27q0 63 80 152t143 89z" />
<glyph unicode="y" horiz-adv-x="786" d="M289 827q41 0 71.5 -49t38.5 -96q28 -142 29 -341q0 -104 -8 -224l4 -2q18 2 31 24q184 326 192 668q0 10 13.5 21.5t19.5 11.5q23 0 48.5 -32t25.5 -50q0 -113 -82 -309.5t-154 -317.5q-174 -289 -221 -346q-139 -170 -219 -236q-119 -94 -219 -94q-41 0 -73 23.5 t-32 60.5q0 35 28 69t56 34q18 0 25 -9q10 -6 26.5 -25.5t33 -29.5t34.5 -10q84 0 199 131q68 80 108.5 237.5t40.5 342.5q0 272 -31 372q-2 6 -5 18.5t-6 18.5l-7 14q-4 8 -10 12.5t-15 4.5q-45 0 -120 -152q-25 -49 -37 -49q-14 0 -19 35q-4 82 70 178t164 96z" />
<glyph unicode="z" horiz-adv-x="854" d="M412 827q43 0 139 -39q76 -33 111 -32q43 0 124 63q31 23 45 23q23 0 21 -15q0 -23 -21 -43q-72 -59 -307 -285.5t-291 -287.5q-12 -12 5 -12q37 -2 79.5 -21.5t60.5 -31.5l73 -48q66 -45 120 -45q121 0 121 174q0 47 -4 64q0 16 21 16q74 0 73 -98q-2 -47 -48 -106.5 t-95 -94.5q-61 -43 -97 -56t-87 -13q-45 0 -164 92q-84 66 -135 65q-41 0 -66 -30q-16 -16 -49 -82q-6 -12 -21 -13q-10 0 -22.5 15.5t-12.5 39.5q0 41 81 117l174 165l237 231q88 88 96 104q2 8 -2 8q-10 2 -108 33q-143 39 -187 39q-31 0 -53 -20.5t-24 -51.5 q0 -47 12 -84q2 -10 -10 -22q-14 -14 -43 -28.5t-45 -14.5q-14 0 -22.5 19.5t-8.5 35.5q0 33 37 89t90 99q109 82 203 82z" />
<glyph unicode="{" horiz-adv-x="759" d="M170 582q0 20 33 20q66 12 109.5 31.5t67 48.5t34 51.5t20.5 61.5q8 31 34 188.5t42 208.5q39 133 154 209q129 78 243 78q43 0 43 -19q0 -14 -26 -22q-123 -37 -188.5 -86t-94.5 -152q-20 -66 -29.5 -194.5t-21.5 -176.5q-20 -70 -98 -138t-177 -107q-16 -6 0 -15 q160 -100 121 -264q-10 -43 -26.5 -84t-38 -85t-29.5 -64q-43 -111 -45 -119q-53 -225 160 -293q10 -2 16 -8t4 -10q-4 -25 -55 -25q-113 0 -197 125t-39 281q10 33 52.5 145.5t52.5 144.5q33 106 14.5 153.5t-88.5 72.5q-47 16 -47 43z" />
<glyph unicode="|" horiz-adv-x="589" d="M301 1509h123v-2005h-123v2005z" />
<glyph unicode="}" horiz-adv-x="751" d="M438 1481q113 0 196 -122t34 -284q-6 -25 -43 -128t-50 -148q-57 -188 82 -234q53 -16 54 -35q0 -20 -41 -26q-207 -31 -242 -195q-2 -12 -26.5 -180t-41.5 -225q-35 -133 -149 -205q-70 -43 -143.5 -61.5t-108.5 -18.5q-41 0 -41 25q0 16 37 22q57 16 87 27.5t72 37 t68.5 67.5t42.5 104q12 47 25.5 181t30.5 189q23 76 93 145.5t181 104.5q14 4 -4 17q-156 104 -115 262q12 55 46 127.5t42 97.5q4 12 19.5 55t19.5 64q47 221 -151 297q-25 6 -25 20q0 19 51 19z" />
<glyph unicode="~" horiz-adv-x="1277" d="M465 692q53 0 117.5 -35.5t113.5 -80t103.5 -80t91.5 -35.5q74 0 112.5 48t88.5 167q8 18 22 18q25 0 51.5 -18.5t20.5 -38.5q-49 -135 -127 -216t-180 -81q-57 0 -121 37t-110 80t-100 79.5t-95 36.5q-106 0 -193 -202q-18 -29 -27 -31q-18 0 -46.5 17.5t-22.5 35.5 q39 125 115.5 212t185.5 87z" />
<glyph unicode="&#xa1;" horiz-adv-x="575" d="M33 -438q-49 0 -62.5 68.5t11.5 127.5q18 59 127 317l137 322q16 37 45 37q12 0 18 -14t2 -33q-51 -326 -127 -653q-20 -84 -65 -128t-86 -44zM350 606q-104 0 -104 111q0 57 38 93t87 36t75.5 -30t26.5 -75q0 -57 -40 -96t-83 -39z" />
<glyph unicode="&#xa2;" d="M731 1081l41 127q8 12 21 13q10 0 27.5 -9.5t17.5 -17.5l-37 -111q-4 -10 10 -16q82 -14 127 -41q39 -27 39 -57q0 -39 -26.5 -77t-47 -38t-31.5 33q-27 84 -84 112q-12 4 -16 -10l-225 -690q-2 -6 3 -9t11 -1q164 20 283 127q29 25 28.5 -2t-22.5 -54 q-115 -141 -324 -172q-12 -4 -18 -12l-51 -135q-10 -20 -35 -21q-14 0 -23.5 6.5t-7.5 12.5l47 139q8 14 -4 21q-100 18 -167.5 96t-67.5 178q0 170 98 319.5t252 223.5q88 41 168 51q10 2 14 14zM485 311l220 686q4 12 -9 13q-133 -25 -232 -189t-99 -332 q0 -70 32.5 -117.5t73.5 -66.5q4 -4 14 6z" />
<glyph unicode="&#xa3;" d="M809 1292q78 0 130 -42t52 -97q2 -98 -86 -121q-14 -4 -21 3t-7 16q6 43 4 69q-2 47 -31 84t-82 37q-88 0 -155.5 -118.5t-127.5 -417.5q-6 -18 9 -19l274 12q14 0 10 -26q-2 -12 -12 -25.5t-16 -13.5l-271 -15q-10 0 -16 -26q-43 -150 -88 -224.5t-137 -156.5 q-2 -4 6 -8q76 -16 184 -64q180 -66 238 -65q199 0 198 157q0 39 -22 115q-2 10 8 17.5t18 7.5q27 0 52.5 -29t25.5 -80q2 -109 -126 -214t-255 -105q-117 0 -301 123q-57 37 -90 47q-14 6 -35 -9q-135 -113 -170 -112q-33 0 -32 37q0 39 48 85t115 72q2 2 26 10.5t32 14.5 q76 57 127 381q0 14 -15 14l-149 -6q-16 0 -8 25q8 37 24 41l144 10q20 4 22 18q57 231 118.5 346t160.5 185q96 67 227 67z" />
<glyph unicode="&#xa4;" d="M950 961l-100 -111q-6 -10 -2 -23q66 -100 65 -209q0 -104 -71 -208l-4 -13l108 -118q8 -6 4 -24.5t-20 -33.5q-8 -8 -23.5 -14t-19.5 0l-123 112q-6 6 -21 -2q-100 -61 -184 -61q-102 0 -188 53q-8 4 -25 -2l-106 -102q-14 -18 -50 10q-37 37 -18 66l96 104q6 12 0 21 q-68 102 -67 210q0 92 69 201q2 2 3 11.5t-3 13.5l-106 121q-16 20 20 57q33 31 52 14l102 -106q4 -4 14 -5t15 1q90 53 192 53q98 0 195 -57q12 -6 18 2l102 106q20 20 58 -14q36 -28 18 -53zM559 872q-106 0 -177 -72.5t-71 -183t73 -180t175 -69.5q100 0 173 70.5 t73 178.5q0 104 -76 180t-170 76z" />
<glyph unicode="&#xa5;" d="M242 1255q0 18 49 19q14 0 71.5 -3t83.5 -3q33 0 85.5 3t68.5 3q45 0 45 -19q0 -20 -45 -28q-39 -10 -53.5 -29.5t-9.5 -58.5q47 -342 59 -408q0 -4 8 -4t12 4q127 147 246 303q82 104 94 140q2 8 0 16t-18 17.5t-45 17.5q-39 4 -39 28q0 18 51 19q20 0 70.5 -2t68.5 -2 q27 -2 76 3t70 5q41 0 41 -21q0 -18 -37 -24q-53 -14 -92 -38t-58 -43l-75 -83l-322 -377q-16 -18 2 -18l209 4q12 0 12 -23q0 -14 -11 -26.5t-19 -12.5l-213 -4q-16 0 -21 -12l-28 -104q-4 -16 10 -17l205 4q16 0 16 -22q0 -14 -10.5 -27.5t-18.5 -13.5l-207 -4 q-23 0 -26 -21l-26 -100l-25 -100q-20 -82 -6 -107t83 -41q43 -10 43 -30.5t-61 -20.5q-20 0 -94 3t-115 3q-29 0 -91 -3t-93 -3q-45 0 -45 20q0 29 61 35q80 12 107.5 41t58.5 129l51 174q4 20 -14 21l-201 -6q-14 0 -14 16q0 10 11 28.5t18 18.5l208 6q16 6 21 12l33 103 q4 18 -4 18l-215 -6q-14 0 -14.5 16.5t10 31t22.5 14.5l195 6q16 0 16 18q-37 231 -80 424q-12 55 -27.5 74.5t-68.5 38.5q-49 14 -49 28z" />
<glyph unicode="&#xa6;" horiz-adv-x="589" d="M301 -354v708h121v-708h-121zM301 1368h121v-709h-121v709z" />
<glyph unicode="&#xa7;" horiz-adv-x="841" d="M795 1305q43 0 71 -21q20 -14 17 -37q-6 -20 -66 -80q-29 -16 -41 -6q-57 45 -135 45q-72 0 -100.5 -45t-28.5 -92q0 -74 102 -297q98 -184 101 -338q2 -178 -187 -426q-88 -111 -219 -195.5t-243 -84.5q-25 0 -48.5 16t-31.5 33q-16 33 -17 86q0 10 9.5 20.5t15.5 5.5 q96 -53 190 -53q84 0 131 39t47 94q0 96 -90 312q-94 197 -94 331q0 225 225 447q14 35 56.5 84t93.5 84q111 78 242 78zM387 977q-100 -111 -100 -285q0 -18 2 -38.5t4 -37t9 -41t10 -38t15 -43.5l15 -42l18 -50q14 -38 19 -50q90 -240 84 -317q-2 -6 0 -10.5t6 -3t12 9.5 q123 109 123 319q0 133 -78 318q-104 221 -118 305q0 8 -4.5 10t-8.5 0t-8 -6z" />
<glyph unicode="&#xa8;" horiz-adv-x="819" d="M461 1237q31 0 51 -24.5t20 -55.5q2 -41 -25.5 -71.5t-64.5 -30.5q-33 0 -50 24.5t-17 59.5q0 43 25.5 70.5t60.5 27.5zM762 1237q31 0 50 -24.5t19 -55.5q2 -41 -24.5 -71.5t-63.5 -30.5q-33 0 -52 24.5t-19 59.5q0 43 28.5 70.5t61.5 27.5z" />
<glyph unicode="&#xa9;" horiz-adv-x="1417" d="M748 1286q272 0 448 -183t176 -450q0 -264 -178 -448.5t-446 -184.5q-279 0 -453 182.5t-174 450.5q0 264 179.5 448.5t447.5 184.5zM748 1225q-233 0 -392 -165t-159 -405q0 -238 161.5 -405.5t389.5 -167.5q231 0 388.5 165t157.5 408q0 240 -158.5 405t-387.5 165z M786 1010q72 0 121 -13q12 -2 50 -12t51 -12q16 -6 18 -47q2 -27 2 -90q0 -37 -22 -37q-16 0 -27 32q-20 66 -59 93q-51 35 -125 34q-111 0 -181.5 -76.5t-70.5 -197.5q0 -164 82 -240.5t178 -76.5q55 0 95 19.5t58.5 41t36.5 55.5q20 41 37 41t17 -28q-4 -49 -27 -111 q-4 -10 -20.5 -24.5t-24.5 -18.5q-78 -35 -187 -35q-100 0 -179 36t-120 83q-92 102 -92 233q0 160 123 256q108 95 266 95z" />
<glyph unicode="&#xaa;" horiz-adv-x="645" d="M131 612q0 63 62 166q53 94 134 173t154 124q43 25 66 25q33 0 59 -27q2 -2 8.5 -1t8.5 3q27 53 41 53q31 0 59 -16q10 -8 4 -25q-117 -258 -156 -397q-8 -27 -5 -33t20 -6q25 0 102 64q23 18 27 6q6 -10 -6 -31q-39 -55 -98.5 -92t-106.5 -37q-53 0 -53 37q0 20 49 135 q8 18 -4 17q-6 0 -17 -11q-178 -178 -286 -178q-23 0 -42.5 13t-19.5 38zM258 688q0 -35 25 -35q47 0 127 80q96 92 163 225q14 27 7 39q-14 25 -56 25q-72 0 -147 -94q-51 -61 -85 -130t-34 -110z" />
<glyph unicode="&#xab;" horiz-adv-x="1312" d="M164 407.5q0 12.5 33 26.5q236 98 553 303q31 20 43 21q23 0 4 -35q-8 -16 -27 -33q-100 -98 -379 -276q-8 -4 -11 -14.5t3 -16.5q176 -184 227 -277q4 -8 7.5 -18t-1 -18.5t-16.5 -8.5q-16 0 -41 23q-168 168 -371 295q-24 16 -24 28.5zM612 408q0 14 31 26 q254 102 549 303q27 20 45 21q16 0 6 -25q-6 -16 -22 -33q-96 -98 -385 -290q-14 -10 -7 -23q186 -203 228 -281q8 -10 7 -27.5t-13 -17.5q-18 0 -43 23q-154 154 -379 301q-17 11 -17 23z" />
<glyph unicode="&#xac;" horiz-adv-x="1277" d="M182 715h940q27 0 27 -43v-561q0 -20 -33 -30.5t-65 -10.5q-25 0 -25 30v465q0 39 -35 41h-796q-27 0 -34 5t-7 26q0 23 9 50.5t19 27.5z" />
<glyph unicode="&#xad;" horiz-adv-x="624" d="M133 481q20 4 211 26.5t201 22.5q6 0 13 -10t5 -22q-4 -29 -22.5 -60.5t-42.5 -34.5q-49 -8 -210 -24.5t-182 -16.5q-18 -2 -18 25q0 16 16.5 54t28.5 40z" />
<glyph unicode="&#xae;" horiz-adv-x="477" d="M389 1040v105q0 23 -3 27t-17 10q-10 4 -12.5 9t1.5 7l9 4q61 6 98 6q41 0 65.5 -16t24.5 -45q0 -25 -37 -43q-4 -4 -2 -8q39 -76 66 -92q10 -4 10 -13q0 -10 -27 -10q-37 0 -55 31q-27 35 -37 59q-2 8 -18 8q-14 0 -15 -8v-22q0 -23 4.5 -28t28.5 -15q6 -2 8 -7.5 t-1 -8.5t-7 -3h-55h-51q-6 0 -9.5 6t4.5 11q27 9 27 36zM440 1176v-62q0 -8 19 -8q39 0 39 37q0 16 -10.5 28.5t-26.5 12.5q-21 0 -21 -8zM461 1319q96 0 160.5 -64.5t64.5 -160.5q0 -88 -62.5 -160t-166.5 -72q-94 0 -159 66.5t-65 165.5q0 90 67 157.5t161 67.5zM461 1282 q-78 2 -130 -52t-52 -136t52 -136.5t130 -54.5q80 0 130 54.5t50 136.5q0 80 -53 134t-127 54z" />
<glyph unicode="&#xaf;" horiz-adv-x="819" d="M418 1165l364 15q4 0 8.5 -4.5t7.5 -15.5t1 -25q-14 -66 -45 -66l-363 -8q-23 0 -14 37q4 23 17.5 45t23.5 22z" />
<glyph unicode="&#xb0;" horiz-adv-x="614" d="M449 1303q94 0 161.5 -63.5t67.5 -172.5q0 -98 -71.5 -168t-166.5 -70q-96 0 -166.5 69t-70.5 169q0 96 75 166t171 70zM434 1231q-55 0 -96 -47t-41 -117q0 -74 44 -119t110 -45q55 0 95 44t40 120q0 72 -42 118t-110 46z" />
<glyph unicode="&#xb1;" horiz-adv-x="1277" d="M608 1116q0 12 34 21.5t58 9.5q20 0 25.5 -6t5.5 -35v-387q0 -16 4 -20.5t21 -4.5h397q18 0 24.5 -5t6.5 -19q0 -37 -9.5 -60.5t-19.5 -23.5h-401q-23 0 -23 -29v-387q0 -23 -32.5 -33t-65.5 -10q-25 0 -25 31v393q0 23 -5 29t-25 6h-383q-27 0 -34 5t-7 25q0 23 9 50.5 t19 27.5h402q8 0 16 7.5t8 17.5v397zM1153 8q18 0 24.5 -5t6.5 -19q0 -37 -9.5 -61.5t-19.5 -24.5h-960q-27 0 -34 5t-7 25q0 23 9 51.5t19 28.5h971z" />
<glyph unicode="&#xb2;" horiz-adv-x="614" d="M606 1587q63 0 114.5 -48t51.5 -122q0 -115 -141 -227l-236 -189q-10 -8 -7 -12t11 -4q184 0 234 8q31 4 74 58q18 27 34 26q10 0 12.5 -16.5t-5.5 -32.5q-51 -92 -74 -137q-8 -12 -31 -12q-6 0 -137 1t-164 1h-86q-53 0 -53 22q0 16 26 35q78 53 240 192 q174 141 174 261q0 51 -25.5 77.5t-66.5 26.5q-72 0 -150 -74q-20 -18 -34.5 -18t-14.5 16q0 23 35 64q100 104 219 104z" />
<glyph unicode="&#xb3;" horiz-adv-x="614" d="M623 1587q74 0 111.5 -43t37.5 -88q0 -25 -9 -46t-32.5 -39.5t-38 -29t-49.5 -28t-41 -21.5q-14 -10 -2 -12q63 -16 105.5 -58t42.5 -110t-65 -133.5t-177 -106.5q-61 -25 -150 -24q-55 0 -83.5 38t-24.5 87q0 29 18 28q12 0 25 -10q104 -82 160 -82q61 0 111 55.5 t50 125.5q0 63 -32.5 92.5t-79.5 29.5q-35 0 -56 -4q-41 -6 -38 11q0 16 28 34q14 8 52 25.5t57 28.5q109 53 108 145q0 74 -78 74q-70 0 -133 -105q-2 -4 -9 -5t-11 3q-18 18 -19 51q0 14 25 39q101 78 197 78z" />
<glyph unicode="&#xb4;" horiz-adv-x="819" d="M688 1270q16 23 45 22q16 0 31.5 -32.5t11.5 -51.5q-2 -20 -28 -53q-78 -92 -197 -217q-27 -35 -57 -35q-12 2 -12.5 21.5t10.5 33.5q46 85 196 312z" />
<glyph unicode="&#xb5;" horiz-adv-x="958" d="M362 829q39 0 78 -38l2 -11q2 -10 3 -21t1 -16q-20 -59 -118 -229l-63 -114q-46 -85 -56 -101q-27 -45 -25 -94q2 -29 29 -52.5t51 -23.5q66 0 151 72.5t154 171.5q23 31 43 86q109 268 142 325q8 16 28.5 35t30.5 19q55 0 90 -43q12 -20 -10 -78q-31 -66 -120 -202 t-140 -198q-29 -37 -31 -77q-2 -72 27.5 -103t70.5 -31q86 0 187 121q10 6 18 5t8 -9q0 -37 -41 -102q-47 -70 -109.5 -116t-113.5 -46q-127 0 -92 238q2 20 -2 20t-8 -6q-133 -137 -194.5 -187.5t-110.5 -50.5q-29 0 -51.5 31t-29.5 56.5t-11 48.5q-6 20 -21 2 q-23 -31 -64.5 -172.5t-44.5 -190.5q-4 -74 14.5 -110.5t67.5 -75.5q12 -12 -2 -39q-29 -45 -77 -70q-23 -12 -54 -12q-10 0 -25.5 21.5t-23.5 50.5q-20 76 33 262q39 147 135 397l16 56l15 53q96 307 168 507q8 23 28 31q18 10 47 10z" />
<glyph unicode="&#xb6;" horiz-adv-x="1175" d="M207 688q0 145 62.5 257t152.5 177q168 131 455 144q254 12 393 12q39 0 39 -31q0 -12 -10.5 -26.5t-22.5 -14.5q-4 0 -67.5 4t-84.5 4q-27 0 -41 -19t-30 -77l-324 -1145q-100 -342 -217 -434q-94 -74 -203 -74q-115 0 -176 59.5t-61 147.5q0 94 54 152.5t124 58.5 q51 0 80.5 -33.5t29.5 -72.5q0 -35 -31.5 -61.5t-68.5 -26.5q-20 0 -49 20q-14 12 -25 12q-12 0 -24 -14t-12 -45q0 -49 49 -91t120 -42q59 0 110.5 32.5t81.5 70.5t58.5 104.5t38.5 97.5t25 86l42 140l28 93q9 30 16 58q2 16 -2 25.5t-17 7.5q-29 -4 -79 -4 q-166 0 -290 118.5t-124 329.5zM946 1208q-70 0 -131 -96q-57 -96 -120.5 -302t-88.5 -368q-8 -61 17.5 -101t74.5 -40q41 0 54 41l237 827q4 16 -7 27.5t-36 11.5z" />
<glyph unicode="&#xb7;" horiz-adv-x="462" d="M236 502q102 0 102 -111q0 -57 -38 -92t-87 -35t-75.5 31t-26.5 74q0 57 40 95t85 38z" />
<glyph unicode="&#xb8;" horiz-adv-x="819" d="M369 4h55q-6 -4 -27 -24l-26 -27l-22 -23q-15 -16 -21 -25l-15 -23q-8 -13 -11 -25.5t-3 -24.5q0 -27 41 -100q25 -43 25 -84q0 -29 -31 -65t-72 -60q-51 -31 -80 -31q-37 0 -74.5 29.5t-37.5 68.5q0 43 22 43q8 0 31 -20q55 -45 88 -45q39 0 39 35q0 29 -47 110 q-27 49 -27 78q0 35 29 74q27 37 164 139z" />
<glyph unicode="&#xb9;" horiz-adv-x="614" d="M428 1509q0 4 14.5 13.5t26.5 11.5q195 31 238 53q10 6 15 -1t1 -15l-53 -160q-72 -213 -111 -383q-12 -53 0 -68.5t66 -29.5q49 -14 49 -35t-53 -21q-29 0 -78 3.5t-70 3.5q-45 0 -100.5 -4.5t-73.5 -4.5q-49 0 -49 25q0 20 65 35q45 8 64.5 22.5t36.5 49.5 q27 55 98 284q41 137 49 170q4 16 -12 19q-41 8 -74 8q-49 -1 -49 24z" />
<glyph unicode="&#xba;" horiz-adv-x="602" d="M520 1124q78 0 113 -48t35 -111q0 -113 -74 -221.5t-162 -153.5q-61 -29 -122.5 -29t-99.5 43t-38 111q0 76 47 174t125 166q86 69 176 69zM520 1079q-61 0 -110 -63q-51 -59 -90 -160.5t-39 -171.5t57 -70q43 0 90 58q43 49 93 159.5t50 182.5q0 65 -51 65z" />
<glyph unicode="&#xbb;" horiz-adv-x="1353" d="M1178 412q0 -12 -33 -27q-246 -102 -553 -305q-27 -18 -43 -19q-23 0 -2 35q8 14 24 31q113 111 379 276q25 12 8 33q-172 176 -227 275q-8 10 -8 28.5t18 18.5q16 0 41 -25q180 -176 371 -295q25 -12 25 -26zM727 411.5q0 -14.5 -29 -26.5q-256 -104 -548 -305 q-37 -18 -46 -19q-18 0 -6 25q6 14 23 31q104 109 385 291q16 12 6 22q-184 199 -227 281q-8 10 -7 28.5t13 18.5q18 0 43 -25q156 -156 377 -299q16 -8 16 -22.5z" />
<glyph unicode="&#xbc;" horiz-adv-x="1312" d="M338 1206q0 4 14.5 13.5t26.5 11.5q195 31 237 53q10 6 15.5 -1t1.5 -15l-53 -160q-72 -213 -111 -383q-12 -53 0 -68.5t66 -29.5q49 -14 49 -35t-54 -21q-29 0 -78 3.5t-69 3.5q-45 0 -100.5 -4.5t-73.5 -4.5q-49 0 -49 25q0 20 65 35q45 8 64.5 22.5t36.5 48.5 q27 55 98 285q41 137 49 170q4 16 -12 19q-41 8 -74 8q-49 -1 -49 24zM1288 1303q16 0 27.5 -6.5t11.5 -12.5t-4 -12l-1104 -1329q-10 -14 -24 -15q-16 0 -28.5 19.5t1.5 36.5l1079 1298q18 21 41 21zM1217 707q6 0 11 -10.5t3 -20.5q0 -2 -24 -76l-50 -162l-37 -123 q-6 -14 10 -14l109 6q4 0 8 -7t2 -11q-16 -55 -43 -56q-16 0 -96 -6q-14 0 -16 -14q-51 -180 -62 -209q-4 -16 -26 -24q-25 -12 -82 -13q-20 0 -13 33q2 4 14 41l25 82q14 45 27 78q2 4 1 11t-5 7t-136 -7t-147 -7q-8 0 -15 8t-5 14q0 8 39 47q41 47 374 344q29 25 35 31 q76 58 99 58zM1010 307q53 166 88 258q2 4 -2 5t-6 -1q-104 -90 -279 -272q-4 -4 -5 -8t0 -6t5 -2l182 12q11 0 17 14z" />
<glyph unicode="&#xbd;" horiz-adv-x="1390" d="M338 1206q0 4 14.5 13.5t26.5 11.5q195 31 237 53q10 6 15.5 -1t1.5 -15l-53 -160q-72 -213 -111 -383q-12 -53 0 -68.5t66 -29.5q49 -14 49 -35t-54 -21q-29 0 -78 3.5t-69 3.5q-45 0 -100.5 -4.5t-73.5 -4.5q-49 0 -49 25q0 20 65 35q45 8 64.5 22.5t36.5 48.5 q27 55 98 285q41 137 49 170q4 16 -12 19q-41 8 -74 8q-49 -1 -49 24zM1255 1303q16 0 27.5 -6.5t11.5 -12.5t-4 -12l-1104 -1329q-10 -14 -24 -15q-16 0 -28.5 19.5t1.5 36.5l1079 1298q18 21 41 21zM1118 707q63 0 114.5 -48.5t51.5 -121.5q0 -115 -141 -228l-236 -188 q-10 -8 -7 -12.5t11 -4.5q184 0 234 9q31 4 74 57q18 27 34 27q10 0 12.5 -16.5t-5.5 -33.5q-51 -92 -74 -137q-8 -12 -31 -12q-6 0 -137 1t-164 1h-86q-53 0 -53 23q0 16 26 34q78 53 240 193q174 141 174 260q0 51 -25.5 77.5t-66.5 26.5q-72 0 -150 -73 q-20 -18 -34.5 -18.5t-14.5 16.5q0 23 35 63q100 105 219 105z" />
<glyph unicode="&#xbe;" horiz-adv-x="1304" d="M532 1284q74 0 112 -43t38 -88q0 -25 -9 -46.5t-33 -39.5l-38 -28.5t-49 -28t-41 -21.5q-14 -10 -2 -12q63 -16 105 -58t42 -110t-64.5 -133.5t-176.5 -106.5q-61 -25 -150 -24q-55 0 -83.5 38t-24.5 87q0 29 18 28q12 0 25 -10q104 -82 159 -82q61 0 111.5 55.5 t50.5 124.5q0 63 -32.5 93t-79.5 30q-35 0 -56 -4q-41 -6 -39 10q0 16 29 35q14 8 52 25.5t57 28.5q109 53 108 145q0 74 -78 74q-70 0 -133 -105q-2 -4 -9 -5t-11 3q-18 18 -19 51q0 14 25 39q100 78 196 78zM1290 1303q16 0 27.5 -6.5t11.5 -12.5t-4 -12l-1104 -1329 q-10 -14 -24 -15q-16 0 -28.5 19.5t1.5 36.5l1079 1298q18 21 41 21zM1208 707q6 0 11.5 -10.5t3.5 -20.5q0 -2 -24 -76l-50 -162l-37 -123q-6 -14 10 -14l109 6q4 0 8 -7t2 -11q-16 -55 -43 -56q-16 0 -96 -6q-14 0 -17 -14q-51 -180 -61 -209q-4 -16 -27 -24 q-25 -12 -82 -13q-20 0 -12 33q2 4 13 41l26 82q14 45 27 78q2 4 1 11t-5 7t-136.5 -7t-146.5 -7q-8 0 -15.5 8t-4.5 14q0 8 38 47q41 47 375 344q29 25 35 31q75 58 98 58zM1001 307q53 166 89 258q2 4 -2.5 5t-6.5 -1q-104 -90 -278 -272q-4 -4 -5 -8t0 -6t5 -2l182 12 q10 0 16 14z" />
<glyph unicode="&#xbf;" horiz-adv-x="739" d="M211 -451q-78 0 -166 72q-37 29 -66.5 89.5t-29.5 121.5q0 59 35.5 113.5t76.5 74.5q61 41 213 132q35 23 51.5 41t17.5 29t3 44q0 57 -61 166q-2 4 0 9t10 8.5t22 -0.5q18 -6 40 -20.5t50.5 -42.5t47 -76t18.5 -107q-2 -86 -61 -146q-51 -51 -252 -149 q-127 -59 -127 -139q0 -51 28.5 -88t100.5 -37q53 0 86 57q14 27 27.5 36t39.5 9q29 0 50.5 -20.5t21.5 -55.5q0 -51 -52 -86t-124 -35zM436 606q-49 0 -76.5 30t-27.5 81q0 57 39 93t86 36q51 0 76.5 -30t25.5 -75q0 -57 -39 -96t-84 -39z" />
<glyph unicode="&#xc0;" horiz-adv-x="1302" d="M1282 1362q29 0 4 -66q-55 -141 -69 -200q-14 -68 -61 -259l-82 -348q-36 -156 -52 -251q-23 -109 -4.5 -146t119.5 -49q39 -6 39 -27q0 -23 -62 -22q-35 0 -83 3t-87 3q-90 0 -174 -7t-111 -7q-16 0 -31.5 6t-13.5 14q0 20 41 29q49 6 81 18.5t50.5 35t26.5 39.5t18 52 q66 221 91 338q2 6 -4.5 15.5t-14.5 9.5q-150 0 -291 -19q-39 -4 -92 -57q-68 -68 -203 -262q-90 -137 58 -166q14 -6 14 -12q0 -10 -13.5 -20.5t-25.5 -10.5q-41 0 -106.5 2t-116.5 2q-25 0 -106.5 -4t-90.5 -4q-57 0 -57 28q0 18 51 23q86 2 140.5 28.5t121.5 100.5 q135 145 327 374l343 416q152 187 158 195q41 45 61 76q8 16 12 16q27 4 41.5 7.5t38 12.5t43 26.5t36 42t36.5 24.5zM647 594q137 0 268 16q23 4 37 37q14 41 48 186.5t40 184.5q4 25 6.5 38t2.5 20t-1 9t-6 2q-12 0 -47 -36q-86 -94 -354 -439q-10 -18 6 -18zM1073 1683 q29 0 74 -51q4 -6 62.5 -69.5t86.5 -100.5q8 -12 12.5 -30.5t0.5 -22.5q-23 -18 -62 10q-125 72 -221 140q-41 35 -41 57q0 20 49 55q25 16 39 12z" />
<glyph unicode="&#xc1;" horiz-adv-x="1302" d="M1282 1362q29 0 4 -66q-55 -141 -69 -200q-14 -68 -61 -259l-82 -348q-36 -156 -52 -251q-23 -109 -4.5 -146t119.5 -49q39 -6 39 -27q0 -23 -62 -22q-35 0 -83 3t-87 3q-90 0 -174 -7t-111 -7q-16 0 -31.5 6t-13.5 14q0 20 41 29q49 6 81 18.5t50.5 35t26.5 39.5t18 52 q66 221 91 338q2 6 -4.5 15.5t-14.5 9.5q-150 0 -291 -19q-39 -4 -92 -57q-68 -68 -203 -262q-90 -137 58 -166q14 -6 14 -12q0 -10 -13.5 -20.5t-25.5 -10.5q-41 0 -106.5 2t-116.5 2q-25 0 -106.5 -4t-90.5 -4q-57 0 -57 28q0 18 51 23q86 2 140.5 28.5t121.5 100.5 q135 145 327 374l343 416q152 187 158 195q41 45 61 76q8 16 12 16q27 4 41.5 7.5t38 12.5t43 26.5t36 42t36.5 24.5zM647 594q137 0 268 16q23 4 37 37q14 41 48 186.5t40 184.5q4 25 6.5 38t2.5 20t-1 9t-6 2q-12 0 -47 -36q-86 -94 -354 -439q-10 -18 6 -18zM1567 1626 q0 -18 -56 -51q-143 -84 -288 -143q-61 -20 -72 -9q-16 20 27 58q158 133 274 213q33 23 49 10q18 -8 43 -33t23 -45z" />
<glyph unicode="&#xc2;" horiz-adv-x="1302" d="M1282 1362q29 0 4 -66q-55 -141 -69 -200q-14 -68 -61 -259l-82 -348q-36 -156 -52 -251q-23 -109 -4.5 -146t119.5 -49q39 -6 39 -27q0 -23 -62 -22q-35 0 -83 3t-87 3q-90 0 -174 -7t-111 -7q-16 0 -31.5 6t-13.5 14q0 20 41 29q49 6 81 18.5t50.5 35t26.5 39.5t18 52 q66 221 91 338q2 6 -4.5 15.5t-14.5 9.5q-150 0 -291 -19q-39 -4 -92 -57q-68 -68 -203 -262q-90 -137 58 -166q14 -6 14 -12q0 -10 -13.5 -20.5t-25.5 -10.5q-41 0 -106.5 2t-116.5 2q-25 0 -106.5 -4t-90.5 -4q-57 0 -57 28q0 18 51 23q86 2 140.5 28.5t121.5 100.5 q135 145 327 374l343 416q152 187 158 195q41 45 61 76q8 16 12 16q27 4 41.5 7.5t38 12.5t43 26.5t36 42t36.5 24.5zM647 594q137 0 268 16q23 4 37 37q14 41 48 186.5t40 184.5q4 25 6.5 38t2.5 20t-1 9t-6 2q-12 0 -47 -36q-86 -94 -354 -439q-10 -18 6 -18zM1294 1636 q16 0 41 -39q31 -59 115 -192q12 -23 8 -34t-18 -11q-18 0 -45 22q-74 49 -131 107q-10 8 -23 0q-86 -51 -237 -113q-33 -12 -54 -12q-18 0 -12 18q4 16 31 33q193 131 250 178q48 43 75 43z" />
<glyph unicode="&#xc3;" horiz-adv-x="1302" d="M1282 1362q29 0 4 -66q-55 -141 -69 -200q-14 -68 -61 -259l-82 -348q-36 -156 -52 -251q-23 -109 -4.5 -146t119.5 -49q39 -6 39 -27q0 -23 -62 -22q-35 0 -83 3t-87 3q-90 0 -174 -7t-111 -7q-16 0 -31.5 6t-13.5 14q0 20 41 29q49 6 81 18.5t50.5 35t26.5 39.5t18 52 q66 221 91 338q2 6 -4.5 15.5t-14.5 9.5q-150 0 -291 -19q-39 -4 -92 -57q-68 -68 -203 -262q-90 -137 58 -166q14 -6 14 -12q0 -10 -13.5 -20.5t-25.5 -10.5q-41 0 -106.5 2t-116.5 2q-25 0 -106.5 -4t-90.5 -4q-57 0 -57 28q0 18 51 23q86 2 140.5 28.5t121.5 100.5 q135 145 327 374l343 416q152 187 158 195q41 45 61 76q8 16 12 16q27 4 41.5 7.5t38 12.5t43 26.5t36 42t36.5 24.5zM647 594q137 0 268 16q23 4 37 37q14 41 48 186.5t40 184.5q4 25 6.5 38t2.5 20t-1 9t-6 2q-12 0 -47 -36q-86 -94 -354 -439q-10 -18 6 -18zM981 1464 q39 66 72 95q23 23 57 22q233 0 262 6q14 4 27.5 12.5t19.5 14.5t15 16l10 10l5 6q3 3 5 6t5 5t5 2q10 0 25 -27q10 -14 -10 -30q-14 -16 -47 -60l-41 -53q-27 -27 -54 -27q-258 0 -270 -4q-20 -6 -68 -67q-2 -8 -12 -8.5t-19.5 12t-9.5 18.5q0 10 23 51z" />
<glyph unicode="&#xc4;" horiz-adv-x="1302" d="M1282 1362q29 0 4 -66q-55 -141 -69 -200q-14 -68 -61 -259l-82 -348q-36 -156 -52 -251q-23 -109 -4.5 -146t119.5 -49q39 -6 39 -27q0 -23 -62 -22q-35 0 -83 3t-87 3q-90 0 -174 -7t-111 -7q-16 0 -31.5 6t-13.5 14q0 20 41 29q49 6 81 18.5t50.5 35t26.5 39.5t18 52 q66 221 91 338q2 6 -4.5 15.5t-14.5 9.5q-150 0 -291 -19q-39 -4 -92 -57q-68 -68 -203 -262q-90 -137 58 -166q14 -6 14 -12q0 -10 -13.5 -20.5t-25.5 -10.5q-41 0 -106.5 2t-116.5 2q-25 0 -106.5 -4t-90.5 -4q-57 0 -57 28q0 18 51 23q86 2 140.5 28.5t121.5 100.5 q135 145 327 374l343 416q152 187 158 195q41 45 61 76q8 16 12 16q27 4 41.5 7.5t38 12.5t43 26.5t36 42t36.5 24.5zM647 594q137 0 268 16q23 4 37 37q14 41 48 186.5t40 184.5q4 25 6.5 38t2.5 20t-1 9t-6 2q-12 0 -47 -36q-86 -94 -354 -439q-10 -18 6 -18zM1040.5 1587 q36.5 0 58 -24.5t19.5 -65.5q-2 -37 -35.5 -67.5t-70.5 -30.5t-57.5 24.5t-18.5 65.5t35 69.5t69.5 28.5zM1427 1587q37 0 56.5 -24.5t17.5 -65.5q-2 -39 -34.5 -68.5t-67.5 -29.5q-37 0 -58.5 24.5t-19.5 65.5t34.5 69.5t71.5 28.5z" />
<glyph unicode="&#xc5;" horiz-adv-x="1302" d="M1282 1362q29 0 4 -66q-55 -141 -69 -200q-14 -68 -61 -259l-82 -348q-36 -156 -52 -251q-23 -109 -4.5 -146t119.5 -49q39 -6 39 -27q0 -23 -62 -22q-35 0 -83 3t-87 3q-90 0 -174 -7t-111 -7q-16 0 -31.5 6t-13.5 14q0 20 41 29q49 6 81 18.5t50.5 35t26.5 39.5t18 52 q66 221 91 338q2 6 -4.5 15.5t-14.5 9.5q-150 0 -291 -19q-39 -4 -92 -57q-68 -68 -203 -262q-90 -137 58 -166q14 -6 14 -12q0 -10 -13.5 -20.5t-25.5 -10.5q-41 0 -106.5 2t-116.5 2q-25 0 -106.5 -4t-90.5 -4q-57 0 -57 28q0 18 51 23q86 2 140.5 28.5t121.5 100.5 q135 145 327 374l343 416q152 187 158 195q41 45 61 76q8 16 12 16q27 4 41.5 7.5t38 12.5t43 26.5t36 42t36.5 24.5zM647 594q137 0 268 16q23 4 37 37q14 41 48 186.5t40 184.5q4 25 6.5 38t2.5 20t-1 9t-6 2q-12 0 -47 -36q-86 -94 -354 -439q-10 -18 6 -18zM1249 1737 q72 0 113 -53.5t33 -120.5q-10 -68 -61.5 -113t-123.5 -45q-76 0 -116.5 50t-30.5 120q8 68 60 115t126 47zM1241 1677q-41 0 -69.5 -29.5t-32.5 -74.5q-6 -49 16.5 -78t58.5 -29q94 0 107 107q4 41 -20.5 72.5t-59.5 31.5z" />
<glyph unicode="&#xc6;" horiz-adv-x="1931" d="M1411 1317h127q356 0 410 16q6 2 9 -5t3 -17.5t-4 -18.5q-45 -80 -62 -223q-4 -35 -28 -35q-27 0 -31 58q-6 84 -20.5 119.5t-45.5 37.5q-61 6 -290 6q-63 0 -80 -11t-35 -64q-29 -82 -139 -475q-8 -33 14 -33l244 6q25 2 43 3t35.5 4t26.5 5t21.5 10.5t17.5 10.5 t16.5 14t14.5 16t16 24l18 26q23 33 41 32q8 0 13 -7t3 -22.5t-10 -35.5q-51 -100 -97 -291q-10 -39 -36 -39q-23 0 -23 55q0 70 -15.5 92.5t-58.5 20.5l-299 -6q-23 0 -30 -35q-18 -51 -56.5 -183t-42.5 -161q-20 -88 4 -115q37 -37 250 -37q131 0 185.5 9.5t113.5 42.5 q47 25 140 151q43 59 59 60q27 0 8 -62q-45 -145 -100 -221q-18 -29 -48 -37t-94 -8q-45 0 -325.5 3t-341.5 3q-70 0 -146 -4l-77 -2q-47 0 -47 24q0 31 53 37q72 8 107.5 26.5t48 40t32.5 81.5q72 193 117 366q2 4 0 13.5t-10 9.5q-332 -10 -361 -12q-29 0 -55 -31 q-233 -266 -322 -393q-27 -35 -24.5 -55.5t19 -29t61.5 -20.5q39 -10 39 -31q0 -27 -48 -26q-2 0 -65.5 3t-136.5 3q-49 0 -121 -3t-86 -3q-49 0 -49 20q0 27 51 35q176 33 287 158l888 999q23 33 -4 39q-8 2 -55 8.5t-78 12.5q-57 8 -57 30q0 25 70 25q4 0 81.5 -1t184 -2 t182.5 -1zM1219 1229q4 31 -43 -19q-330 -352 -463 -526q-6 -8 -5 -13t4 -7t5 -2q14 0 157.5 5t159.5 5q18 0 27 30q0 6 76 250t82 277z" />
<glyph unicode="&#xc7;" horiz-adv-x="1347" d="M743 -31q-104 -104 -104 -153q0 -29 43 -109q27 -49 27 -88q0 -29 -33 -66.5t-74 -60.5q-55 -37 -86 -37q-39 0 -79 35t-40 80q0 35 19 35q14 0 43 -25q59 -49 92 -49q37 0 37 43q0 39 -49 119q-27 45 -27 78q0 35 33 75q33 35 125 117h-21q-78 0 -156.5 30t-152.5 88 t-121 164.5t-47 241.5q0 174 75 338t208 289q250 240 585 240q152 0 283 -54q49 -23 86 -2t49 9q12 -18 0 -43q-76 -133 -102 -238q-14 -55 -41 -55q-25 0 -17 61q14 119 -41 187q-66 84 -202 84q-233 0 -453 -218q-113 -115 -175 -287.5t-62 -330.5q0 -121 38.5 -212 t97 -138t117 -69.5t109.5 -22.5q147 0 264 106l166 158q20 18 39 18q20 0 6 -47q-16 -59 -158 -270q-27 -35 -59 -8q-35 33 -88 20q-10 -2 -36 -8l-56 -13q-31 -8 -62 -12z" />
<glyph unicode="&#xc8;" horiz-adv-x="1226" d="M553 690l231 8q104 4 140.5 24.5t81.5 82.5q25 33 45 33q8 0 10 -12.5t-2 -30t-12 -33.5q-59 -106 -97 -266q-10 -41 -30 -41q-27 0 -25 59q4 66 -17.5 86.5t-62.5 20.5l-264 -7q-57 0 -70 -39q-10 -29 -98 -356q-20 -82 4 -119q27 -37 68 -39q147 -10 299 -10 q88 0 141 37q96 49 174 158q35 53 53 53q20 0 8 -55q-33 -129 -96 -201q-39 -43 -57 -45q-55 -12 -92 -12q-45 0 -317.5 7t-334.5 7q-66 0 -150.5 -6t-109.5 -6q-59 0 -59 26q0 23 63 29q80 6 124 27.5t59.5 47t34.5 85.5l288 899q33 70 11.5 114t-132.5 58q-53 4 -53 29 q0 20 66 20q18 0 99 -3t140 -3h191q393 0 469 20q4 0 8 -6t6 -14t0 -12q-29 -51 -56.5 -129t-31.5 -107q0 -16 -16 -16q-12 0 -26.5 16t-16.5 43q-6 98 -23 117q-8 10 -24 16q-31 14 -256 15q-104 0 -138 -43q-31 -43 -170 -498q-2 -8 6.5 -18.5t16.5 -10.5zM764 1683 q29 0 74 -51q4 -6 62 -69.5t87 -100.5q8 -12 12.5 -30.5t-0.5 -22.5q-23 -18 -61 10q-125 72 -221 140q-41 35 -41 57q0 20 49 55q25 16 39 12z" />
<glyph unicode="&#xc9;" horiz-adv-x="1226" d="M553 690l231 8q104 4 140.5 24.5t81.5 82.5q25 33 45 33q8 0 10 -12.5t-2 -30t-12 -33.5q-59 -106 -97 -266q-10 -41 -30 -41q-27 0 -25 59q4 66 -17.5 86.5t-62.5 20.5l-264 -7q-57 0 -70 -39q-10 -29 -98 -356q-20 -82 4 -119q27 -37 68 -39q147 -10 299 -10 q88 0 141 37q96 49 174 158q35 53 53 53q20 0 8 -55q-33 -129 -96 -201q-39 -43 -57 -45q-55 -12 -92 -12q-45 0 -317.5 7t-334.5 7q-66 0 -150.5 -6t-109.5 -6q-59 0 -59 26q0 23 63 29q80 6 124 27.5t59.5 47t34.5 85.5l288 899q33 70 11.5 114t-132.5 58q-53 4 -53 29 q0 20 66 20q18 0 99 -3t140 -3h191q393 0 469 20q4 0 8 -6t6 -14t0 -12q-29 -51 -56.5 -129t-31.5 -107q0 -16 -16 -16q-12 0 -26.5 16t-16.5 43q-6 98 -23 117q-8 10 -24 16q-31 14 -256 15q-104 0 -138 -43q-31 -43 -170 -498q-2 -8 6.5 -18.5t16.5 -10.5zM1171 1628 q0 -18 -55 -51q-143 -84 -289 -143q-61 -20 -71 -9q-16 20 26 58q158 133 275 213q33 23 49 10q18 -8 42.5 -33t22.5 -45z" />
<glyph unicode="&#xca;" horiz-adv-x="1226" d="M553 690l231 8q104 4 140.5 24.5t81.5 82.5q25 33 45 33q8 0 10 -12.5t-2 -30t-12 -33.5q-59 -106 -97 -266q-10 -41 -30 -41q-27 0 -25 59q4 66 -17.5 86.5t-62.5 20.5l-264 -7q-57 0 -70 -39q-10 -29 -98 -356q-20 -82 4 -119q27 -37 68 -39q147 -10 299 -10 q88 0 141 37q96 49 174 158q35 53 53 53q20 0 8 -55q-33 -129 -96 -201q-39 -43 -57 -45q-55 -12 -92 -12q-45 0 -317.5 7t-334.5 7q-66 0 -150.5 -6t-109.5 -6q-59 0 -59 26q0 23 63 29q80 6 124 27.5t59.5 47t34.5 85.5l288 899q33 70 11.5 114t-132.5 58q-53 4 -53 29 q0 20 66 20q18 0 99 -3t140 -3h191q393 0 469 20q4 0 8 -6t6 -14t0 -12q-29 -51 -56.5 -129t-31.5 -107q0 -16 -16 -16q-12 0 -26.5 16t-16.5 43q-6 98 -23 117q-8 10 -24 16q-31 14 -256 15q-104 0 -138 -43q-31 -43 -170 -498q-2 -8 6.5 -18.5t16.5 -10.5zM958 1690 q16 0 41 -39q31 -59 115 -193q12 -23 8 -34t-18 -11q-18 0 -45 23q-74 49 -131 106q-10 8 -23 0q-86 -51 -237 -112q-33 -12 -54 -13q-18 0 -12 19q4 16 31 32q193 131 250 179q48 43 75 43z" />
<glyph unicode="&#xcb;" horiz-adv-x="1226" d="M553 690l231 8q104 4 140.5 24.5t81.5 82.5q25 33 45 33q8 0 10 -12.5t-2 -30t-12 -33.5q-59 -106 -97 -266q-10 -41 -30 -41q-27 0 -25 59q4 66 -17.5 86.5t-62.5 20.5l-264 -7q-57 0 -70 -39q-10 -29 -98 -356q-20 -82 4 -119q27 -37 68 -39q147 -10 299 -10 q88 0 141 37q96 49 174 158q35 53 53 53q20 0 8 -55q-33 -129 -96 -201q-39 -43 -57 -45q-55 -12 -92 -12q-45 0 -317.5 7t-334.5 7q-66 0 -150.5 -6t-109.5 -6q-59 0 -59 26q0 23 63 29q80 6 124 27.5t59.5 47t34.5 85.5l288 899q33 70 11.5 114t-132.5 58q-53 4 -53 29 q0 20 66 20q18 0 99 -3t140 -3h191q393 0 469 20q4 0 8 -6t6 -14t0 -12q-29 -51 -56.5 -129t-31.5 -107q0 -16 -16 -16q-12 0 -26.5 16t-16.5 43q-6 98 -23 117q-8 10 -24 16q-31 14 -256 15q-104 0 -138 -43q-31 -43 -170 -498q-2 -8 6.5 -18.5t16.5 -10.5zM708.5 1630 q36.5 0 58 -24.5t19.5 -65.5q-2 -37 -35.5 -67.5t-70.5 -30.5t-57.5 24.5t-18.5 65.5t35 69.5t69.5 28.5zM1096 1630q37 0 56 -24.5t17 -65.5q-2 -39 -34.5 -68.5t-67.5 -29.5q-37 0 -58.5 24.5t-19.5 65.5t35 69.5t72 28.5z" />
<glyph unicode="&#xcc;" horiz-adv-x="700" d="M326 1298q0 23 57 23q39 0 94 -2t88 -2q63 0 146.5 3t103.5 3q53 0 53 -18q0 -25 -61 -35q-80 -14 -104.5 -37t-57.5 -107q-33 -82 -135 -448.5t-123 -464.5q-18 -98 -3 -125t87 -41q49 -8 49 -30.5t-59 -22.5q-39 0 -93.5 3t-86.5 3q-45 0 -139.5 -5t-125.5 -5 q-57 0 -57 22q0 8 15.5 17.5t37.5 11.5q88 12 124 46t73 136q29 78 126 416t126 457q23 94 8.5 129t-84.5 43q-57 10 -59 30zM477 1683q29 0 74 -51q4 -6 62.5 -69.5t86.5 -100.5q8 -12 12.5 -30.5t0.5 -22.5q-23 -18 -62 10q-125 72 -221 140q-41 35 -41 57q0 20 49 55 q25 16 39 12z" />
<glyph unicode="&#xcd;" horiz-adv-x="700" d="M326 1298q0 23 57 23q39 0 94 -2t88 -2q63 0 146.5 3t103.5 3q53 0 53 -18q0 -25 -61 -35q-80 -14 -104.5 -37t-57.5 -107q-33 -82 -135 -448.5t-123 -464.5q-18 -98 -3 -125t87 -41q49 -8 49 -30.5t-59 -22.5q-39 0 -93.5 3t-86.5 3q-45 0 -139.5 -5t-125.5 -5 q-57 0 -57 22q0 8 15.5 17.5t37.5 11.5q88 12 124 46t73 136q29 78 126 416t126 457q23 94 8.5 129t-84.5 43q-57 10 -59 30zM954 1610q0 -18 -55 -51q-143 -84 -289 -144q-61 -20 -71 -8q-16 20 26 57q158 133 275 213q33 23 49 11q18 -8 42.5 -33t22.5 -45z" />
<glyph unicode="&#xce;" horiz-adv-x="700" d="M326 1298q0 23 57 23q39 0 94 -2t88 -2q63 0 146.5 3t103.5 3q53 0 53 -18q0 -25 -61 -35q-80 -14 -104.5 -37t-57.5 -107q-33 -82 -135 -448.5t-123 -464.5q-18 -98 -3 -125t87 -41q49 -8 49 -30.5t-59 -22.5q-39 0 -93.5 3t-86.5 3q-45 0 -139.5 -5t-125.5 -5 q-57 0 -57 22q0 8 15.5 17.5t37.5 11.5q88 12 124 46t73 136q29 78 126 416t126 457q23 94 8.5 129t-84.5 43q-57 10 -59 30zM707 1679q16 0 41 -39q31 -59 114 -192q12 -23 8 -34t-18 -11q-18 0 -45 22q-74 49 -131 107q-12 8 -23 0q-86 -51 -237 -113q-33 -12 -54 -12 q-18 0 -12 18q4 16 31 33q193 131 250 178q49 43 76 43z" />
<glyph unicode="&#xcf;" horiz-adv-x="700" d="M326 1298q0 23 57 23q39 0 94 -2t88 -2q63 0 146.5 3t103.5 3q53 0 53 -18q0 -25 -61 -35q-80 -14 -104.5 -37t-57.5 -107q-33 -82 -135 -448.5t-123 -464.5q-18 -98 -3 -125t87 -41q49 -8 49 -30.5t-59 -22.5q-39 0 -93.5 3t-86.5 3q-45 0 -139.5 -5t-125.5 -5 q-57 0 -57 22q0 8 15.5 17.5t37.5 11.5q88 12 124 46t73 136q29 78 126 416t126 457q23 94 8.5 129t-84.5 43q-57 10 -59 30zM457 1620q37 0 58.5 -24.5t19.5 -65.5q-2 -37 -36 -67.5t-71 -30.5t-57.5 24.5t-18.5 65.5t35 69.5t70 28.5zM844 1620q37 0 56.5 -24.5 t17.5 -65.5q-2 -39 -35 -68.5t-68 -29.5q-37 0 -58.5 24.5t-19.5 65.5t35 69.5t72 28.5z" />
<glyph unicode="&#xd0;" horiz-adv-x="1495" d="M797 1329q285 0 450 -129q203 -156 203 -444q0 -199 -106.5 -371t-253.5 -262q-223 -133 -560 -133q-59 0 -153 5t-133 5q-47 0 -133 -3t-103 -3q-76 0 -76 22q0 29 70 33q109 4 144.5 39t76.5 166l111 358q4 31 -10 31l-154 -4q-8 0 -12 14.5t4 30.5q12 29 31 29l157 4 q16 0 21 24q82 270 114 389q31 115 -32 127q-29 6 -115 11q-59 4 -59 26q0 25 75 25q18 0 69.5 -1t82.5 -1q25 0 131.5 6t159.5 6zM795 1272q-49 0 -68.5 -11.5t-32.5 -39.5q-51 -119 -159 -486q-4 -18 8 -18l331 6q23 0 17 -29q-2 -20 -14.5 -31.5t-24.5 -11.5l-332 -8 q-16 0 -24 -33q-92 -311 -105 -415q-6 -37 8.5 -71t40.5 -48q78 -37 142 -37q74 0 182 33.5t199 95.5q131 94 214 260t83 360q0 268 -154 392q-116 92 -311 92z" />
<glyph unicode="&#xd1;" horiz-adv-x="1546" d="M285 1300q0 23 69 23q29 0 101.5 -3t130.5 -3q63 0 96 4q8 2 22.5 -16.5t22.5 -44.5q33 -102 191.5 -506t201.5 -490q10 -25 21 -6q63 184 149 483t101 375q16 84 -8.5 115t-120.5 43q-61 8 -62 29q0 23 57 22q31 0 100.5 -4t96.5 -4q117 0 219 8q18 2 32.5 -1t21 -8 t6.5 -11q0 -18 -62 -33q-74 -16 -117 -53t-86 -156q-104 -291 -266 -854q-12 -41 -12 -64q0 -55 67 -98l9.5 -5t8.5 -5l6 -4q3 -2 5 -4t3 -5.5t1 -7.5q0 -23 -45 -22q-14 0 -53 2t-45 2q-74 0 -98 -4q-10 0 -20.5 9t-12.5 20q-10 66 -60 182l-297 772q-57 145 -63 151.5 t-15.5 0t-13.5 -16.5q-43 -119 -130 -427t-103 -413q-18 -119 3 -165t107 -62q63 -12 64 -33q0 -25 -66 -24q-23 0 -95.5 6t-115.5 6t-122.5 -6t-106.5 -6q-66 0 -65 26q0 23 57 29q92 14 144 48t79 120q264 829 277 874q23 84 18 107q-14 51 -55 61q-14 4 -36 8l-45 6 q-24 3 -32 5q-59 10 -59 28zM848 1481q39 66 72 94q23 23 57 22q233 0 262 7q14 4 27.5 12t19.5 14l17 17l8 10l5 5q3 3 5 6t5 5t5 2q12 0 25 -26q10 -14 -10 -31q-14 -16 -48 -59l-41 -54q-27 -27 -53 -26q-258 0 -270 -4q-20 -6 -68 -68q-2 -8 -12 -8t-19.5 12t-9.5 19 q0 10 23 51z" />
<glyph unicode="&#xd2;" horiz-adv-x="1400" d="M950 1358q186 0 307 -138.5t121 -365.5q0 -215 -120.5 -451.5t-313.5 -349.5q-160 -94 -332 -94q-203 0 -317 115q-139 139 -139 375q0 190 100 410t272 351q191 148 422 148zM950 1300q-150 0 -295 -137q-152 -143 -238.5 -365.5t-86.5 -461.5q0 -59 13 -111.5 t43 -101.5t86 -78t132 -29q135 0 287 138q111 98 214 338.5t103 461.5q0 57 -11 111.5t-37.5 111t-81 90t-128.5 33.5zM899 1704q29 0 74 -51q4 -6 62.5 -69.5t86.5 -100.5q8 -12 12.5 -30.5t0.5 -22.5q-23 -18 -62 10q-125 72 -221 139q-41 35 -41 57q0 20 49 56 q25 16 39 12z" />
<glyph unicode="&#xd3;" horiz-adv-x="1400" d="M950 1358q186 0 307 -138.5t121 -365.5q0 -215 -120.5 -451.5t-313.5 -349.5q-160 -94 -332 -94q-203 0 -317 115q-139 139 -139 375q0 190 100 410t272 351q191 148 422 148zM950 1300q-150 0 -295 -137q-152 -143 -238.5 -365.5t-86.5 -461.5q0 -59 13 -111.5 t43 -101.5t86 -78t132 -29q135 0 287 138q111 98 214 338.5t103 461.5q0 57 -11 111.5t-37.5 111t-81 90t-128.5 33.5zM1276 1630q0 -18 -55 -51q-143 -84 -289 -143q-61 -20 -72 -9q-16 20 27 58q158 133 274 213q33 23 49 10q18 -8 43 -33t23 -45z" />
<glyph unicode="&#xd4;" horiz-adv-x="1400" d="M950 1358q186 0 307 -138.5t121 -365.5q0 -215 -120.5 -451.5t-313.5 -349.5q-160 -94 -332 -94q-203 0 -317 115q-139 139 -139 375q0 190 100 410t272 351q191 148 422 148zM950 1300q-150 0 -295 -137q-152 -143 -238.5 -365.5t-86.5 -461.5q0 -59 13 -111.5 t43 -101.5t86 -78t132 -29q135 0 287 138q111 98 214 338.5t103 461.5q0 57 -11 111.5t-37.5 111t-81 90t-128.5 33.5zM1081 1692q16 0 41 -39q31 -59 115 -193q12 -23 8 -34t-18 -11q-18 0 -45 23q-74 49 -131 106q-10 8 -23 0q-86 -51 -237 -112q-33 -12 -54 -13 q-18 0 -12 19q4 16 31 32q193 131 250 179q48 43 75 43z" />
<glyph unicode="&#xd5;" horiz-adv-x="1400" d="M950 1358q186 0 307 -138.5t121 -365.5q0 -215 -120.5 -451.5t-313.5 -349.5q-160 -94 -332 -94q-203 0 -317 115q-139 139 -139 375q0 190 100 410t272 351q191 148 422 148zM950 1300q-150 0 -295 -137q-152 -143 -238.5 -365.5t-86.5 -461.5q0 -59 13 -111.5 t43 -101.5t86 -78t132 -29q135 0 287 138q111 98 214 338.5t103 461.5q0 57 -11 111.5t-37.5 111t-81 90t-128.5 33.5zM772 1497q39 66 72 94q23 23 57 23q233 0 262 6q14 4 27.5 12t20 14.5t14.5 16.5l10 10l5 5q3 3 5 6.5t5 5.5t5 2q10 0 25 -27q10 -14 -10 -31 q-14 -16 -47 -59l-41 -53q-27 -27 -54 -27q-258 0 -270 -4q-20 -6 -67 -68q-2 -8 -12.5 -8t-19.5 12.5t-9 18.5q-1 10 22 51z" />
<glyph unicode="&#xd6;" horiz-adv-x="1400" d="M950 1358q186 0 307 -138.5t121 -365.5q0 -215 -120.5 -451.5t-313.5 -349.5q-160 -94 -332 -94q-203 0 -317 115q-139 139 -139 375q0 190 100 410t272 351q191 148 422 148zM950 1300q-150 0 -295 -137q-152 -143 -238.5 -365.5t-86.5 -461.5q0 -59 13 -111.5 t43 -101.5t86 -78t132 -29q135 0 287 138q111 98 214 338.5t103 461.5q0 57 -11 111.5t-37.5 111t-81 90t-128.5 33.5zM840 1632q37 0 58.5 -24.5t19.5 -65.5q-2 -37 -36 -67.5t-71 -30.5t-57.5 24.5t-18.5 65.5t35 69.5t70 28.5zM1227 1632q37 0 56.5 -24.5t16.5 -65.5 q-2 -39 -34.5 -68.5t-67.5 -29.5q-37 0 -58.5 24.5t-19.5 65.5t35 69.5t72 28.5z" />
<glyph unicode="&#xd7;" horiz-adv-x="1277" d="M242 874q-16 12 43 72q27 29 59 -4l338 -332q14 -12 27 0l335 346q20 23 39 5q16 -16 26.5 -35t11.5 -28t-3 -15l-340 -355q-12 -12 8 -32l338 -340q31 -31 -32 -95q-18 -16 -39 5l-361 356q-18 18 -30 0l-330 -330q-20 -20 -28.5 -22t-25 12t-26.5 41t-2 35l336 338 q14 20 0 34z" />
<glyph unicode="&#xd8;" horiz-adv-x="1400" d="M944 1358q119 0 230 -66q10 -4 20 8l57 80q8 14 33 15q8 0 24.5 -15.5t10.5 -25.5l-74 -103q-12 -12 0 -20q137 -137 137 -377q0 -223 -121.5 -456.5t-304.5 -342.5q-162 -96 -344 -96q-147 0 -239 57q-10 8 -23 -4l-84 -108q-2 -4 -18.5 -3t-24.5 7q-33 23 -12 43 l76 106q8 14 2 25q-133 137 -133 369q0 197 100 412.5t272 346.5q191 148 416 148zM422 86q74 -70 178 -70q150 0 299 136q115 104 213 322t98 462q0 119 -32 194q0 2 -3.5 2.5t-8.5 -2l-9 -4.5l-735 -1015q-12 -17 0 -25zM950 1300q-162 0 -307 -137q-317 -299 -317 -825 q0 -57 32 -160q10 -18 23 0l741 1022q12 16 0 29q-66 71 -172 71z" />
<glyph unicode="&#xd9;" horiz-adv-x="1470" d="M295 1303q0 20 61 20q35 0 112 -3t105 -3q20 0 96 4t109 4q51 0 51 -22q0 -16 -57 -29q-55 -10 -86 -36t-53 -85q-47 -123 -176 -594q-72 -264 -17 -362q33 -57 115 -96.5t164 -39.5q283 0 389 248q59 139 139 384t105 364q25 133 7 163.5t-112 47.5q-57 10 -57 28 q0 23 55 23q29 0 80 -1t82 -1q37 0 116 4t115 4q53 0 54 -22q4 -20 -58 -31q-70 -10 -103.5 -49t-80.5 -156q-8 -20 -244 -688q-4 -8 -16 -41t-16 -42l-16 -36q-11 -27 -18 -39l-19 -33q-11 -20 -24 -35l-28 -32q-154 -158 -426 -158q-102 0 -201.5 43t-148.5 133 q-68 117 -43 248q12 63 186 668q39 106 24.5 154t-108.5 61q-57 8 -57 33zM924 1692q29 0 73 -52q4 -6 62.5 -69.5t87.5 -100.5q8 -12 12 -30.5t0 -22.5q-23 -18 -61 10q-125 72 -221 140q-41 35 -41 57q0 20 49 55q25 17 39 13z" />
<glyph unicode="&#xda;" horiz-adv-x="1470" d="M295 1303q0 20 61 20q35 0 112 -3t105 -3q20 0 96 4t109 4q51 0 51 -22q0 -16 -57 -29q-55 -10 -86 -36t-53 -85q-47 -123 -176 -594q-72 -264 -17 -362q33 -57 115 -96.5t164 -39.5q283 0 389 248q59 139 139 384t105 364q25 133 7 163.5t-112 47.5q-57 10 -57 28 q0 23 55 23q29 0 80 -1t82 -1q37 0 116 4t115 4q53 0 54 -22q4 -20 -58 -31q-70 -10 -103.5 -49t-80.5 -156q-8 -20 -244 -688q-4 -8 -16 -41t-16 -42l-16 -36q-11 -27 -18 -39l-19 -33q-11 -20 -24 -35l-28 -32q-154 -158 -426 -158q-102 0 -201.5 43t-148.5 133 q-68 117 -43 248q12 63 186 668q39 106 24.5 154t-108.5 61q-57 8 -57 33zM1343 1610q0 -18 -55 -51q-143 -84 -289 -144q-61 -20 -71 -8q-16 20 26 57q158 133 275 213q33 23 49 11q18 -8 42.5 -33t22.5 -45z" />
<glyph unicode="&#xdb;" horiz-adv-x="1470" d="M295 1303q0 20 61 20q35 0 112 -3t105 -3q20 0 96 4t109 4q51 0 51 -22q0 -16 -57 -29q-55 -10 -86 -36t-53 -85q-47 -123 -176 -594q-72 -264 -17 -362q33 -57 115 -96.5t164 -39.5q283 0 389 248q59 139 139 384t105 364q25 133 7 163.5t-112 47.5q-57 10 -57 28 q0 23 55 23q29 0 80 -1t82 -1q37 0 116 4t115 4q53 0 54 -22q4 -20 -58 -31q-70 -10 -103.5 -49t-80.5 -156q-8 -20 -244 -688q-4 -8 -16 -41t-16 -42l-16 -36q-11 -27 -18 -39l-19 -33q-11 -20 -24 -35l-28 -32q-154 -158 -426 -158q-102 0 -201.5 43t-148.5 133 q-68 117 -43 248q12 63 186 668q39 106 24.5 154t-108.5 61q-57 8 -57 33zM1145 1692q16 0 41 -39q31 -59 114 -193q12 -23 8.5 -34t-18.5 -11q-18 0 -45 23q-74 49 -131 106q-12 8 -22 0q-86 -51 -238 -112q-33 -12 -53 -13q-18 0 -13 19q4 16 31 32q193 131 250 179 q49 43 76 43z" />
<glyph unicode="&#xdc;" horiz-adv-x="1470" d="M295 1303q0 20 61 20q35 0 112 -3t105 -3q20 0 96 4t109 4q51 0 51 -22q0 -16 -57 -29q-55 -10 -86 -36t-53 -85q-47 -123 -176 -594q-72 -264 -17 -362q33 -57 115 -96.5t164 -39.5q283 0 389 248q59 139 139 384t105 364q25 133 7 163.5t-112 47.5q-57 10 -57 28 q0 23 55 23q29 0 80 -1t82 -1q37 0 116 4t115 4q53 0 54 -22q4 -20 -58 -31q-70 -10 -103.5 -49t-80.5 -156q-8 -20 -244 -688q-4 -8 -16 -41t-16 -42l-16 -36q-11 -27 -18 -39l-19 -33q-11 -20 -24 -35l-28 -32q-154 -158 -426 -158q-102 0 -201.5 43t-148.5 133 q-68 117 -43 248q12 63 186 668q39 106 24.5 154t-108.5 61q-57 8 -57 33zM883 1624q37 0 58.5 -24.5t19.5 -65.5q-2 -37 -36 -67.5t-71 -30.5t-57.5 24.5t-18.5 65.5t35 69.5t70 28.5zM1270 1624q37 0 56.5 -24.5t16.5 -65.5q-2 -39 -34.5 -68.5t-67.5 -29.5 q-37 0 -58.5 24.5t-19.5 65.5t35 69.5t72 28.5z" />
<glyph unicode="&#xdd;" horiz-adv-x="1216" d="M240 1303q2 20 59 20q20 0 100 -3t119 -3q57 0 113.5 2t68.5 2q45 0 50 -18q0 -20 -50 -31q-70 -14 -85 -42t-5 -73q4 -14 30 -128t47.5 -196.5t35.5 -117.5q4 -8 16 -4q313 360 371 448q61 94 -41 115q-49 6 -49 31q0 18 59 18q8 0 59.5 -3t100.5 -3q27 0 105.5 4 t91.5 4q51 0 51 -18q0 -20 -62 -35q-82 -16 -122.5 -45t-155.5 -144q-119 -113 -377 -419q-43 -51 -65 -129q-92 -338 -97 -361q2 -14 -1 -39.5t26 -54.5t84 -37q63 -8 63 -30.5t-71 -22.5q-25 0 -126.5 5t-117.5 5q-37 0 -114 -5t-115 -5q-57 0 -58 26q0 18 62 27 q104 10 139 47t72 148l88 266q35 106 24 174q-18 143 -102 401q-37 117 -66.5 151t-103.5 44q-51 9 -51 29zM1214 1628q0 -18 -55 -51q-143 -84 -289 -143q-61 -20 -71 -9q-16 20 26 58q158 133 275 213q33 23 49 10q18 -8 42.5 -33t22.5 -45z" />
<glyph unicode="&#xde;" horiz-adv-x="1114" d="M342 1305q0 18 55 18q18 0 79 -3t95 -3q51 0 152.5 3t118.5 3q37 0 37 -20q4 -20 -52 -29q-98 -14 -128.5 -48t-73.5 -182q-4 -16 14 -16q8 0 30.5 1t35.5 1q184 0 276 -72q119 -92 119 -241q0 -141 -82 -236.5t-170 -134.5q-125 -55 -260 -55q-55 0 -56 33q0 14 56 24 q137 16 234.5 120.5t97.5 246.5q0 125 -67 191.5t-163 66.5q-55 0 -73.5 -5t-26.5 -26q-10 -29 -100.5 -344t-106.5 -379q-23 -102 -3.5 -134t109.5 -44q49 -6 50 -25q0 -27 -66 -26q-39 0 -123 5t-121 5q-45 0 -118.5 -4t-92.5 -4q-61 0 -61 24q0 18 63 29q78 12 111 41 t70 125q104 313 266 862q37 113 27.5 148.5t-97.5 50.5q-51 8 -55 33z" />
<glyph unicode="&#xdf;" horiz-adv-x="985" d="M961 1462q78 0 131 -19.5t76.5 -51t31.5 -60t8 -59.5q-2 -45 -37.5 -94.5t-72.5 -75.5l-72 -52l-82 -59q-133 -86 -182 -147.5t-49 -141.5q0 -23 78 -184q66 -141 63 -215q-2 -43 -34 -108.5t-87 -116.5q-53 -49 -128 -80t-122 -31q-41 0 -75.5 29t-34.5 63q0 51 51 93 q18 16 49 -15q25 -29 66 -48t67 -19q49 0 87 46t38 91q0 59 -61 196l-35 69q-23 44 -34 68.5t-20.5 57.5t-9.5 59q0 80 71 160t239 197q92 63 136 118.5t46 118.5q2 55 -36 96.5t-126 41.5q-178 0 -285.5 -141.5t-209.5 -436.5q-117 -338 -203 -809q-37 -213 -114 -332 t-195 -188q-96 -59 -168 -60q-53 0 -100.5 28t-47.5 75q0 18 11.5 42.5t25.5 33.5q33 25 45 10q35 -33 85 -59.5t83 -26.5q59 0 97 43t63 149l20 85l45 195l60 259q152 674 364 938q220 268 484 268z" />
<glyph unicode="&#xe0;" horiz-adv-x="919" d="M676 1358q25 0 31 -98q12 -160 12 -287q0 -53 -25 -53q-10 0 -21 15t-16 30q-25 88 -63 268q-6 31 -2 57q4 18 32.5 43t51.5 25zM620.5 797q38.5 0 81.5 -47q2 -2 8.5 0t8.5 8q4 8 17.5 29.5t15.5 27.5q2 4 13 11.5t15 7.5q33 0 78 -29q6 -10 -4 -29q-37 -84 -121 -302 t-108 -308q-14 -55 39 -55q29 0 73.5 29.5t79.5 68.5q35 37 41 10q0 -25 -18 -51q-57 -92 -139.5 -146.5t-151.5 -54.5q-78 0 -82 76q0 8 72 201q6 14 -4 22q-4 6 -11 0q-102 -109 -229 -204t-217 -95q-29 0 -60.5 24.5t-31.5 53.5q0 86 88 223q184 303 450 488 q58 41 96.5 41zM588 688q-51 0 -115.5 -41t-122.5 -115q-63 -78 -125.5 -199.5t-62.5 -189.5q0 -18 13 -38.5t28 -20.5q76 0 207 141q133 135 241 365q20 53 11 63q-39 35 -74 35z" />
<glyph unicode="&#xe1;" horiz-adv-x="919" d="M813 1270q16 23 45 22q16 0 31.5 -32.5t11.5 -51.5q-2 -20 -29 -53q-78 -92 -196 -217q-27 -35 -58 -35q-12 2 -12 21.5t10 33.5q47 85 197 312zM620.5 797q38.5 0 81.5 -47q2 -2 8.5 0t8.5 8q4 8 17.5 29.5t15.5 27.5q2 4 13 11.5t15 7.5q33 0 78 -29q6 -10 -4 -29 q-37 -84 -121 -302t-108 -308q-14 -55 39 -55q29 0 73.5 29.5t79.5 68.5q35 37 41 10q0 -25 -18 -51q-57 -92 -139.5 -146.5t-151.5 -54.5q-78 0 -82 76q0 8 72 201q6 14 -4 22q-4 6 -11 0q-102 -109 -229 -204t-217 -95q-29 0 -60.5 24.5t-31.5 53.5q0 86 88 223 q184 303 450 488q58 41 96.5 41zM588 688q-51 0 -115.5 -41t-122.5 -115q-63 -78 -125.5 -199.5t-62.5 -189.5q0 -18 13 -38.5t28 -20.5q76 0 207 141q133 135 241 365q20 53 11 63q-39 35 -74 35z" />
<glyph unicode="&#xe2;" horiz-adv-x="919" d="M778.5 1303q20.5 0 26.5 -54q29 -182 39 -288q2 -18 -6.5 -34t-20.5 -16q-18 0 -33 50l-49 163q-4 14 -18 2q-16 -18 -195 -190q-25 -25 -49 -25q-10 0 -13 8.5t2 21.5t15 28q31 33 116 135t116 145q49 54 69.5 54zM620.5 797q38.5 0 81.5 -47q2 -2 8.5 0t8.5 8 q4 8 17.5 29.5t15.5 27.5q2 4 13 11.5t15 7.5q33 0 78 -29q6 -10 -4 -29q-37 -84 -121 -302t-108 -308q-14 -55 39 -55q29 0 73.5 29.5t79.5 68.5q35 37 41 10q0 -25 -18 -51q-57 -92 -139.5 -146.5t-151.5 -54.5q-78 0 -82 76q0 8 72 201q6 14 -4 22q-4 6 -11 0 q-102 -109 -229 -204t-217 -95q-29 0 -60.5 24.5t-31.5 53.5q0 86 88 223q184 303 450 488q58 41 96.5 41zM588 688q-51 0 -115.5 -41t-122.5 -115q-63 -78 -125.5 -199.5t-62.5 -189.5q0 -18 13 -38.5t28 -20.5q76 0 207 141q133 135 241 365q20 53 11 63q-39 35 -74 35z " />
<glyph unicode="&#xe3;" horiz-adv-x="919" d="M588 1067q-23 0 -66 -47q-12 -12 -20 -12q-4 0 -16.5 14t-12.5 18t17.5 25.5t50 54.5t67.5 56q18 12 35 8q82 -23 154 -23q47 0 65 15q31 25 60 59q4 6 22.5 -7.5t18.5 -23.5q0 -8 -11 -18l-129 -129q-14 -14 -26 -15q-10 0 -86 12.5t-123 12.5zM620.5 797 q38.5 0 81.5 -47q2 -2 8.5 0t8.5 8q4 8 17.5 29.5t15.5 27.5q2 4 13 11.5t15 7.5q33 0 78 -29q6 -10 -4 -29q-37 -84 -121 -302t-108 -308q-14 -55 39 -55q29 0 73.5 29.5t79.5 68.5q35 37 41 10q0 -25 -18 -51q-57 -92 -139.5 -146.5t-151.5 -54.5q-78 0 -82 76q0 8 72 201 q6 14 -4 22q-4 6 -11 0q-102 -109 -229 -204t-217 -95q-29 0 -60.5 24.5t-31.5 53.5q0 86 88 223q184 303 450 488q58 41 96.5 41zM588 688q-51 0 -115.5 -41t-122.5 -115q-63 -78 -125.5 -199.5t-62.5 -189.5q0 -18 13 -38.5t28 -20.5q76 0 207 141q133 135 241 365 q20 53 11 63q-39 35 -74 35z" />
<glyph unicode="&#xe4;" horiz-adv-x="919" d="M569 1237q31 0 51.5 -24.5t20.5 -55.5q2 -41 -25.5 -71.5t-64.5 -30.5q-33 0 -50.5 24.5t-17.5 59.5q0 43 25.5 70.5t60.5 27.5zM870 1237q31 0 50.5 -24.5t19.5 -55.5q2 -41 -24.5 -71.5t-63.5 -30.5q-33 0 -52.5 24.5t-19.5 59.5q0 43 28.5 70.5t61.5 27.5zM620.5 797 q38.5 0 81.5 -47q2 -2 8.5 0t8.5 8q4 8 17.5 29.5t15.5 27.5q2 4 13 11.5t15 7.5q33 0 78 -29q6 -10 -4 -29q-37 -84 -121 -302t-108 -308q-14 -55 39 -55q29 0 73.5 29.5t79.5 68.5q35 37 41 10q0 -25 -18 -51q-57 -92 -139.5 -146.5t-151.5 -54.5q-78 0 -82 76q0 8 72 201 q6 14 -4 22q-4 6 -11 0q-102 -109 -229 -204t-217 -95q-29 0 -60.5 24.5t-31.5 53.5q0 86 88 223q184 303 450 488q58 41 96.5 41zM588 688q-51 0 -115.5 -41t-122.5 -115q-63 -78 -125.5 -199.5t-62.5 -189.5q0 -18 13 -38.5t28 -20.5q76 0 207 141q133 135 241 365 q20 53 11 63q-39 35 -74 35z" />
<glyph unicode="&#xe5;" horiz-adv-x="919" d="M743.5 1298q71.5 0 112.5 -52t31 -120q-10 -66 -63.5 -112.5t-125.5 -46.5q-74 0 -114.5 51t-30.5 119q10 66 64.5 113.5t126 47.5zM735 1239q-39 0 -69.5 -28.5t-36.5 -73.5q-6 -49 16.5 -80t61.5 -31q88 0 106 104q4 43 -17.5 76t-60.5 33zM620.5 797q38.5 0 81.5 -47 q2 -2 8.5 0t8.5 8q4 8 17.5 29.5t15.5 27.5q2 4 13 11.5t15 7.5q33 0 78 -29q6 -10 -4 -29q-37 -84 -121 -302t-108 -308q-14 -55 39 -55q29 0 73.5 29.5t79.5 68.5q35 37 41 10q0 -25 -18 -51q-57 -92 -139.5 -146.5t-151.5 -54.5q-78 0 -82 76q0 8 72 201q6 14 -4 22 q-4 6 -11 0q-102 -109 -229 -204t-217 -95q-29 0 -60.5 24.5t-31.5 53.5q0 86 88 223q184 303 450 488q58 41 96.5 41zM588 688q-51 0 -115.5 -41t-122.5 -115q-63 -78 -125.5 -199.5t-62.5 -189.5q0 -18 13 -38.5t28 -20.5q76 0 207 141q133 135 241 365q20 53 11 63 q-39 35 -74 35z" />
<glyph unicode="&#xe6;" horiz-adv-x="925" d="M758 827q63 0 100 -36.5t37 -88.5q0 -180 -381 -360q-10 -6 -10 -29q-10 -227 112 -227q74 0 158 84q14 14 25 14q12 0 8 -18q-2 -51 -104.5 -125t-186.5 -74q-121 0 -147 195q-4 4 -15 -4q-72 -72 -162 -131.5t-155 -59.5q-31 0 -57.5 24.5t-26.5 76.5q0 109 166 292 t311 285l96 76q128 106 232 106zM162 84q33 0 88 45t90 96q25 37 25 64q6 106 59 262q6 16 -2 16q-4 2 -8 -2q-76 -53 -188.5 -184t-112.5 -231q0 -66 49 -66zM731 774q-82 0 -147.5 -124t-75.5 -238q0 -6 3 -10.5t7 -2.5q82 37 172 140.5t90 167.5q0 67 -49 67z" />
<glyph unicode="&#xe7;" horiz-adv-x="641" d="M287 82q100 0 205 98q8 6 17 6t9 -6q0 -29 -20 -53q-49 -61 -142 -117q-156 -88 -155 -178q0 -29 43 -100q23 -39 22 -84q0 -29 -30.5 -65t-69.5 -60q-51 -31 -82 -31q-37 0 -74 29.5t-37 68.5q0 43 21 43q8 0 31 -20q55 -45 90 -45q39 0 39 35q0 29 -48 110 q-29 47 -28 78q0 29 31 74q27 41 133 115q-16 -4 -39 -5q-72 0 -115 62.5t-43 132.5q0 150 90 324q117 219 275 299q68 35 151 34q51 0 88 -18q23 -8 23 -41q0 -45 -29 -80t-47 -35t-31 23q-43 90 -90 90q-74 0 -158 -162q-123 -223 -122 -414q0 -49 17 -74.5t33.5 -29.5 t41.5 -4z" />
<glyph unicode="&#xe8;" horiz-adv-x="706" d="M580 1341q25 0 30 -98q12 -160 13 -287q0 -53 -25 -53t-37 45q-25 88 -63 269q-6 31 -2 57q4 18 32.5 42.5t51.5 24.5zM565 827q80 0 115 -38.5t35 -86.5q0 -49 -43 -104t-115 -96q-94 -51 -299 -111q-27 -8 -33 -31q-27 -72 -26 -159q0 -123 108 -123q96 0 201 96 q31 31 51 31q12 0 12 -12q0 -18 -24 -52q-51 -59 -144.5 -114.5t-193.5 -55.5q-45 0 -101.5 61.5t-56.5 151.5q0 111 61.5 247t163.5 243q152 153 289 153zM557 778q-74 0 -170 -112.5t-125 -204.5q-2 -2 -2 -7t2 -8.5t6 -3.5q324 113 324 285q0 51 -35 51z" />
<glyph unicode="&#xe9;" horiz-adv-x="706" d="M725 1270q16 23 45 22q16 0 31.5 -32.5t11.5 -51.5q-2 -20 -29 -53q-78 -92 -196 -217q-27 -35 -58 -35q-12 2 -12 21.5t10 33.5q47 85 197 312zM565 827q80 0 115 -38.5t35 -86.5q0 -49 -43 -104t-115 -96q-94 -51 -299 -111q-27 -8 -33 -31q-27 -72 -26 -159 q0 -123 108 -123q96 0 201 96q31 31 51 31q12 0 12 -12q0 -18 -24 -52q-51 -59 -144.5 -114.5t-193.5 -55.5q-45 0 -101.5 61.5t-56.5 151.5q0 111 61.5 247t163.5 243q152 153 289 153zM557 778q-74 0 -170 -112.5t-125 -204.5q-2 -2 -2 -7t2 -8.5t6 -3.5q324 113 324 285 q0 51 -35 51z" />
<glyph unicode="&#xea;" horiz-adv-x="706" d="M677.5 1303q20.5 0 27.5 -54q29 -182 38 -288q2 -18 -6 -34t-20 -16q-18 0 -33 50l-49 163q-4 14 -19 2q-16 -18 -194 -190q-25 -25 -49 -25q-10 0 -13.5 8.5t2 21.5t15.5 28q31 33 116 135t115 145q49 54 69.5 54zM565 827q80 0 115 -38.5t35 -86.5q0 -49 -43 -104 t-115 -96q-94 -51 -299 -111q-27 -8 -33 -31q-27 -72 -26 -159q0 -123 108 -123q96 0 201 96q31 31 51 31q12 0 12 -12q0 -18 -24 -52q-51 -59 -144.5 -114.5t-193.5 -55.5q-45 0 -101.5 61.5t-56.5 151.5q0 111 61.5 247t163.5 243q152 153 289 153zM557 778 q-74 0 -170 -112.5t-125 -204.5q-2 -2 -2 -7t2 -8.5t6 -3.5q324 113 324 285q0 51 -35 51z" />
<glyph unicode="&#xeb;" horiz-adv-x="706" d="M457 1237q31 0 51 -24.5t20 -55.5q2 -41 -25.5 -71.5t-64.5 -30.5q-33 0 -50 24.5t-17 59.5q0 43 25.5 70.5t60.5 27.5zM758 1237q31 0 50 -24.5t19 -55.5q2 -41 -24.5 -71.5t-63.5 -30.5q-33 0 -52 24.5t-19 59.5q0 43 28.5 70.5t61.5 27.5zM565 827q80 0 115 -38.5 t35 -86.5q0 -49 -43 -104t-115 -96q-94 -51 -299 -111q-27 -8 -33 -31q-27 -72 -26 -159q0 -123 108 -123q96 0 201 96q31 31 51 31q12 0 12 -12q0 -18 -24 -52q-51 -59 -144.5 -114.5t-193.5 -55.5q-45 0 -101.5 61.5t-56.5 151.5q0 111 61.5 247t163.5 243 q152 153 289 153zM557 778q-74 0 -170 -112.5t-125 -204.5q-2 -2 -2 -7t2 -8.5t6 -3.5q324 113 324 285q0 51 -35 51z" />
<glyph unicode="&#xec;" horiz-adv-x="548" d="M451 1341q25 0 30 -98q12 -160 13 -287q0 -53 -25 -53q-10 0 -21.5 15.5t-15.5 29.5q-25 88 -63 269q-6 31 -2 57q4 18 32.5 42.5t51.5 24.5zM422 827q12 0 29.5 -17t17.5 -32q0 -18 -20 -69l-234 -557q-4 -10 2 -22.5t21 -12.5q23 0 86 50t104 97q27 29 47 29 q10 0 10 -12q0 -31 -36 -74q-74 -86 -182.5 -163t-168.5 -77q-23 0 -42 17.5t-19 33.5q0 14 10 37l254 604q6 12 -1 22.5t-15 6.5q-74 -25 -154 -94q-8 -8 -16.5 -4t-8.5 14q0 20 27 51q35 43 137.5 107.5t151.5 64.5z" />
<glyph unicode="&#xed;" horiz-adv-x="548" d="M580 1270q16 23 45 22q16 0 31.5 -32.5t11.5 -51.5q-2 -20 -29 -53q-78 -92 -197 -217q-27 -35 -57 -35q-12 2 -12 21.5t10 33.5q47 85 197 312zM422 827q12 0 29.5 -17t17.5 -32q0 -18 -20 -69l-234 -557q-4 -10 2 -22.5t21 -12.5q23 0 86 50t104 97q27 29 47 29 q10 0 10 -12q0 -31 -36 -74q-74 -86 -182.5 -163t-168.5 -77q-23 0 -42 17.5t-19 33.5q0 14 10 37l254 604q6 12 -1 22.5t-15 6.5q-74 -25 -154 -94q-8 -8 -16.5 -4t-8.5 14q0 20 27 51q35 43 137.5 107.5t151.5 64.5z" />
<glyph unicode="&#xee;" horiz-adv-x="548" d="M516.5 1303q20.5 0 26.5 -54q29 -182 39 -288q2 -18 -6.5 -34t-20.5 -16q-18 0 -33 50l-49 163q-4 14 -18 2q-16 -18 -195 -190q-25 -25 -49 -25q-10 0 -13 8.5t2 21.5t15 28q31 33 116 135t115 145q50 54 70.5 54zM422 827q12 0 29.5 -17t17.5 -32q0 -18 -20 -69 l-234 -557q-4 -10 2 -22.5t21 -12.5q23 0 86 50t104 97q27 29 47 29q10 0 10 -12q0 -31 -36 -74q-74 -86 -182.5 -163t-168.5 -77q-23 0 -42 17.5t-19 33.5q0 14 10 37l254 604q6 12 -1 22.5t-15 6.5q-74 -25 -154 -94q-8 -8 -16.5 -4t-8.5 14q0 20 27 51q35 43 137.5 107.5 t151.5 64.5z" />
<glyph unicode="&#xef;" horiz-adv-x="548" d="M295 1237q31 0 51.5 -24.5t20.5 -55.5q2 -41 -26 -71.5t-65 -30.5q-33 0 -50 24.5t-17 59.5q0 43 25.5 70.5t60.5 27.5zM596 1237q31 0 50.5 -24.5t19.5 -55.5q2 -41 -25 -71.5t-63 -30.5q-33 0 -52.5 24.5t-19.5 59.5q0 43 28.5 70.5t61.5 27.5zM422 827q12 0 29.5 -17 t17.5 -32q0 -18 -20 -69l-234 -557q-4 -10 2 -22.5t21 -12.5q23 0 86 50t104 97q27 29 47 29q10 0 10 -12q0 -31 -36 -74q-74 -86 -182.5 -163t-168.5 -77q-23 0 -42 17.5t-19 33.5q0 14 10 37l254 604q6 12 -1 22.5t-15 6.5q-74 -25 -154 -94q-8 -8 -16.5 -4t-8.5 14 q0 20 27 51q35 43 137.5 107.5t151.5 64.5z" />
<glyph unicode="&#xf0;" horiz-adv-x="813" d="M565 821q20 0 45 -6q8 -2 12.5 3t4.5 18q-4 139 -37 219q-14 35 -31 26l-166 -75q-6 -4 -14 0t-10 12q0 35 24 49q8 4 58.5 25.5t77 38t22.5 26.5q-43 92 -97.5 159.5t-84 93.5t-27.5 34q0 20 29 20q43 0 126 -83t138 -179q10 -18 24 -8l179 88q25 12 26 -8 q0 -45 -22 -57l-2 -3q-2 -2 -56.5 -26.5t-80 -42t-19.5 -29.5q76 -197 76 -403q0 -236 -98.5 -419t-233.5 -265q-70 -45 -158 -58q-29 -4 -47 -4q-68 2 -119 61.5t-51 153.5q0 111 68.5 267.5t189.5 259.5q131 112 254 112zM557 770q-53 0 -113 -49q-80 -59 -165.5 -245.5 t-85.5 -352.5q0 -39 21.5 -66.5t57.5 -27.5q70 0 142 88q74 90 144.5 269t70.5 308q0 27 -22.5 51.5t-49.5 24.5z" />
<glyph unicode="&#xf1;" horiz-adv-x="1038" d="M563 1053q-23 0 -65 -47q-12 -12 -21 -13q-4 0 -16 14.5t-12 18.5t17 25.5t50 54.5t68 55q18 12 34 8q82 -23 154 -22q47 0 66 14q31 25 59 60q4 6 22.5 -7.5t18.5 -23.5q0 -8 -10 -19l-129 -129q-14 -14 -27 -14q-10 0 -86 12.5t-123 12.5zM809 827q55 0 86 -35.5 t31 -80.5q0 -47 -29 -121q-31 -80 -98.5 -228.5t-85.5 -181.5q-29 -55 6 -55q53 0 184 123q8 6 17.5 10t16.5 2t7 -8q0 -20 -24 -59q-51 -78 -165 -152t-171 -74q-37 0 -66 35q-23 23 2 68q27 49 149 303t134 297q14 47 5 68.5t-34 21.5q-86 0 -231 -176q-39 -43 -108 -144 l-140 -211q-72 -111 -92 -139q-80 -125 -105 -125q-18 0 -37.5 20.5t-19.5 37.5q-2 20 63 170l65 139l85 185q39 87 65 157q16 33 -18 33q-29 0 -61.5 -17.5t-43.5 -27.5l-53 -48q-20 -20 -26 -20q-12 0 -13 20q0 57 76 135t191 78q49 0 75 -41q10 -18 -4 -53l-125 -297 q-6 -12 6.5 -13t18.5 11q35 51 120 150.5t134 140.5q119 102 213 102z" />
<glyph unicode="&#xf2;" horiz-adv-x="821" d="M582 1341q25 0 30 -98q12 -160 13 -287q0 -53 -25 -53q-10 0 -21.5 15.5t-15.5 29.5q-25 88 -63 269q-6 31 -2 57q4 18 32.5 42.5t51.5 24.5zM559 827q86 0 139.5 -72.5t53.5 -156.5q0 -190 -107.5 -353t-249.5 -235q-90 -43 -170 -43q-66 0 -122 60.5t-56 158.5 q0 109 69.5 269.5t188.5 263.5q123 108 254 108zM543 774q-70 0 -148 -92q-78 -90 -141.5 -256t-63.5 -311q0 -39 20.5 -64.5t57.5 -25.5q61 0 135 92q74 90 144.5 260t70.5 299q1 98 -75 98z" />
<glyph unicode="&#xf3;" horiz-adv-x="821" d="M735 1270q16 23 45 22q16 0 31.5 -32.5t11.5 -51.5q-2 -20 -28 -53q-78 -92 -197 -217q-27 -35 -57 -35q-12 2 -12.5 21.5t10.5 33.5q46 85 196 312zM559 827q86 0 139.5 -72.5t53.5 -156.5q0 -190 -107.5 -353t-249.5 -235q-90 -43 -170 -43q-66 0 -122 60.5t-56 158.5 q0 109 69.5 269.5t188.5 263.5q123 108 254 108zM543 774q-70 0 -148 -92q-78 -90 -141.5 -256t-63.5 -311q0 -39 20.5 -64.5t57.5 -25.5q61 0 135 92q74 90 144.5 260t70.5 299q1 98 -75 98z" />
<glyph unicode="&#xf4;" horiz-adv-x="821" d="M682 1303q20 0 27 -54q29 -182 39 -288q2 -18 -6.5 -34t-20.5 -16q-18 0 -33 50l-49 163q-4 14 -18 2q-16 -18 -195 -190q-25 -25 -49 -25q-10 0 -13.5 8.5t2 21.5t15.5 28q31 33 116 135t115 145q50 54 70 54zM559 827q86 0 139.5 -72.5t53.5 -156.5q0 -190 -107.5 -353 t-249.5 -235q-90 -43 -170 -43q-66 0 -122 60.5t-56 158.5q0 109 69.5 269.5t188.5 263.5q123 108 254 108zM543 774q-70 0 -148 -92q-78 -90 -141.5 -256t-63.5 -311q0 -39 20.5 -64.5t57.5 -25.5q61 0 135 92q74 90 144.5 260t70.5 299q1 98 -75 98z" />
<glyph unicode="&#xf5;" horiz-adv-x="821" d="M494 1069q-23 0 -66 -47q-12 -12 -20 -12q-4 0 -16.5 14t-12.5 18.5t17.5 26t50 54t67.5 55.5q18 12 35 8q82 -23 153 -23q47 0 66 15q31 25 59 59q4 6 22.5 -7t18.5 -24q0 -8 -10 -18l-129 -129q-14 -14 -27 -15q-10 0 -85.5 12.5t-122.5 12.5zM559 827 q86 0 139.5 -72.5t53.5 -156.5q0 -190 -107.5 -353t-249.5 -235q-90 -43 -170 -43q-66 0 -122 60.5t-56 158.5q0 109 69.5 269.5t188.5 263.5q123 108 254 108zM543 774q-70 0 -148 -92q-78 -90 -141.5 -256t-63.5 -311q0 -39 20.5 -64.5t57.5 -25.5q61 0 135 92 q74 90 144.5 260t70.5 299q1 98 -75 98z" />
<glyph unicode="&#xf6;" horiz-adv-x="821" d="M475 1237q31 0 51.5 -24.5t20.5 -55.5q2 -41 -25.5 -71.5t-64.5 -30.5q-33 0 -50.5 24.5t-17.5 59.5q0 43 25.5 70.5t60.5 27.5zM776 1237q31 0 50.5 -24.5t19.5 -55.5q2 -41 -24.5 -71.5t-63.5 -30.5q-33 0 -52.5 24.5t-19.5 59.5q0 43 28.5 70.5t61.5 27.5zM559 827 q86 0 139.5 -72.5t53.5 -156.5q0 -190 -107.5 -353t-249.5 -235q-90 -43 -170 -43q-66 0 -122 60.5t-56 158.5q0 109 69.5 269.5t188.5 263.5q123 108 254 108zM543 774q-70 0 -148 -92q-78 -90 -141.5 -256t-63.5 -311q0 -39 20.5 -64.5t57.5 -25.5q61 0 135 92 q74 90 144.5 260t70.5 299q1 98 -75 98z" />
<glyph unicode="&#xf7;" horiz-adv-x="1277" d="M674 285q45 0 75.5 -32t30.5 -73q0 -47 -30.5 -79.5t-75.5 -32.5t-75 32.5t-30 79.5q0 41 30 73t75 32zM674 745q-41 0 -71 31t-30 76t30 77t71 32q49 0 79.5 -32t30.5 -77t-30.5 -76t-79.5 -31zM1161 573q18 0 24.5 -5t6.5 -19q0 -35 -9 -58.5t-20 -23.5h-960 q-27 0 -34 5t-7 26q0 23 9 49t19 26h971z" />
<glyph unicode="&#xf8;" horiz-adv-x="854" d="M657 682l-430 -602q-10 -14 -4 -21q25 -20 62 -20q51 0 87 18.5t81 71.5q76 92 143.5 247.5t69.5 282.5q-3 21 -9 23zM567 778q-66 0 -151 -86q-92 -94 -159 -246.5t-67 -304.5h9l2 2l426 602q8 8 0 17q-23 16 -60 16zM578 831q47 0 84 -18q8 -4 14 4l26 33q25 27 33 27 q14 0 25.5 -14.5t7.5 -22.5l-43 -68q-4 -6 4 -14q55 -70 55 -156q0 -193 -105.5 -353.5t-244.5 -230.5q-86 -43 -184 -43q-31 0 -72 21q-8 4 -14 -6q-12 -18 -43 -60q-10 -10 -19 -10q-14 0 -23 21.5t-3 31.5l39 50q6 14 2 18q-57 70 -58 164q0 115 64.5 264t183.5 252 q126 110 271 110z" />
<glyph unicode="&#xf9;" horiz-adv-x="1011" d="M641 1341q25 0 31 -98q12 -160 12 -287q0 -53 -24.5 -53t-36.5 45q-25 88 -64 269q-6 31 -2 57q4 18 32.5 42.5t51.5 24.5zM434 827q23 0 35 -32q6 -16 -6 -39q-31 -57 -122 -290t-103 -282q-20 -80 20 -80q59 0 183 130.5t206 267.5q55 88 156 270q31 55 59 55 q14 0 37 -16t23 -33q0 -25 -27 -84q-160 -393 -203 -524q-14 -41 17 -41q25 0 83 39t119 104q23 23 37 13q2 -2 2 -6q0 -12 -16 -46q-43 -84 -163 -175t-183 -91q-16 0 -34.5 19.5t-18.5 36.5q0 6 8 34q4 12 51 134t53 143q10 33 0 33q-8 -2 -26 -23q-76 -90 -184.5 -184 t-194.5 -150q-68 -43 -117 -43q-35 0 -55 25q-29 33 -9 88q20 57 107.5 272t122.5 291q14 29 -6 29q-12 0 -135 -82q-14 -10 -29 -11t-17 9q0 14 15 33q25 45 137 125.5t178 80.5z" />
<glyph unicode="&#xfa;" horiz-adv-x="1011" d="M807 1270q16 23 45 22q16 0 31.5 -32.5t11.5 -51.5q-2 -20 -29 -53q-78 -92 -196 -217q-27 -35 -58 -35q-12 2 -12 21.5t10 33.5q47 85 197 312zM434 827q23 0 35 -32q6 -16 -6 -39q-31 -57 -122 -290t-103 -282q-20 -80 20 -80q59 0 183 130.5t206 267.5q55 88 156 270 q31 55 59 55q14 0 37 -16t23 -33q0 -25 -27 -84q-160 -393 -203 -524q-14 -41 17 -41q25 0 83 39t119 104q23 23 37 13q2 -2 2 -6q0 -12 -16 -46q-43 -84 -163 -175t-183 -91q-16 0 -34.5 19.5t-18.5 36.5q0 6 8 34q4 12 51 134t53 143q10 33 0 33q-8 -2 -26 -23 q-76 -90 -184.5 -184t-194.5 -150q-68 -43 -117 -43q-35 0 -55 25q-29 33 -9 88q20 57 107.5 272t122.5 291q14 29 -6 29q-12 0 -135 -82q-14 -10 -29 -11t-17 9q0 14 15 33q25 45 137 125.5t178 80.5z" />
<glyph unicode="&#xfb;" horiz-adv-x="1011" d="M770.5 1303q20.5 0 26.5 -54q29 -182 39 -288q2 -18 -6.5 -34t-20.5 -16q-18 0 -33 50l-49 163q-4 14 -18 2q-16 -18 -195 -190q-25 -25 -49 -25q-10 0 -13 8.5t2 21.5t15 28q31 33 116 135t115 145q50 54 70.5 54zM434 827q23 0 35 -32q6 -16 -6 -39q-31 -57 -122 -290 t-103 -282q-20 -80 20 -80q59 0 183 130.5t206 267.5q55 88 156 270q31 55 59 55q14 0 37 -16t23 -33q0 -25 -27 -84q-160 -393 -203 -524q-14 -41 17 -41q25 0 83 39t119 104q23 23 37 13q2 -2 2 -6q0 -12 -16 -46q-43 -84 -163 -175t-183 -91q-16 0 -34.5 19.5t-18.5 36.5 q0 6 8 34q4 12 51 134t53 143q10 33 0 33q-8 -2 -26 -23q-76 -90 -184.5 -184t-194.5 -150q-68 -43 -117 -43q-35 0 -55 25q-29 33 -9 88q20 57 107.5 272t122.5 291q14 29 -6 29q-12 0 -135 -82q-14 -10 -29 -11t-17 9q0 14 15 33q25 45 137 125.5t178 80.5z" />
<glyph unicode="&#xfc;" horiz-adv-x="1011" d="M522 1237q31 0 51.5 -24.5t20.5 -55.5q2 -41 -25.5 -71.5t-64.5 -30.5q-33 0 -50.5 24.5t-17.5 59.5q0 43 25.5 70.5t60.5 27.5zM823 1237q31 0 50.5 -24.5t19.5 -55.5q2 -41 -24.5 -71.5t-63.5 -30.5q-33 0 -52.5 24.5t-19.5 59.5q0 43 28.5 70.5t61.5 27.5zM434 827 q23 0 35 -32q6 -16 -6 -39q-31 -57 -122 -290t-103 -282q-20 -80 20 -80q59 0 183 130.5t206 267.5q55 88 156 270q31 55 59 55q14 0 37 -16t23 -33q0 -25 -27 -84q-160 -393 -203 -524q-14 -41 17 -41q25 0 83 39t119 104q23 23 37 13q2 -2 2 -6q0 -12 -16 -46 q-43 -84 -163 -175t-183 -91q-16 0 -34.5 19.5t-18.5 36.5q0 6 8 34q4 12 51 134t53 143q10 33 0 33q-8 -2 -26 -23q-76 -90 -184.5 -184t-194.5 -150q-68 -43 -117 -43q-35 0 -55 25q-29 33 -9 88q20 57 107.5 272t122.5 291q14 29 -6 29q-12 0 -135 -82q-14 -10 -29 -11 t-17 9q0 14 15 33q25 45 137 125.5t178 80.5z" />
<glyph unicode="&#xfd;" horiz-adv-x="786" d="M649 1270q16 23 45 22q16 0 31.5 -32.5t11.5 -51.5q-2 -20 -28 -53q-78 -92 -197 -217q-27 -35 -57 -35q-12 2 -12.5 21.5t10.5 33.5q46 85 196 312zM289 827q41 0 71.5 -49t38.5 -96q43 -217 21 -565l4 -2q18 2 31 24q184 326 192 668q0 10 13.5 21.5t19.5 11.5 q23 0 48.5 -32t25.5 -50q0 -113 -82 -309.5t-154 -317.5q-174 -289 -221 -346q-139 -170 -219 -236q-119 -94 -219 -94q-41 0 -73 23.5t-32 60.5q0 35 28 69t56 34q18 0 25 -9q10 -6 26.5 -25.5t33 -29.5t34.5 -10q84 0 199 131q68 80 108.5 237.5t40.5 342.5q0 272 -31 372 q-2 6 -5 18.5t-6 18.5l-7 14q-4 8 -10 12.5t-15 4.5q-45 0 -120 -152q-25 -49 -37 -49q-14 0 -19 35q-4 82 70 178t164 96z" />
<glyph unicode="&#xfe;" horiz-adv-x="929" d="M98 258l326 1002q12 59 4 75.5t-49 40.5q-25 16 -25 23q0 23 45 35q18 4 116.5 19t113.5 15q8 0 12 -13t0 -19q-33 -70 -156 -410t-172 -491q-4 -10 6 -13q4 -2 7 2q223 303 409 303q66 0 105 -39q49 -59 49 -129q0 -158 -127 -341t-273 -269q-137 -84 -229 -84 q-63 0 -102 33q-8 4 -17 -14l-50 -162l-39 -123q-13 -41 -19 -72q-18 -86 104 -104q47 -8 47 -29q4 -27 -59 -26q-31 0 -91.5 1t-88.5 1q-37 0 -105.5 -8.5t-91.5 -8.5q-45 0 -45 25q0 4 1 6t4 5t6 5t8.5 4t9.5 3l12 3q8 2 12 4q61 16 84 37t39 66q2 4 27 74l53 153l69 203z M682 760q-74 0 -165 -92.5t-165 -206.5q-139 -219 -135 -322q2 -47 22.5 -78.5t59.5 -31.5q51 0 139 80q102 94 211 282.5t109 304.5q0 27 -22.5 45.5t-53.5 18.5z" />
<glyph unicode="&#xff;" horiz-adv-x="786" d="M385 1237q31 0 51.5 -24.5t20.5 -55.5q2 -41 -26 -71.5t-64 -30.5q-33 0 -50.5 24.5t-17.5 59.5q0 43 25.5 70.5t60.5 27.5zM686 1237q31 0 50.5 -24.5t19.5 -55.5q2 -41 -24.5 -71.5t-63.5 -30.5q-33 0 -52.5 24.5t-19.5 59.5q0 43 28.5 70.5t61.5 27.5zM289 827 q41 0 71.5 -49t38.5 -96q43 -217 21 -565l4 -2q18 2 31 24q184 326 192 668q0 10 13.5 21.5t19.5 11.5q23 0 48.5 -32t25.5 -50q0 -113 -82 -309.5t-154 -317.5q-174 -289 -221 -346q-139 -170 -219 -236q-119 -94 -219 -94q-41 0 -73 23.5t-32 60.5q0 35 28 69t56 34 q18 0 25 -9q10 -6 26.5 -25.5t33 -29.5t34.5 -10q84 0 199 131q68 80 108.5 237.5t40.5 342.5q0 272 -31 372q-2 6 -5 18.5t-6 18.5l-7 14q-4 8 -10 12.5t-15 4.5q-45 0 -120 -152q-25 -49 -37 -49q-14 0 -19 35q-4 82 70 178t164 96z" />
<glyph unicode="&#x152;" horiz-adv-x="2025" d="M1563 1317h168q254 0 335 18q10 2 16.5 -13t2.5 -26q-61 -113 -82 -217q-2 -18 -6 -21t-15 -3q-14 0 -26 14t-14 41q-4 74 -13.5 98.5t-40.5 36.5q-35 14 -250 15q-88 0 -113.5 -13.5t-47.5 -66.5q-53 -119 -140 -457q-2 -14 5.5 -23.5t13.5 -9.5l241 8q27 0 50 3l37 6 q15 2 30 9t22 11t18 15.5t15.5 17.5l15.5 20l17 23q25 35 43 35q33 0 2 -68q-27 -51 -56.5 -131t-37.5 -119q-16 -63 -37 -63q-23 0 -22 61q0 57 -15.5 80t-58.5 23l-274 -5q-37 0 -54 -38q-4 -10 -20 -68l-31 -106q-14 -48 -28.5 -104t-18.5 -87q-10 -61 -8 -80.5t18 -38.5 q27 -27 94 -33q111 -8 242 -8q90 2 141 27q102 47 185 164q45 53 57 57q23 0 6 -59q-8 -37 -43 -108t-63 -103q-29 -31 -55.5 -38t-92.5 -7q-35 0 -243.5 6t-301.5 8q-10 0 -62 -2t-67 -2q-10 0 -17 8t-5 21q6 16 16.5 53t14.5 45q2 10 -1 13t-7.5 1t-10.5 -8 q-195 -170 -418 -170q-174 0 -280 107q-137 137 -137 370q0 199 101 425t265 351q188 145 396 146q121 0 203.5 -61.5t138.5 -188.5q4 -8 13 -7t13 9q27 84 39 166q8 43 29 43q14 0 93 -1t116 -1zM330 326q0 -150 70.5 -226.5t193.5 -76.5q158 0 301 129q143 131 226 367.5 t83 424.5q0 61 -12 117.5t-41 111t-84 87t-133 32.5q-154 0 -283 -127q-321 -307 -321 -839z" />
<glyph unicode="&#x153;" horiz-adv-x="1181" d="M582 827q63 0 104 -44t49 -107q4 -31 21 -10q154 162 311 161q41 0 83 -34.5t42 -94.5q0 -127 -158 -204q-129 -70 -313 -99q-12 0 -29 -16q-41 -82 -41 -170q0 -63 33 -93t76 -30q86 0 211 111q31 27 30 -4q0 -16 -14 -37q-51 -76 -141 -128.5t-182 -52.5 q-53 0 -92.5 42t-49.5 118q-2 6 -8 8t-8 -2q-166 -170 -320 -170q-49 0 -95 57.5t-46 141.5q0 158 85 311.5t157 212.5q166 133 295 133zM565 774q-78 0 -151 -84q-223 -266 -224 -571q0 -29 16.5 -55.5t37.5 -26.5q76 0 174 123q80 98 149.5 261t69.5 277q0 25 -19.5 50.5 t-52.5 25.5zM1016 770q-68 0 -154 -87t-137 -212q-12 -20 4 -20q27 4 77 21t113.5 48t108.5 80t45 102q0 35 -17 51.5t-40 16.5z" />
<glyph unicode="&#x178;" horiz-adv-x="1216" d="M240 1303q2 20 59 20q20 0 100 -3t119 -3q57 0 113.5 2t68.5 2q45 0 50 -18q0 -20 -50 -31q-70 -14 -85 -42t-5 -73q4 -14 30 -128t47.5 -196.5t35.5 -117.5q4 -8 16 -4q313 360 371 448q61 94 -41 115q-49 6 -49 31q0 18 59 18q8 0 59.5 -3t100.5 -3q27 0 105.5 4 t91.5 4q51 0 51 -18q0 -20 -62 -35q-82 -16 -122.5 -45t-155.5 -144q-119 -113 -377 -419q-43 -51 -65 -129q-92 -338 -97 -361q2 -14 -1 -39.5t26 -54.5t84 -37q63 -8 63 -30.5t-71 -22.5q-25 0 -126.5 5t-117.5 5q-37 0 -114 -5t-115 -5q-57 0 -58 26q0 18 62 27 q104 10 139 47t72 148l88 266q35 106 24 174q-18 143 -102 401q-37 117 -66.5 151t-103.5 44q-51 9 -51 29zM774 1632q37 0 58.5 -24.5t19.5 -65.5q-2 -37 -36 -67.5t-70.5 -30.5t-57 24.5t-18.5 65.5t34.5 69.5t69.5 28.5zM1161 1632q37 0 56.5 -24.5t17.5 -65.5 q-2 -39 -35 -68.5t-67 -29.5q-37 0 -58.5 24.5t-19.5 65.5t34.5 69.5t71.5 28.5z" />
<glyph unicode="&#x2c6;" horiz-adv-x="819" d="M675.5 1303q20.5 0 26.5 -54q29 -182 39 -288q2 -18 -6 -34t-20 -16q-18 0 -33 50l-49 163q-4 14 -19 2q-16 -18 -194 -190q-25 -25 -49 -25q-10 0 -13.5 8.5t2 21.5t15.5 28q31 33 115.5 135t115.5 145q49 54 69.5 54z" />
<glyph unicode="&#x2dc;" horiz-adv-x="819" d="M473 1087q-23 0 -65 -47q-12 -12 -21 -12q-4 0 -16.5 14.5t-12.5 18.5t17.5 25.5t50.5 54.5t68 55q18 12 34 8q82 -23 154 -22q47 0 66 14q31 25 59 59q4 6 22.5 -7t18.5 -23q0 -8 -10 -19l-129 -129q-14 -14 -27 -14q-10 0 -86 12t-123 12z" />
<glyph unicode="&#x2000;" horiz-adv-x="868" />
<glyph unicode="&#x2001;" horiz-adv-x="1736" />
<glyph unicode="&#x2002;" horiz-adv-x="868" />
<glyph unicode="&#x2003;" horiz-adv-x="1736" />
<glyph unicode="&#x2004;" horiz-adv-x="577" />
<glyph unicode="&#x2005;" horiz-adv-x="434" />
<glyph unicode="&#x2006;" horiz-adv-x="288" />
<glyph unicode="&#x2007;" horiz-adv-x="288" />
<glyph unicode="&#x2008;" horiz-adv-x="217" />
<glyph unicode="&#x2009;" horiz-adv-x="346" />
<glyph unicode="&#x200a;" horiz-adv-x="96" />
<glyph unicode="&#x2010;" horiz-adv-x="624" d="M133 481q20 4 211 26.5t201 22.5q6 0 13 -10t5 -22q-4 -29 -22.5 -60.5t-42.5 -34.5q-49 -8 -210 -24.5t-182 -16.5q-18 -2 -18 25q0 16 16.5 54t28.5 40z" />
<glyph unicode="&#x2011;" horiz-adv-x="624" d="M133 481q20 4 211 26.5t201 22.5q6 0 13 -10t5 -22q-4 -29 -22.5 -60.5t-42.5 -34.5q-49 -8 -210 -24.5t-182 -16.5q-18 -2 -18 25q0 16 16.5 54t28.5 40z" />
<glyph unicode="&#x2012;" horiz-adv-x="624" d="M133 481q20 4 211 26.5t201 22.5q6 0 13 -10t5 -22q-4 -29 -22.5 -60.5t-42.5 -34.5q-49 -8 -210 -24.5t-182 -16.5q-18 -2 -18 25q0 16 16.5 54t28.5 40z" />
<glyph unicode="&#x2013;" horiz-adv-x="1130" d="M147 485l869 4q14 0 14 -30q0 -12 -16.5 -44t-30.5 -32h-864q-4 0 -11.5 8t-7.5 19q0 25 18.5 50t28.5 25z" />
<glyph unicode="&#x2014;" horiz-adv-x="1961" d="M147 485l1704 4q14 0 15 -30q0 -14 -16.5 -45t-32.5 -31h-1698q-4 0 -11.5 8t-7.5 19q0 25 18.5 50t28.5 25z" />
<glyph unicode="&#x2018;" horiz-adv-x="387" d="M625 1417q0 -20 -39 -39q-162 -57 -162 -186q0 -70 80 -88q20 -2 20 -29q0 -29 -33.5 -54.5t-72.5 -25.5q-66 0 -97.5 49.5t-31.5 104.5q0 117 106.5 202t194.5 85q10 2 22.5 -3.5t12.5 -15.5z" />
<glyph unicode="&#x2019;" horiz-adv-x="387" d="M225 1013.5q0 18.5 39 33.5q160 63 160 192q0 72 -74 90q-20 6 -20 25q0 27 32.5 54.5t69.5 27.5q66 0 97.5 -48.5t31.5 -103.5q0 -121 -102.5 -204t-194.5 -85q-39 0 -39 18.5z" />
<glyph unicode="&#x201a;" horiz-adv-x="462" d="M145 242q70 0 103 -51.5t33 -108.5q0 -127 -111 -215t-207 -90q-33 -4 -33 14q0 16 35 31q76 31 124 86t48 125q0 68 -80 90q-23 6 -22 27q0 31 34.5 61.5t75.5 30.5z" />
<glyph unicode="&#x201c;" horiz-adv-x="692" d="M623 1421.5q0 -14.5 -39 -37.5q-158 -84 -158 -192q0 -74 76 -88q6 0 13 -7t7 -16q0 -27 -32.5 -56.5t-69.5 -29.5q-66 0 -97.5 47.5t-31.5 102.5q0 115 105.5 203t193.5 88q33 0 33 -14.5zM940 1421q0 -14 -41 -35q-158 -74 -158 -194q0 -70 74 -86q20 -4 21 -27 q0 -29 -31 -56.5t-70 -27.5q-66 0 -98.5 48.5t-32.5 103.5q0 115 105.5 202t195.5 89q35 -1 35 -17z" />
<glyph unicode="&#x201d;" horiz-adv-x="702" d="M537 1012q0 12 38 35q158 92 158 192q0 41 -23.5 63.5t-52.5 26.5q-6 0 -13 8.5t-7 16.5q0 27 32.5 55.5t69.5 28.5q66 0 96.5 -47.5t30.5 -102.5q0 -113 -104.5 -202t-192.5 -91q-32 1 -32 17zM217 1009.5q0 14.5 43 34.5q158 80 158 195q0 72 -74 88q-23 4 -22 29 q0 27 32.5 54.5t69.5 27.5q66 0 97.5 -47.5t31.5 -104.5q0 -113 -105.5 -201t-193.5 -90q-37 0 -37 14.5z" />
<glyph unicode="&#x201e;" horiz-adv-x="794" d="M145 242q70 0 103 -50.5t33 -109.5q0 -127 -111 -215t-207 -90q-33 -6 -33 14q0 18 35 33q74 33 123 87t49 124q0 68 -80 88q-23 8 -22 24q0 33 34.5 64t75.5 31zM471 242q72 0 103.5 -50.5t31.5 -109.5q0 -127 -109.5 -215t-205.5 -90q-35 0 -35 14q0 18 37 33 q170 74 170 211q0 68 -76 88q-25 8 -25 24q0 31 35 63t74 32z" />
<glyph unicode="&#x2022;" horiz-adv-x="935" d="M465 694q123 0 209 -89t86 -220q0 -129 -88 -217t-211 -88q-119 0 -204 88t-85 217q0 131 86 220t207 89z" />
<glyph unicode="&#x2026;" horiz-adv-x="1411" d="M147 209q49 0 76 -28.5t27 -80.5q0 -57 -38 -93t-85 -36q-51 0 -76.5 29t-25.5 74q0 57 38.5 96t83.5 39zM621 209q104 0 104 -109q0 -57 -38 -93t-87 -36t-75.5 30t-26.5 75q0 57 40 95t83 38zM1096 209q51 0 78.5 -28.5t27.5 -80.5q0 -57 -39 -93t-88 -36 q-51 0 -75.5 30t-24.5 75q0 57 39 95t82 38z" />
<glyph unicode="&#x202f;" horiz-adv-x="346" />
<glyph unicode="&#x2039;" horiz-adv-x="933" d="M166 406q0 6 10 15t21 13q299 121 602 303q31 20 45 21q20 0 6 -33q-10 -18 -29 -35q-35 -33 -95 -75t-104 -69l-124 -77l-99 -61q-6 -4 -9 -12.5t3 -14.5l57 -56l78 -81q31 -33 66 -75t45 -67q6 -14 3 -27.5t-13 -13.5q-14 0 -41 23q-152 129 -406 301q-16 13 -16 21z " />
<glyph unicode="&#x203a;" horiz-adv-x="935" d="M764 414q0 -16 -29 -29q-330 -135 -602 -305q-37 -18 -47 -19q-18 0 -4 31q8 18 27 35q86 78 421 283q20 10 7 28l-35 35l-48 48l-48 50l-50.5 55.5t-38 48t-24.5 42.5q-6 14 -4 27.5t12 13.5q14 0 41 -25q184 -154 406 -299q16 -12 16 -20z" />
<glyph unicode="&#x205f;" horiz-adv-x="434" />
<glyph unicode="&#x20ac;" d="M836 1292q119 0 200 -49q23 -14 34 -14t38 12q25 12 29 6q18 -18 4 -43q-61 -104 -88 -203q-14 -57 -27 -57q-35 0 -29 57q12 109 -28 175q-45 68 -117 67q-102 0 -195.5 -78t-148.5 -174t-88 -203q-6 -18 8 -18l403 12q8 0 12.5 -6t2.5 -12q-4 -20 -20.5 -38.5 t-30.5 -18.5q-369 4 -383 4q-18 0 -21 -13q-10 -33 -16 -94q0 -12 12 -12q43 0 170 5t195 5q4 0 9 -7t3 -11q-6 -23 -27.5 -43.5t-36.5 -20.5q-115 2 -325 2q-14 0 -17 -14q-6 -45 -6 -135q2 -172 64.5 -247t158.5 -75q35 0 90.5 32t94.5 69q16 16 50 53t58 59q27 27 45 27 q20 0 7 -47q-25 -78 -138 -203q-27 -23 -55 -16q-18 6 -78 -11q-117 -25 -131 -24q-143 0 -239.5 107.5t-94.5 320.5q0 39 4 88q2 14 -8 16l-90 2q-14 0 -14 21q0 12 13 26.5t24 16.5h71q8 0 13 12q2 18 18 92q4 16 -2 17h-61q-12 0 -12.5 14t14 28.5t22.5 14.5l51 2 q10 0 15 12q76 207 237.5 359.5t356.5 152.5z" />
<glyph unicode="&#x2122;" horiz-adv-x="790" d="M330 1231h180q41 0 65 12q12 4 13 -6q-6 -43 -6 -90q0 -6 -5.5 -9t-12.5 -1t-9 8q-2 4 -6 15t-7 18.5t-10.5 13.5t-15.5 6h-55v-176v-8q0 -41 18 -47l16 -5q9 -3 11 -4q12 -4 10 -16t-12 -12q-8 0 -38 1t-40 1q-23 0 -42 -1t-34 -1q-12 0 -15 10t11 16l25 9q25 12 24 63 v129q0 41 -10 41h-43q-16 0 -23.5 -5t-14.5 -20.5t-9 -17.5q-8 -16 -16 -16q-12 0 -13 20l2 37q2 35 2 43q2 4 10.5 5t12.5 -1q14 -10 37 -12zM940 1231q2 0 45 1t49 1q16 0 16.5 -10.5t-8.5 -14.5q-4 -2 -17 -4t-17 -4q-8 -6 -13 -29q0 -55 4 -149q2 -43 13 -51q4 -2 14 -5 t14 -5q14 -6 11.5 -17.5t-17.5 -11.5h-61q-10 0 -29.5 -1t-28.5 -1q-10 0 -14 5t-2 12t10 9q16 8 20.5 15.5t6.5 36.5q2 33 2 157q0 14 -6 2q-10 -18 -42 -98l-36 -90q-18 -43 -20 -45q-10 -8 -19 0l-16 37l-76 180q-4 14 -8 0q0 -16 -2 -48t-3 -56.5t-1 -40.5 q0 -20 9 -26.5t44 -18.5q18 -6 13 -18.5t-21 -12.5q-12 0 -37 1t-37 1t-30.5 -1t-22.5 -1q-14 0 -18.5 10t9.5 16l11.5 5.5t10.5 4.5t8 4t8 6t6.5 7t5.5 10t2 13q12 82 12 149q2 16 -6 31q-6 8 -35 16q-16 4 -19.5 12.5t3 13.5t14.5 5q29 -2 86 -2h18q4 0 29 -45l62 -125 q4 -10 10 -2q23 47 69 153q7 19 27 19z" />
<glyph unicode="&#xe000;" horiz-adv-x="825" d="M0 825h825v-825h-825v825z" />
<glyph unicode="&#xfb01;" horiz-adv-x="978" d="M1075 1350q0 -37 -33.5 -75t-74.5 -38q-37 0 -43 47q-6 59 -29 87t-80 28q-111 0 -211 -152q-86 -135 -168 -428q0 -16 15 -16q135 0 325 14q6 0 127 25q12 2 18.5 -5.5t0.5 -21.5q-37 -76 -125 -316.5t-119 -346.5q-16 -35 6 -35q29 0 95.5 53t101.5 88q33 33 47 33 q8 0 8 -19q0 -23 -37 -69q-66 -82 -175.5 -159t-168.5 -77q-23 0 -38 19.5t-15 38.5q0 12 22 79l115 310q102 276 115 307q10 27 -17 27l-177 -8q-124 -5 -134 -5q-14 0 -27 -26q-25 -80 -114.5 -397.5t-112.5 -391.5q-63 -190 -118.5 -281.5t-151.5 -144.5 q-117 -66 -195 -65q-43 0 -89 29.5t-46 70.5q0 14 14.5 43t28.5 43q37 20 47 6q76 -98 160 -98q49 0 86 58.5t100 254.5q12 37 48 164l95 335l101 359q10 33 -10 33h-136q-23 0 -22 21q0 8 18.5 25.5t36.5 19.5l123 8q23 0 27 18q115 350 280 510q133 133 308 133 q61 0 104 -13t61.5 -33.5t25.5 -36t7 -29.5z" />
<glyph unicode="&#xfb02;" horiz-adv-x="1013" d="M881 1462q98 0 153 -43q16 -12 25 -2q37 37 65 37q20 0 2 -51q-80 -207 -235.5 -669t-206.5 -628q-6 -16 1 -31.5t17 -15.5q23 0 105 65.5t135 133.5q16 23 33 16q4 0 4 -8q0 -10 -12 -43q-68 -119 -163 -187.5t-190 -68.5q-43 0 -64.5 40t-12.5 69q2 8 7 23l15 44l19 54 l180 536q4 16 -8 15h-2l-322 -11q-4 0 -14.5 -8t-12.5 -18l-217 -764q-98 -342 -256 -443q-127 -78 -219 -77q-51 0 -92 31.5t-41 60.5q0 53 45 94q8 6 22.5 10t20.5 -2q37 -43 84 -73.5t78 -30.5q47 0 83 54t77 189q51 164 270 945q2 8 0 15t-6 7h-129q-37 0 -37 16 q2 12 18.5 32t36.5 22q10 0 66.5 2t64.5 4q18 4 23 26q41 115 78 197t89 169t121.5 146.5t155.5 92.5q72 28 146 28zM827 1399q-102 0 -190 -109q-109 -147 -203 -463q-6 -23 10 -22q12 0 149.5 5t158.5 5q27 0 39 19q4 6 30 85l62 182q35 103 49 140q6 16 10 40t5 41t-1 19 q-41 58 -119 58z" />
<glyph unicode="&#xfb03;" horiz-adv-x="1503" d="M860 1409q43 0 97.5 -24.5t84.5 -55.5q6 -6 17 2q154 137 307 137q111 0 163 -42t52 -97q0 -43 -34 -69.5t-66 -26.5q-35 0 -41 41q-16 133 -115 133q-143 0 -240 -180q-66 -123 -147 -387q-2 -8 0 -17.5t4 -9.5q211 0 358 12q74 8 115 17q12 2 15.5 -5.5t-3.5 -21.5 q-45 -96 -127.5 -323.5t-111.5 -333.5q-12 -45 10 -45q16 0 82 48t115 105q8 10 13 12.5t9 0t6 -2.5q16 0 -8 -53q0 -4 -2 -6q-39 -74 -154.5 -160t-187.5 -86q-53 0 -53 66q0 16 3 33.5t8 30l13.5 35t12.5 38.5q160 424 200 545q6 27 2 31t-26 4q-47 0 -175 -5.5t-134 -5.5 q-14 0 -27 -36l-91 -313l-97 -337q-39 -137 -52 -172q-59 -193 -215 -303q-51 -37 -130 -64.5t-122 -27.5q-133 0 -188 70q-10 10 -20 0q-61 -59 -138.5 -93t-134.5 -34q-66 0 -101.5 34.5t-33.5 65.5q0 45 45 82q37 27 51 10q82 -90 150 -90q86 0 149 182q92 274 291 994 q2 8 -4 12t-18 4l-125 -4q-23 0 -23 16q2 20 18.5 36t28.5 16q111 6 131 6q14 0 19 14q119 362 317 508q121 90 258 90zM805 1339q-158 0 -254 -194q-51 -96 -117 -324q-6 -18 6 -18l324 10q18 0 22 14q68 209 162 363q4 6 7 20.5t1 18.5q-40 110 -151 110zM266 -430 q154 0 230 248q43 137 262 907q4 20 -13 20l-319 -12q-16 0 -27 -24l-229 -787q-39 -141 -100 -250q-6 -8 4 -20q71 -82 192 -82z" />
<glyph unicode="&#xfb04;" horiz-adv-x="1525" d="M1386 1470q102 0 156 -53q18 -14 29 0q45 45 63 45q10 0 15.5 -14t-2.5 -37l-251 -701q-161 -460 -200 -591q-10 -41 16 -41q35 0 107 54t131 126q23 27 37 16q2 -2 2 -8q0 -23 -12 -47q-61 -113 -160.5 -181.5t-198.5 -68.5q-39 0 -60.5 21.5t-21.5 58.5q0 29 54 176 l174 506q4 8 2 18.5t-9 10.5l-333 -19q-12 -2 -25 -24l-237 -819q-61 -203 -220 -314q-51 -39 -130 -67.5t-122 -28.5q-141 0 -196 78q-6 6 -10 2q-49 -53 -127 -94t-141.5 -41t-104.5 29.5t-39 58.5q0 27 16.5 55.5t32.5 38.5q37 25 53 8q84 -90 146 -90q86 0 149 184 q12 35 57 189l115 398l117 398q6 18 -10 19l-148 -6q-16 0 -16 14q2 20 15.5 36.5t25.5 16.5q20 0 143 9q14 0 21 24q70 190 139.5 309t181.5 201q117 84 242 84q113 0 182 -70q10 -10 14.5 -9t16.5 11q51 41 76.5 59.5t95 44t149.5 25.5zM440 797l328 12q14 0 25 27 q78 227 161 364q14 20 9 37q-39 104 -156 104q-156 0 -248 -184q-72 -137 -125 -342q-2 -4 1 -11t5 -7zM283 -432q61 0 119.5 67.5t101.5 204.5l254 879q2 4 -1 11t-7 7l-324 -12q-12 0 -25 -23q-90 -283 -231 -790q-37 -125 -94 -231q-2 -4 -1 -15.5t3 -13.5 q62 -84 205 -84zM1335 1407q-59 0 -104 -18.5t-94 -81.5q-98 -127 -201 -480q-4 -16 10 -16q12 0 166 9t174 9q2 0 11.5 7.5t9.5 9.5q6 10 145 403q23 66 0 101q-45 57 -117 57z" />
</font>
</defs>
</svg>
