<?xml version="1.0" standalone="no"?>
<!DOCTYPE svg PUBLIC "-//W3C//DTD SVG 1.1//EN" "http://www.w3.org/Graphics/SVG/1.1/DTD/svg11.dtd" >
<svg xmlns="http://www.w3.org/2000/svg">
<metadata>
This is a custom SVG webfont generated by Font Squirrel.
Copyright   :  2005 Adobe Systems Incorporated All Rights Reserved
Designer    : Robert Slimbach
Foundry URL : httpwwwadobecomtype
</metadata>
<defs>
<font id="webfontbIc9ESTK" horiz-adv-x="1011" >
<font-face units-per-em="2048" ascent="1485" descent="-563" />
<missing-glyph horiz-adv-x="395" />
<glyph unicode=" "  horiz-adv-x="395" />
<glyph unicode="&#x09;" horiz-adv-x="395" />
<glyph unicode="&#xa0;" horiz-adv-x="395" />
<glyph unicode="!" horiz-adv-x="612" d="M575 1253q63 0 86 -86t-16 -174q-94 -219 -283 -565q-6 -16 -23 -30.5t-36 -14.5q-29 0 -24 57q45 317 100 602q18 98 72 154.5t124 56.5zM254 274q63 0 97 -38.5t34 -104.5q0 -76 -49 -118t-107 -42q-66 0 -98.5 38t-32.5 102q0 68 47.5 115.5t108.5 47.5z" />
<glyph unicode="&#x22;" horiz-adv-x="671" d="M516 1409q12 0 19.5 -17.5t1.5 -45.5q-14 -68 -70.5 -178.5t-128.5 -204.5q-53 -53 -90 -54q-8 0 -14.5 14.5t-2.5 24.5q37 96 67 210t36 159q6 18 22 29q84 63 160 63zM844 1409q12 0 19 -17.5t1 -45.5q-14 -70 -71.5 -182.5t-128.5 -202.5q-12 -14 -41 -33t-45 -19 q-8 0 -14.5 13.5t-2.5 23.5q80 217 101 371q4 14 26 31q82 61 156 61z" />
<glyph unicode="#" d="M1047 879q-39 -76 -56 -76l-153 -6q-10 0 -21 -21l-86 -198q-2 -6 0 -10.5t8 -2.5l164 6q6 0 10.5 -23.5t-0.5 -33.5q-8 -25 -32.5 -63.5t-38.5 -38.5l-164 -6q-6 0 -11 -3.5t-8.5 -6.5t-3.5 -5l-133 -328q-10 -29 -55 -28q-6 0 -14.5 7t-6.5 13l132 330q2 6 -2.5 12 t-10.5 6l-186 -8q-4 0 -12.5 -7t-8.5 -9l-137 -332q-8 -23 -53 -22q-10 0 -16.5 10t-4.5 16l129 322q10 20 -10 20l-149 -4q-4 0 -6 22.5t0 26.5q33 106 61 107l166 8q14 0 20 14l80 197q4 6 1 14t-11 6l-168 -6q-14 14 12 88q4 12 23.5 39t28.5 29l168 8q20 0 24 14 l113 291q2 8 25.5 16.5t41.5 8.5q6 0 12.5 -8.5t4.5 -12.5l-121 -293q-4 -14 4 -14l186 6q18 0 27 19l127 299q10 20 65 20q2 0 5.5 -3t6.5 -9t-3 -16l-123 -287q-6 -18 4 -19l162 4q6 -16 3 -43.5t-9 -35.5zM739 772q4 20 -6 21l-194 -7q-14 0 -19 -16l-88 -199 q-2 -4 1 -11t9 -5l187 6q18 0 26 19z" />
<glyph unicode="$" d="M735 1272l43 131q6 12 29 12q14 0 23.5 -7t9.5 -15l-41 -127q-4 -12 8 -17q88 -33 125 -55q31 -23 51 -18q10 2 30.5 9t26.5 7q8 0 16.5 -9t2.5 -22q-84 -176 -98 -235q-12 -51 -33 -52q-12 0 -22.5 18.5t-6.5 51.5q27 174 -108 242q-12 4 -17 -8l-133 -412q0 -16 10 -23 q248 -211 248 -383q0 -94 -57.5 -174t-153.5 -129q-109 -55 -274 -59q-16 0 -21 -14l-51 -150q-16 -16 -37 -16q-25 0 -29 16l52 160l-4 10l-2 2q-102 23 -179 72q-29 18 -71 -2q-45 -25 -68 -8q-14 14 -2 36q16 37 92 285q18 53 43 53q23 0 23 -57q-10 -250 178 -315 q12 -2 16 10l144 448q4 10 -6 21q-66 59 -108 106t-80 119t-38 139q0 176 133 271.5t320 77.5q12 0 16 10zM588 807l121 383q2 2 -1 7t-6 5q-100 10 -169.5 -50t-69.5 -144q0 -43 19.5 -83t36 -58.5t56.5 -59.5q9 -12 13 0zM551 475l-127 -399q-2 -2 0 -10.5t10 -8.5 q123 4 186.5 72t63.5 152q0 88 -119 200q-10 10 -14 -6z" />
<glyph unicode="%" horiz-adv-x="1531" d="M621 1280q94 0 147 -72.5t53 -169.5q0 -123 -76.5 -256t-193.5 -192q-74 -35 -152 -35q-92 0 -144 66.5t-52 156.5q-2 252 205 424q86 78 213 78zM614 1225q-53 0 -106 -76q-63 -84 -104.5 -204t-38.5 -232q0 -98 57 -99q41 0 90 59.5t105.5 210t56.5 246.5 q0 43 -16.5 69t-43.5 26zM1331 1282q27 0 43 -27q12 -14 -6 -32l-1061 -1272q-14 -10 -24 -8q-27 8 -35 37q-8 14 10 32l1036 1245q25 25 37 25zM1237 700q94 0 146.5 -72.5t52.5 -168.5q0 -133 -75 -260t-194 -189q-74 -35 -153 -35q-92 0 -143.5 67t-51.5 159 q0 252 205 422q92 77 213 77zM1231 641q-51 0 -109 -74q-61 -84 -101 -202.5t-40 -231.5q0 -98 57 -98q43 0 90 59q49 59 103.5 208t54.5 245q0 94 -55 94z" />
<glyph unicode="&#x26;" horiz-adv-x="1660" d="M590 997q43 0 87 -42t56 -126q4 -20 21 -4q231 207 231 381q0 49 -29 103q-12 31 -2 47q12 18 41 34.5t43 16.5q41 0 64.5 -36t23.5 -93q0 -72 -29.5 -142.5t-91 -143t-107.5 -118t-126 -116.5q-47 -41 -139 -106l-180 -122q-88 -57 -99 -65q-14 -12 -14 -35 q6 -113 101.5 -213t234.5 -100q156 0 278 88q115 84 190 211t79 225q0 12 -11 43q-4 10 -39.5 25.5t-78.5 15.5q-37 0 -60.5 -11.5t-32 -33t-9.5 -32.5t-1 -32q0 -47 31 -108q8 -23 -2 -35q-18 -27 -70 -27q-49 0 -79.5 29t-30.5 66q0 86 121 200q115 109 235 109 q152 0 289 -137q33 -33 55 -33q18 0 19 39q0 31 -19.5 80t-36.5 73q-10 10 -4 23.5t31 13.5q59 0 96 -50t37 -99q0 -33 -18.5 -63.5t-40.5 -43.5q-106 -66 -142 -92q-27 -12 -39 2q-45 47 -108 88q-6 2 -12.5 -7t-6.5 -17q-4 -41 -10 -68q-20 -104 -72.5 -215t-111.5 -178 q-102 -115 -234.5 -180.5t-257.5 -65.5q-137 0 -235.5 48t-144.5 126t-65.5 151.5t-19.5 149.5q0 268 207 465q47 45 120 91t118 46zM330 553q0 -6 5 -10t11 0q41 23 121 75t92 62q16 16 16 65q-2 37 -29.5 80t-68.5 43q-61 0 -106 -96t-41 -219z" />
<glyph unicode="'" horiz-adv-x="339" d="M522 1409q12 0 19.5 -17.5t1.5 -45.5q-14 -68 -72.5 -178.5t-132.5 -204.5q-12 -14 -41 -34t-43 -20t-20.5 16.5t-2.5 26.5q27 78 57.5 200t37.5 163q6 18 28 35q31 20 82 39.5t86 19.5z" />
<glyph unicode="(" horiz-adv-x="755" d="M938 1483q27 0 27 -20.5t-39 -53.5q-582 -446 -582 -1212q0 -309 100 -549q18 -45 -10 -45q-27 0 -67 41q-37 33 -76 94t-82 207.5t-43 324.5q0 209 56.5 397.5t152.5 332t208.5 250t241.5 182.5q90 51 113 51z" />
<glyph unicode=")" horiz-adv-x="755" d="M-86 -397q-29 0 -29 22q0 18 43 51q580 444 580 1213q0 299 -102 549q-8 18 -5.5 31.5t15.5 13.5q25 0 69 -41q25 -23 52.5 -65t64.5 -116.5t60.5 -192.5t23.5 -253q0 -209 -56.5 -396.5t-154.5 -330.5t-209.5 -249.5t-240.5 -184.5q-80 -51 -111 -51z" />
<glyph unicode="*" horiz-adv-x="751" d="M844 1130q53 8 53 -24q0 -8 -13.5 -21.5t-29.5 -19.5q-84 -33 -166 -59q-12 -4 2 -19q12 -12 123 -147q18 -25 18 -52q0 -6 -8 -10t-23.5 -2t-31.5 12q-63 41 -158 136q-14 14 -18 -2q-47 -160 -72 -193q-16 -31 -43 -31q-31 0 -10 97q6 35 18 92l13 57q2 6 -5.5 8 t-13.5 0q-164 -41 -196 -41q-53 0 -54 23q0 20 37 37q47 23 191 73q16 6 4 21q-10 10 -46 43t-61.5 59.5t-40.5 51.5q-14 23 -1.5 37t40.5 4q35 -8 172 -125q16 -16 21 2l26 76q25 71 39 96q20 39 43 39q20 0 21 -48q-2 -70 -25 -182q-2 -18 15 -18q63 16 180 30z" />
<glyph unicode="+" horiz-adv-x="1277" d="M600 1020q0 12 32 21.5t56 9.5q51 0 51 -37v-414q0 -18 17 -18h403q27 0 27 -33q0 -35 -9.5 -62.5t-19.5 -27.5h-399q-18 0 -19 -23l-2 -428q0 -18 -30.5 -28.5t-65.5 -10.5q-41 0 -41 29v438q0 23 -18 23h-392q-35 0 -34 47q0 23 9 49.5t19 26.5h402q14 0 14 16v422z " />
<glyph unicode="," horiz-adv-x="505" d="M178 307q70 0 105.5 -55t35.5 -121q0 -74 -37.5 -139.5t-96 -106.5t-110.5 -66.5t-100 -39.5q-25 -4 -44 2t-19 18q0 23 53 56q174 96 174 202q0 33 -18.5 49.5t-59.5 32.5q-10 4 -20 17.5t-10 21.5q0 47 42 88t105 41z" />
<glyph unicode="-" horiz-adv-x="679" d="M158 502q43 6 226 26.5t193.5 20.5t17.5 -12.5t5 -20.5q0 -27 -22.5 -73t-47.5 -48q-51 -6 -127.5 -14t-161.5 -15.5t-118 -11.5q-10 -2 -17.5 8.5t-7.5 18.5q0 25 24 72t36 49z" />
<glyph unicode="." horiz-adv-x="505" d="M176 274q63 0 97 -38.5t34 -104.5q0 -76 -49 -118t-106 -42q-66 0 -100 38t-34 102q0 66 48.5 114.5t109.5 48.5z" />
<glyph unicode="/" horiz-adv-x="710" d="M-57 -92l860 1411q16 23 37 22q37 0 53 -6q20 -10 8 -28l-860 -1407q-25 -35 -41 -35q-25 0 -45 10q-8 4 -12 14.5t0 18.5z" />
<glyph unicode="0" d="M729 1280q166 0 237.5 -112.5t71.5 -274.5q0 -184 -67.5 -383t-179.5 -338q-76 -94 -175.5 -146.5t-195.5 -52.5q-94 0 -162 37t-100.5 99.5t-46 122t-13.5 124.5q0 195 70 391.5t170 315.5q176 217 391 217zM721 1219q-90 0 -193 -189q-92 -170 -148 -396t-56 -415 q0 -84 25.5 -133t70.5 -49q59 0 113.5 62.5t86 132t78.5 190.5q45 127 81 308t36 304q0 185 -94 185z" />
<glyph unicode="1" d="M111 18q0 23 61 33q72 10 98.5 32.5t55.5 92.5q53 135 186 590q84 285 86 315q2 41 -16 41q-59 10 -88 13q-51 6 -51.5 30.5t55.5 30.5q219 27 305 68q37 16 55 16q6 0 12.5 -12.5t3.5 -20.5q-2 -4 -10 -29l-24 -79l-37 -119l-228 -813q-20 -84 -4.5 -112.5t95.5 -43.5 q41 -8 41 -28q0 -29 -66 -29q-35 0 -117 3t-108 3q-66 0 -149 -5t-91 -5q-65 -1 -65 28z" />
<glyph unicode="2" d="M649 1280q143 0 232.5 -95t89.5 -222q0 -88 -42 -171t-87 -129.5t-123 -111.5q-109 -92 -467 -356q-8 -10 -4 -15.5t12 -5.5q31 -2 247 -1t257 7q68 14 127 96q23 33 43 33q10 0 12 -18.5t-6 -40.5q-29 -104 -119 -236q-18 -25 -76 -24q-8 0 -239.5 5t-286.5 5h-196 q-45 0 -46 29q0 16 54 63q182 129 389 320q76 68 123 115.5t100 114.5t79 135.5t26 140.5q0 96 -57.5 147t-133.5 51q-135 0 -244 -104q-49 -45 -59 -45q-18 0 -18 20q2 23 22 55q61 100 165.5 169t225.5 69z" />
<glyph unicode="3" d="M664 1280q129 0 205.5 -69.5t76.5 -161.5q0 -80 -42 -135.5t-134 -112.5l-50 -28l-53 -27q-28 -13 -42 -21q-16 -6 -2 -16q152 -39 227 -131q57 -66 57 -189q0 -133 -114.5 -249.5t-323.5 -190.5q-137 -51 -260 -51q-90 0 -145.5 37.5t-55.5 105.5q4 43 27 61 q14 14 33 -4q55 -49 134 -77.5t144 -28.5q117 0 180 49q129 94 129 299q0 125 -58 187.5t-136 62.5q-57 0 -113 -15q-29 -8 -47 -8q-25 0 -25 21q0 10 14.5 28.5t31.5 26.5q2 2 76.5 29.5t123.5 54.5q96 51 141.5 115.5t45.5 158.5q0 78 -46.5 121t-119.5 43 q-70 0 -130.5 -51t-97.5 -123q-12 -12 -26 0q-29 33 -29 66q0 31 49 67q183 156 355 156z" />
<glyph unicode="4" d="M555 383q-78 0 -471 -16q-27 0 -39 16q-2 2 2 33l850 809q20 20 59 37.5t70 17.5q8 0 14.5 -14.5t-0.5 -30.5l-204 -717q-2 -6 0 -10t4 -6t4 -2q139 4 174 4q4 2 9 -6.5t5 -18.5q0 -25 -18.5 -53.5t-28.5 -28.5q-6 0 -78.5 -4t-93.5 -4q-18 0 -22 -22l-107 -383 q-6 -27 -27 -35q-55 -25 -186 -25q-14 0 -26.5 11.5t-8.5 23.5l25 75l49 154q29 92 53 181q2 14 -8 14zM586 489q10 0 18 21l97 289q52 150 67 200q2 4 1 9.5t-7 5.5t-12 -8q-453 -438 -529 -517q-2 -4 -2 -7t3 -6t9 -3q210 8 355 16z" />
<glyph unicode="5" d="M514 1231q68 12 238 30.5t225 18.5q33 0 33 -23q-2 -43 -34 -94t-75 -86q-14 -10 -67 -18q-41 -4 -369 -4q-10 0 -31 -25q-57 -74 -57 -112q0 -25 29 -39q184 -92 235 -123q131 -76 200.5 -161t69.5 -208q0 -178 -186 -324q-82 -63 -219 -114t-266 -51q-63 0 -122 32.5 t-59 102.5q0 27 15 53q6 6 18 11t19 1q51 -39 138 -66.5t148 -27.5q55 0 103.5 12.5t95.5 42t75.5 88t28.5 142.5q0 201 -331 348q-51 23 -84 49.5t-42.5 41.5t-9.5 24q0 39 39 122q27 66 81.5 163.5t82.5 131.5q43 56 78 62z" />
<glyph unicode="6" d="M729 852q121 0 182.5 -90t61.5 -211q0 -281 -225 -467q-137 -113 -316 -113q-143 0 -235.5 94.5t-92.5 278.5q0 240 171 477.5t440 403.5q236 147 372 147q23 0 35.5 -9t12.5 -17q0 -10 -25 -25q-391 -203 -582 -496q-10 -14 11 -14q170 41 190 41zM586 768 q-66 0 -111 -49q-63 -70 -104 -215.5t-41 -276.5q0 -197 127 -196q68 0 145 98q39 49 87 183t48 249q0 80 -35.5 143.5t-115.5 63.5z" />
<glyph unicode="7" d="M698 1253q143 0 285.5 3.5t163.5 3.5q8 0 17.5 -6.5t9.5 -14.5q0 -29 -91 -141l-843 -1168q-23 -33 -41 -32q-14 0 -28.5 14t-14.5 33q-2 18 55 92l741 1003q10 16 -6 17q-55 6 -260 6q-182 0 -270 -6q-37 -2 -60.5 -15.5t-36.5 -28.5l-49 -65q-29 -41 -51 -41 q-18 0 -18 24.5t10 47.5q133 248 143 264q16 16 43 17q4 0 104.5 -3.5t196.5 -3.5z" />
<glyph unicode="8" d="M725 1311q137 0 220 -78t83 -201q0 -106 -104 -184q-129 -100 -209 -148q-10 -4 -2 -10q76 -86 103.5 -119.5t61 -104.5t33.5 -138q0 -152 -168 -265q-141 -90 -309 -90t-262 79t-94 206q0 68 41 118t119 109l100 67q68 44 98 66q10 6 2 15q-143 162 -143 309 q0 180 168 291q119 78 262 78zM674 1247q-72 0 -130.5 -55t-58.5 -166q0 -63 51.5 -142t120.5 -136q10 -10 19 -3q182 135 182 287q0 98 -50 156.5t-134 58.5zM481 39q104 0 161.5 65.5t57.5 147.5q0 109 -196 321q-12 12 -25 9q-215 -147 -215 -301q0 -111 62.5 -176.5 t154.5 -65.5z" />
<glyph unicode="9" d="M715 1280q160 0 237.5 -106.5t77.5 -251.5q0 -291 -223 -576q-111 -143 -274.5 -254.5t-274.5 -163.5q-100 -49 -133 -49q-45 0 -49 15q-4 16 22 30q135 78 294 228.5t247 289.5q2 2 1 5.5t-5 6.5t-8 1q-135 -39 -193 -39q-100 0 -178 83t-78 236q0 94 47 196.5 t127 182.5q166 166 363 166zM698 1219q-31 0 -74.5 -28t-78.5 -73q-55 -68 -96 -174t-41 -217q0 -113 44 -169t101 -56q98 0 156 88q33 55 70.5 191.5t37.5 234.5q0 203 -119 203z" />
<glyph unicode=":" horiz-adv-x="585" d="M372.5 813q57.5 0 89.5 -35t32 -96q0 -70 -46.5 -111t-97.5 -41q-61 0 -93 37t-32 97q0 61 45 105t102.5 44zM215 254q57 0 88 -36t31 -97q0 -70 -45 -109t-99 -39q-121 0 -120 127q0 61 45 107.5t100 46.5z" />
<glyph unicode=";" horiz-adv-x="585" d="M372.5 813q57.5 0 89.5 -35t32 -96q0 -70 -46.5 -111t-97.5 -41q-61 0 -93 37t-32 97q0 61 45 105t102.5 44zM217 307q72 0 107.5 -55t35.5 -121q0 -76 -37.5 -140.5t-97 -105.5t-111 -66.5t-100.5 -39.5q-23 -4 -42 2t-19 18q0 25 51 56q176 96 176 202q0 33 -18.5 49.5 t-59.5 32.5q-10 4 -20 17.5t-10 21.5q0 47 42 88t103 41z" />
<glyph unicode="&#x3c;" horiz-adv-x="1259" d="M995 178q4 -6 3 -23.5t-13 -44t-29 -42.5q-6 -6 -11 -7.5t-9 0.5t-18 11l-668 368q-84 47 -84 68q0 16 12 33q25 29 66 51l669 377q23 12 39 2q20 -20 38 -58.5t-1 -48.5l-608 -329q-20 -10 -2 -23z" />
<glyph unicode="=" horiz-adv-x="1277" d="M1159 772q18 0 24.5 -5t6.5 -19q0 -35 -9.5 -67t-19.5 -32h-964q-37 0 -37 43q0 23 9 51.5t19 28.5h971zM1159 393q18 0 24.5 -5t6.5 -19q0 -37 -9.5 -68t-19.5 -31h-968q-33 0 -33 45q0 23 9 50.5t19 27.5h971z" />
<glyph unicode="&#x3e;" horiz-adv-x="1259" d="M1114 528q0 -18 -12 -32q-20 -25 -68 -50l-665 -376q-27 -16 -41 -4q-23 23 -38.5 56.5t1.5 51.5l606 328q23 8 4 20l-616 336q-4 6 -3 23.5t13 45t29 44.5q6 6 11 7t9 -1t18 -10l666 -371q86 -48 86 -68z" />
<glyph unicode="?" horiz-adv-x="802" d="M565 1268q94 0 189 -74q43 -33 75.5 -98.5t32.5 -130.5q0 -51 -35.5 -106.5t-76.5 -84.5q-35 -27 -119 -76l-105 -61q-74 -43 -73 -102q0 -49 49 -134q4 -8 3 -16t-11.5 -13t-30.5 1q-49 10 -114.5 76.5t-65.5 168.5q2 55 20.5 87t61.5 71q70 61 251 154q129 66 129 133 q0 102 -96 102q-70 0 -119 -73q-23 -35 -40 -45.5t-46 -10.5q-35 0 -60.5 25.5t-25.5 68.5q0 57 62.5 97.5t144.5 40.5zM352 274q63 0 96 -38.5t33 -104.5q0 -76 -49 -118t-104 -42q-66 0 -99.5 38t-33.5 102q0 66 48 114.5t109 48.5z" />
<glyph unicode="@" horiz-adv-x="1763" d="M692 231q0 -31 11.5 -51t29.5 -20q47 0 125 71q133 119 242 367q4 14 -6 25q-37 33 -99 32q-76 0 -147 -82q-66 -74 -111 -167t-45 -175zM483 113q-4 123 201 374q86 106 206 191.5t181 85.5q47 0 82 -23q8 0 10 2q8 12 29 62q6 14 29 14q20 0 60 -9t50 -19.5t8 -20.5 q-182 -428 -211 -580q-16 -88 54 -88q162 0 282.5 134.5t120.5 330.5q0 248 -164 389.5t-422 141.5q-178 0 -323.5 -71t-233.5 -187.5t-135 -257t-47 -287.5q0 -119 37 -229.5t109.5 -203.5t196.5 -149.5t282 -56.5q268 0 452 160q10 10 21.5 10t13.5 -16q0 -31 -31 -62 q-86 -88 -229 -137t-281 -49q-139 0 -266 44t-233.5 130t-170 231.5t-63.5 327.5q0 201 84 372t216 279.5t288 169t305 60.5q326 0 507 -177.5t181 -429.5q0 -219 -173 -390t-425 -171q-68 0 -104.5 21.5t-38.5 46.5q0 25 10 55l58 148q4 10 -2.5 11t-14.5 -7 q-270 -274 -430 -275q-29 0 -52.5 34t-23.5 71z" />
<glyph unicode="A" horiz-adv-x="1341" d="M1286 1339q19 0 19 -24q0 -19 -11 -51q-43 -123 -67 -226q-102 -475 -158 -794q-9 -56 -9 -92q0 -34 8 -52q17 -35 95 -47q53 -8 54 -35q0 -25 -66 -24q-35 0 -87 3t-91 3q-53 0 -165 -7t-151 -7q-23 0 -40 6t-15 18q0 25 64 35q20 2 39.5 8t32 13.5t23.5 18.5t17 18.5 t13.5 20.5t9.5 18t6 18l4 12q41 135 78 320q8 29 -23 28q-147 0 -286 -20q-37 -6 -80 -54q-106 -111 -191 -243q-27 -44 -27 -76q0 -58 89 -78q37 -10 37 -31q0 -27 -56 -26q-41 0 -110.5 4t-120.5 4q-45 0 -117 -5t-76 -5q-68 0 -67 30q0 23 65 33q86 10 145.5 45 t121.5 105q272 301 753 897q72 84 88 117q16 25 29 24q123 6 180 74q20 24 43 24zM637 580q121 0 252 16q14 0 26 29q10 27 84 360q8 43 8.5 49t-3.5 15q-10 0 -46 -35q-119 -119 -327 -410q-2 -4 -3 -8q0 -3 2 -7q3 -9 7 -9z" />
<glyph unicode="B" horiz-adv-x="1249" d="M1214 1059q0 -250 -348 -338q-10 -2 -13 -12.5t9 -14.5q111 -41 185 -102q86 -78 86 -209q0 -106 -59.5 -189t-153.5 -131q-141 -74 -424 -73q-61 0 -140.5 5t-117.5 5q-6 0 -106.5 -4t-141.5 -4q-20 0 -39 7t-19 17q0 25 62 33q96 12 126 43t73 146q33 78 136 425 t130 457q10 30 10 54q0 10 -2 20q-6 31 -47 37q-6 0 -38 3t-50 5q-59 8 -60 31q0 27 60 26h231q6 0 49 4.5t103.5 8.5t107.5 4q195 0 277 -51q114 -78 114 -203zM981 1040q0 84 -58.5 148.5t-156.5 64.5q-33 0 -53 -61q-41 -135 -125 -436q-2 -8 5 -14.5t15 -6.5 q141 0 205 33q61 29 114.5 104.5t53.5 167.5zM879 395q0 59 -24 122t-58 93q-80 74 -211 74q-16 0 -29 -29q-23 -53 -71 -213.5t-64 -242.5q-3 -16 -3 -30q0 -43 27 -71q25 -25 63 -37t56 -12q45 0 111.5 34t116.5 91q86 108 86 221z" />
<glyph unicode="C" horiz-adv-x="1345" d="M156 479q0 164 74.5 331t203.5 290q119 113 282 172t324 59q172 0 291 -53q18 -8 37 -8l45 12q35 18 43 8q13 -13 13 -27q0 -10 -7 -22q-72 -102 -116 -264q-12 -39 -26.5 -39t-24 19.5t-7.5 39.5q4 28 5 53q0 78 -44 130q-35 45 -93 70.5t-99 25.5q-205 0 -400 -197 q-113 -113 -175 -288t-62 -334q0 -176 69 -277q104 -143 259 -143q43 0 116.5 30.5t124.5 67.5q129 106 178 168q25 25 35 25q12 0 12 -23q0 -16 -6 -43q-23 -68 -168 -272q-4 -6 -18 -12.5t-18 -2.5q-38 32 -82 32q-13 0 -27 -3q-6 -2 -56.5 -13t-97.5 -19.5t-88 -8.5 q-139 0 -269 63.5t-189 211.5q-39 87 -39 241z" />
<glyph unicode="D" horiz-adv-x="1509" d="M842 1309q262 0 426 -129q201 -156 200 -437q0 -205 -103 -368.5t-243 -247.5q-229 -139 -569 -139q-84 0 -184.5 6t-135.5 6q-47 0 -136 -4t-103 -4q-70 0 -72 28q0 27 64 33q90 10 133 44t78 151l260 864q11 37 11 63q0 53 -48 60q-70 8 -107 10q-57 0 -57 25 q0 31 66 30q18 0 87.5 -2t98.5 -2q23 0 147 6.5t187 6.5zM827 1249q-35 0 -59 -12q-27 -8 -37 -35q-35 -66 -170 -530q-109 -365 -115 -490q-1 -9 0 -18q0 -60 25 -74q74 -43 115 -43q158 0 325 115q129 86 212 256t83 364q0 117 -41 225.5t-106 159.5q-103 82 -232 82z" />
<glyph unicode="E" horiz-adv-x="1239" d="M594 686l192 6q92 2 127 23.5t84 87.5q29 37 47 37q14 0 14.5 -26t-11.5 -52q-47 -92 -89 -270q-4 -23 -15 -37.5t-19 -14.5q-27 0 -27 62q-2 59 -22.5 81.5t-61.5 22.5l-227 -6q-39 0 -51 -33q-29 -82 -82 -303q-14 -55 -14.5 -95t14.5 -65q18 -33 77 -38 q104 -12 230 -13q72 0 141 45q82 45 178 174q39 49 58 50q20 0 10 -54q-10 -49 -43 -120.5t-60 -106.5q-31 -35 -49 -41q-29 -12 -123 -12q-45 0 -307 6t-323 6q-63 0 -150.5 -5t-111.5 -5q-63 0 -64 28q0 27 61 33q109 12 147 46t62 120l267 868q12 42 12 71t-12 45 q-25 32 -127 48q-49 10 -49.5 33t71.5 23q18 0 108.5 -4.5t149.5 -4.5h193q375 0 454 21h3q8 0 12 -13q2 -8 2 -13.5t-2 -8.5q-53 -94 -80 -250q-4 -16 -18.5 -16t-30 18.5t-17.5 44.5q-6 119 -65 140q-39 14 -203 14q-41 0 -64.5 -8t-32.5 -17.5t-24 -33.5 q-51 -82 -153 -461q-2 -8 3 -17.5t11 -9.5z" />
<glyph unicode="F" horiz-adv-x="1122" d="M598 1296h215q381 0 447 23q3 1 6 1q6 0 10 -3q13 -13 13 -23q0 -6 -5 -12q-23 -33 -52.5 -111.5t-39.5 -130.5q-8 -47 -29 -47q-10 0 -21.5 18.5t-11.5 47.5q0 88 -37.5 132t-164.5 44q-135 0 -164 -4q-27 -2 -53 -64q-20 -45 -69.5 -214t-63.5 -230q-4 -25 18 -31 q29 -14 104 -14q100 0 152 8q74 14 123 88q29 43 47 43q12 0 15 -19.5t-7 -41.5q-43 -98 -86 -287q-8 -53 -35 -53q-25 0 -24 55q-2 72 -18.5 96.5t-51.5 26.5q-49 4 -108 4q-117 0 -142 -4q-27 -4 -39 -49q-47 -162 -77 -314q-9 -44 -9 -74q0 -40 15 -57q27 -31 133 -49 q39 -6 39 -26q0 -31 -68 -31q-47 0 -123 4t-114 4q-37 0 -150 -7t-178 -7q-18 0 -32.5 6t-19.5 12t-5 10q0 25 63 35q94 12 123 43t65 139q43 131 134.5 443.5t117.5 419.5q10 40 10 67q0 29 -11 44q-22 30 -115 42q-57 4 -62 31q0 10 19.5 18.5t46.5 8.5q33 0 121 -5.5 t149 -5.5z" />
<glyph unicode="G" horiz-adv-x="1447" d="M1085 1333q135 0 263 -33q7 -2 17 -1q27 0 73 12q41 8 43 8q6 0 12 -17q3 -9 3 -16.5t-3 -13.5q-41 -45 -79 -129t-50 -144q-10 -51 -25 -51q-39 0 -39 64q0 18 1.5 45.5t2.5 44t-2.5 36t-11.5 33.5q-23 45 -81 74t-130 29q-209 0 -411 -209q-113 -117 -178.5 -284 t-65.5 -326q0 -182 81 -306t257 -124q37 0 76 26q25 14 43 45q39 57 116 312q6 23 6 41q0 26 -12 43q-20 29 -117 38q-59 8 -59 35q0 10 20.5 18.5t45.5 8.5q39 0 111.5 -4t121.5 -4q59 0 140 10t108 10q55 0 55 -26q-2 -18 -53 -33q-41 -10 -64.5 -26.5t-31.5 -29 t-27 -49.5q-27 -59 -61 -178q-33 -123 -37 -176q0 -6 -24.5 -25.5t-43.5 -25.5q-12 -2 -88 -24.5t-144.5 -36t-133.5 -13.5q-281 0 -416 140.5t-135 375.5q0 141 64.5 302t183.5 284q259 270 679 270z" />
<glyph unicode="H" horiz-adv-x="1579" d="M305 1278q0 27 70 27q20 0 102 -4.5t137 -4.5q76 0 162 4.5t90 4.5q57 0 58 -27q-2 -27 -68 -35q-66 -10 -92.5 -32.5t-46.5 -69.5q-59 -129 -119 -357q-8 -28 -8 -44q0 -21 12 -25q29 -4 115 -4q80 -1 148 -1q202 0 288 9q29 2 43 47q55 147 102 344q7 29 8 51 q0 27 -11 44q-19 32 -91 42q-23 4 -36 13.5t-11 17.5q0 27 68 27q18 0 110 -4.5t138 -4.5q43 0 123.5 4.5t109.5 4.5q53 0 53 -25q-2 -27 -59 -35q-68 -10 -96.5 -36.5t-63.5 -104.5q-49 -113 -142 -442.5t-116 -440.5q-8 -42 -8 -72q0 -33 10 -50q18 -32 88 -44 q59 -14 60 -35q0 -29 -54 -28q-37 0 -146.5 4t-144.5 4q-47 0 -128.5 -4t-102.5 -4q-55 0 -55 28q0 25 61 33q66 8 94.5 32t55.5 81q14 33 40 118l56 188l39 130q0 4 -7 13.5t-14 9.5q-274 0 -553 -9q-23 0 -49 -67q-70 -190 -92 -338q-5 -31 -5 -55q0 -38 12 -57 q19 -32 102 -46q53 -10 53 -35q0 -10 -17.5 -19t-46.5 -9q-14 0 -114.5 5t-149.5 5q-57 0 -163.5 -5t-110.5 -5q-18 0 -36.5 9t-18.5 19q0 29 57 35q96 14 126 41t64 125q31 86 142.5 452.5t134.5 450.5q7 30 7 51q0 25 -10 37q-19 23 -100 35q-53 13 -53 33z" />
<glyph unicode="I" horiz-adv-x="737" d="M301 1274q0 25 57 24q31 0 86.5 -1t90.5 -1q61 0 177.5 5.5t139.5 5.5q55 0 55 -23q0 -29 -63 -39q-76 -14 -99.5 -38.5t-56.5 -104.5q-37 -88 -130 -432t-116 -453q-12 -53 -12 -85q0 -22 6 -35q14 -30 92 -44q53 -10 54 -30q0 -29 -60 -29q-35 0 -97.5 3t-82.5 3 q-66 0 -180.5 -7t-157.5 -7q-55 0 -55 24q0 27 55 35q49 6 78 15.5t51.5 40t29.5 47t32 79.5q29 74 120 397.5t119 446.5q14 63 14 98q0 20 -5 30q-13 28 -89 42q-51 8 -53 33z" />
<glyph unicode="J" horiz-adv-x="741" d="M-129 -418q-135 0 -170 43q-35 39 -35 103q0 41 14.5 63.5t32.5 22.5q35 0 133 -86q80 -68 121 -68q27 0 52.5 33t65.5 134t95 282q180 614 260 938q16 65 16 104q0 27 -7 43q-18 37 -105 49q-57 10 -57 39q0 20 59 21q31 0 119 -3.5t141 -3.5q66 0 149 4.5t107 4.5 q57 0 58 -27q2 -12 -14.5 -20.5t-41.5 -12.5q-55 -10 -81.5 -27.5t-38 -39t-37.5 -93.5q-18 -45 -59 -178l-77 -264l-69 -251q-33 -120 -35 -126q-41 -156 -88 -280q-49 -133 -148.5 -230.5t-192.5 -135.5t-167 -38z" />
<glyph unicode="K" horiz-adv-x="1394" d="M311 1278q0 25 60 25q35 0 116.5 -3.5t133.5 -3.5q45 0 127.5 6.5t113.5 6.5q53 0 53 -25q0 -29 -61 -37q-68 -10 -101.5 -39.5t-56.5 -93.5q-33 -94 -118 -389q-10 -27 16 -27q53 0 106 25q127 66 496 420q33 33 33 56q0 29 -53 42q-49 10 -50 33q0 25 60 24 q12 0 35.5 -2t44.5 -2q72 0 188.5 7.5t136.5 7.5q51 0 51 -23q0 -25 -55 -35q-74 -12 -141.5 -42.5t-100.5 -54.5l-114 -83q-283 -221 -375 -313q-16 -16 -16 -29q0 -33 28 -113q119 -328 213 -460q31 -39 47.5 -56.5t57.5 -36t94 -18.5q55 0 55 -29q0 -31 -80 -30 q-37 0 -146.5 4t-141.5 4q-45 0 -64 14q-61 43 -110 160l-156 399q-29 76 -62 76q-14 0 -18 -5t-12 -28q-74 -223 -115 -399q-9 -36 -8 -62q0 -31 11 -49q22 -33 91 -49q37 -8 47.5 -15t10.5 -22q0 -25 -52 -24q-45 0 -139 5t-124.5 5t-134 -5t-120.5 -5q-66 0 -61 24 q0 25 59 37q78 14 110 43t60 99q35 88 128 403t134 471q20 70 20 106q0 15 -3 25q-12 31 -90 45q-25 4 -42.5 14.5t-15.5 20.5z" />
<glyph unicode="L" horiz-adv-x="1259" d="M610 53q227 0 312 29q53 18 113.5 75.5t103.5 141.5q29 53 51 53q13 -4 13 -28q0 -28 -11 -60q-12 -35 -60 -130l-53 -103q-20 -35 -49 -39q-33 -8 -207 -8q-53 0 -284.5 8t-302.5 8q-45 0 -141.5 -7t-114.5 -7q-66 0 -66 26q0 23 63 33q88 12 130.5 41t70.5 102 q57 145 285 861q25 94 25 133q0 13 -3 20q-10 31 -82 43q-57 12 -57 37q4 23 62 23q20 0 113 -4.5t126 -4.5q20 0 132 5.5t147 5.5q55 0 55 -29q0 -23 -57 -31q-94 -12 -131 -49t-76 -135q-43 -109 -144.5 -413t-136.5 -433q-8 -32 -8 -57q0 -55 37 -82q39 -25 145 -25z" />
<glyph unicode="M" horiz-adv-x="1785" d="M293 1276q0 29 74 29q8 0 109.5 -5.5t156.5 -5.5q18 0 50 2t34 2q31 0 39 -51q14 -125 88 -534q41 -225 57 -262q6 -10 13.5 -9.5t13.5 9.5q266 381 411 550q102 125 172 261q20 35 50 34q31 0 165 5.5t168 5.5q57 0 58 -25q0 -27 -78 -37q-41 -6 -70.5 -19.5t-47 -38 t-25 -41t-17.5 -46.5q-63 -182 -127.5 -446.5t-89.5 -426.5q-6 -39 -6 -68q0 -39 11 -59q19 -35 93 -49q59 -12 60 -39q0 -23 -58 -22q-16 0 -146 5t-179 5q-39 0 -101.5 -5t-93.5 -5q-61 0 -61 24q0 27 61 37q61 12 92 45t52 94q86 264 243 834q6 18 -6 18q-10 0 -22 -12 q-57 -59 -205 -263t-234 -335q-55 -84 -121.5 -201.5t-80.5 -140.5q-45 -74 -74 -74q-35 0 -39 72q-4 141 -31 326q-57 487 -86 553q-12 25 -26 -2q-29 -43 -125.5 -299t-120.5 -357q-21 -83 -22 -135q0 -28 7 -48q17 -56 99 -71q57 -10 57 -35q0 -27 -63 -26q-16 0 -67.5 3 t-100.5 3q-55 0 -139 -6t-123 -6q-25 0 -39.5 9t-14.5 17q0 25 60 33q94 12 137 47t72 107q37 86 172 425l164 416q21 56 21 97q0 75 -75 92q-37 10 -86 16q-59 11 -59 29z" />
<glyph unicode="N" horiz-adv-x="1505" d="M252 1280q0 25 61 25q27 0 119 -4.5t139 -4.5q6 0 61.5 2t63.5 2q10 2 20.5 -15t22.5 -52q41 -115 190.5 -490.5t178.5 -439.5q4 -8 12 -10t13 6q164 477 225 766q10 44 10 75q0 34 -12 54q-23 37 -119 53q-59 8 -59 33q0 23 57 23q31 0 85 -3.5t81 -3.5q49 0 141 4.5 t109 4.5h7q48 0 48 -25q4 -20 -61 -33q-74 -12 -112 -52t-79 -148q-109 -289 -260 -797q-16 -61 -16 -80q0 -45 17 -69.5t71 -51.5q27 -12 26 -31q0 -8 -17.5 -17t-27.5 -9q-106 8 -139 8q-78 0 -115 -6q-35 0 -45 33q-16 63 -65 188q-104 299 -262 705q-47 125 -62 147 q-18 27 -33 -12q-41 -100 -120.5 -383t-98.5 -383q-11 -74 -11 -121q0 -39 8 -58q17 -42 99 -59q66 -12 66 -35q0 -27 -66 -26q-23 0 -89 5t-109 5t-120 -6t-103 -6q-68 0 -68 26q0 23 57 33q94 14 136.5 44t70.5 114q215 631 277 860q13 51 12 81q0 14 -2 23q-10 47 -62 62 q-14 4 -100 18q-51 8 -51 31z" />
<glyph unicode="O" horiz-adv-x="1427" d="M956 1335q199 0 325 -140t126 -364q0 -215 -119 -438t-303 -332q-170 -102 -362 -102q-215 0 -338 123q-139 135 -140 369q0 182 100.5 395t270.5 344q82 66 200.5 105.5t239.5 39.5zM956 1278q-125 0 -254 -129q-137 -133 -222 -370.5t-85 -454.5q0 -131 56.5 -217.5 t173.5 -86.5q123 0 245 130q102 106 196.5 340.5t94.5 443.5q0 154 -50.5 249t-154.5 95z" />
<glyph unicode="P" horiz-adv-x="1208" d="M778 1311q233 0 340 -72q131 -88 131 -256q0 -152 -93 -257t-195 -146q-113 -43 -244 -43q-74 0 -74 34q0 18 39 27q82 18 119 37q90 45 149.5 155.5t59.5 196.5q0 186 -101 236q-66 29 -133 28q-10 0 -24.5 -11t-20.5 -28q-51 -119 -143 -434t-146 -538q-14 -55 -15 -89 t15.5 -54.5t37 -29t65.5 -18.5q53 -12 53 -35q0 -25 -61 -24q-12 0 -90 5t-146 5q-43 0 -155.5 -5t-153.5 -5q-53 0 -53 22q0 27 61 39q88 14 121 43t59 111l277 899q14 35 14 61q0 19 -8 33q-18 33 -96 41q-80 6 -80 37q-4 20 51 20h113q272 15 327 15z" />
<glyph unicode="Q" horiz-adv-x="1417" d="M956 1333q115 0 204 -44t141.5 -115.5t78 -151.5t25.5 -162q0 -244 -124 -448.5t-312 -321.5q-41 -27 -87 -50.5t-80 -38.5t-91 -37l-85 -32q-28 -10 -101.5 -34.5l-102.5 -34.5q-18 -6 -21 -13l9 -4q61 0 119.5 -8t95.5 -16t90 -31.5t67 -32.5l70 -40q55 -32 57 -33 q137 -78 224.5 -115t160.5 -37q106 0 169 16.5t120 63.5q14 14 27.5 19.5t20.5 0t7 -13.5q0 -27 -28 -63q-70 -88 -181.5 -138.5t-234.5 -50.5q-94 0 -193.5 35t-160 69.5t-162.5 100.5q-135 90 -221 129t-187 39q-129 0 -247 -57q-8 -4 -16.5 -5.5t-15.5 4t-7 13.5 q-2 6 3 17.5t21.5 26.5t40.5 28q88 45 459 198q18 6 -6 17q-47 12 -100.5 42.5t-114 84t-100.5 144.5t-40 202q0 258 129.5 461.5t290.5 302.5q186 114 389 114zM950 1272q-139 0 -243 -107q-131 -129 -220.5 -356t-89.5 -432q0 -172 57.5 -266.5t153.5 -94.5q47 0 140 68 q174 131 291.5 378t117.5 484q0 43 -8 91t-28.5 104.5t-65 93.5t-105.5 37z" />
<glyph unicode="R" horiz-adv-x="1292" d="M1245 1040q0 -178 -176 -292q-43 -27 -154 -62q-20 -4 -16 -33q78 -350 129 -450q41 -84 82 -117t123 -41q49 -6 49 -31q0 -23 -55 -28q-2 0 -13 -1q-40 0 -202 7q-106 2 -147.5 35.5t-80.5 162.5q-35 106 -90 336q-10 31 -33.5 65t-46.5 34q-16 0 -31.5 -1t-23.5 -1 q-23 0 -37 -43q-39 -100 -90 -340q-11 -55 -11 -91q0 -32 9 -49q18 -35 102 -51q49 -12 50 -33q0 -27 -62 -26q-53 0 -152.5 5t-152.5 5q-31 0 -96.5 -4t-98.5 -4q-66 0 -65 24q0 29 68 37q49 6 79.5 24.5t39 32t16.5 37.5q33 78 156.5 477.5t140.5 475.5q14 41 14 68 q0 20 -7 33q-17 32 -114 38q-68 4 -67 31q0 25 57 24q90 0 221 4q29 0 131.5 7.5t134.5 7.5q231 0 320 -68q100 -78 100 -205zM1001 1009.5q0 104.5 -60 173t-169 68.5q-10 0 -27.5 -14t-23.5 -27q-1 -2 -15.5 -29l-30.5 -59.5t-37 -83.5t-37 -102t-27 -113.5t-11 -119.5 q0 -8 6 -16q8 -9 19 -9q109 0 182 24q102 37 166.5 120t64.5 187.5z" />
<glyph unicode="S" horiz-adv-x="1013" d="M719 1333q106 0 229 -41q45 -16 72 -16q16 0 30.5 2t18.5 2q6 2 12 -10q4 -7 4 -14q0 -4 -2 -7q-31 -51 -58.5 -132t-37.5 -140q-4 -43 -22 -43q-12 0 -25.5 17.5t-11.5 43.5q2 25 1 47q0 88 -26 129q-66 109 -184 109q-92 0 -149.5 -68.5t-57.5 -152.5q0 -102 78 -199 q8 -10 48 -55l86 -100l83 -103q66 -82 86 -139t20 -129q0 -90 -51 -173t-131 -128q-127 -72 -307 -72q-127 0 -266 64q-11 4 -26 4q-29 0 -71 -17q-23 -8 -43 11q-8 8 -7 16q0 8 5 16q31 55 113 303q18 53 51 54q14 0 14 -34q0 -11 -1 -26q-4 -33 -4 -63q0 -38 6 -72 q10 -61 28 -84q94 -113 223 -113q106 0 172 66q61 53 62 154q0 68 -45 143.5t-156 202.5q-184 209 -184 379q0 154 115 260q116 108 309 108z" />
<glyph unicode="T" horiz-adv-x="1337" d="M723 1296h508q178 0 219 17q29 14 39 14q8 0 16 -14q4 -6 4 -13q0 -8 -6 -18q-82 -137 -104 -256q-4 -41 -25 -41q-33 0 -33 55q1 42 2 74q0 16 -1 29q-1 39 -19 58.5t-68 27.5q-54 7 -114 7q-50 0 -105 -5q-6 0 -19 -10.5t-16 -18.5q-27 -59 -140 -451.5t-138 -510.5 q-11 -50 -11 -84.5t11 -52.5q23 -36 119 -50q53 -8 53 -33q0 -29 -61 -28q-10 0 -95.5 4t-142.5 4q-76 0 -205 -5t-149 -5q-63 0 -64 24q0 12 17.5 21.5t37.5 11.5q117 16 157 50t81 149q152 449 289 956q4 23 -17 27q-44 4 -91 4q-66 0 -140 -8q-57 -8 -117.5 -54.5 t-105.5 -115.5q-31 -47 -64 -47q-18 0 -8 39q2 4 47 99t66 169q2 6 17 16t23.5 10t14.5 -12q10 -25 92 -31q53 -2 246 -2z" />
<glyph unicode="U" horiz-adv-x="1476" d="M258 1278q0 25 61 25q35 0 135.5 -3.5t129.5 -3.5q23 0 110.5 4.5t120.5 4.5q51 0 51 -23q0 -20 -57 -35q-61 -12 -85 -30.5t-46 -77.5q-47 -123 -174 -588q-40 -143 -40 -236q0 -74 25 -116q31 -51 106 -86t155 -35q150 0 236.5 65.5t135.5 192.5q45 111 125 361.5 t99 342.5q14 74 14 115q0 31 -8 43q-18 29 -119 45q-55 10 -55 33q0 25 53 24q31 0 110.5 -2t108.5 -2q41 0 103.5 4.5t82.5 4.5q55 0 56 -25q4 -20 -60 -35q-76 -14 -106.5 -51t-81.5 -164q-72 -193 -217 -614q-76 -219 -150 -293q-90 -94 -192.5 -127t-235.5 -33 q-106 0 -213.5 43t-163.5 144q-46 83 -45 176q0 41 9 84q41 197 165 624q24 80 25 124q0 19 -5 32q-15 41 -104 55q-59 13 -59 33z" />
<glyph unicode="V" horiz-adv-x="1280" d="M215 1278q0 8 17.5 15t41.5 7q14 0 94.5 -2t123.5 -2q49 0 157.5 5.5t114.5 5.5q55 0 55 -25q0 -23 -53 -35q-82 -12 -107.5 -40.5t-48.5 -108.5q-20 -76 -64 -370t-46 -359q0 -27 22 -9q119 119 349.5 380t283.5 341q37 53 48 86t-2 51.5t-54 24.5q-51 10 -51 35 q0 23 63 22q4 0 54.5 -2t99.5 -2q41 0 114.5 3.5t100.5 3.5q49 0 49 -23q0 -25 -59 -35q-74 -14 -137.5 -56t-147.5 -134l-347 -387l-421 -478l-156 -188q-37 -47 -61 -47q-16 0 -30 22q-9 15 -9 35q0 9 2 19q4 16 13 64l21 106l21 112q8 47 109 752q5 42 5 73q0 41 -9 60 q-16 35 -99 47q-57 6 -57 33z" />
<glyph unicode="W" horiz-adv-x="1912" d="M205 1278q0 25 63 25q35 0 106.5 -3.5t106.5 -3.5t117 4.5t119 4.5q61 0 61 -23q0 -25 -45 -35q-57 -10 -80.5 -29.5t-40.5 -74.5q-25 -86 -71.5 -381t-51.5 -365q-2 -8 7 -8q10 0 20 12l311 379q162 205 203 291q16 27 17 47q4 33 3 58.5t-22.5 43t-64.5 23.5 q-23 4 -40.5 12.5t-15.5 20.5q0 25 60 24q35 0 108.5 -2t106.5 -2q37 0 135 5.5t108 5.5q53 0 54 -23q0 -27 -56 -37q-76 -16 -100.5 -34.5t-36.5 -73.5q-18 -86 -45 -399q-22 -254 -22 -332q0 -18 2 -27q6 -25 22 -8q70 66 282 334t265 356q45 74 50 110.5t-15.5 49 t-75.5 20.5q-57 8 -53 29q0 29 61 28q8 0 80 -2t117 -2t112.5 4.5t83.5 4.5q55 0 56 -21q-2 -29 -64 -39q-51 -8 -99 -38.5t-71.5 -54.5t-73.5 -81q-10 -12 -16 -18l-292 -362l-312 -382q-12 -14 -219 -291q-45 -53 -74 -53q-14 0 -21.5 17.5t-5.5 31.5q23 180 37 320 q35 391 43 584q2 12 -10 12t-20 -12q-119 -166 -523 -660q-53 -68 -109.5 -148.5t-70.5 -95.5q-18 -23 -47 -40t-43 -17q-12 0 -19 15q-5 10 -5 22q0 7 2 14q23 86 65 332q41 229 104 721q6 44 7 75q0 42 -12 61q-19 32 -97 46q-55 10 -55 35z" />
<glyph unicode="X" horiz-adv-x="1310" d="M258 1278q0 25 70 25q16 0 105 -3.5t132 -3.5q70 0 141.5 3.5t77.5 3.5q51 0 51.5 -25t-59.5 -33q-49 -8 -62 -27q-9 -13 -9 -39q0 -12 2 -26q8 -63 40.5 -183t55.5 -171q8 -10 16 -2q61 59 166 178t131 164q22 27 22 47q0 6 -1 11q-8 24 -25.5 33t-54.5 19q-35 8 -35 29 q0 23 63 22q16 0 76 -3t78 -3q43 0 129 5.5t102 5.5q59 0 60 -25q4 -23 -51 -31q-86 -10 -151.5 -47t-147.5 -115l-336 -346q-16 -20 -10 -41q23 -98 77 -269t88 -253q27 -59 63 -90t107 -39q61 -8 62 -33q0 -27 -62 -26q-10 0 -130.5 5t-172.5 5q-47 0 -110.5 -6t-77.5 -6 q-59 0 -60 28q0 16 48 29q90 25 90 84q-6 57 -48 210t-63 212q-4 16 -16 6q-59 -59 -145.5 -165.5t-129.5 -180.5q-35 -57 -35 -94q0 -51 66 -64q49 -10 49 -30q-2 -10 -17.5 -19.5t-35.5 -9.5q-37 0 -95.5 3t-95.5 3q-61 0 -144 -6t-97 -6q-70 0 -70 28q4 23 51 29 q96 12 169 50t167 141l338 385q14 18 8 43q-92 319 -127 409q-39 104 -63 131q-33 33 -100 41q-64 8 -64 33z" />
<glyph unicode="Y" horiz-adv-x="1263" d="M219 1278q4 25 70 25q23 0 108.5 -3.5t126.5 -3.5q57 0 132 4.5t87 4.5q55 0 56 -23q0 -25 -56 -35q-47 -10 -68.5 -24.5t-21.5 -34t4 -45.5q12 -74 49 -226.5t56 -195.5q10 -12 16 -2q66 70 183.5 213t156.5 205q19 39 19 61q0 12 -5 20q-15 22 -73 31q-37 8 -37 31 t65 23q8 0 69 -3.5t101 -3.5q27 0 107 4.5t92 4.5q55 0 55 -25q0 -18 -67 -35q-53 -10 -95 -32.5t-68 -44t-93 -85.5q-166 -158 -383 -428q-35 -41 -55 -114q-96 -330 -105 -379q-1 -8 -1 -15q0 -81 108 -96q59 -8 59 -33q0 -29 -70 -28q-16 0 -104 5t-139 5q-74 0 -168 -6 t-127 -6q-61 0 -62 26q0 20 60 33q100 14 145 49t78 135l82 246q34 102 34 167q0 13 -1 24q-16 129 -101 391q-35 113 -66.5 145.5t-107.5 44.5q-45 9 -45 29z" />
<glyph unicode="Z" horiz-adv-x="1335" d="M733 1296q90 0 239.5 2t273.5 4.5t136 2.5q37 0 37 -15q0 -27 -37 -59q-57 -45 -231 -240l-410 -462q-291 -333 -368 -429q-6 -8 -3 -20t13 -14q100 -6 360 -7q141 0 232 41q57 27 123.5 87.5t105.5 123.5q43 63 58 64q12 0 15 -22.5t-3 -41.5q-12 -37 -103 -217 q-37 -66 -69 -90q-16 -14 -238 -14q-66 0 -350.5 5t-316.5 5q-35 0 -112 -5t-93 -5q-8 0 -14 9q-3 5 -2 12q0 5 1 12q4 14 15 24q209 193 585.5 618t460.5 539q6 6 6 17.5t-8 11.5q-258 0 -350 -4q-178 -8 -240 -70q-72 -70 -127 -178q-16 -35 -32 -35q-21 0 -21 35 q0 12 2 29q4 33 101 254q4 10 19 26.5t24 16.5q6 0 34.5 -5.5t42.5 -5.5h244z" />
<glyph unicode="[" horiz-adv-x="778" d="M614 1440q70 0 176.5 1t112.5 1q51 0 51 -27q0 -31 -65 -41q-4 0 -79 -6t-97 -8q-10 0 -17.5 -3t-13.5 -12.5t-8 -14.5t-8 -23q-55 -160 -203 -660l-223 -819q-29 -102 10 -107q16 -2 93 -6t79 -4q20 0 38.5 -8t14.5 -27q-6 -23 -69 -32q-33 -4 -173 -4q-117 0 -165 4 q-10 0 -18.5 18.5t-4.5 32.5l352 1220l73 254l50 170q14 47 17 58q8 27 26 37q8 6 51 6z" />
<glyph unicode="\" horiz-adv-x="790" d="M582 -98q0 -2 -6.5 -10.5t-20.5 -15.5t-31 -7h-16q-20 0 -21 22q-88 780 -145 1428q0 2 9 10t14 8l49 4q14 2 24 -14q25 -276 144 -1425z" />
<glyph unicode="]" horiz-adv-x="778" d="M205 -358q-68 0 -175.5 -1t-111.5 -1q-51 0 -51 26q0 29 65 39q23 4 177 12q14 0 23 9.5t12 16.5t12 30q72 211 200 661l226 819q27 100 -11 105q-14 2 -83.5 6t-81.5 4q-23 0 -43.5 9t-16.5 26q6 23 74 35q33 4 168 4q117 0 166 -4q10 0 18 -18.5t4 -33.5l-352 -1222 l-74 -253l-50 -170q-13 -46 -15 -56q-8 -27 -27 -37q-8 -6 -53 -6z" />
<glyph unicode="^" horiz-adv-x="993" d="M559 1282q27 0 72 -86l309 -612q14 -29 4 -39q-20 -23 -57 -39.5t-51 0.5l-273 575q-10 23 -22 4l-283 -589q-6 -4 -22.5 -2t-44 14t-44.5 27q-8 12 -7 17t12 23l313 623q43 84 94 84z" />
<glyph unicode="_" horiz-adv-x="1013" d="M-123 -254h1014v-100h-1014v100z" />
<glyph unicode="`" horiz-adv-x="819" d="M596 1348q25 0 39 -86q8 -49 15 -166t9 -129q2 -23 -8 -42.5t-20 -19.5q-12 0 -23.5 13.5t-15.5 25.5q-51 119 -88 258q-12 39 -6 62q12 29 42.5 56.5t55.5 27.5z" />
<glyph unicode="a" horiz-adv-x="958" d="M612 803q8 0 39 -12.5t49 -30.5q2 -4 10.5 -1t10.5 9q25 41 35 59.5t39 18.5q45 0 110 -37q4 -2 5 -15.5t-3 -23.5q-195 -504 -219 -582q-8 -27 3 -39t30 -12q66 0 168 115q12 12 21.5 9t9.5 -17q0 -27 -19 -56q-66 -111 -160 -166t-168 -55q-43 0 -70.5 22.5t-29.5 57.5 q0 16 72 201q8 16 -2 22q-6 4 -13 -2q-123 -137 -241.5 -219t-196.5 -82q-33 0 -70.5 26.5t-37.5 61.5q0 76 82 215q90 147 229 294t242 208q50 31 75 31zM578 670q-119 0 -209 -119q-55 -70 -99.5 -170t-44.5 -176q0 -35 13.5 -54.5t29.5 -19.5q59 0 170 129 q121 133 205 322q10 21 10 36q0 9 -4 15q-36 37 -71 37z" />
<glyph unicode="b" horiz-adv-x="991" d="M776 834q76 0 123 -52.5t47 -128.5q0 -156 -118.5 -335t-280.5 -273q-135 -78 -252 -78q-92 0 -155.5 55.5t-63.5 163.5q0 68 88 340q29 94 237 699q16 31 9 54.5t-16 32.5t-42 29q-27 14 -26 31q0 23 51 35q20 6 145 22.5t152 16.5q8 0 12 -11.5t0 -21.5 q-35 -68 -150.5 -374t-175.5 -480q-2 -6 6.5 -8t10.5 4q90 119 199.5 199t199.5 80zM686 735q-113 0 -287 -270q-63 -106 -100 -205.5t-37 -140.5q0 -27 20.5 -56.5t45.5 -29.5q49 0 125 76q98 100 192 284.5t94 280.5q0 25 -14 43t-39 18z" />
<glyph unicode="c" horiz-adv-x="702" d="M596 836q57 0 94 -21q37 -14 37 -47q0 -51 -31.5 -95t-56.5 -44q-23 0 -37 22q-2 6 -8 18.5t-9 17.5t-8.5 16.5t-8.5 16.5t-9 13t-10 12.5t-10.5 9.5t-11.5 7t-12 4t-15 2q-57 0 -127 -141q-102 -190 -103 -365q0 -143 92 -143q100 0 211 104q4 4 10.5 7t11.5 4.5t9 0 t6 -4.5t2 -7q0 -31 -26 -65q-147 -180 -342 -181q-96 0 -142.5 71t-46.5 153q0 66 25.5 159t62.5 158q57 106 124 175t159 108q76 35 170 35z" />
<glyph unicode="d" horiz-adv-x="1038" d="M25 125q0 135 116.5 346t309.5 315q84 49 165 50q27 0 64 -17.5t59 -40.5q14 -4 19 10q4 16 29 99l54 175q28 93 48 169q9 37 9 56q0 6 -1 10q-4 17 -27 28q-70 33 -69 45q0 23 30 35q29 8 144 24.5t149 16.5q19 0 19 -31q0 -25 -13 -72l-194 -606l-58 -191l-62 -204 q-26 -84 -42 -143q-6 -25 4 -39.5t29 -14.5q57 0 158 121q16 18 22 8q6 -6 4 -32q-10 -76 -128 -176.5t-220 -100.5q-29 0 -55.5 33t-26.5 57q0 39 70 254q4 8 -4.5 12.5t-14.5 -4.5q-238 -348 -462 -348q-51 0 -89 33q-36 39 -36 123zM244 168q0 -63 39 -64 q45 0 116.5 58.5t145.5 152.5q90 127 143 279q18 47 18 81q0 20 -6 36q-27 53 -53 53q-61 0 -182 -137q-84 -100 -152.5 -239.5t-68.5 -219.5z" />
<glyph unicode="e" horiz-adv-x="768" d="M590 834q90 0 132 -44.5t42 -97.5q0 -129 -184 -217q-90 -43 -265 -86q-18 -4 -28 -33q-18 -55 -19 -123q0 -57 29 -88.5t68 -31.5q98 0 217 102q39 31 49 31q14 0 14 -15q0 -31 -27 -61q-68 -84 -170 -141.5t-208 -57.5q-59 0 -124 67.5t-65 170.5q0 104 61.5 237.5 t147.5 223.5q76 76 166 120t164 44zM565 776q-66 0 -140 -98q-108 -142 -108 -219q0 -5 1 -8q2 -5 8 -5h4q125 43 198.5 126t73.5 147q0 57 -37 57z" />
<glyph unicode="f" horiz-adv-x="559" d="M500 807l174 6q16 0 16 -20q0 -12 -15.5 -34t-33.5 -22q-23 0 -79 -3t-87 -3q-10 0 -24 -22q-113 -371 -244 -863q-27 -92 -74 -160.5t-82 -97t-96 -69.5q-123 -76 -223 -76q-80 0 -123 32.5t-43 75.5q0 27 31.5 63t60.5 46q35 12 47 -4q84 -119 148 -119q74 0 141 266 q197 719 254 908q2 4 -4 10t-15 6l-114 -4q-18 0 -19 25q2 18 15.5 34.5t29.5 16.5q18 0 65.5 2t61.5 2q6 0 15 14q55 166 144 318.5t177 214.5q129 96 242 96q86 0 128 -40t42 -95q-2 -66 -44 -106t-85 -40q-10 0 -17.5 9.5t-7.5 19.5q0 6 1 23.5t1 21.5v14q0 129 -73 129 q-72 0 -148 -141q-88 -166 -154 -414q-2 -6 2.5 -13t8.5 -7z" />
<glyph unicode="g" horiz-adv-x="847" d="M557 840q70 0 141 -41q11 -6 29 -6t43 6q123 25 129 24q61 0 62 -63q-2 -70 -62 -70q-31 0 -68.5 12.5t-56.5 12.5q-12 0 -16 -9.5t-2 -15.5q8 -39 8 -63q-2 -125 -90 -248t-189 -172q-74 -39 -198 -43q-4 0 -13 -8q-6 -12 -6 -29q0 -39 66 -80q31 -20 133 -79.5 t129 -80.5q115 -84 115 -174q0 -39 -32 -83t-79 -74q-172 -111 -395 -111q-162 0 -271 66q-53 31 -83.5 72.5t-30.5 80.5q0 76 119 150q51 35 202 96q12 8 6 14q-2 6 -15 23.5t-20.5 33t-7.5 31.5q0 33 25 62q14 14 46 41.5t42 40.5q2 4 2 8t-1 7t-3 3q-61 23 -98 74 t-37 108q2 125 73.5 232.5t161.5 173.5q107 78 242 78zM541 780q-35 0 -76 -39q-80 -74 -150.5 -223t-70.5 -223q0 -31 15 -53.5t44 -22.5q23 0 70 41q66 55 140.5 199.5t76.5 245.5q0 33 -14.5 54t-34.5 21zM322 -479q80 0 139 33.5t59 80.5q0 45 -49 84q-72 59 -250 148 q-6 4 -24.5 4t-26.5 -2q-55 -20 -110.5 -74.5t-55.5 -101.5q0 -53 47 -92q105 -80 271 -80z" />
<glyph unicode="h" horiz-adv-x="1046" d="M979 690q0 -141 -66.5 -307t-134.5 -246q-14 -18 -40.5 -38.5t-48 -35t-51.5 -32t-38 -23.5q-72 -49 -121 -49q-53 0 -71 18q-23 23 -23 54q0 10 23.5 40.5t35.5 43.5q2 4 17 4q76 -47 106 -47q16 0 33 28q53 90 104.5 266.5t51.5 260.5q0 88 -49 88q-43 0 -97.5 -50.5 t-156.5 -187.5q-104 -141 -269 -444q-14 -27 -37.5 -43.5t-37.5 -16.5q-37 0 -64 31q-23 27 -23 44q0 28 12.5 71.5t39.5 119.5t42 122l150 479l121 383q10 28 10 47q0 12 -4 22q-10 25 -61 37q-45 12 -45 31q0 23 43 37q47 12 163.5 30.5t147.5 18.5q10 0 15.5 -16.5 t0.5 -30.5l-117 -351l-128 -372l-58 -168q-4 -10 5.5 -12t13.5 4q121 154 268 260q102 74 205 74q68 0 100.5 -50.5t32.5 -93.5z" />
<glyph unicode="i" horiz-adv-x="573" d="M461 829q14 0 31.5 -22.5t17.5 -36.5q0 -20 -23 -72l-206 -520q-4 -14 3 -22.5t19 -8.5q18 0 66.5 32t97.5 77q31 29 43 29q14 0 14 -15q0 -33 -37 -73q-70 -86 -191.5 -160t-186.5 -74q-25 0 -52.5 20.5t-27.5 39.5q0 14 8 34l231 559q4 14 0 25.5t-16 9.5 q-61 -8 -135 -67q-8 -6 -18.5 -1t-10.5 13q0 20 25 51q45 47 159.5 114.5t188.5 67.5zM487 1255q47 0 73 -30.5t26 -75.5q0 -47 -40 -91t-87 -44q-29 0 -45 12q-49 35 -49 94q0 66 59 113q34 22 63 22z" />
<glyph unicode="j" horiz-adv-x="524" d="M465 1268q49 0 74.5 -32t25.5 -81q0 -53 -41 -95t-84 -42q-41 0 -68.5 29.5t-27.5 74.5q0 78 66 125q32 21 55 21zM446 838q16 0 32 -35q11 -25 11 -46q0 -8 -2 -16q-41 -150 -147.5 -481.5t-157.5 -443.5q-96 -213 -307 -328q-90 -45 -151 -45q-63 0 -97.5 27.5 t-34.5 56.5q0 23 21.5 56.5t40.5 45.5q33 20 59 4q12 -10 40 -36.5t49.5 -42t41.5 -15.5q47 0 97 115q47 121 169.5 517t139.5 462q8 33 -17 33q-14 0 -58 -25t-81 -53q-41 -29 -41 2q0 33 27 59q70 68 177 128.5t189 60.5z" />
<glyph unicode="k" horiz-adv-x="952" d="M819 834q53 0 85 -26t32 -60q0 -39 -40 -104.5t-112 -115.5q-74 -51 -202 -102q-16 -4 -13 -23q25 -127 62 -206q18 -41 31.5 -54.5t31.5 -13.5q61 0 142 94q25 31 35 31t12 -13.5t-4.5 -35t-18.5 -39.5q-59 -84 -135 -141.5t-123 -57.5q-37 0 -73.5 38t-59.5 93 q-33 88 -68 195q-27 72 -59 72q-23 0 -49 -58q-39 -96 -137 -307q-16 -27 -58 -27q-35 0 -63.5 23.5t-28.5 42t17 59.5q27 70 380 1143q12 33 4 49.5t-53 34.5q-35 14 -35 25q0 18 31 34q23 12 142.5 34t156.5 22q12 0 15.5 -22.5t-2.5 -41.5l-58 -149l-126 -334l-120 -328 q-4 -10 -1 -17t11.5 -7t12.5 8q113 164 260 242q86 43 178 43zM672 719q-43 0 -101 -37q-104 -66 -180 -231q-3 -8 -2 -14q0 -17 23 -17q102 4 211.5 87t109.5 171q0 41 -61 41z" />
<glyph unicode="l" horiz-adv-x="542" d="M326 1358q0 8 13 19.5t30 13.5q4 0 57 9l109 18q55 9 79 16q49 12 60 12q17 0 17 -30q0 -17 -7 -34l-446 -1239q-9 -28 -9 -45q0 -26 21 -26q18 0 63 37.5t100 92.5l64 64q10 6 18.5 3t8.5 -11q0 -31 -17 -63q-53 -100 -157.5 -164t-198.5 -64q-41 0 -74.5 31t-33.5 59 q0 27 59 199l340 969q15 42 15 63q0 8 -3 12q-8 16 -61 29q-47 13 -47 29z" />
<glyph unicode="m" horiz-adv-x="1558" d="M395 834q49 0 80 -23q16 -13 17 -39q0 -16 -7 -39q-2 -4 -22 -52l-43 -99l-33 -74q-10 -23 6 -21q10 0 27 19q6 6 50 59t66.5 78t61.5 63.5t70 61.5q90 66 186 66q47 0 83 -36t36 -77q-2 -63 -60 -191q-6 -14 0.5 -17t16.5 7q139 168 198 221q113 92 211 93 q68 0 97.5 -41t29.5 -93q0 -76 -28 -129q-12 -23 -185 -381q-4 -10 0 -17t11 -7q25 2 92 42t127 91q10 8 21.5 7t11.5 -11q0 -51 -78 -121q-74 -74 -189.5 -140.5t-185.5 -66.5q-47 0 -76 39q-12 16 0 43q4 12 66 140l129 270l78 162q19 43 19 70q0 8 -2 16q-7 31 -34 30 q-86 0 -274 -278q-84 -125 -250 -410q-20 -33 -66.5 -57.5t-68.5 -24.5q-16 0 -35 11.5t-25 28t8 52.5l90 211l114 267q50 117 52 131q8 31 -2 50t-30 19q-115 0 -359 -401q-109 -184 -198 -305q-49 -63 -68 -64q-35 0 -61.5 20.5t-28.5 39.5q0 43 18 79q27 55 114 256 l130 293q8 18 8 30q0 21 -26 22q-45 0 -158 -101q-25 -20 -35 -20q-25 0 -12 49q20 76 101 137.5t214 61.5z" />
<glyph unicode="n" horiz-adv-x="1071" d="M836 831q63 0 100 -39.5t37 -91.5q0 -57 -29 -131q-90 -240 -160 -364q-12 -24 -11 -38q0 -18 20 -17q23 0 77 33.5t95 72.5q37 37 36 -4q0 -27 -30 -68q-61 -82 -177 -150.5t-200 -68.5q-45 0 -76 47q-10 15 -10 32q0 15 8 30q23 43 137.5 281.5t128.5 281.5q9 29 9 48 q0 42 -41 42q-35 0 -93.5 -51t-115.5 -133q-53 -74 -160 -250l-125 -205q-76 -125 -109 -125q-41 0 -70.5 26.5t-29.5 56.5q0 38 47 144l62 135l80 176q37 83 63 150q16 33 -10 33q-12 0 -24.5 -3t-25.5 -10l-23 -13q-9 -5 -24.5 -17t-20.5 -17.5t-22.5 -20.5t-19.5 -17 q-14 -14 -29 -15q-4 -2 -9 7.5t-5 15.5q0 76 93 156.5t222 80.5q20 0 45 -14t31 -39q3 -8 3 -18q0 -20 -11 -47q-39 -96 -111 -254q-10 -25 2 -29q10 -4 21 14q45 68 122 160t124 129q123 98 209 98z" />
<glyph unicode="o" horiz-adv-x="907" d="M598 834q109 0 173.5 -81t64.5 -175q0 -188 -107.5 -345t-255.5 -223q-98 -43 -190 -43q-88 0 -159 65.5t-71 184.5q0 102 66.5 249.5t177.5 244.5q141 123 301 123zM578 774q-47 0 -109 -74q-82 -98 -145.5 -267t-63.5 -320q0 -35 19.5 -60.5t48.5 -25.5q31 0 86 57 q70 74 149.5 275.5t79.5 330.5q1 84 -65 84z" />
<glyph unicode="p" horiz-adv-x="940" d="M885 588q0 -188 -131 -348t-287 -236q-68 -33 -125 -33q-37 0 -94 27q-61 -186 -94 -354q-4 -16 -4 -30q0 -25 13 -38q19 -20 83 -35q55 -10 55 -35q0 -27 -61 -26q-31 0 -77 1t-73 1q-61 0 -156.5 -7t-115.5 -7q-5 0 -9 -1q-51 0 -51 23t56 37q59 14 82.5 37.5 t42.5 77.5l335 1054q4 6 0 10.5t-12 2.5q-47 -14 -156 -68q-20 -8 -37.5 -6t-17.5 12q0 23 23 39q90 63 219 111q8 2 16 18q35 104 58 131q29 33 139 33q29 0 29 -39q0 -14 -25 -92q-4 -18 6 -19q154 0 261.5 -57t107.5 -184zM676 625q0 47 -49 86t-115 39q-27 0 -31 -15 q-135 -408 -194 -618q-2 -4 -2 -17.5t2 -17.5q8 -23 24.5 -39t26.5 -16q37 0 100 55q104 102 171 251t67 292z" />
<glyph unicode="q" horiz-adv-x="987" d="M635 834q45 0 88 -33t70 -80q4 -6 13 -5t15 9q68 100 76 109q37 43 55 43q10 0 17.5 -10.5t7.5 -32t-10 -48.5q-90 -276 -119 -376q-195 -672 -219 -770q-12 -43 6 -59.5t65 -22.5q51 -8 52 -29q0 -25 -45 -31q-20 -2 -125 -11t-178.5 -19.5t-127.5 -22.5q-11 -3 -22 -3 l-18 2q-20 5 -21 17q0 25 45 39q82 33 109.5 60.5t52.5 97.5q92 244 207 618q6 12 -4 13q-8 0 -15 -8q-106 -133 -245.5 -221.5t-229.5 -88.5q-35 0 -78 36t-43 106q0 78 42 190.5t118 220.5q61 90 122.5 146.5t160.5 111.5q94 52 178 52zM635 776q-23 0 -81 -46t-105 -109 q-76 -102 -138.5 -236.5t-62.5 -218.5q0 -72 47 -72q33 0 99.5 54.5t148.5 158.5q59 78 108 187.5t49 183.5q0 27 -18 62.5t-47 35.5z" />
<glyph unicode="r" horiz-adv-x="763" d="M317 834q47 0 76 -34t29 -77q0 -68 -49 -193q-8 -25 0 -26.5t24 24.5q94 139 138 191q98 115 188 115q47 0 69.5 -30t22.5 -69q0 -74 -48 -130t-77 -56q-31 0 -35 31q-23 98 -49 98q-39 0 -98 -100q-49 -86 -150.5 -295t-117.5 -238q-45 -78 -105 -78q-18 0 -45 10.5 t-37 24.5q-2 2 -2 16.5t2 22.5q4 12 79 217t114 326q10 28 9 46q0 32 -30 32q-45 0 -110 -72q-29 -33 -39 -33q-14 0 -17.5 18.5t4.5 45.5q37 100 109.5 156.5t144.5 56.5z" />
<glyph unicode="s" horiz-adv-x="628" d="M475 834q76 0 119 -43q25 -25 24 -52q0 -23 -23.5 -57.5t-43.5 -48.5q-12 -8 -29 4q-6 4 -31.5 26.5t-42 34t-42 23.5t-46.5 12q-18 0 -41.5 -21.5t-23.5 -54.5q0 -55 125 -192q102 -119 102 -189q0 -109 -129 -204q-59 -47 -131 -74t-110 -27q-66 0 -120.5 36t-54.5 85 q0 12 20.5 47t41.5 58q6 6 17.5 7t15.5 -5q2 -2 21 -19l31 -25q11 -9 32.5 -24.5t39 -24t39 -15.5t41.5 -7q37 0 64 20.5t27 51.5q0 53 -119 180q-94 106 -94 199q0 41 27.5 97t80.5 101q111 101 213 101z" />
<glyph unicode="t" horiz-adv-x="649" d="M563 1053q21 0 21 -25q0 -14 -6 -37l-25 -83q-20 -69 -23 -77q-4 -23 13 -22q35 0 170 -6q25 0 24 -19q0 -14 -16 -30.5t-33 -18.5q-61 -10 -178 -10q-14 0 -23 -14q-70 -154 -188 -502q-6 -16 0 -31.5t18 -15.5q27 0 86.5 38t102.5 79q14 10 29.5 13t17.5 -9 q0 -27 -23 -60q-68 -92 -198.5 -171t-208.5 -79q-25 0 -51.5 29t-26.5 51q0 25 10 56l230 591q10 25 -4 25q-10 2 -46 4t-47 2q-43 4 -43 23q0 14 18.5 29.5t33.5 17.5l112 8q16 0 27 20q51 96 102 166q41 58 125 58z" />
<glyph unicode="u" horiz-adv-x="1038" d="M446 834q10 0 28 -14.5t26 -33.5q10 -23 -6 -53q-35 -72 -113 -266.5t-92 -245.5q-10 -41 -2 -60.5t26 -19.5q49 0 141.5 96.5t178.5 239.5q74 123 166 295q12 20 32.5 41t38.5 21q33 0 65 -24t32 -40q0 -37 -19 -78q-147 -350 -190 -485q-10 -41 16 -41q23 0 75 32.5 t118 98.5q8 8 20 9t12 -11q0 -23 -12 -47q-45 -94 -175 -187.5t-216 -93.5q-20 0 -42 25.5t-22 40.5q0 12 7 33q4 12 47 116.5t49 124.5q10 33 -2 33q-10 -2 -29 -23q-145 -180 -336 -301q-78 -49 -141 -49q-47 0 -72 31q-15 19 -15 46q0 24 11 54q55 156 211 518 q18 43 -2 43q-18 0 -131 -75q-10 -6 -21.5 -10.5t-19.5 -2.5t-8 9q0 12 16 38q29 53 150.5 134.5t199.5 81.5z" />
<glyph unicode="v" horiz-adv-x="878" d="M217 -25q-55 0 -92 41t-37 103q0 59 33 147q18 51 72.5 188.5t70.5 184.5q8 23 -12 23q-41 0 -148 -93q-12 -10 -25 -8t-13 12q0 20 28 60q41 53 144.5 127t185.5 74q31 0 55 -52q9 -20 9 -42q0 -31 -17 -66q-145 -369 -170 -445q-6 -19 -6 -35q0 -22 11 -38 q19 -29 48 -29q106 0 223 142.5t117 299.5q0 43 -41 105q-18 29 -18 49q0 27 48 70t99 43q31 0 54.5 -37t23.5 -92q0 -104 -83 -254t-183 -258q-209 -220 -377 -220z" />
<glyph unicode="w" horiz-adv-x="1327" d="M436 834q39 0 56 -37q8 -18 8 -44q0 -39 -19 -96q-127 -315 -157 -407q-16 -46 -16 -81v-11q3 -39 28 -39q45 0 113.5 55t138.5 160q29 43 45 92q6 18 24.5 89t28.5 101q29 76 57 103q51 51 136 51q45 0 45 -56q0 -38 -21 -102q-14 -39 -33.5 -78.5t-43.5 -83.5l-31 -59 q-35 -70 -39 -135q-3 -24 -3 -43q0 -104 72 -104q35 0 80 25.5t74 58.5q82 86 121 183t39 173q0 61 -35 143q-6 20 2 37q20 33 70.5 69t83.5 36q51 0 51 -129q0 -170 -149.5 -383t-305.5 -302q-82 -51 -172 -51q-63 0 -92 71q-16 40 -16 90q0 39 10 85q2 10 -5.5 11 t-13.5 -7q-41 -45 -103.5 -99t-86.5 -73q-102 -76 -187 -76q-43 0 -69 40q-25 37 -25 95q0 72 49 193l129 342q12 23 -10 23q-49 0 -164 -95q-10 -6 -16 -1t-6 16q0 25 20 51q49 63 155.5 131t182.5 68z" />
<glyph unicode="x" horiz-adv-x="925" d="M379 829q27 0 50.5 -35.5t33.5 -72.5l63 -193q4 -12 15 4q160 207 225 259q43 43 100 43q51 0 73 -28t22 -65q0 -29 -38 -79t-71 -50q-20 0 -35 23q-20 41 -45 41q-37 0 -103.5 -72t-113.5 -139q-12 -18 -6 -45q45 -156 70.5 -215.5t54.5 -59.5q43 0 121 113q14 20 24 21 q23 0 17 -46q-10 -96 -98.5 -178t-164.5 -82q-35 0 -71.5 41t-57.5 103q-10 31 -26 88l-23 80q-8 8 -12 0q-131 -182 -207 -254t-145 -72q-39 0 -66.5 30.5t-23.5 63.5q2 47 30.5 84t59.5 51q37 8 41 -6q20 -51 63 -51q35 0 100.5 62.5t129.5 154.5q12 14 6 43 q-4 25 -68 217q-14 45 -37 45q-41 0 -114 -96q-14 -18 -23 -18q-18 0 -18 32q6 70 94 164t174 94z" />
<glyph unicode="y" horiz-adv-x="817" d="M324 834q41 0 77.5 -59.5t44.5 -131.5q21 -173 22 -321q0 -96 -9 -181q0 -18 14 -10q6 6 16 21q168 291 177 651q0 14 14 26.5t25 12.5q29 0 59.5 -39t30.5 -60q0 -115 -76 -289.5t-160 -314.5q-92 -150 -225 -329q-139 -184 -250 -271q-117 -88 -227 -88q-39 0 -73 24.5 t-34 65.5q0 45 38 87t62 42q23 0 29 -8q6 -4 30.5 -25.5t44 -33t38.5 -11.5q84 0 162 95q57 72 94 235.5t37 329.5q0 281 -23 369q-18 72 -43 71q-33 0 -115 -145q-25 -43 -41 -43q-18 0 -22 43q-2 80 85 183.5t198 103.5z" />
<glyph unicode="z" horiz-adv-x="868" d="M393 834q82 0 203 -54q39 -16 92 -16q47 0 123 57q33 25 47 25q25 0 25 -21q0 -27 -29 -51q-473 -410 -578 -524q-8 -8 -6 -13.5t11 -5.5q96 -2 221 -92q63 -45 119 -45q57 0 74.5 37t17.5 111q0 18 -8 67q-2 6 5 11.5t17 5.5q35 0 57.5 -31t20.5 -76q0 -90 -139 -199 q-109 -84 -199 -83q-47 0 -168 92q-92 70 -137 69.5t-78 -37.5q-29 -35 -47 -79q-8 -14 -21 -15q-10 0 -24.5 18.5t-14.5 37.5q0 46 74 114l174 158l234 212q96 89 102 103q4 10 -6 11q-39 2 -113 22q-16 4 -88.5 29.5t-103.5 25.5q-51 0 -55 -45q0 -59 10 -88 q4 -10 -15 -28q-47 -43 -86 -43q-31 0 -30 63q0 31 35.5 84t91.5 100q112 93 192 93z" />
<glyph unicode="{" horiz-adv-x="794" d="M184 592q4 20 31 24q119 20 166 63.5t65 115.5q8 29 23.5 181t32.5 204q35 121 170 202q72 43 152.5 62.5t119.5 19.5q16 0 30.5 -7t14.5 -15q0 -23 -28 -31q-59 -18 -88 -29.5t-75 -37t-75 -65.5t-45 -95q-18 -63 -21.5 -185t-17.5 -170q-20 -68 -110.5 -136 t-186.5 -101q-23 -8 -2 -19q90 -49 129 -118.5t23 -143.5q-29 -109 -97 -239q-25 -55 -39 -119q-47 -209 142 -275q10 -4 20 -16t8 -16q-4 -23 -55 -23t-110.5 32t-105.5 87t-66.5 128t1.5 155q8 29 52.5 138t56.5 148q31 100 15.5 152.5t-81.5 77.5q-27 6 -40 22.5t-9 28.5 z" />
<glyph unicode="|" horiz-adv-x="604" d="M289 1413h145v-1814h-145v1814z" />
<glyph unicode="}" horiz-adv-x="718" d="M412 1464q117 0 221 -125t59 -276q-8 -31 -42 -117t-44 -119q-63 -184 68 -233q55 -20 55 -41q0 -8 -11 -18.5t-26 -12.5q-201 -33 -235 -180q-6 -27 -32 -205t-40 -231q-37 -121 -168 -203q-70 -43 -151.5 -61.5t-122.5 -18.5q-47 0 -47 27q0 20 51 35q63 20 86.5 29.5 t65.5 34t64.5 61t39.5 94.5q16 59 31.5 206.5t29.5 196.5q23 76 101.5 142.5t195.5 99.5q6 2 7 8t-7 10q-180 117 -145 258q10 43 37 107l30 74q33 80 43 127q45 197 -135 272q-31 12 -31 33q1 26 52 26z" />
<glyph unicode="~" horiz-adv-x="1277" d="M465 711q68 0 152.5 -58.5t156.5 -118t109 -59.5q53 0 92 45t92 170q8 18 23 19q27 0 60.5 -18.5t27.5 -39.5q-111 -311 -310 -311q-57 0 -120.5 37t-108.5 81t-98.5 80.5t-91.5 36.5q-100 0 -181 -204q-10 -31 -26 -31q-18 0 -55 17.5t-31 35.5q98 318 309 318z" />
<glyph unicode="&#xa1;" horiz-adv-x="632" d="M53 -397q-63 0 -85.5 87t16.5 173q37 88 134 282.5t148 282.5q23 45 62 45q29 0 24 -57q-45 -313 -100 -598q-20 -100 -74.5 -157.5t-124.5 -57.5zM372.5 582q-61.5 0 -95 38.5t-33.5 104.5q0 76 49 118t104 42q133 0 133 -140q0 -66 -48 -114.5t-109.5 -48.5z" />
<glyph unicode="&#xa2;" d="M760 1069l41 125q10 16 20 16t30.5 -10t20.5 -16l-36 -115q-4 -14 6 -14q92 -8 135 -37q37 -27 37 -57q0 -37 -33 -76t-55.5 -39t-38.5 33q-39 92 -74 108q-10 4 -14 -8l-221 -666q-2 -6 2 -9t12 -1q156 18 293 127q8 6 15 1t7 -15q0 -29 -30 -62q-117 -135 -326 -164 q-14 -4 -19 -16l-51 -145q-18 -14 -43 -15q-20 0 -28 19l53 147q6 10 -6 17q-117 14 -195 91t-78 204q0 166 99.5 303t257.5 211q92 43 204 51q11 2 15 12zM516 336l215 647q4 12 -8 12q-98 -8 -201.5 -163.5t-103.5 -344.5q0 -55 24.5 -100t59.5 -59q8 -2 14 8z" />
<glyph unicode="&#xa3;" d="M831 1280q90 0 143.5 -46t53.5 -108q2 -47 -34 -84.5t-74 -42.5q-12 -2 -22.5 4.5t-8.5 18.5q2 16 2 72q-2 45 -29.5 86t-73.5 41q-72 0 -129 -114t-114 -402q-6 -16 8 -17l240 12q6 0 10 -12t2 -24.5t-12.5 -25.5t-16.5 -13l-237 -15q-8 0 -15 -16q-74 -217 -200 -330 q-6 -12 4 -16q86 -27 170 -70q182 -84 239 -84q141 0 142 139q0 45 -17 127q-2 8 10.5 18.5t22.5 10.5q33 0 58.5 -30.5t25.5 -84.5q0 -121 -136 -230.5t-272 -109.5q-45 0 -96 20.5t-88 44.5t-102 73q-63 45 -88 51q-14 4 -52 -25q-121 -106 -170 -106q-61 0 -61 45 q0 49 66.5 106.5t142.5 83.5q37 12 47 21q31 23 51.5 88t54.5 248q0 14 -14 14l-139 -6q-6 0 -10 11t-2 20q8 41 26 45l137 10q16 0 21 18q57 205 124.5 323t170.5 183q116 78 241 78z" />
<glyph unicode="&#xa4;" d="M969 963l-105 -121q-4 -14 -2 -23q66 -102 66 -221q0 -111 -68 -211q-8 -10 -4 -14l113 -131q8 -6 2 -30t-27 -42q-10 -12 -28.5 -19.5t-26.5 1.5l-129 122q-6 6 -21 -2q-102 -66 -182 -65q-102 0 -190 55q-10 6 -25 -2l-113 -115q-18 -18 -61 19q-16 16 -22.5 34.5 t-4.5 29t4 14.5l101 110q6 14 0 23q-63 102 -64 221q0 102 64 209q12 14 0 26l-109 130q-8 10 4.5 34.5t24.5 36.5q39 39 65 21l107 -115q16 -16 31 -6q88 53 188 53t195 -57q12 -6 20 2l105 117q27 20 69 -21q41 -34 23 -63zM557 854q-109 0 -180.5 -72.5t-71.5 -185.5 t75 -183.5t177 -70.5q100 0 175 71.5t75 182.5q0 104 -79 181t-171 77z" />
<glyph unicode="&#xa5;" d="M215 1241.5q0 20.5 55 20.5q14 0 85 -3.5t98 -3.5q31 0 99.5 3.5t84.5 3.5q49 0 49 -23q0 -25 -51 -35q-37 -10 -50.5 -25.5t-9.5 -52.5q51 -352 58 -378q0 -6 6 -7.5t12 4.5q129 154 223 281q84 109 93 135q2 8 0 15.5t-16.5 15.5t-43.5 14q-41 10 -41 33t58 23 q20 0 64 -3.5t63 -3.5q27 -2 81 2.5t72 4.5q47 0 47 -23q0 -10 -16 -20.5t-31 -12.5q-66 -12 -106.5 -41.5t-112.5 -111.5l-307 -363q-6 -6 -4 -12t8 -6l190 4q12 0 13 -27q0 -14 -11.5 -26.5t-19.5 -12.5l-199 -4q-10 0 -20 -20l-31 -99q-2 -12 10 -12l197 4q14 0 14 -28 q0 -14 -12 -26.5t-22 -12.5l-193 -4q-18 0 -23 -17l-26 -98q-18 -68 -27 -105q-18 -74 -1.5 -97t89.5 -38q45 -10 45 -33q0 -27 -61 -26q-18 0 -106.5 3t-129.5 3q-27 0 -102.5 -3t-116.5 -3q-61 0 -61 26.5t65 36.5q76 12 104.5 41t61.5 135l49 154q4 18 -10 19l-176 -7 q-10 0 -10 23q0 10 10 26.5t14 16.5l187 6q10 0 14 10l33 101q8 20 -6 20l-185 -6q-16 0 -16 16q0 20 10 36t23 16l178 6q16 0 14 14q-29 197 -78 414q-12 53 -31.5 75.5t-72.5 34.5q-41 13 -41 33.5z" />
<glyph unicode="&#xa6;" horiz-adv-x="604" d="M289 -354v708h145v-708h-145zM289 1368h145v-709h-145v709z" />
<glyph unicode="&#xa7;" horiz-adv-x="897" d="M807 1294q63 0 100 -37q23 -16 19 -40q0 -12 -15.5 -32t-36.5 -39l-22 -22q-33 -10 -43 -6q-92 61 -153.5 61.5t-90 -37.5t-28.5 -79q0 -20 6 -45t23.5 -61.5l26.5 -54t37.5 -68t35.5 -58.5q121 -195 122 -342q0 -182 -194 -420q-84 -100 -226.5 -187t-261.5 -87 q-59 0 -96 41q-33 43 -26 119q0 10 11 25.5t19 13.5q45 -33 114 -55.5t112 -22.5q86 0 129 31.5t43 82.5q0 70 -117 281q-121 207 -121 354q0 213 232 441q76 100 172 161q129 82 229 82zM389 952q-82 -84 -86 -227q0 -96 117 -330l24 -49l27 -53l23 -46q16 -34 21 -51.5 t14.5 -43t12.5 -46t3 -38.5q-2 -6 3 -9.5t11 2.5q86 88 86 228q0 158 -110 356q-111 195 -132 305q-2 10 -14 2z" />
<glyph unicode="&#xa8;" horiz-adv-x="819" d="M444 1243q41 0 63.5 -28.5t22.5 -65.5q0 -47 -33.5 -84t-80.5 -37q-33 0 -56.5 28.5t-23.5 67.5q0 51 33.5 85t74.5 34zM786 1243q41 0 63.5 -28.5t22.5 -65.5q0 -45 -32.5 -83t-79.5 -38q-35 0 -58.5 28.5t-23.5 67.5q0 47 34.5 83t73.5 36z" />
<glyph unicode="&#xa9;" horiz-adv-x="1441" d="M768 1286q272 0 447.5 -183t175.5 -450q0 -264 -178.5 -448.5t-444.5 -184.5q-279 0 -453 182.5t-174 450.5q0 264 179.5 448.5t447.5 184.5zM768 1225q-233 0 -392 -165t-159 -404.5t160 -406.5t391 -167q229 0 388 165t159 408q0 240 -159 405t-388 165zM823 1016 q57 0 115 -15q63 -16 98 -18q12 -4 19 -47q2 -27 2 -94q0 -41 -23 -41q-18 0 -35 33q-25 70 -65 92q-51 35 -117 35q-100 0 -159.5 -82t-59.5 -191q0 -158 78 -236.5t158 -78.5q74 0 112.5 26.5t73.5 89.5q25 47 43 48q14 0 14 -33q0 -27 -30 -127q-8 -27 -35 -37 q-82 -33 -203 -33q-98 0 -180 35t-129 86q-88 100 -88 238q0 160 123 258q110 92 288 92z" />
<glyph unicode="&#xaa;" horiz-adv-x="684" d="M104 614q0 51 68 158q45 74 131 160t168 135q35 20 53 20q39 0 64 -22q2 -2 7 -1t7 3q35 53 53 53q43 0 82 -26q16 -12 8 -37q-72 -152 -135 -344q-12 -37 17 -37q31 0 100 63q8 6 17.5 6t11.5 -6q0 -25 -13 -43q-45 -66 -116.5 -106.5t-130.5 -40.5q-27 0 -46.5 14.5 t-19.5 36.5q0 12 47 123q6 14 1 17t-17 -9q-182 -182 -289 -182q-23 0 -45.5 18t-22.5 47zM291 725q0 -35 26 -35q39 0 99 60q61 59 131 188q10 25 2 37q-18 23 -55 22q-63 0 -117 -69q-39 -43 -62.5 -102.5t-23.5 -100.5z" />
<glyph unicode="&#xab;" horiz-adv-x="1386" d="M150 401q0 16 26 25q344 156 596 326q33 16 47 16q20 0 15 -25q-4 -18 -33 -45q-94 -90 -383 -282q-31 -18 -15 -39q12 -16 58 -69l69 -82q25 -30 52.5 -67.5t38.5 -60.5q8 -12 7 -34.5t-16 -24.5q-20 0 -41 20q-59 59 -185 158.5t-216 159.5q-20 16 -20 24zM621 403.5 q0 12.5 24 22.5q295 129 596 326q41 16 47 16q8 0 13.5 -6t-1 -21.5t-28.5 -38.5q-86 -84 -387 -286q-29 -18 -17 -37q10 -12 41 -46l46 -51l41 -49l41 -50q15 -19 29.5 -42.5t23.5 -42.5q8 -12 7 -34.5t-16 -24.5q-20 0 -39 20q-57 61 -181 157.5t-224 162.5 q-16 12 -16 24.5z" />
<glyph unicode="&#xac;" horiz-adv-x="1277" d="M184 715h940q27 0 27 -43v-561q0 -20 -40 -30.5t-75 -10.5q-25 0 -24 30v441q0 10 -1 16t-6.5 11t-7.5 8.5t-11 8.5t-11 7h-778q-27 0 -34 5t-7 26q0 25 9 58.5t19 33.5z" />
<glyph unicode="&#xad;" horiz-adv-x="679" d="M158 502q43 6 226 26.5t193.5 20.5t17.5 -12.5t5 -20.5q0 -27 -22.5 -73t-47.5 -48q-51 -6 -127.5 -14t-161.5 -15.5t-118 -11.5q-10 -2 -17.5 8.5t-7.5 18.5q0 25 24 72t36 49z" />
<glyph unicode="&#xae;" horiz-adv-x="495" d="M399 1032v107q0 31 -20 39q-12 4 -14.5 9t2 7t10.5 4q61 6 100 6q43 0 68.5 -17.5t25.5 -45.5q0 -27 -39 -45q-4 -4 -2 -9q45 -80 66 -94q14 -6 14 -12q0 -10 -30 -10q-37 0 -56 30q-29 43 -39 62q-2 8 -18 8q-14 0 -14 -8v-23q0 -25 4 -29.5t28 -15.5q6 -2 9.5 -7 t0.5 -8t-10 -3h-57h-51q-8 0 -10 7t6 9q26 14 26 39zM453 1169v-63q0 -8 18 -8q41 0 41 37q0 18 -10 31.5t-29 13.5q-20 -1 -20 -11zM473 1319q100 0 167 -67.5t67 -166.5q0 -90 -64.5 -163.5t-173.5 -73.5q-98 0 -163.5 68.5t-65.5 168.5q0 94 67.5 164t165.5 70zM473 1280 q-80 2 -134 -54.5t-54 -140.5q0 -82 54 -138t134 -56q82 0 134 55t52 139t-55 139.5t-131 55.5z" />
<glyph unicode="&#xaf;" horiz-adv-x="819" d="M393 1161l408 10q23 0 20 -45q-2 -29 -18.5 -56.5t-30.5 -27.5l-403 -4q-4 0 -10.5 12.5t-6.5 24.5q4 27 17.5 56.5t23.5 29.5z" />
<glyph unicode="&#xb0;" horiz-adv-x="614" d="M426 1303q98 0 168 -66t70 -178q0 -109 -73 -176.5t-173 -67.5q-102 0 -172 66.5t-70 177.5q0 104 75 174t175 70zM412 1223q-57 0 -96.5 -47.5t-39.5 -116.5q0 -74 44.5 -119t109.5 -45q55 0 93 45t38 119q0 72 -41.5 118t-107.5 46z" />
<glyph unicode="&#xb1;" horiz-adv-x="1277" d="M606 1116q0 10 41 20.5t68 10.5q20 0 25 -6t5 -35v-379q0 -16 4.5 -20.5t20.5 -4.5h389q18 0 24.5 -5t6.5 -19q0 -37 -9.5 -68.5t-19.5 -31.5h-391q-10 0 -17.5 -10.5t-7.5 -20.5v-377q0 -23 -39.5 -33t-74.5 -10q-25 0 -25 31v385q0 23 -6 29t-25 6h-374q-27 0 -34 5 t-7 25q0 25 9 59.5t19 34.5h394q25 0 24 25v389zM1159 23q18 0 24.5 -5.5t6.5 -19.5q0 -37 -9.5 -68.5t-19.5 -31.5h-960q-27 0 -34 5t-7 25q0 25 9 60t19 35h971z" />
<glyph unicode="&#xb2;" horiz-adv-x="665" d="M623 1569q78 0 132 -51.5t54 -131.5q0 -113 -141 -217q-20 -16 -232 -159q-20 -14 4 -15q147 0 222 6q25 4 69 52q29 29 45 28q10 0 14.5 -16t-4.5 -31l-92 -164q-8 -12 -39 -12q-6 0 -133 2t-160 2l-112 -2q-53 0 -53 29q0 6 12 20.5t22 20.5q178 123 244 180 q158 129 158 238q0 53 -29 80.5t-74 27.5q-61 0 -135 -65q-23 -23 -39 -23q-14 0 -14 18q0 27 31 60q103 123 250 123z" />
<glyph unicode="&#xb3;" horiz-adv-x="665" d="M621 1569q94 0 134 -46t40 -93q0 -31 -18.5 -59t-52.5 -48t-54.5 -30.5t-55.5 -22.5q-4 0 -7 -4t-1 -7.5t8 -5.5q158 -45 158 -163q0 -74 -70.5 -133.5t-158.5 -92.5q-92 -35 -183 -35q-141 0 -129 136q0 10 7.5 19t15.5 9q6 0 27 -16q4 -2 37.5 -30.5t61.5 -41t58 -12.5 q55 0 99.5 49t44.5 115q0 57 -33 90t-76 33q-31 0 -59 -4q-27 -4 -27 14q0 23 43 41q23 12 52.5 25.5t49.5 23.5q92 51 93 137q0 76 -74 76q-70 0 -127 -98q-14 -18 -31 -6q-16 16 -16 55q0 20 20 41q101 84 224 84z" />
<glyph unicode="&#xb4;" horiz-adv-x="819" d="M690 1282q23 33 53 33q20 0 40 -38t20 -60q-6 -31 -25 -54q-96 -111 -219 -219q-39 -39 -67 -37q-8 0 -12.5 8.5t-2.5 21.5t10 30q72 131 203 315z" />
<glyph unicode="&#xb5;" horiz-adv-x="972" d="M348 827q53 0 107 -45q8 -6 13 -32.5t1 -32.5q-6 -25 -48 -99.5t-77 -125.5q-18 -25 -43 -66l-47 -79q-23 -38 -29 -46q-25 -37 -18 -74q6 -61 63 -61q59 0 153.5 84t149.5 162q16 23 37 73q74 219 111 297q8 20 32.5 38t37.5 18q86 0 124 -52q18 -25 -10 -96.5 t-110 -195t-138 -185.5q-33 -37 -30 -65q4 -92 96 -92q100 0 195 106q8 8 18 0t10 -18q0 -35 -43 -111q-43 -72 -107.5 -121t-119.5 -49q-143 0 -101 229q2 8 -3 11.5t-13 -2.5q-125 -133 -183.5 -177.5t-117.5 -44.5q-37 0 -68.5 50.5t-39.5 85.5q-4 10 -11.5 6t-11.5 -13 q-18 -43 -43 -141t-27 -166q-2 -106 107 -190q16 -16 -4 -47q-10 -14 -39 -43t-47 -39q-33 -23 -78 -23q-20 0 -44 25.5t-34 56.5q-23 74 45 293q35 119 121 356q2 4 27 105l65 228q59 208 76 251q8 31 39 45q28 12 57 12z" />
<glyph unicode="&#xb6;" horiz-adv-x="1224" d="M203 682q0 154 66.5 267.5t156.5 178.5q164 123 453 138q297 14 426 14q45 0 45 -35q0 -18 -17.5 -33.5t-38.5 -15.5q-4 0 -57 4t-72 4q-27 0 -41 -19.5t-30 -76.5l-324 -1149q-92 -315 -223 -418q-94 -74 -217 -73q-115 0 -179.5 62t-64.5 151q0 94 57.5 153.5 t128.5 59.5q57 0 86 -35t31 -80q2 -35 -25.5 -70t-62.5 -35q-18 0 -47 17q-25 14 -31 14q-12 0 -24.5 -11t-12.5 -36q0 -47 49.5 -82t122.5 -35q66 0 119 37t86 95.5t54.5 112.5t37.5 103q2 12 4 17q51 170 84 293q0 12 -4 19t-12 5q-14 -2 -76 -2q-213 0 -330.5 137.5 t-117.5 323.5zM967 1200q-68 0 -129 -90q-61 -100 -127 -314t-74 -345q-4 -158 92 -158q37 0 49 41q10 27 56 190l99 365l75 272q4 16 -10.5 27.5t-30.5 11.5z" />
<glyph unicode="&#xb7;" horiz-adv-x="505" d="M260 543q63 0 96 -39t33 -107q0 -76 -49 -116.5t-107 -40.5q-59 0 -95 38.5t-36 100.5q0 68 48.5 116t109.5 48z" />
<glyph unicode="&#xb8;" horiz-adv-x="819" d="M397 35h64q-49 -43 -71.5 -65.5t-44 -55.5t-21.5 -61q0 -35 41 -103q25 -43 24 -94q0 -29 -31.5 -65.5t-74.5 -61.5q-63 -33 -107 -33q-49 0 -88 36t-39 81q0 18 7 31.5t16 13.5q16 0 41 -23q61 -57 108 -57q35 0 35 31t-53 110q-29 47 -29 78q0 37 39 84q10 12 36 34 l74 59z" />
<glyph unicode="&#xb9;" horiz-adv-x="665" d="M418 1480.5q0 20.5 47 28.5q199 29 274 60q8 4 16.5 -5.5t4.5 -17.5q-25 -57 -55 -153q-63 -186 -113 -373q-14 -51 -1 -70.5t60 -34.5q47 -10 47 -34.5t-49 -24.5q-18 0 -91 3t-95 3q-45 0 -104.5 -3t-77.5 -3q-49 0 -50 27q0 25 68 37q41 8 59.5 23t36.5 52 q29 53 101 275q37 111 49 160q4 16 -10 16q-57 6 -70 8q-47 6 -47 26.5z" />
<glyph unicode="&#xba;" horiz-adv-x="649" d="M535 1114q88 0 131 -56.5t43 -117.5q0 -121 -72 -218t-162 -140q-70 -33 -143 -33q-72 0 -121 46t-49 122q0 90 50 182t122 143q97 72 201 72zM528 1061q-39 0 -82 -51q-47 -51 -91 -162t-44 -184q0 -57 39 -58q33 0 70 47q43 51 94 166t51 187q0 55 -37 55z" />
<glyph unicode="&#xbb;" horiz-adv-x="1427" d="M1253 405.5q0 -12.5 -26 -24.5q-311 -137 -596 -324q-25 -18 -47 -18q-20 0 -15 24q4 18 33 46q94 90 385 282q29 20 12 39q-12 16 -74 90l-97 117q-34 43 -46 72q-8 14 -7 35.5t16 23.5q23 0 40 -20q57 -57 184.5 -158t217.5 -160q20 -12 20 -24.5zM782 403 q0 -10 -22 -22q-303 -131 -598 -324q-31 -18 -47 -18q-8 0 -13.5 6t1 22.5t28.5 38.5q82 80 389 287q29 18 15 35q-193 217 -222 281q-8 14 -7 35.5t16 23.5q20 0 38 -20q125 -131 406 -320q16 -13 16 -25z" />
<glyph unicode="&#xbc;" horiz-adv-x="1417" d="M330 1183.5q0 20.5 47 28.5q199 29 274 60q8 4 16.5 -5.5t4.5 -17.5q-25 -57 -56 -153q-63 -186 -112 -373q-14 -51 -1 -70.5t60 -34.5q47 -10 47 -34.5t-49 -24.5q-18 0 -91 3t-95 3q-45 0 -104.5 -3t-77.5 -3q-49 0 -50 27q0 25 68 37q41 8 59.5 23.5t36.5 51.5 q29 55 101 275q37 111 49 160q4 16 -11 16q-57 6 -69 8q-47 6 -47 26.5zM1321 1303q12 0 22.5 -8.5t16.5 -17.5t2 -13l-1094 -1317q-12 -18 -28 -19q-14 0 -28.5 24.5t-4.5 37.5l1073 1288q23 25 41 25zM1311 707q6 0 12 -10.5t2 -22.5q0 -4 -21 -76l-48 -161l-35 -124 q-6 -12 10 -12l98 6q10 0 10 -24q-2 -16 -13 -35t-26 -21q-12 0 -92 -6q-14 0 -18 -12q-4 -16 -18 -63l-23 -80q-10 -35 -14 -48q-6 -23 -31 -32q-59 -18 -131 -19q-8 0 -17.5 9.5t-3.5 25.5q2 4 13 38l23 77q13 43 26 76q2 4 1 11t-5 7t-130 -6t-140.5 -6t-18.5 13t-2 21 q4 6 49 52q41 39 344 301l43 37q113 84 156 84zM1049 301q8 20 34 96l45 127q0 6 -6 8q-221 -197 -262 -239q-6 -6 -3 -10t9 -4l164 10q15 0 19 12z" />
<glyph unicode="&#xbd;" horiz-adv-x="1501" d="M330 1183.5q0 20.5 47 28.5q199 29 274 60q8 4 16.5 -5.5t4.5 -17.5q-25 -57 -56 -153q-63 -186 -112 -373q-14 -51 -1 -70.5t60 -34.5q47 -10 47 -34.5t-49 -24.5q-18 0 -91 3t-95 3q-45 0 -104.5 -3t-77.5 -3q-49 0 -50 27q0 25 68 37q41 8 59.5 23.5t36.5 51.5 q29 55 101 275q37 111 49 160q4 16 -11 16q-57 6 -69 8q-47 6 -47 26.5zM1311 1303q12 0 22 -8.5t16.5 -17.5t2.5 -13l-1094 -1317q-12 -18 -29 -19q-14 0 -28.5 24.5t-3.5 37.5l1073 1288q23 25 41 25zM1200 707q78 0 132 -51.5t54 -131.5q0 -113 -141 -217 q-20 -16 -231 -160q-20 -14 4 -14q147 0 221 6q25 4 70 51q29 29 45 29q10 0 14 -15.5t-4 -31.5l-92 -164q-8 -12 -39 -12q-6 0 -133 2t-160 2l-113 -2q-53 0 -53 29q0 6 12.5 20t22.5 21q178 123 244 180q158 129 157 237q0 53 -28.5 81t-73.5 28q-61 0 -135 -66 q-23 -23 -39 -22q-14 0 -14 18q0 25 30 60q103 123 250 123z" />
<glyph unicode="&#xbe;" horiz-adv-x="1406" d="M532 1272q94 0 134.5 -46t40.5 -93q0 -31 -18.5 -58.5t-52.5 -48t-54.5 -31t-55.5 -22.5q-4 0 -7 -4t-1 -7.5t8 -5.5q158 -45 158 -163q0 -74 -70.5 -133.5t-158.5 -92.5q-92 -35 -183 -35q-141 0 -129 136q0 10 7.5 19t15.5 9q6 0 27 -16q4 -2 37.5 -30.5t61 -41 t58.5 -12.5q55 0 99.5 49t44.5 115q0 57 -33 90t-76 33q-31 0 -59 -4q-27 -4 -27 14q0 23 43 41q23 12 52.5 25.5t49.5 23.5q92 51 93 137q0 76 -74 76q-70 0 -127 -98q-14 -18 -31 -6q-16 16 -16 55q0 20 20 41q100 84 223 84zM1325 1303q12 0 22.5 -8.5t16.5 -17.5t2 -13 l-1094 -1317q-12 -18 -28 -19q-14 0 -28.5 24.5t-4.5 37.5l1073 1288q23 25 41 25zM1300 707q6 0 12.5 -10.5t2.5 -22.5q0 -4 -22 -76l-47 -161l-36 -124q-6 -12 11 -12l98 6q10 0 10 -24q-2 -16 -13 -35t-26 -21q-12 0 -92 -6q-14 0 -18 -12q-4 -16 -18 -63l-23 -80 q-10 -35 -15 -48q-6 -23 -30 -32q-59 -18 -131 -19q-8 0 -17.5 9.5t-3.5 25.5q2 4 12 38l24 77q13 43 26 76q2 4 1 11t-5.5 7t-130.5 -6t-140 -6t-18 13t-2 21q4 6 49 52q41 39 344 301l43 37q112 84 155 84zM1038 301q8 20 35 96l45 127q0 6 -6 8q-221 -197 -262 -239 q-6 -6 -3 -10t9 -4l164 10q14 0 18 12z" />
<glyph unicode="&#xbf;" horiz-adv-x="792" d="M254 -412q-51 0 -90 15.5t-96 58.5q-43 33 -76 98.5t-33 128.5q0 55 36 110.5t77 82.5q45 35 221 137q45 27 59.5 48.5t14.5 54.5q0 57 -50 133q-4 8 -3 16t11.5 13t30.5 -1q47 -8 114 -74.5t67 -168.5q0 -55 -19.5 -89t-62.5 -71q-57 -51 -252 -154q-129 -66 -129 -133 q0 -104 98 -104q74 0 117 78q37 53 84 53q37 0 63.5 -25.5t26.5 -68.5q0 -57 -63.5 -97.5t-145.5 -40.5zM467 582q-63 0 -96 38.5t-33 104.5q0 76 48 118t108 42q63 0 97 -38t34 -102q0 -66 -48.5 -114.5t-109.5 -48.5z" />
<glyph unicode="&#xc0;" horiz-adv-x="1341" d="M1286 1339q33 0 8 -75q-43 -123 -67 -226q-102 -475 -158 -794q-18 -109 -1 -143.5t95 -47.5q53 -8 54 -35q0 -25 -66 -24q-35 0 -87 3t-91 3q-53 0 -165 -7t-151 -7q-23 0 -40 6t-15 18q0 25 64 35q20 2 39.5 8t32 13.5t23.5 18.5t17 18.5t13.5 20.5t9.5 18t6 18l4 12 q41 135 78 320q8 29 -23 28q-147 0 -286 -20q-37 -6 -80 -54q-106 -111 -191 -243q-76 -123 62 -154q37 -10 37 -31q0 -27 -56 -26q-41 0 -110.5 4t-120.5 4q-45 0 -117 -5t-76 -5q-68 0 -67 30q0 23 65 33q86 10 145.5 45t121.5 105q272 301 753 897q72 84 88 117 q16 25 29 24q123 6 180 74q20 24 43 24zM637 580q121 0 252 16q14 0 26 29q10 27 84 360q8 43 8.5 49t-3.5 15q-10 0 -46 -35q-119 -119 -327 -410q-4 -6 -1 -15t7 -9zM1085.5 1685.5q26.5 6.5 73.5 -45.5q117 -123 166 -186q29 -39 18 -59q-14 -27 -77 6q-190 106 -246 149 q-35 29 -35 62q0 18 62 59q12 8 38.5 14.5z" />
<glyph unicode="&#xc1;" horiz-adv-x="1341" d="M1286 1339q33 0 8 -75q-43 -123 -67 -226q-102 -475 -158 -794q-18 -109 -1 -143.5t95 -47.5q53 -8 54 -35q0 -25 -66 -24q-35 0 -87 3t-91 3q-53 0 -165 -7t-151 -7q-23 0 -40 6t-15 18q0 25 64 35q20 2 39.5 8t32 13.5t23.5 18.5t17 18.5t13.5 20.5t9.5 18t6 18l4 12 q41 135 78 320q8 29 -23 28q-147 0 -286 -20q-37 -6 -80 -54q-106 -111 -191 -243q-76 -123 62 -154q37 -10 37 -31q0 -27 -56 -26q-41 0 -110.5 4t-120.5 4q-45 0 -117 -5t-76 -5q-68 0 -67 30q0 23 65 33q86 10 145.5 45t121.5 105q272 301 753 897q72 84 88 117 q16 25 29 24q123 6 180 74q20 24 43 24zM637 580q121 0 252 16q14 0 26 29q10 27 84 360q8 43 8.5 49t-3.5 15q-10 0 -46 -35q-119 -119 -327 -410q-4 -6 -1 -15t7 -9zM1565 1585q-6 -25 -49 -49q-145 -84 -326 -150q-59 -20 -76 -4q-8 4 0 26t29 40q139 121 289 217 q39 20 57 10q27 -6 54.5 -38t21.5 -52z" />
<glyph unicode="&#xc2;" horiz-adv-x="1341" d="M1286 1339q33 0 8 -75q-43 -123 -67 -226q-102 -475 -158 -794q-18 -109 -1 -143.5t95 -47.5q53 -8 54 -35q0 -25 -66 -24q-35 0 -87 3t-91 3q-53 0 -165 -7t-151 -7q-23 0 -40 6t-15 18q0 25 64 35q20 2 39.5 8t32 13.5t23.5 18.5t17 18.5t13.5 20.5t9.5 18t6 18l4 12 q41 135 78 320q8 29 -23 28q-147 0 -286 -20q-37 -6 -80 -54q-106 -111 -191 -243q-76 -123 62 -154q37 -10 37 -31q0 -27 -56 -26q-41 0 -110.5 4t-120.5 4q-45 0 -117 -5t-76 -5q-68 0 -67 30q0 23 65 33q86 10 145.5 45t121.5 105q272 301 753 897q72 84 88 117 q16 25 29 24q123 6 180 74q20 24 43 24zM637 580q121 0 252 16q14 0 26 29q10 27 84 360q8 43 8.5 49t-3.5 15q-10 0 -46 -35q-119 -119 -327 -410q-4 -6 -1 -15t7 -9zM1280 1618q23 0 49 -43q55 -90 127 -186q16 -27 11 -40.5t-21 -13.5q-23 0 -55 21q-92 55 -142 94 q-14 14 -32 2q-55 -29 -228 -98q-47 -18 -67 -19q-35 0 -11 33l21 21q18 14 120 85l146 103q55 41 82 41z" />
<glyph unicode="&#xc3;" horiz-adv-x="1341" d="M1286 1339q33 0 8 -75q-43 -123 -67 -226q-102 -475 -158 -794q-18 -109 -1 -143.5t95 -47.5q53 -8 54 -35q0 -25 -66 -24q-35 0 -87 3t-91 3q-53 0 -165 -7t-151 -7q-23 0 -40 6t-15 18q0 25 64 35q20 2 39.5 8t32 13.5t23.5 18.5t17 18.5t13.5 20.5t9.5 18t6 18l4 12 q41 135 78 320q8 29 -23 28q-147 0 -286 -20q-37 -6 -80 -54q-106 -111 -191 -243q-76 -123 62 -154q37 -10 37 -31q0 -27 -56 -26q-41 0 -110.5 4t-120.5 4q-45 0 -117 -5t-76 -5q-68 0 -67 30q0 23 65 33q86 10 145.5 45t121.5 105q272 301 753 897q72 84 88 117 q16 25 29 24q123 6 180 74q20 24 43 24zM637 580q121 0 252 16q14 0 26 29q10 27 84 360q8 43 8.5 49t-3.5 15q-10 0 -46 -35q-119 -119 -327 -410q-4 -6 -1 -15t7 -9zM967 1454q43 55 84 94q33 29 65 29q49 0 140.5 -8t115.5 -6q35 2 105 71q10 10 18 8q12 -2 25 -32 q4 -16 -11 -37q-43 -53 -110 -115q-39 -31 -64 -31q-31 0 -140.5 10.5t-125.5 8.5q-29 -4 -72 -64q-8 -14 -18 -14q-12 0 -23.5 13.5t-11.5 19.5q0 22 23 53z" />
<glyph unicode="&#xc4;" horiz-adv-x="1341" d="M1286 1339q33 0 8 -75q-43 -123 -67 -226q-102 -475 -158 -794q-18 -109 -1 -143.5t95 -47.5q53 -8 54 -35q0 -25 -66 -24q-35 0 -87 3t-91 3q-53 0 -165 -7t-151 -7q-23 0 -40 6t-15 18q0 25 64 35q20 2 39.5 8t32 13.5t23.5 18.5t17 18.5t13.5 20.5t9.5 18t6 18l4 12 q41 135 78 320q8 29 -23 28q-147 0 -286 -20q-37 -6 -80 -54q-106 -111 -191 -243q-76 -123 62 -154q37 -10 37 -31q0 -27 -56 -26q-41 0 -110.5 4t-120.5 4q-45 0 -117 -5t-76 -5q-68 0 -67 30q0 23 65 33q86 10 145.5 45t121.5 105q272 301 753 897q72 84 88 117 q16 25 29 24q123 6 180 74q20 24 43 24zM637 580q121 0 252 16q14 0 26 29q10 27 84 360q8 43 8.5 49t-3.5 15q-10 0 -46 -35q-119 -119 -327 -410q-4 -6 -1 -15t7 -9zM1034 1599q41 0 64.5 -31.5t21.5 -72.5q-2 -47 -39 -81t-77 -34q-37 0 -63 26t-23 77q2 47 38.5 81.5 t77.5 34.5zM1421 1599q41 0 64.5 -31.5t21.5 -72.5q-2 -51 -39.5 -83t-78.5 -32q-37 0 -63 27t-23 76q2 47 39.5 81.5t78.5 34.5z" />
<glyph unicode="&#xc5;" horiz-adv-x="1341" d="M1286 1339q33 0 8 -75q-43 -123 -67 -226q-102 -475 -158 -794q-18 -109 -1 -143.5t95 -47.5q53 -8 54 -35q0 -25 -66 -24q-35 0 -87 3t-91 3q-53 0 -165 -7t-151 -7q-23 0 -40 6t-15 18q0 25 64 35q20 2 39.5 8t32 13.5t23.5 18.5t17 18.5t13.5 20.5t9.5 18t6 18l4 12 q41 135 78 320q8 29 -23 28q-147 0 -286 -20q-37 -6 -80 -54q-106 -111 -191 -243q-76 -123 62 -154q37 -10 37 -31q0 -27 -56 -26q-41 0 -110.5 4t-120.5 4q-45 0 -117 -5t-76 -5q-68 0 -67 30q0 23 65 33q86 10 145.5 45t121.5 105q272 301 753 897q72 84 88 117 q16 25 29 24q123 6 180 74q20 24 43 24zM637 580q121 0 252 16q14 0 26 29q10 27 84 360q8 43 8.5 49t-3.5 15q-10 0 -46 -35q-119 -119 -327 -410q-4 -6 -1 -15t7 -9zM1247 1692q76 0 116 -52.5t30 -117.5q-8 -61 -58.5 -104.5t-126 -43.5t-116.5 49.5t-31 116.5 q8 63 58 107.5t128 44.5zM1237 1632q-33 0 -58.5 -26.5t-31.5 -67.5q-8 -45 13.5 -73.5t53.5 -28.5q35 0 63 23.5t34 72.5q4 41 -17.5 70.5t-56.5 29.5z" />
<glyph unicode="&#xc6;" horiz-adv-x="1968" d="M1444 1296h125q317 0 370 23q10 4 16.5 -12.5t0.5 -28.5q-53 -98 -70 -229q-6 -39 -22 -39q-37 0 -45 55q-8 78 -20.5 110.5t-43.5 41.5q-41 14 -221 14q-66 0 -97.5 -13.5t-45.5 -54.5q-66 -205 -142 -477q-6 -25 21 -24l219 8q31 2 54.5 4t41 9t28.5 11t23.5 16.5 t16.5 17.5t16 24l17 24q25 39 45 39q8 0 14 -8t6 -26.5t-12 -43.5q-51 -111 -90 -278q-10 -39 -37 -39q-10 0 -18.5 16.5t-8.5 38.5q0 57 -17.5 82t-58.5 25l-262 -4q-27 0 -37 -35q-18 -47 -53 -171t-39 -155q-20 -88 8 -117q33 -39 265 -39q113 0 154.5 8.5t88.5 34.5 q53 27 154 160q39 59 59 60q31 0 13 -62q-47 -150 -105 -229q-31 -41 -164 -41q-45 0 -344 4t-360 4q-68 0 -144 -4l-75 -2q-23 0 -36.5 9t-13.5 17q0 29 58 39q102 16 133 48t70 137q59 164 94 293q2 6 -2 18t-17 12q-137 0 -321 -10q-23 -2 -58 -33q-88 -84 -167.5 -182 t-112.5 -156q-61 -102 63 -133q45 -14 45 -35q0 -27 -57 -26q-27 0 -98.5 4t-128.5 4q-53 0 -123 -4t-76 -4q-63 0 -63 26q0 25 65 37q162 29 268 150l861 975q27 37 -4 43q-8 2 -32 5t-56.5 6t-55.5 7q-14 2 -34.5 13.5t-20.5 21.5q0 25 65 24q4 0 102.5 -1t225.5 -2 t203 -1zM1165 1169q4 16 -8 15q-12 0 -33 -23q-88 -92 -231 -255t-201 -242q-6 -8 -5 -13.5t4 -7.5t5 -2q14 0 141.5 6t143.5 6q27 0 35 33q0 6 35 117l71 228z" />
<glyph unicode="&#xc7;" horiz-adv-x="1345" d="M729 -33q-84 -84 -84 -133q0 -35 41 -102q29 -47 29 -99q0 -29 -33 -64.5t-78 -62.5q-59 -33 -108.5 -32.5t-88 37t-38.5 83.5q0 16 7 28.5t13 12.5q20 0 45 -24q61 -55 109 -55q35 0 35 30q0 37 -54 115q-29 47 -28 78q0 35 41 84q14 18 112 100h-12q-63 2 -123.5 15.5 t-128.5 49t-116 90t-80.5 147.5t-32.5 214q0 166 74.5 332t203.5 289q119 113 283 172t325.5 59t282.5 -53q45 -20 86 2q37 20 45 12q18 -29 4 -49q-76 -115 -108 -246q-16 -57 -35 -57q-14 0 -22.5 17.5t-6.5 41.5q16 111 -39 181q-33 45 -88 70.5t-106 25.5 q-201 0 -400 -197q-111 -113 -173 -288t-62 -334q0 -117 32.5 -204t86 -132t105.5 -65.5t104 -20.5q115 0 249 110q119 102 162 154q27 27 43 27q23 0 6 -56q-14 -51 -166 -278q-25 -33 -49 -10q-39 35 -98 22l-61 -16q-62 -15 -105 -21z" />
<glyph unicode="&#xc8;" horiz-adv-x="1239" d="M594 686l192 6q92 2 127 23.5t84 87.5q29 37 47 37q14 0 14.5 -26t-11.5 -52q-47 -92 -89 -270q-4 -23 -15 -37.5t-19 -14.5q-27 0 -27 62q-2 59 -22.5 81.5t-61.5 22.5l-227 -6q-39 0 -51 -33q-29 -82 -82 -303q-29 -111 0 -160q18 -33 77 -38q104 -12 230 -13 q72 0 141 45q82 45 178 174q39 49 58 50q20 0 10 -54q-10 -49 -43 -120.5t-60 -106.5q-31 -35 -49 -41q-29 -12 -123 -12q-45 0 -307 6t-323 6q-63 0 -150.5 -5t-111.5 -5q-63 0 -64 28q0 27 61 33q109 12 147 46t62 120l267 868q25 84 0 116t-127 48q-49 10 -49.5 33 t71.5 23q18 0 108.5 -4.5t149.5 -4.5h193q375 0 454 21q10 2 14.5 -13.5t0.5 -21.5q-53 -94 -80 -250q-4 -16 -18.5 -16t-30 18.5t-17.5 44.5q-6 119 -65 140q-39 14 -203 14q-41 0 -64.5 -8t-32.5 -17.5t-24 -33.5q-51 -82 -153 -461q-2 -8 3 -17.5t11 -9.5zM729 1679.5 q27 6.5 74 -45.5q117 -123 166 -186q29 -39 18 -59q-14 -27 -78 6q-190 106 -245 149q-35 29 -35 62q0 18 61 59q12 8 39 14.5z" />
<glyph unicode="&#xc9;" horiz-adv-x="1239" d="M594 686l192 6q92 2 127 23.5t84 87.5q29 37 47 37q14 0 14.5 -26t-11.5 -52q-47 -92 -89 -270q-4 -23 -15 -37.5t-19 -14.5q-27 0 -27 62q-2 59 -22.5 81.5t-61.5 22.5l-227 -6q-39 0 -51 -33q-29 -82 -82 -303q-29 -111 0 -160q18 -33 77 -38q104 -12 230 -13 q72 0 141 45q82 45 178 174q39 49 58 50q20 0 10 -54q-10 -49 -43 -120.5t-60 -106.5q-31 -35 -49 -41q-29 -12 -123 -12q-45 0 -307 6t-323 6q-63 0 -150.5 -5t-111.5 -5q-63 0 -64 28q0 27 61 33q109 12 147 46t62 120l267 868q25 84 0 116t-127 48q-49 10 -49.5 33 t71.5 23q18 0 108.5 -4.5t149.5 -4.5h193q375 0 454 21q10 2 14.5 -13.5t0.5 -21.5q-53 -94 -80 -250q-4 -16 -18.5 -16t-30 18.5t-17.5 44.5q-6 119 -65 140q-39 14 -203 14q-41 0 -64.5 -8t-32.5 -17.5t-24 -33.5q-51 -82 -153 -461q-2 -8 3 -17.5t11 -9.5zM1182 1604 q-6 -25 -49 -50q-145 -84 -326 -149q-59 -20 -76 -4q-8 4 0 25.5t29 39.5q139 121 289 217q39 20 57 11q27 -6 54.5 -38t21.5 -52z" />
<glyph unicode="&#xca;" horiz-adv-x="1239" d="M594 686l192 6q92 2 127 23.5t84 87.5q29 37 47 37q14 0 14.5 -26t-11.5 -52q-47 -92 -89 -270q-4 -23 -15 -37.5t-19 -14.5q-27 0 -27 62q-2 59 -22.5 81.5t-61.5 22.5l-227 -6q-39 0 -51 -33q-29 -82 -82 -303q-29 -111 0 -160q18 -33 77 -38q104 -12 230 -13 q72 0 141 45q82 45 178 174q39 49 58 50q20 0 10 -54q-10 -49 -43 -120.5t-60 -106.5q-31 -35 -49 -41q-29 -12 -123 -12q-45 0 -307 6t-323 6q-63 0 -150.5 -5t-111.5 -5q-63 0 -64 28q0 27 61 33q109 12 147 46t62 120l267 868q25 84 0 116t-127 48q-49 10 -49.5 33 t71.5 23q18 0 108.5 -4.5t149.5 -4.5h193q375 0 454 21q10 2 14.5 -13.5t0.5 -21.5q-53 -94 -80 -250q-4 -16 -18.5 -16t-30 18.5t-17.5 44.5q-6 119 -65 140q-39 14 -203 14q-41 0 -64.5 -8t-32.5 -17.5t-24 -33.5q-51 -82 -153 -461q-2 -8 3 -17.5t11 -9.5zM932 1677 q23 0 49 -43q55 -90 127 -186q16 -27 11 -40t-21 -13q-23 0 -56 20q-92 55 -141 94q-14 14 -33 2q-55 -29 -227 -98q-47 -18 -68 -18q-35 0 -10 32l21 21q18 14 119 85l147 103q55 41 82 41z" />
<glyph unicode="&#xcb;" horiz-adv-x="1239" d="M594 686l192 6q92 2 127 23.5t84 87.5q29 37 47 37q14 0 14.5 -26t-11.5 -52q-47 -92 -89 -270q-4 -23 -15 -37.5t-19 -14.5q-27 0 -27 62q-2 59 -22.5 81.5t-61.5 22.5l-227 -6q-39 0 -51 -33q-29 -82 -82 -303q-29 -111 0 -160q18 -33 77 -38q104 -12 230 -13 q72 0 141 45q82 45 178 174q39 49 58 50q20 0 10 -54q-10 -49 -43 -120.5t-60 -106.5q-31 -35 -49 -41q-29 -12 -123 -12q-45 0 -307 6t-323 6q-63 0 -150.5 -5t-111.5 -5q-63 0 -64 28q0 27 61 33q109 12 147 46t62 120l267 868q25 84 0 116t-127 48q-49 10 -49.5 33 t71.5 23q18 0 108.5 -4.5t149.5 -4.5h193q375 0 454 21q10 2 14.5 -13.5t0.5 -21.5q-53 -94 -80 -250q-4 -16 -18.5 -16t-30 18.5t-17.5 44.5q-6 119 -65 140q-39 14 -203 14q-41 0 -64.5 -8t-32.5 -17.5t-24 -33.5q-51 -82 -153 -461q-2 -8 3 -17.5t11 -9.5zM682 1649 q41 0 64.5 -32t21.5 -73q-2 -47 -39 -80.5t-78 -33.5q-37 0 -62.5 25.5t-23.5 76.5q2 47 39 82t78 35zM1069 1649q41 0 64.5 -32t21.5 -73q-2 -51 -40 -82.5t-79 -31.5q-37 0 -62.5 26.5t-23.5 75.5q2 47 40 82t79 35z" />
<glyph unicode="&#xcc;" horiz-adv-x="737" d="M301 1274q0 25 57 24q31 0 86.5 -1t90.5 -1q61 0 177.5 5.5t139.5 5.5q55 0 55 -23q0 -29 -63 -39q-76 -14 -99.5 -38.5t-56.5 -104.5q-37 -88 -130 -432t-116 -453q-20 -90 -5.5 -119.5t91.5 -44.5q53 -10 54 -30q0 -29 -60 -29q-35 0 -97.5 3t-82.5 3q-66 0 -180.5 -7 t-157.5 -7q-55 0 -55 24q0 27 55 35q49 6 78 15.5t51.5 40t29.5 47t32 79.5q29 74 120 397.5t119 446.5q23 100 9.5 128t-89.5 42q-51 8 -53 33zM479.5 1687.5q26.5 6.5 73.5 -45.5q117 -123 166 -186q29 -39 18 -59q-14 -27 -78 6q-190 106 -245 149q-35 29 -35 62 q0 18 61 59q13 8 39.5 14.5z" />
<glyph unicode="&#xcd;" horiz-adv-x="737" d="M301 1274q0 25 57 24q31 0 86.5 -1t90.5 -1q61 0 177.5 5.5t139.5 5.5q55 0 55 -23q0 -29 -63 -39q-76 -14 -99.5 -38.5t-56.5 -104.5q-37 -88 -130 -432t-116 -453q-20 -90 -5.5 -119.5t91.5 -44.5q53 -10 54 -30q0 -29 -60 -29q-35 0 -97.5 3t-82.5 3q-66 0 -180.5 -7 t-157.5 -7q-55 0 -55 24q0 27 55 35q49 6 78 15.5t51.5 40t29.5 47t32 79.5q29 74 120 397.5t119 446.5q23 100 9.5 128t-89.5 42q-51 8 -53 33zM983 1604q-6 -25 -49 -50q-145 -84 -326 -149q-59 -20 -76 -4q-8 4 0.5 25.5t28.5 39.5q139 121 289 217q39 20 57 11 q27 -6 54.5 -38t21.5 -52z" />
<glyph unicode="&#xce;" horiz-adv-x="737" d="M301 1274q0 25 57 24q31 0 86.5 -1t90.5 -1q61 0 177.5 5.5t139.5 5.5q55 0 55 -23q0 -29 -63 -39q-76 -14 -99.5 -38.5t-56.5 -104.5q-37 -88 -130 -432t-116 -453q-20 -90 -5.5 -119.5t91.5 -44.5q53 -10 54 -30q0 -29 -60 -29q-35 0 -97.5 3t-82.5 3q-66 0 -180.5 -7 t-157.5 -7q-55 0 -55 24q0 27 55 35q49 6 78 15.5t51.5 40t29.5 47t32 79.5q29 74 120 397.5t119 446.5q23 100 9.5 128t-89.5 42q-51 8 -53 33zM715 1663q23 0 49 -43q55 -90 127 -186q16 -27 11 -40.5t-21 -13.5q-23 0 -56 21q-92 55 -141 94q-14 14 -33 2 q-55 -29 -227 -98q-47 -18 -68 -19q-35 0 -10 33l21 21q18 14 119 85l147 103q55 41 82 41z" />
<glyph unicode="&#xcf;" horiz-adv-x="737" d="M301 1274q0 25 57 24q31 0 86.5 -1t90.5 -1q61 0 177.5 5.5t139.5 5.5q55 0 55 -23q0 -29 -63 -39q-76 -14 -99.5 -38.5t-56.5 -104.5q-37 -88 -130 -432t-116 -453q-20 -90 -5.5 -119.5t91.5 -44.5q53 -10 54 -30q0 -29 -60 -29q-35 0 -97.5 3t-82.5 3q-66 0 -180.5 -7 t-157.5 -7q-55 0 -55 24q0 27 55 35q49 6 78 15.5t51.5 40t29.5 47t32 79.5q29 74 120 397.5t119 446.5q23 100 9.5 128t-89.5 42q-51 8 -53 33zM473 1649q41 0 64.5 -32t21.5 -73q-2 -47 -39 -80.5t-78 -33.5q-37 0 -62.5 25.5t-23.5 76.5q2 47 39 82t78 35zM860 1649 q41 0 64.5 -32t21.5 -73q-2 -51 -40 -82.5t-79 -31.5q-37 0 -62.5 26.5t-23.5 75.5q2 47 40 82t79 35z" />
<glyph unicode="&#xd0;" horiz-adv-x="1509" d="M840 1309q266 0 428 -129q201 -156 200 -437q0 -201 -102 -367.5t-240 -248.5q-236 -139 -569 -139q-84 0 -186.5 6t-137.5 6q-45 0 -133 -4t-102 -4q-74 0 -74 26q0 27 68 37q88 8 129 44t78 155l110 360q2 6 -2 13.5t-10 7.5l-150 -4q-20 20 -14 37q2 14 13.5 28.5 t21.5 14.5l156 2q14 0 20 16q66 229 115 383q31 111 -37 123l-107 10q-57 4 -57 25q0 31 68 30q18 0 85.5 -2t96.5 -2q23 0 146 6.5t186 6.5zM831 1249q-45 0 -61 -10t-33 -41q-47 -90 -159 -465q-6 -18 8 -18l297 2q18 0 16 -25q-2 -16 -12 -32.5t-27 -16.5l-297 -6 q-18 0 -18 -25q-86 -287 -99 -424q-8 -74 37 -100q63 -43 109 -43q145 0 313 113q131 88 215 255t84 369q0 119 -37 224.5t-102 156.5q-111 86 -234 86z" />
<glyph unicode="&#xd1;" horiz-adv-x="1505" d="M252 1280q0 25 61 25q27 0 119 -4.5t139 -4.5q6 0 61.5 2t63.5 2q10 2 20.5 -15t22.5 -52q41 -115 190.5 -490.5t178.5 -439.5q4 -8 12 -10t13 6q164 477 225 766q20 92 -2.5 129t-118.5 53q-59 8 -59 33q0 23 57 23q31 0 85 -3.5t81 -3.5q49 0 141 4.5t109 4.5 q55 2 55 -25q4 -20 -61 -33q-74 -12 -112 -52t-79 -148q-109 -289 -260 -797q-16 -61 -16 -80q0 -45 17 -69.5t71 -51.5q27 -12 26 -31q0 -8 -17.5 -17t-27.5 -9q-106 8 -139 8q-78 0 -115 -6q-35 0 -45 33q-16 63 -65 188q-104 299 -262 705q-47 125 -62 147 q-18 27 -33 -12q-41 -100 -120.5 -383t-98.5 -383q-20 -137 -2.5 -179t98.5 -59q66 -12 66 -35q0 -27 -66 -26q-23 0 -89 5t-109 5t-120 -6t-103 -6q-68 0 -68 26q0 23 57 33q94 14 136.5 44t70.5 114q215 631 277 860q18 74 10 104q-10 47 -62 62q-14 4 -100 18 q-51 8 -51 31zM803 1483q43 55 84 94q33 29 65 29q49 0 140.5 -8.5t115.5 -6.5q35 2 105 72q10 10 18 8q12 -2 25 -33q4 -16 -10 -36q-43 -53 -111 -115q-39 -31 -64 -31q-31 0 -140 10.5t-126 8.5q-29 -4 -71 -64q-8 -14 -19 -14q-12 0 -23.5 13t-11.5 20q0 22 23 53z" />
<glyph unicode="&#xd2;" horiz-adv-x="1427" d="M956 1335q199 0 325 -140t126 -364q0 -215 -119 -438t-303 -332q-170 -102 -362 -102q-215 0 -338 123q-139 135 -140 369q0 182 100.5 395t270.5 344q82 66 200.5 105.5t239.5 39.5zM956 1278q-125 0 -254 -129q-137 -133 -222 -370.5t-85 -454.5q0 -131 56.5 -217.5 t173.5 -86.5q123 0 245 130q102 106 196.5 340.5t94.5 443.5q0 154 -50.5 249t-154.5 95zM884.5 1706q26.5 6 73.5 -45q117 -123 166 -186q29 -39 19 -60q-14 -27 -78 6q-190 106 -246 150q-35 29 -35 61q0 18 62 60q12 8 38.5 14z" />
<glyph unicode="&#xd3;" horiz-adv-x="1427" d="M956 1335q199 0 325 -140t126 -364q0 -215 -119 -438t-303 -332q-170 -102 -362 -102q-215 0 -338 123q-139 135 -140 369q0 182 100.5 395t270.5 344q82 66 200.5 105.5t239.5 39.5zM956 1278q-125 0 -254 -129q-137 -133 -222 -370.5t-85 -454.5q0 -131 56.5 -217.5 t173.5 -86.5q123 0 245 130q102 106 196.5 340.5t94.5 443.5q0 154 -50.5 249t-154.5 95zM1298 1620q-6 -25 -49 -49q-145 -84 -325 -150q-59 -20 -76 -4q-8 4 0 25.5t29 40.5q139 121 288 217q39 20 58 10q27 -6 54 -38t21 -52z" />
<glyph unicode="&#xd4;" horiz-adv-x="1427" d="M956 1335q199 0 325 -140t126 -364q0 -215 -119 -438t-303 -332q-170 -102 -362 -102q-215 0 -338 123q-139 135 -140 369q0 182 100.5 395t270.5 344q82 66 200.5 105.5t239.5 39.5zM956 1278q-125 0 -254 -129q-137 -133 -222 -370.5t-85 -454.5q0 -131 56.5 -217.5 t173.5 -86.5q123 0 245 130q102 106 196.5 340.5t94.5 443.5q0 154 -50.5 249t-154.5 95zM1079 1681q23 0 49 -43q55 -90 127 -186q16 -27 11.5 -40t-21.5 -13q-23 0 -55 20q-92 55 -141 94q-14 14 -33 3q-55 -29 -228 -99q-47 -18 -67 -18q-35 0 -10 33l20 20q18 14 120 85 l146 103q55 41 82 41z" />
<glyph unicode="&#xd5;" horiz-adv-x="1427" d="M956 1335q199 0 325 -140t126 -364q0 -215 -119 -438t-303 -332q-170 -102 -362 -102q-215 0 -338 123q-139 135 -140 369q0 182 100.5 395t270.5 344q82 66 200.5 105.5t239.5 39.5zM956 1278q-125 0 -254 -129q-137 -133 -222 -370.5t-85 -454.5q0 -131 56.5 -217.5 t173.5 -86.5q123 0 245 130q102 106 196.5 340.5t94.5 443.5q0 154 -50.5 249t-154.5 95zM760 1501q43 55 84 94q33 29 65 29q49 0 140.5 -8t115.5 -6q35 2 105 71q10 10 18 9q12 -2 25 -33q4 -16 -10 -37q-43 -53 -111 -115q-39 -31 -64 -30q-31 0 -140 10t-126 8 q-29 -4 -71 -63q-8 -14 -19 -15q-12 0 -23.5 13.5t-11.5 19.5q0 22 23 53z" />
<glyph unicode="&#xd6;" horiz-adv-x="1427" d="M956 1335q199 0 325 -140t126 -364q0 -215 -119 -438t-303 -332q-170 -102 -362 -102q-215 0 -338 123q-139 135 -140 369q0 182 100.5 395t270.5 344q82 66 200.5 105.5t239.5 39.5zM956 1278q-125 0 -254 -129q-137 -133 -222 -370.5t-85 -454.5q0 -131 56.5 -217.5 t173.5 -86.5q123 0 245 130q102 106 196.5 340.5t94.5 443.5q0 154 -50.5 249t-154.5 95zM842 1653q41 0 64.5 -32t21.5 -73q-2 -47 -39 -80.5t-78 -33.5q-37 0 -62.5 25.5t-23.5 76.5q2 47 39 82t78 35zM1229 1653q41 0 64.5 -32t21.5 -73q-2 -51 -40 -82.5t-79 -31.5 q-37 0 -62.5 26.5t-23.5 75.5q2 47 40 82t79 35z" />
<glyph unicode="&#xd7;" horiz-adv-x="1277" d="M238 881q-16 14 49 86q12 14 23.5 14t31.5 -23l340 -337q18 -18 35 -5l342 355q23 20 39 4q18 -18 29.5 -36.5t12.5 -30t-1 -17.5l-346 -356q-6 -8 -4 -20.5t8 -18.5l348 -349q16 -16 0.5 -46.5t-39.5 -53.5q-16 -18 -39 4l-362 361q-23 25 -43 0l-332 -332 q-20 -23 -28.5 -25t-25.5 13q-18 18 -30.5 45.5t-3.5 36.5l344 346q14 20 0 34z" />
<glyph unicode="&#xd8;" horiz-adv-x="1427" d="M954.5 1335q120.5 0 225.5 -57q8 -4 20 8l57 74q23 29 37 29q23 0 36 -18.5t7 -29.5l-77 -104q-10 -12 6 -27q141 -141 141 -383q0 -231 -114.5 -445t-299.5 -325q-166 -98 -370 -98q-133 0 -238 53q-14 4 -23 -4l-81 -110q-2 -2 -18.5 -1t-20.5 3q-35 29 -21 49l74 102 q6 14 -2 23q-147 160 -148 385q0 193 98.5 395.5t272.5 335.5q82 66 200 105.5t238.5 39.5zM453 109q66 -88 170 -89q129 0 254 132q106 115 199 330.5t93 430.5q0 84 -16 150q-2 6 -8 6t-12 -8l-678 -928q-10 -14 -2 -24zM958 1278q-127 0 -258 -127 q-152 -143 -231.5 -363.5t-79.5 -445.5q0 -49 17 -115q6 -27 18 -6l676 922q16 25 8 37q-20 31 -35.5 49t-45.5 33.5t-69 15.5z" />
<glyph unicode="&#xd9;" horiz-adv-x="1476" d="M258 1278q0 25 61 25q35 0 135.5 -3.5t129.5 -3.5q23 0 110.5 4.5t120.5 4.5q51 0 51 -23q0 -20 -57 -35q-61 -12 -85 -30.5t-46 -77.5q-47 -123 -174 -588q-72 -258 -15 -352q31 -51 106 -86t155 -35q150 0 236.5 65.5t135.5 192.5q45 111 125 361.5t99 342.5 q25 129 6 158t-119 45q-55 10 -55 33q0 25 53 24q31 0 110.5 -2t108.5 -2q41 0 103.5 4.5t82.5 4.5q55 0 56 -25q4 -20 -60 -35q-76 -14 -106.5 -51t-81.5 -164q-72 -193 -217 -614q-76 -219 -150 -293q-90 -94 -192.5 -127t-235.5 -33q-106 0 -213.5 43t-163.5 144 q-66 119 -36 260q41 197 165 624q35 115 20 156t-104 55q-59 13 -59 33zM909.5 1687.5q26.5 6.5 73.5 -45.5q117 -123 166 -186q29 -39 18 -59q-14 -27 -77 6q-190 106 -246 149q-35 29 -35 62q0 18 61 59q13 8 39.5 14.5z" />
<glyph unicode="&#xda;" horiz-adv-x="1476" d="M258 1278q0 25 61 25q35 0 135.5 -3.5t129.5 -3.5q23 0 110.5 4.5t120.5 4.5q51 0 51 -23q0 -20 -57 -35q-61 -12 -85 -30.5t-46 -77.5q-47 -123 -174 -588q-72 -258 -15 -352q31 -51 106 -86t155 -35q150 0 236.5 65.5t135.5 192.5q45 111 125 361.5t99 342.5 q25 129 6 158t-119 45q-55 10 -55 33q0 25 53 24q31 0 110.5 -2t108.5 -2q41 0 103.5 4.5t82.5 4.5q55 0 56 -25q4 -20 -60 -35q-76 -14 -106.5 -51t-81.5 -164q-72 -193 -217 -614q-76 -219 -150 -293q-90 -94 -192.5 -127t-235.5 -33q-106 0 -213.5 43t-163.5 144 q-66 119 -36 260q41 197 165 624q35 115 20 156t-104 55q-59 13 -59 33zM1380 1604q-6 -25 -49 -50q-145 -84 -325 -149q-59 -20 -76 -4q-8 4 0 25.5t28 39.5q139 121 289 217q39 20 58 11q27 -6 54 -38t21 -52z" />
<glyph unicode="&#xdb;" horiz-adv-x="1476" d="M258 1278q0 25 61 25q35 0 135.5 -3.5t129.5 -3.5q23 0 110.5 4.5t120.5 4.5q51 0 51 -23q0 -20 -57 -35q-61 -12 -85 -30.5t-46 -77.5q-47 -123 -174 -588q-72 -258 -15 -352q31 -51 106 -86t155 -35q150 0 236.5 65.5t135.5 192.5q45 111 125 361.5t99 342.5 q25 129 6 158t-119 45q-55 10 -55 33q0 25 53 24q31 0 110.5 -2t108.5 -2q41 0 103.5 4.5t82.5 4.5q55 0 56 -25q4 -20 -60 -35q-76 -14 -106.5 -51t-81.5 -164q-72 -193 -217 -614q-76 -219 -150 -293q-90 -94 -192.5 -127t-235.5 -33q-106 0 -213.5 43t-163.5 144 q-66 119 -36 260q41 197 165 624q35 115 20 156t-104 55q-59 13 -59 33zM1130 1681q23 0 50 -43q55 -90 127 -186q16 -27 11 -40t-22 -13q-23 0 -55 20q-92 55 -141 94q-14 14 -33 3q-55 -29 -227 -99q-47 -18 -68 -18q-35 0 -10 33l20 20q18 14 120 85l147 103q54 41 81 41 z" />
<glyph unicode="&#xdc;" horiz-adv-x="1476" d="M258 1278q0 25 61 25q35 0 135.5 -3.5t129.5 -3.5q23 0 110.5 4.5t120.5 4.5q51 0 51 -23q0 -20 -57 -35q-61 -12 -85 -30.5t-46 -77.5q-47 -123 -174 -588q-72 -258 -15 -352q31 -51 106 -86t155 -35q150 0 236.5 65.5t135.5 192.5q45 111 125 361.5t99 342.5 q25 129 6 158t-119 45q-55 10 -55 33q0 25 53 24q31 0 110.5 -2t108.5 -2q41 0 103.5 4.5t82.5 4.5q55 0 56 -25q4 -20 -60 -35q-76 -14 -106.5 -51t-81.5 -164q-72 -193 -217 -614q-76 -219 -150 -293q-90 -94 -192.5 -127t-235.5 -33q-106 0 -213.5 43t-163.5 144 q-66 119 -36 260q41 197 165 624q35 115 20 156t-104 55q-59 13 -59 33zM872 1651q41 0 65 -32t21 -73q-2 -47 -38.5 -80.5t-77.5 -33.5q-37 0 -62.5 25.5t-23.5 76.5q2 47 38.5 82t77.5 35zM1259.5 1651q40.5 0 64.5 -32t22 -73q-2 -51 -40 -82.5t-79 -31.5 q-37 0 -62.5 26.5t-23.5 75.5q2 47 40 82t78.5 35z" />
<glyph unicode="&#xdd;" horiz-adv-x="1263" d="M219 1278q4 25 70 25q23 0 108.5 -3.5t126.5 -3.5q57 0 132 4.5t87 4.5q55 0 56 -23q0 -25 -56 -35q-47 -10 -68.5 -24.5t-21.5 -34t4 -45.5q12 -74 49 -226.5t56 -195.5q10 -12 16 -2q66 70 183.5 213t156.5 205q29 59 13.5 80.5t-72.5 31.5q-37 8 -37 31t65 23 q8 0 69 -3.5t101 -3.5q27 0 107 4.5t92 4.5q55 0 55 -25q0 -18 -67 -35q-53 -10 -95 -32.5t-68 -44t-93 -85.5q-166 -158 -383 -428q-35 -41 -55 -114q-96 -330 -105 -379q-10 -94 107 -111q59 -8 59 -33q0 -29 -70 -28q-16 0 -104 5t-139 5q-74 0 -168 -6t-127 -6 q-61 0 -62 26q0 20 60 33q100 14 145 49t78 135l82 246q41 123 33 191q-16 129 -101 391q-35 113 -66.5 145.5t-107.5 44.5q-45 9 -45 29zM1280 1610q-6 -25 -49 -49q-145 -84 -326 -150q-59 -20 -76 -4q-8 4 0.5 25.5t28.5 40.5q139 121 289 217q39 20 57 10 q27 -6 54.5 -38t21.5 -52z" />
<glyph unicode="&#xde;" horiz-adv-x="1169" d="M328 1280q0 20 53 20q10 0 105.5 -2t119.5 -2q53 0 141.5 3.5t104.5 3.5t30.5 -8.5t14.5 -16.5q4 -23 -57 -31q-74 -10 -104.5 -48t-65.5 -165q-2 -6 3 -12t13 -6t26.5 1t30.5 1q186 0 285 -70q129 -92 129 -246q0 -252 -262 -370q-119 -53 -274 -53q-66 0 -66 36 q0 14 53 25q133 25 215 126t82 239q0 123 -57 186t-150 63q-53 0 -65 -30q-10 -27 -94 -325t-101 -363q-20 -113 -0.5 -141.5t105.5 -45.5q49 -8 49 -33q0 -27 -62 -26q-18 0 -100 5t-147 5q-45 0 -150.5 -5t-136.5 -5q-57 0 -57 24.5t63 36.5q82 14 115 41t63 111l273 884 q27 72 15.5 109t-79.5 49q-57 8 -61 35z" />
<glyph unicode="&#xdf;" horiz-adv-x="1034" d="M991 1444q143 0 204.5 -63.5t61.5 -135.5q-2 -94 -104 -168l-166 -108q-111 -74 -148.5 -129.5t-39.5 -120.5q0 -29 71 -182q66 -147 64 -220q-2 -53 -46 -120.5t-116 -118.5q-59 -45 -133 -78t-115 -33q-55 0 -96 26.5t-41 76.5q0 55 76 104q25 14 41 -8 q39 -37 84 -58.5t69 -21.5q45 0 73 27.5t28 66.5q0 16 -2 33.5t-6.5 32t-14.5 39.5l-15 37q-5 12 -20 42l-20 42q-86 176 -84 239q4 84 59.5 146.5t218.5 166.5q199 123 201 259q0 57 -43 103t-129 46q-143 0 -251.5 -128t-202.5 -419q-92 -289 -187 -762q-31 -152 -78 -256 t-97 -159.5t-124 -102.5q-63 -43 -133 -70.5t-96 -27.5q-66 0 -115 28.5t-49 81.5q0 20 20.5 54.5t42.5 46.5q37 18 50 6q37 -33 89 -64.5t83 -31.5q47 0 72.5 34.5t49.5 139.5l121 510q74 326 154 543t197 360q115 139 256 217t286 78z" />
<glyph unicode="&#xe0;" horiz-adv-x="958" d="M684 1354q25 0 39 -86q8 -49 15 -166t10 -129q2 -23 -8.5 -42.5t-20.5 -19.5q-12 0 -23.5 13.5t-15.5 25.5q-51 119 -88 258q-12 39 -6 62q12 29 42.5 56.5t55.5 27.5zM612 803q8 0 39 -12.5t49 -30.5q2 -4 10.5 -1t10.5 9q25 41 35 59.5t39 18.5q45 0 110 -37 q4 -2 5 -15.5t-3 -23.5q-195 -504 -219 -582q-8 -27 3 -39t30 -12q66 0 168 115q12 12 21.5 9t9.5 -17q0 -27 -19 -56q-66 -111 -160 -166t-168 -55q-43 0 -70.5 22.5t-29.5 57.5q0 16 72 201q8 16 -2 22q-6 4 -13 -2q-123 -137 -241.5 -219t-196.5 -82q-33 0 -70.5 26.5 t-37.5 61.5q0 76 82 215q90 147 229 294t242 208q50 31 75 31zM578 670q-119 0 -209 -119q-55 -70 -99.5 -170t-44.5 -176q0 -35 13.5 -54.5t29.5 -19.5q59 0 170 129q121 133 205 322q16 35 6 51q-36 37 -71 37z" />
<glyph unicode="&#xe1;" horiz-adv-x="958" d="M829 1282q23 33 54 33q20 0 39.5 -38t19.5 -60q-6 -31 -24 -54q-96 -111 -220 -219q-39 -39 -67 -37q-8 0 -12.5 8.5t-2.5 21.5t11 30q71 131 202 315zM612 803q8 0 39 -12.5t49 -30.5q2 -4 10.5 -1t10.5 9q25 41 35 59.5t39 18.5q45 0 110 -37q4 -2 5 -15.5t-3 -23.5 q-195 -504 -219 -582q-8 -27 3 -39t30 -12q66 0 168 115q12 12 21.5 9t9.5 -17q0 -27 -19 -56q-66 -111 -160 -166t-168 -55q-43 0 -70.5 22.5t-29.5 57.5q0 16 72 201q8 16 -2 22q-6 4 -13 -2q-123 -137 -241.5 -219t-196.5 -82q-33 0 -70.5 26.5t-37.5 61.5q0 76 82 215 q90 147 229 294t242 208q50 31 75 31zM578 670q-119 0 -209 -119q-55 -70 -99.5 -170t-44.5 -176q0 -35 13.5 -54.5t29.5 -19.5q59 0 170 129q121 133 205 322q16 35 6 51q-36 37 -71 37z" />
<glyph unicode="&#xe2;" horiz-adv-x="958" d="M815 1309q27 0 33 -58l33 -282q2 -20 -5.5 -40t-23.5 -20q-14 0 -35 43l-57 162q-4 12 -19 2q-150 -141 -184 -170q-31 -31 -68 -31q-10 0 -13 9.5t1 23t15 23.5q121 129 251 286q47 52 72 52zM612 803q8 0 39 -12.5t49 -30.5q2 -4 10.5 -1t10.5 9q25 41 35 59.5t39 18.5 q45 0 110 -37q4 -2 5 -15.5t-3 -23.5q-195 -504 -219 -582q-8 -27 3 -39t30 -12q66 0 168 115q12 12 21.5 9t9.5 -17q0 -27 -19 -56q-66 -111 -160 -166t-168 -55q-43 0 -70.5 22.5t-29.5 57.5q0 16 72 201q8 16 -2 22q-6 4 -13 -2q-123 -137 -241.5 -219t-196.5 -82 q-33 0 -70.5 26.5t-37.5 61.5q0 76 82 215q90 147 229 294t242 208q50 31 75 31zM578 670q-119 0 -209 -119q-55 -70 -99.5 -170t-44.5 -176q0 -35 13.5 -54.5t29.5 -19.5q59 0 170 129q121 133 205 322q16 35 6 51q-36 37 -71 37z" />
<glyph unicode="&#xe3;" horiz-adv-x="958" d="M602 1051q-20 0 -61 -50q-12 -12 -23 -12q-6 0 -21.5 16.5t-15.5 20.5t19.5 29.5t56.5 62.5t74 62q18 12 35 8q90 -23 153 -23q55 0 74 15q14 10 61 65q2 4 13.5 -2t21.5 -16t10 -17q0 -10 -8 -18q-16 -16 -74.5 -79.5t-64.5 -68.5q-16 -16 -31 -16q-10 0 -88 11.5 t-131 11.5zM612 803q8 0 39 -12.5t49 -30.5q2 -4 10.5 -1t10.5 9q25 41 35 59.5t39 18.5q45 0 110 -37q4 -2 5 -15.5t-3 -23.5q-195 -504 -219 -582q-8 -27 3 -39t30 -12q66 0 168 115q12 12 21.5 9t9.5 -17q0 -27 -19 -56q-66 -111 -160 -166t-168 -55q-43 0 -70.5 22.5 t-29.5 57.5q0 16 72 201q8 16 -2 22q-6 4 -13 -2q-123 -137 -241.5 -219t-196.5 -82q-33 0 -70.5 26.5t-37.5 61.5q0 76 82 215q90 147 229 294t242 208q50 31 75 31zM578 670q-119 0 -209 -119q-55 -70 -99.5 -170t-44.5 -176q0 -35 13.5 -54.5t29.5 -19.5q59 0 170 129 q121 133 205 322q16 35 6 51q-36 37 -71 37z" />
<glyph unicode="&#xe4;" horiz-adv-x="958" d="M580 1243q41 0 63.5 -28.5t22.5 -65.5q0 -47 -34 -84t-81 -37q-33 0 -56.5 28.5t-23.5 67.5q0 51 34 85t75 34zM922 1243q41 0 63.5 -28.5t22.5 -65.5q0 -45 -33 -83t-80 -38q-35 0 -58.5 28.5t-23.5 67.5q0 47 35 83t74 36zM612 803q8 0 39 -12.5t49 -30.5q2 -4 10.5 -1 t10.5 9q25 41 35 59.5t39 18.5q45 0 110 -37q4 -2 5 -15.5t-3 -23.5q-195 -504 -219 -582q-8 -27 3 -39t30 -12q66 0 168 115q12 12 21.5 9t9.5 -17q0 -27 -19 -56q-66 -111 -160 -166t-168 -55q-43 0 -70.5 22.5t-29.5 57.5q0 16 72 201q8 16 -2 22q-6 4 -13 -2 q-123 -137 -241.5 -219t-196.5 -82q-33 0 -70.5 26.5t-37.5 61.5q0 76 82 215q90 147 229 294t242 208q50 31 75 31zM578 670q-119 0 -209 -119q-55 -70 -99.5 -170t-44.5 -176q0 -35 13.5 -54.5t29.5 -19.5q59 0 170 129q121 133 205 322q16 35 6 51q-36 37 -71 37z" />
<glyph unicode="&#xe5;" horiz-adv-x="958" d="M768 1284q72 0 112 -54t27.5 -120t-63.5 -111t-121 -45q-74 0 -114 52.5t-27 119.5q12 66 64 112t122 46zM760 1225q-35 0 -63.5 -30t-37.5 -73q-8 -47 13.5 -77.5t58.5 -30.5q82 0 103 106q8 39 -13.5 72t-60.5 33zM612 803q8 0 39 -12.5t49 -30.5q2 -4 10.5 -1t10.5 9 q25 41 35 59.5t39 18.5q45 0 110 -37q4 -2 5 -15.5t-3 -23.5q-195 -504 -219 -582q-8 -27 3 -39t30 -12q66 0 168 115q12 12 21.5 9t9.5 -17q0 -27 -19 -56q-66 -111 -160 -166t-168 -55q-43 0 -70.5 22.5t-29.5 57.5q0 16 72 201q8 16 -2 22q-6 4 -13 -2 q-123 -137 -241.5 -219t-196.5 -82q-33 0 -70.5 26.5t-37.5 61.5q0 76 82 215q90 147 229 294t242 208q50 31 75 31zM578 670q-119 0 -209 -119q-55 -70 -99.5 -170t-44.5 -176q0 -35 13.5 -54.5t29.5 -19.5q59 0 170 129q121 133 205 322q16 35 6 51q-36 37 -71 37z" />
<glyph unicode="&#xe6;" horiz-adv-x="1013" d="M831 834q70 0 113 -43t43 -91q0 -51 -25.5 -99t-53 -77.5t-93 -69.5t-95.5 -55.5t-112 -54.5q-6 -4 -12 -25q-6 -84 17.5 -149.5t97.5 -65.5q55 0 145 76q23 16 31 17q12 0 10 -23q0 -55 -113.5 -131t-210.5 -76q-57 0 -109 47t-65 140q0 6 -5 8t-9 -2 q-74 -72 -167 -132.5t-161 -60.5q-31 0 -60.5 26.5t-29.5 74.5q0 131 156 297.5t342 285.5q37 23 110 74q145 109 256 109zM240 123q27 0 66.5 30.5t68.5 77.5q20 31 20 66q18 135 72 260q10 27 -4 25q-2 -2 -6 -4q-78 -57 -172.5 -179.5t-94.5 -212.5q1 -63 50 -63z M791 772q-51 0 -113 -107.5t-76 -244.5q0 -8 3 -11t7 -1q78 35 151 129t73 159q0 76 -45 76z" />
<glyph unicode="&#xe7;" horiz-adv-x="702" d="M362 119q100 0 211 104q4 4 10.5 7t11.5 4.5t9 0t6 -4.5t2 -7q0 -31 -26 -65q-47 -57 -113 -111q-88 -68 -127 -112t-39 -82q0 -33 39 -103q27 -47 27 -94q0 -29 -32 -65.5t-75 -61.5q-63 -33 -106 -33q-49 0 -88 36t-39 81q0 18 7 31.5t15 13.5q16 0 41 -23 q61 -57 109 -57q35 0 35 31t-54 110q-29 47 -28 78q0 37 39 84q10 12 137 109q-37 -12 -90 -13q-96 0 -142.5 71t-46.5 153q0 66 25.5 159t62.5 158q57 106 124 175t159 108q76 35 170 35q57 0 94 -21q37 -14 37 -47q0 -51 -31.5 -95t-56.5 -44q-23 0 -37 22q-2 6 -8 18.5 t-9 17.5t-8.5 16.5t-8.5 16.5t-9 13t-10 12.5t-10.5 9.5t-11.5 7t-12 4t-15 2q-57 0 -127 -141q-102 -190 -103 -365q0 -143 92 -143z" />
<glyph unicode="&#xe8;" horiz-adv-x="768" d="M604.5 1348q24.5 0 38.5 -86q8 -49 15.5 -166t9.5 -129q2 -23 -8.5 -42.5t-20.5 -19.5q-12 0 -23.5 13.5t-15.5 25.5q-51 119 -88 258q-12 39 -6 62q12 29 43 56.5t55.5 27.5zM590 834q90 0 132 -44.5t42 -97.5q0 -129 -184 -217q-90 -43 -265 -86q-18 -4 -28 -33 q-18 -55 -19 -123q0 -57 29 -88.5t68 -31.5q98 0 217 102q39 31 49 31q14 0 14 -15q0 -31 -27 -61q-68 -84 -170 -141.5t-208 -57.5q-59 0 -124 67.5t-65 170.5q0 104 61.5 237.5t147.5 223.5q76 76 166 120t164 44zM565 776q-66 0 -140.5 -98t-107.5 -211q-2 -10 1.5 -16.5 t11.5 -4.5q125 43 198.5 126t73.5 147q0 57 -37 57z" />
<glyph unicode="&#xe9;" horiz-adv-x="768" d="M729 1282q23 33 53 33q20 0 40 -38t20 -60q-6 -31 -25 -54q-96 -111 -219 -219q-39 -39 -68 -37q-8 0 -12 8.5t-2 21.5t10 30q72 131 203 315zM590 834q90 0 132 -44.5t42 -97.5q0 -129 -184 -217q-90 -43 -265 -86q-18 -4 -28 -33q-18 -55 -19 -123q0 -57 29 -88.5 t68 -31.5q98 0 217 102q39 31 49 31q14 0 14 -15q0 -31 -27 -61q-68 -84 -170 -141.5t-208 -57.5q-59 0 -124 67.5t-65 170.5q0 104 61.5 237.5t147.5 223.5q76 76 166 120t164 44zM565 776q-66 0 -140.5 -98t-107.5 -211q-2 -10 1.5 -16.5t11.5 -4.5q125 43 198.5 126 t73.5 147q0 57 -37 57z" />
<glyph unicode="&#xea;" horiz-adv-x="768" d="M700 1309q27 0 33 -58l33 -282q2 -20 -5 -40t-24 -20q-14 0 -35 43l-57 162q-4 12 -18 2q-150 -141 -185 -170q-31 -31 -67 -31q-10 0 -13.5 9.5t1 23t14.5 23.5q121 129 252 286q46 52 71 52zM590 834q90 0 132 -44.5t42 -97.5q0 -129 -184 -217q-90 -43 -265 -86 q-18 -4 -28 -33q-18 -55 -19 -123q0 -57 29 -88.5t68 -31.5q98 0 217 102q39 31 49 31q14 0 14 -15q0 -31 -27 -61q-68 -84 -170 -141.5t-208 -57.5q-59 0 -124 67.5t-65 170.5q0 104 61.5 237.5t147.5 223.5q76 76 166 120t164 44zM565 776q-66 0 -140.5 -98t-107.5 -211 q-2 -10 1.5 -16.5t11.5 -4.5q125 43 198.5 126t73.5 147q0 57 -37 57z" />
<glyph unicode="&#xeb;" horiz-adv-x="768" d="M442 1243q41 0 63.5 -28.5t22.5 -65.5q0 -47 -33.5 -84t-80.5 -37q-33 0 -56.5 28.5t-23.5 67.5q0 51 33.5 85t74.5 34zM784 1243q41 0 63.5 -28.5t22.5 -65.5q0 -45 -32.5 -83t-79.5 -38q-35 0 -58.5 28.5t-23.5 67.5q0 47 34.5 83t73.5 36zM590 834q90 0 132 -44.5 t42 -97.5q0 -129 -184 -217q-90 -43 -265 -86q-18 -4 -28 -33q-18 -55 -19 -123q0 -57 29 -88.5t68 -31.5q98 0 217 102q39 31 49 31q14 0 14 -15q0 -31 -27 -61q-68 -84 -170 -141.5t-208 -57.5q-59 0 -124 67.5t-65 170.5q0 104 61.5 237.5t147.5 223.5q76 76 166 120 t164 44zM565 776q-66 0 -140.5 -98t-107.5 -211q-2 -10 1.5 -16.5t11.5 -4.5q125 43 198.5 126t73.5 147q0 57 -37 57z" />
<glyph unicode="&#xec;" horiz-adv-x="573" d="M430.5 1348q24.5 0 38.5 -86q8 -49 15.5 -166t9.5 -129q2 -23 -8.5 -42.5t-20.5 -19.5q-12 0 -23.5 13.5t-15.5 25.5q-51 119 -88 258q-12 39 -6 62q12 29 43 56.5t55.5 27.5zM461 829q14 0 31.5 -22.5t17.5 -36.5q0 -20 -23 -72l-206 -520q-4 -14 3 -22.5t19 -8.5 q18 0 67.5 34t96.5 79q31 25 43 25q14 0 14 -15q0 -33 -37 -73q-68 -86 -190.5 -160t-187.5 -74q-25 0 -52.5 20.5t-27.5 39.5q0 14 8 34l231 559q4 14 0 25.5t-16 9.5q-57 -8 -135 -67q-8 -6 -18.5 -1t-10.5 13q0 20 25 51q45 47 159.5 114.5t188.5 67.5z" />
<glyph unicode="&#xed;" horiz-adv-x="573" d="M586 1282q23 33 53 33q20 0 39.5 -38t19.5 -60q-6 -31 -24 -54q-96 -111 -219 -219q-39 -39 -68 -37q-8 0 -12 8.5t-2 21.5t10 30q72 131 203 315zM461 829q14 0 31.5 -22.5t17.5 -36.5q0 -20 -23 -72l-206 -520q-4 -14 3 -22.5t19 -8.5q18 0 67.5 34t96.5 79 q31 25 43 25q14 0 14 -15q0 -33 -37 -73q-68 -86 -190.5 -160t-187.5 -74q-25 0 -52.5 20.5t-27.5 39.5q0 14 8 34l231 559q4 14 0 25.5t-16 9.5q-57 -8 -135 -67q-8 -6 -18.5 -1t-10.5 13q0 20 25 51q45 47 159.5 114.5t188.5 67.5z" />
<glyph unicode="&#xee;" horiz-adv-x="573" d="M530 1309q27 0 33 -58l33 -282q2 -20 -5 -40t-24 -20q-14 0 -35 43l-57 162q-4 12 -18 2q-150 -141 -185 -170q-31 -31 -67 -31q-10 0 -13.5 9.5t1 23t14.5 23.5q121 129 252 286q46 52 71 52zM461 829q14 0 31.5 -22.5t17.5 -36.5q0 -20 -23 -72l-206 -520 q-4 -14 3 -22.5t19 -8.5q18 0 67.5 34t96.5 79q31 25 43 25q14 0 14 -15q0 -33 -37 -73q-68 -86 -190.5 -160t-187.5 -74q-25 0 -52.5 20.5t-27.5 39.5q0 14 8 34l231 559q4 14 0 25.5t-16 9.5q-57 -8 -135 -67q-8 -6 -18.5 -1t-10.5 13q0 20 25 51q45 47 159.5 114.5 t188.5 67.5z" />
<glyph unicode="&#xef;" horiz-adv-x="573" d="M293 1243q41 0 63.5 -28.5t22.5 -65.5q0 -47 -34 -84t-81 -37q-33 0 -56.5 28.5t-23.5 67.5q0 51 34 85t75 34zM635 1243q41 0 63.5 -28.5t22.5 -65.5q0 -45 -33 -83t-80 -38q-35 0 -58.5 28.5t-23.5 67.5q0 47 35 83t74 36zM461 829q14 0 31.5 -22.5t17.5 -36.5 q0 -20 -23 -72l-206 -520q-4 -14 3 -22.5t19 -8.5q18 0 67.5 34t96.5 79q31 25 43 25q14 0 14 -15q0 -33 -37 -73q-68 -86 -190.5 -160t-187.5 -74q-25 0 -52.5 20.5t-27.5 39.5q0 14 8 34l231 559q4 14 0 25.5t-16 9.5q-57 -8 -135 -67q-8 -6 -18.5 -1t-10.5 13q0 20 25 51 q45 47 159.5 114.5t188.5 67.5z" />
<glyph unicode="&#xf0;" horiz-adv-x="901" d="M588 838q31 0 47 -4q8 -2 11 3t3 13q0 18 -4 56t-10 80t-17.5 70.5t-25.5 22.5l-180 -78q-6 -6 -20.5 9.5t-16.5 23.5q0 25 28 37l36 15l48 21q23 9 45.5 20.5t36 19.5t11.5 12q-47 92 -101.5 155.5t-81 85t-24.5 30.5q0 10 12 17t21 7q51 0 142 -72.5t148 -160.5 q12 -16 19 -11l192 82q16 8 25 -6q16 -41 10 -49q0 -4 -4 -8t-8 -6l-4 -2q-10 -4 -35 -15.5t-47.5 -20.5t-44 -20.5t-33.5 -20.5t-8 -14q90 -203 90 -417q0 -242 -113.5 -433.5t-265.5 -265.5q-82 -43 -180 -45q-16 -2 -51 2q-76 12 -129.5 76t-53.5 160q0 113 67.5 265.5 t199.5 254.5q141 111 266 111zM598 780q-45 0 -106 -61q-92 -94 -162 -260t-70 -342q0 -39 17.5 -62.5t44.5 -23.5q47 0 114 78q80 88 148.5 282.5t68.5 313.5q0 31 -16 53t-39 22z" />
<glyph unicode="&#xf1;" horiz-adv-x="1071" d="M567 1044q-20 0 -61 -49q-12 -12 -23 -12q-6 0 -21.5 16.5t-15.5 20.5t19.5 29.5t56.5 62.5t74 62q18 12 35 8q90 -23 153 -23q55 0 74 15q14 10 62 65q2 4 13 -2t21.5 -16.5t10.5 -16.5q0 -10 -9 -18q-16 -16 -74.5 -80t-64.5 -68q-16 -16 -31 -16q-10 0 -88 11t-131 11 zM836 831q63 0 100 -39.5t37 -91.5q0 -57 -29 -131q-90 -240 -160 -364q-27 -55 9 -55q23 0 77 33.5t95 72.5q37 37 36 -4q0 -27 -30 -68q-61 -82 -177 -150.5t-200 -68.5q-45 0 -76 47q-18 29 -2 62q23 43 137.5 281.5t128.5 281.5q29 90 -32 90q-35 0 -93.5 -51 t-115.5 -133q-53 -74 -160 -250l-125 -205q-76 -125 -109 -125q-41 0 -70.5 26.5t-29.5 53.5q-2 37 47 147l62 135l80 176q37 83 63 150q16 33 -10 33q-12 0 -24.5 -3t-25.5 -10l-23 -13q-9 -5 -24.5 -17t-20.5 -17.5t-22.5 -20.5t-19.5 -17q-14 -14 -29 -15q-4 -2 -9 7.5 t-5 15.5q0 76 93 156.5t222 80.5q20 0 45 -14t31 -39q8 -25 -8 -65q-39 -96 -111 -254q-10 -25 2 -29q10 -4 21 14q45 68 122 160t124 129q123 98 209 98z" />
<glyph unicode="&#xf2;" horiz-adv-x="907" d="M628.5 1348q24.5 0 39.5 -86q8 -49 15 -166t9 -129q2 -23 -8 -42.5t-20 -19.5q-12 0 -23.5 13.5t-15.5 25.5q-51 119 -88 258q-12 39 -7 62q12 29 43 56.5t55.5 27.5zM598 834q109 0 173.5 -81t64.5 -175q0 -188 -107.5 -345t-255.5 -223q-98 -43 -190 -43 q-88 0 -159 65.5t-71 184.5q0 102 66.5 249.5t177.5 244.5q141 123 301 123zM578 774q-47 0 -109 -74q-82 -98 -145.5 -267t-63.5 -320q0 -35 19.5 -60.5t48.5 -25.5q31 0 86 57q70 74 149.5 275.5t79.5 330.5q1 84 -65 84z" />
<glyph unicode="&#xf3;" horiz-adv-x="907" d="M756 1282q23 33 53 33q20 0 39.5 -38t19.5 -60q-6 -31 -24 -54q-96 -111 -219 -219q-39 -39 -68 -37q-8 0 -12 8.5t-2 21.5t10 30q72 131 203 315zM598 834q109 0 173.5 -81t64.5 -175q0 -188 -107.5 -345t-255.5 -223q-98 -43 -190 -43q-88 0 -159 65.5t-71 184.5 q0 102 66.5 249.5t177.5 244.5q141 123 301 123zM578 774q-47 0 -109 -74q-82 -98 -145.5 -267t-63.5 -320q0 -35 19.5 -60.5t48.5 -25.5q31 0 86 57q70 74 149.5 275.5t79.5 330.5q1 84 -65 84z" />
<glyph unicode="&#xf4;" horiz-adv-x="907" d="M731 1309q27 0 33 -58l33 -282q2 -20 -5.5 -40t-23.5 -20q-14 0 -35 43l-57 162q-4 12 -19 2q-150 -141 -184 -170q-31 -31 -67 -31q-10 0 -13.5 9.5t0.5 23t15 23.5q121 129 251 286q47 52 72 52zM598 834q109 0 173.5 -81t64.5 -175q0 -188 -107.5 -345t-255.5 -223 q-98 -43 -190 -43q-88 0 -159 65.5t-71 184.5q0 102 66.5 249.5t177.5 244.5q141 123 301 123zM578 774q-47 0 -109 -74q-82 -98 -145.5 -267t-63.5 -320q0 -35 19.5 -60.5t48.5 -25.5q31 0 86 57q70 74 149.5 275.5t79.5 330.5q1 84 -65 84z" />
<glyph unicode="&#xf5;" horiz-adv-x="907" d="M506 1051q-20 0 -62 -50q-12 -12 -22 -12q-6 0 -21.5 16.5t-15.5 20.5t19.5 29.5t56.5 62.5t74 62q18 12 34 8q90 -23 154 -23q55 0 74 15q14 10 61 65q2 4 13.5 -2t21.5 -16t10 -17q0 -10 -8 -18q-16 -16 -74.5 -79.5t-64.5 -68.5q-16 -16 -31 -16q-10 0 -88 11.5 t-131 11.5zM598 834q109 0 173.5 -81t64.5 -175q0 -188 -107.5 -345t-255.5 -223q-98 -43 -190 -43q-88 0 -159 65.5t-71 184.5q0 102 66.5 249.5t177.5 244.5q141 123 301 123zM578 774q-47 0 -109 -74q-82 -98 -145.5 -267t-63.5 -320q0 -35 19.5 -60.5t48.5 -25.5 q31 0 86 57q70 74 149.5 275.5t79.5 330.5q1 84 -65 84z" />
<glyph unicode="&#xf6;" horiz-adv-x="907" d="M504 1243q41 0 63.5 -28.5t22.5 -65.5q0 -47 -34 -84t-81 -37q-33 0 -56.5 28.5t-23.5 67.5q0 51 34 85t75 34zM846 1243q41 0 63.5 -28.5t22.5 -65.5q0 -45 -33 -83t-80 -38q-35 0 -58.5 28.5t-23.5 67.5q0 47 35 83t74 36zM598 834q109 0 173.5 -81t64.5 -175 q0 -188 -107.5 -345t-255.5 -223q-98 -43 -190 -43q-88 0 -159 65.5t-71 184.5q0 102 66.5 249.5t177.5 244.5q141 123 301 123zM578 774q-47 0 -109 -74q-82 -98 -145.5 -267t-63.5 -320q0 -35 19.5 -60.5t48.5 -25.5q31 0 86 57q70 74 149.5 275.5t79.5 330.5q1 84 -65 84 z" />
<glyph unicode="&#xf7;" horiz-adv-x="1277" d="M676 299q49 0 82 -34t33 -79q0 -53 -33 -89t-82 -36t-82 36t-33 89q0 45 33 79t82 34zM676 733q-43 0 -77 34t-34 83q0 47 34 83t77 36q53 0 86 -35t33 -84t-33 -83t-86 -34zM1163 582q18 0 24.5 -5.5t6.5 -19.5q0 -37 -9 -67.5t-20 -30.5h-960q-27 0 -34 5t-7 25 q0 23 9 58t20 35h970z" />
<glyph unicode="&#xf8;" horiz-adv-x="917" d="M657 645l-387 -549q-12 -16 -4 -26q6 -14 25.5 -25.5t32.5 -11.5q59 0 116 59q80 84 148.5 247t79.5 294q2 16 -4 16q-5 0 -7 -4zM586 772q-59 0 -133 -78q-193 -229 -207 -504q-2 -6 1 -9t9 5l381 547q14 14 0 21q-22 18 -51 18zM602 836q43 0 86 -15q8 -2 19 6l28 41 q20 23 41 23q12 0 21.5 -5t12.5 -10.5t1 -9.5l-49 -78q-12 -12 2 -20q82 -78 82 -188q0 -193 -107.5 -347.5t-255.5 -220.5q-98 -43 -194 -43q-39 0 -84 19q-8 4 -19 -8q-2 -4 -17 -27t-26 -33q-6 -10 -16 -6q-20 10 -27.5 28.5t0.5 26.5l33 43q6 8 -4 23q-72 72 -72 194 q0 104 63.5 245.5t174.5 238.5q143 123 307 123z" />
<glyph unicode="&#xf9;" horiz-adv-x="1038" d="M645.5 1348q24.5 0 38.5 -86q8 -49 15.5 -166t9.5 -129q2 -23 -8.5 -42.5t-20.5 -19.5q-12 0 -23.5 13.5t-15.5 25.5q-51 119 -88 258q-12 39 -6 62q12 29 43 56.5t55.5 27.5zM446 834q10 0 28 -14.5t26 -33.5q10 -23 -6 -53q-35 -72 -113 -266.5t-92 -245.5 q-10 -41 -2 -60.5t26 -19.5q49 0 141.5 96.5t178.5 239.5q74 123 166 295q12 20 32.5 41t38.5 21q33 0 65 -24t32 -40q0 -37 -19 -78q-147 -350 -190 -485q-10 -41 16 -41q23 0 75 32.5t118 98.5q8 8 20 9t12 -11q0 -23 -12 -47q-45 -94 -175 -187.5t-216 -93.5 q-20 0 -42 25.5t-22 40.5q0 12 7 33q4 12 47 116.5t49 124.5q10 33 -2 33q-10 -2 -29 -23q-145 -180 -336 -301q-78 -49 -141 -49q-47 0 -72 31q-29 35 -4 100q55 156 211 518q18 43 -2 43q-18 0 -131 -75q-10 -6 -21.5 -10.5t-19.5 -2.5t-8 9q0 12 16 38q29 53 150.5 134.5 t199.5 81.5z" />
<glyph unicode="&#xfa;" horiz-adv-x="1038" d="M811 1282q23 33 53 33q20 0 40 -38t20 -60q-6 -31 -25 -54q-96 -111 -219 -219q-39 -39 -68 -37q-8 0 -12 8.5t-2 21.5t10 30q72 131 203 315zM446 834q10 0 28 -14.5t26 -33.5q10 -23 -6 -53q-35 -72 -113 -266.5t-92 -245.5q-10 -41 -2 -60.5t26 -19.5q49 0 141.5 96.5 t178.5 239.5q74 123 166 295q12 20 32.5 41t38.5 21q33 0 65 -24t32 -40q0 -37 -19 -78q-147 -350 -190 -485q-10 -41 16 -41q23 0 75 32.5t118 98.5q8 8 20 9t12 -11q0 -23 -12 -47q-45 -94 -175 -187.5t-216 -93.5q-20 0 -42 25.5t-22 40.5q0 12 7 33q4 12 47 116.5 t49 124.5q10 33 -2 33q-10 -2 -29 -23q-145 -180 -336 -301q-78 -49 -141 -49q-47 0 -72 31q-29 35 -4 100q55 156 211 518q18 43 -2 43q-18 0 -131 -75q-10 -6 -21.5 -10.5t-19.5 -2.5t-8 9q0 12 16 38q29 53 150.5 134.5t199.5 81.5z" />
<glyph unicode="&#xfb;" horiz-adv-x="1038" d="M791 1309q27 0 32 -58l33 -282q2 -20 -5 -40t-24 -20q-14 0 -34 43l-58 162q-4 12 -18 2q-150 -141 -185 -170q-31 -31 -67 -31q-10 0 -13 9.5t1 23t14 23.5q121 129 252 286q47 52 72 52zM446 834q10 0 28 -14.5t26 -33.5q10 -23 -6 -53q-35 -72 -113 -266.5t-92 -245.5 q-10 -41 -2 -60.5t26 -19.5q49 0 141.5 96.5t178.5 239.5q74 123 166 295q12 20 32.5 41t38.5 21q33 0 65 -24t32 -40q0 -37 -19 -78q-147 -350 -190 -485q-10 -41 16 -41q23 0 75 32.5t118 98.5q8 8 20 9t12 -11q0 -23 -12 -47q-45 -94 -175 -187.5t-216 -93.5 q-20 0 -42 25.5t-22 40.5q0 12 7 33q4 12 47 116.5t49 124.5q10 33 -2 33q-10 -2 -29 -23q-145 -180 -336 -301q-78 -49 -141 -49q-47 0 -72 31q-29 35 -4 100q55 156 211 518q18 43 -2 43q-18 0 -131 -75q-10 -6 -21.5 -10.5t-19.5 -2.5t-8 9q0 12 16 38q29 53 150.5 134.5 t199.5 81.5z" />
<glyph unicode="&#xfc;" horiz-adv-x="1038" d="M528 1243q41 0 63.5 -28.5t22.5 -65.5q0 -47 -33.5 -84t-80.5 -37q-33 0 -56.5 28.5t-23.5 67.5q0 51 33.5 85t74.5 34zM870 1243q41 0 63.5 -28.5t22.5 -65.5q0 -45 -32.5 -83t-79.5 -38q-35 0 -58.5 28.5t-23.5 67.5q0 47 34.5 83t73.5 36zM446 834q10 0 28 -14.5 t26 -33.5q10 -23 -6 -53q-35 -72 -113 -266.5t-92 -245.5q-10 -41 -2 -60.5t26 -19.5q49 0 141.5 96.5t178.5 239.5q74 123 166 295q12 20 32.5 41t38.5 21q33 0 65 -24t32 -40q0 -37 -19 -78q-147 -350 -190 -485q-10 -41 16 -41q23 0 75 32.5t118 98.5q8 8 20 9t12 -11 q0 -23 -12 -47q-45 -94 -175 -187.5t-216 -93.5q-20 0 -42 25.5t-22 40.5q0 12 7 33q4 12 47 116.5t49 124.5q10 33 -2 33q-10 -2 -29 -23q-145 -180 -336 -301q-78 -49 -141 -49q-47 0 -72 31q-29 35 -4 100q55 156 211 518q18 43 -2 43q-18 0 -131 -75q-10 -6 -21.5 -10.5 t-19.5 -2.5t-8 9q0 12 16 38q29 53 150.5 134.5t199.5 81.5z" />
<glyph unicode="&#xfd;" horiz-adv-x="817" d="M678 1282q23 33 53 33q20 0 40 -38t20 -60q-6 -31 -25 -54q-96 -111 -219 -219q-39 -39 -68 -37q-8 0 -12 8.5t-2 21.5t10 30q72 131 203 315zM324 834q41 0 77.5 -59.5t44.5 -131.5q35 -285 13 -502q0 -18 14 -10q6 6 16 21q168 291 177 651q0 14 14 26.5t25 12.5 q29 0 59.5 -39t30.5 -60q0 -115 -76 -289.5t-160 -314.5q-92 -150 -225 -329q-139 -184 -250 -271q-117 -88 -227 -88q-39 0 -73 24.5t-34 65.5q0 45 38 87t62 42q23 0 29 -8q6 -4 30.5 -25.5t44 -33t38.5 -11.5q84 0 162 95q57 72 94 235.5t37 329.5q0 281 -23 369 q-18 72 -43 71q-33 0 -115 -145q-25 -43 -41 -43q-18 0 -22 43q-2 80 85 183.5t198 103.5z" />
<glyph unicode="&#xfe;" horiz-adv-x="989" d="M150 438l249 787q8 27 10.5 43t-6 29.5t-17.5 20.5t-34 23q-25 14 -24 27q0 10 15 22.5t34 16.5q18 6 140 22.5t151 16.5q8 0 14 -12.5t2 -18.5q-35 -72 -150.5 -381t-166.5 -469q-4 -8 6 -10q6 0 8 4q90 121 197.5 198t199.5 77q74 0 121 -48q47 -55 47 -133 q0 -158 -120.5 -336t-274.5 -270q-131 -80 -252 -80q-41 0 -82 23q-6 2 -13 -5.5t-7 -9.5q-84 -272 -95 -321q-8 -49 12.5 -70.5t84.5 -34.5q51 -14 51 -34q2 -12 -15.5 -20.5t-44.5 -8.5q-31 0 -84 1t-81 1q-61 0 -152.5 -7t-108.5 -7q-55 0 -55 22.5t58 36.5 q59 16 82.5 41t41.5 80l59 176l112 341zM684 735q-111 0 -278 -264q-68 -106 -106 -205.5t-38 -140.5q0 -35 20.5 -62.5t47.5 -27.5q47 0 127 76q96 96 189 282.5t93 280.5q0 23 -15 42t-40 19z" />
<glyph unicode="&#xff;" horiz-adv-x="817" d="M365 1243q41 0 63.5 -28.5t22.5 -65.5q0 -47 -34 -84t-81 -37q-33 0 -56.5 28.5t-23.5 67.5q0 51 34 85t75 34zM707 1243q41 0 63.5 -28.5t22.5 -65.5q0 -45 -33 -83t-80 -38q-35 0 -58.5 28.5t-23.5 67.5q0 47 35 83t74 36zM324 834q41 0 77.5 -59.5t44.5 -131.5 q35 -285 13 -502q0 -18 14 -10q6 6 16 21q168 291 177 651q0 14 14 26.5t25 12.5q29 0 59.5 -39t30.5 -60q0 -115 -76 -289.5t-160 -314.5q-92 -150 -225 -329q-139 -184 -250 -271q-117 -88 -227 -88q-39 0 -73 24.5t-34 65.5q0 45 38 87t62 42q23 0 29 -8q6 -4 30.5 -25.5 t44 -33t38.5 -11.5q84 0 162 95q57 72 94 235.5t37 329.5q0 281 -23 369q-18 72 -43 71q-33 0 -115 -145q-25 -43 -41 -43q-18 0 -22 43q-2 80 85 183.5t198 103.5z" />
<glyph unicode="&#x152;" horiz-adv-x="2080" d="M1569 1296h102q340 0 422 21q10 2 15.5 -14.5t0.5 -24.5q-55 -98 -79 -242q-2 -18 -21 -18q-14 0 -28.5 17.5t-16.5 43.5q-2 68 -18.5 98.5t-49.5 41.5q-41 14 -200 14q-68 0 -89.5 -13.5t-43.5 -54.5q-25 -49 -71 -203.5t-67 -246.5q-2 -10 5.5 -19.5t11.5 -9.5l188 6 q90 2 125 22.5t84 86.5q31 39 47 39q8 0 12.5 -10.5t2 -29t-12.5 -36.5q-55 -115 -88 -264q-12 -57 -35 -58q-27 0 -28 62q-2 57 -19.5 79.5t-60.5 22.5l-230 -4q-37 0 -47 -33q-47 -127 -84 -307q-16 -70 -15 -100.5t17 -59.5q20 -29 88 -36q98 -10 209 -11q76 0 142 39 q88 47 184 176q41 53 57 54q23 0 9 -58q-8 -41 -42 -115.5t-63 -113.5q-23 -25 -50.5 -36t-45 -12t-74.5 -1q-39 0 -263 6t-296 6q-10 0 -59.5 -2t-63.5 -2q-35 0 -22 45q18 61 28 86q2 14 -4 15t-14 -9q-184 -174 -424 -174q-82 0 -169 27.5t-142 83.5q-139 135 -140 368 q0 199 101.5 411t267.5 339q193 147 414 147q264 0 360 -237q6 -16 17 -4q2 2 2 6q10 37 25 98l20 78q2 10 11 18.5t15 8.5q14 0 85 -3.5t108 -3.5zM401 334q0 -133 62.5 -217t179.5 -84q76 0 135.5 24.5t134.5 92.5q141 131 225.5 371.5t84.5 418.5q0 139 -57.5 226 t-190.5 87q-63 0 -133 -31.5t-117 -78.5q-156 -145 -240 -366.5t-84 -442.5z" />
<glyph unicode="&#x153;" horiz-adv-x="1286" d="M621 831q57 0 108 -38.5t76 -94.5q6 -14 20 0q147 135 297 136q70 0 115 -38t45 -96q0 -117 -129 -188q-104 -66 -326 -119q-20 0 -32 -20q-35 -53 -35 -146q0 -55 29.5 -89t82.5 -34q90 0 199 95q14 12 24.5 8t10.5 -17q0 -16 -19 -43q-47 -66 -145 -119t-205 -53 q-59 0 -104 39t-55 109q-2 6 -8.5 8t-8.5 -2q-70 -61 -165 -108.5t-173 -47.5q-61 0 -116.5 59.5t-55.5 160.5q0 156 82 298t158 203q51 41 84 63.5t103.5 48t142.5 25.5zM623 774q-57 0 -125 -72q-104 -119 -176 -285.5t-72 -291.5q0 -29 14.5 -51.5t34.5 -22.5 q66 0 154 107q92 113 158.5 270.5t66.5 278.5q0 23 -15 45t-40 22zM1087 776q-55 0 -141 -102.5t-125 -208.5q-4 -4 0 -9t13 -3q23 4 88 34.5t138 96t73 133.5q-1 59 -46 59z" />
<glyph unicode="&#x178;" horiz-adv-x="1263" d="M219 1278q4 25 70 25q23 0 108.5 -3.5t126.5 -3.5q57 0 132 4.5t87 4.5q55 0 56 -23q0 -25 -56 -35q-47 -10 -68.5 -24.5t-21.5 -34t4 -45.5q12 -74 49 -226.5t56 -195.5q10 -12 16 -2q66 70 183.5 213t156.5 205q29 59 13.5 80.5t-72.5 31.5q-37 8 -37 31t65 23 q8 0 69 -3.5t101 -3.5q27 0 107 4.5t92 4.5q55 0 55 -25q0 -18 -67 -35q-53 -10 -95 -32.5t-68 -44t-93 -85.5q-166 -158 -383 -428q-35 -41 -55 -114q-96 -330 -105 -379q-10 -94 107 -111q59 -8 59 -33q0 -29 -70 -28q-16 0 -104 5t-139 5q-74 0 -168 -6t-127 -6 q-61 0 -62 26q0 20 60 33q100 14 145 49t78 135l82 246q41 123 33 191q-16 129 -101 391q-35 113 -66.5 145.5t-107.5 44.5q-45 9 -45 29zM752 1653q41 0 64.5 -32t21.5 -73q-2 -47 -39 -80.5t-78 -33.5q-37 0 -62.5 25.5t-23.5 76.5q2 47 39 82t78 35zM1139 1653 q41 0 64.5 -32t21.5 -73q-2 -51 -40 -82.5t-79 -31.5q-37 0 -62.5 26.5t-23.5 75.5q2 47 40 82t79 35z" />
<glyph unicode="&#x2c6;" horiz-adv-x="819" d="M686 1309q27 0 33 -58l33 -282q2 -20 -5.5 -40t-23.5 -20q-14 0 -35 43l-57 162q-4 12 -19 2q-150 -141 -184 -170q-31 -31 -68 -31q-10 0 -13 9.5t1 23t14 23.5q121 129 252 286q47 52 72 52z" />
<glyph unicode="&#x2dc;" horiz-adv-x="819" d="M455 1057q-20 0 -62 -49q-12 -12 -22 -13q-6 0 -21.5 16.5t-15.5 20.5t19.5 29.5t56 62.5t73.5 62q18 12 35 8q90 -23 154 -23q55 0 73 15q14 10 62 65q2 4 13 -2t21.5 -16t10.5 -16q0 -10 -8 -19q-16 -16 -74.5 -79.5t-64.5 -67.5q-16 -16 -31 -17q-10 0 -88 11.5 t-131 11.5z" />
<glyph unicode="&#x2000;" horiz-adv-x="856" />
<glyph unicode="&#x2001;" horiz-adv-x="1712" />
<glyph unicode="&#x2002;" horiz-adv-x="856" />
<glyph unicode="&#x2003;" horiz-adv-x="1712" />
<glyph unicode="&#x2004;" horiz-adv-x="569" />
<glyph unicode="&#x2005;" horiz-adv-x="428" />
<glyph unicode="&#x2006;" horiz-adv-x="284" />
<glyph unicode="&#x2007;" horiz-adv-x="284" />
<glyph unicode="&#x2008;" horiz-adv-x="212" />
<glyph unicode="&#x2009;" horiz-adv-x="342" />
<glyph unicode="&#x200a;" horiz-adv-x="94" />
<glyph unicode="&#x2010;" horiz-adv-x="679" d="M158 502q43 6 226 26.5t193.5 20.5t17.5 -12.5t5 -20.5q0 -27 -22.5 -73t-47.5 -48q-51 -6 -127.5 -14t-161.5 -15.5t-118 -11.5q-10 -2 -17.5 8.5t-7.5 18.5q0 25 24 72t36 49z" />
<glyph unicode="&#x2011;" horiz-adv-x="679" d="M158 502q43 6 226 26.5t193.5 20.5t17.5 -12.5t5 -20.5q0 -27 -22.5 -73t-47.5 -48q-51 -6 -127.5 -14t-161.5 -15.5t-118 -11.5q-10 -2 -17.5 8.5t-7.5 18.5q0 25 24 72t36 49z" />
<glyph unicode="&#x2012;" horiz-adv-x="679" d="M158 502q43 6 226 26.5t193.5 20.5t17.5 -12.5t5 -20.5q0 -27 -22.5 -73t-47.5 -48q-51 -6 -127.5 -14t-161.5 -15.5t-118 -11.5q-10 -2 -17.5 8.5t-7.5 18.5q0 25 24 72t36 49z" />
<glyph unicode="&#x2013;" horiz-adv-x="1150" d="M172 504l852 4q6 0 12 -10.5t6 -20.5q0 -20 -19 -60t-38 -40h-842q-20 0 -20 37q0 23 19.5 56.5t29.5 33.5z" />
<glyph unicode="&#x2014;" horiz-adv-x="1984" d="M172 504l1688 4q6 0 12 -10.5t6 -20.5q0 -20 -20.5 -60t-38.5 -40h-1676q-20 0 -20 37q0 23 19.5 56.5t29.5 33.5z" />
<glyph unicode="&#x2018;" horiz-adv-x="487" d="M639 1384q0 -27 -45 -45q-61 -27 -107.5 -79t-46.5 -113q0 -74 80 -105q25 -6 25 -32q0 -37 -37 -67t-94 -30q-70 0 -110 56.5t-40 122.5q0 92 57.5 165.5t126 109.5t136.5 44q55 6 55 -27z" />
<glyph unicode="&#x2019;" horiz-adv-x="477" d="M231 940q0 20 45 43q61 27 107.5 81t46.5 114q0 76 -78 104q-25 8 -24 33q0 33 36.5 64.5t92.5 31.5q70 0 109.5 -56.5t39.5 -119.5q0 -137 -103.5 -222t-213.5 -100q-58 -6 -58 27z" />
<glyph unicode="&#x201a;" horiz-adv-x="505" d="M176 301q74 0 110 -55.5t36 -120.5q0 -74 -37 -138.5t-93.5 -104.5t-110.5 -64.5t-99 -32.5q-23 -4 -41.5 2t-18.5 18q0 20 49 52q168 84 168 192q0 35 -17.5 53.5t-58.5 34.5q-10 2 -19 15.5t-9 19.5q0 47 42 88t99 41z" />
<glyph unicode="&#x201c;" horiz-adv-x="841" d="M651 1389q0 -23 -43 -50q-61 -33 -108 -84t-47 -108q0 -74 77 -105q6 -2 15.5 -13t9.5 -19q0 -31 -35 -64t-90 -33q-70 0 -110.5 54.5t-40.5 122.5q0 133 106.5 222t206.5 99q59 7 59 -22zM1022 1389q0 -23 -45 -46q-59 -27 -108.5 -82t-49.5 -114q0 -80 72 -103 q10 -2 20.5 -13t10.5 -21q0 -33 -36 -65t-91 -32q-72 0 -111 51.5t-39 118.5q0 129 105.5 223.5t216.5 106.5q16 4 35.5 -2t19.5 -22z" />
<glyph unicode="&#x201d;" horiz-adv-x="843" d="M594 940q0 23 45 45q156 88 156 195q0 78 -78 104q-8 2 -16.5 14.5t-8.5 20.5q0 29 35 61.5t88 32.5q72 0 112 -53t40 -121q0 -135 -106.5 -224t-207.5 -97q-59 -7 -59 22zM223 938q0 20 47 45q59 27 108.5 82t49.5 115q0 80 -72 102q-10 4 -20 15.5t-10 21.5 q0 29 35.5 61.5t89.5 32.5q72 0 111.5 -50t39.5 -118q0 -129 -106.5 -224t-216.5 -108q-56 -6 -56 25z" />
<glyph unicode="&#x201e;" horiz-adv-x="894" d="M176 301q80 0 113 -52t33 -122q0 -92 -62.5 -169t-133.5 -116t-138 -55q-66 -14 -66 14q0 25 45 54q59 31 113.5 88t54.5 114q0 74 -72 80q-10 0 -20 9.5t-10 21.5q0 49 43 91t100 42zM557 301q80 0 111.5 -52t31.5 -122q0 -92 -61 -169t-131 -115t-139 -54 q-12 -6 -39 -3t-27 17q0 25 45 52q59 31 112.5 88t53.5 114q0 72 -70 80q-10 0 -20 9.5t-10 21.5q0 49 43 91t100 42z" />
<glyph unicode="&#x2022;" horiz-adv-x="927" d="M451 696q123 0 212 -92t89 -221q0 -125 -90.5 -216t-210.5 -91q-115 0 -204 94t-89 213q0 129 88 221t205 92z" />
<glyph unicode="&#x2026;" horiz-adv-x="1454" d="M176.5 264q59.5 0 92 -38t32.5 -101q0 -68 -48 -111t-101 -43q-61 0 -94 36t-33 97q0 66 46 113t105.5 47zM663.5 264q59.5 0 92 -38t32.5 -101q0 -70 -48 -112t-101 -42q-61 0 -94 38t-33 100q0 63 46 109t105.5 46zM1151 264q59 0 92 -38t33 -101q0 -74 -47 -114 t-101 -40q-63 0 -97 38t-34 100q0 63 47.5 109t106.5 46z" />
<glyph unicode="&#x202f;" horiz-adv-x="342" />
<glyph unicode="&#x2039;" horiz-adv-x="960" d="M152 401q0 16 22 25q406 180 635 326q33 16 47 16q25 0 12 -29q-6 -16 -30 -41q-45 -45 -114 -93t-171 -111.5l-127 -79.5q-27 -16 -12 -37q211 -217 235 -281q8 -14 6 -34.5t-14 -22.5q-18 0 -41 20q-106 98 -432 320q-16 10 -16 22z" />
<glyph unicode="&#x203a;" horiz-adv-x="989" d="M815 406q0 -14 -24 -25q-410 -180 -633 -324q-37 -18 -47.5 -18t-15.5 7t2 23.5t30 39.5q35 35 93.5 76.5l102.5 70.5l118 76l98 61q27 16 12 37q-211 217 -236 281q-18 55 11 57q20 0 41 -20q98 -92 432 -320q16 -10 16 -22z" />
<glyph unicode="&#x205f;" horiz-adv-x="428" />
<glyph unicode="&#x20ac;" d="M895 1280q117 0 197 -47q23 -12 32 -11t33 13q23 14 33 4q12 -23 0 -43q-70 -139 -88 -205q-12 -55 -37 -55q-29 0 -23 55q12 109 -18 156q-43 76 -133 76q-127 0 -234.5 -132.5t-164.5 -302.5q-6 -16 8 -16l370 12q8 0 13.5 -10t3.5 -16q-4 -18 -22.5 -35.5t-30.5 -17.5 h-353q-16 0 -18 -11q-12 -33 -19 -92q-2 -4 2.5 -8t12.5 -4q49 0 145 5t187 5q6 0 10 -12.5t2 -18.5q-6 -23 -24.5 -40t-33.5 -17q-78 0 -175 1t-130 1q-16 0 -16 -12q-6 -49 -6 -115q2 -170 55 -243.5t133 -73.5q92 0 174 82l35 36l41 44l33 34q25 25 49 25q20 0 6 -49 q-10 -35 -60 -111t-75 -104.5t-49 -10.5q-25 20 -70 11q-129 -29 -158 -29q-61 0 -118.5 21.5t-111.5 67.5t-87 135t-33 208q0 20 4 66q2 12 -8 16l-90 2q-18 0 -14 23q2 14 15 29.5t22 17.5h73q14 4 17 12l18 84q6 20 -8 20h-53q-6 0 -11.5 6.5t-3.5 12.5q2 14 14.5 29.5 t20.5 15.5l51 2q12 0 17 12q86 219 260 360.5t389 141.5z" />
<glyph unicode="&#x2122;" horiz-adv-x="790" d="M326 1231h174q35 0 59 12q4 2 11.5 0t7.5 -6q-6 -43 -7 -90q0 -6 -5 -9t-12 -1t-9 8q-2 4 -6 15t-7.5 18.5t-10.5 13.5t-15 6h-51v-176q0 -41 18 -53q4 -2 15.5 -6.5t15.5 -6.5q12 -4 10 -15t-12 -11q-8 0 -40 1t-42 1q-20 0 -43 -1t-37 -1q-12 0 -14 9t10 17q12 6 24 11 q25 12 25 61v129q0 41 -10 41h-37q-16 0 -23.5 -5t-14.5 -20.5t-9 -17.5q-4 -8 -10 -14q-4 -2 -11.5 3t-7.5 15l2 37q2 35 2 43q2 4 10.5 5t12.5 -1q14 -10 37 -12zM930 1231q2 0 48 1t52 1q16 0 16.5 -12.5t-8.5 -14.5q-4 -2 -19 -7t-20 -7q-2 -4 -6 -27q0 -10 1 -63t1 -80 q2 -43 13 -51q4 -2 14 -5t14 -5q10 -4 9 -16.5t-15 -12.5h-61q-10 0 -33 -1t-31 -1q-10 0 -14 5t-2 12t10 9q16 8 20.5 15.5t6.5 36.5q2 33 2 157q0 14 -6 2q-10 -18 -42 -98l-36 -90q-18 -43 -21 -45q-12 -12 -24 0q-2 8 -15 37l-77 180q-4 14 -9 0q-4 -98 -4 -145 q0 -20 9.5 -29.5t41.5 -20.5q14 -4 9.5 -15t-17 -11t-37 1t-37 1t-31 -1t-22.5 -1q-12 0 -16 10t8 16q37 16 43 33q2 6 4 17q14 96 15 149q2 16 -7 31q-4 6 -36 18q-16 6 -14.5 17.5t16.5 11.5q29 -2 92 -2h18q4 0 29 -45q47 -94 61 -125q4 -10 11 -2q23 47 69 153 q7 19 27 19z" />
<glyph unicode="&#xe000;" horiz-adv-x="835" d="M0 835h835v-835h-835v835z" />
<glyph unicode="&#xfb01;" horiz-adv-x="1048" d="M1128 1296q0 -49 -37.5 -90t-93.5 -41q-23 0 -43 18.5t-22 43.5q-4 76 -25.5 111.5t-75.5 35.5q-98 0 -190 -151q-88 -145 -149 -387q-4 -23 12 -23q172 0 309 10q96 8 164 25q12 2 19.5 -9.5t-1.5 -25.5q-39 -92 -119.5 -312t-111.5 -321q-4 -10 1 -21.5t13 -11.5 q18 0 73.5 36t98.5 75q25 25 43 25q12 0 13 -17q0 -25 -37 -71q-68 -84 -191 -158t-188 -74q-23 0 -46.5 22.5t-23.5 47.5q0 31 12 63q12 29 65 171l108 292q55 150 59 160q6 27 -16 26q-170 0 -273 -10q-10 0 -24 -28l-230 -813q-72 -266 -270 -386q-117 -66 -209 -65 q-72 0 -119 32.5t-47 75.5q0 27 24.5 59t51.5 48q41 20 51 2q96 -123 158 -123q35 0 65.5 53.5t75.5 225.5l240 886q6 25 -15 25h-125q-27 0 -26 21q0 8 17.5 25.5t37.5 21.5q18 4 66.5 8t54.5 6q25 4 27 18q102 301 276 471q51 51 142 97.5t200 46.5q59 0 104.5 -13.5 t68 -31t36.5 -40t18 -37t4 -24.5z" />
<glyph unicode="&#xfb02;" horiz-adv-x="1058" d="M909 1444q113 0 170 -47q20 -12 29 -2q49 49 72 49q10 0 16 -19.5t-2 -40.5q-78 -201 -230 -642l-208 -611q-8 -29 -3 -44t17 -15q41 0 223 190q10 8 19.5 7t9.5 -11q0 -33 -16 -61q-53 -104 -154.5 -167t-198.5 -63q-51 0 -79.5 35t-26.5 66q4 29 49 170l170 493 q6 18 -10 19l-281 -11q-14 0 -22 -22l-236 -826q-74 -256 -270 -378q-123 -72 -219 -72q-76 0 -120 35t-42 73q0 29 23.5 60t54.5 47q10 6 26.5 9t22.5 -3q98 -129 157 -129q35 0 65 58.5t69 199.5l254 905q8 33 -9 33h-110q-18 0 -31.5 8t-13.5 17q2 12 18.5 30.5 t36.5 20.5q12 2 68.5 6t60.5 4q14 0 23 23q43 115 81.5 195.5t92 159.5t120 133t150.5 85q90 33 184 33zM838 1378q-90 0 -160 -96q-94 -131 -191 -446q-4 -18 17 -19q12 0 132 4t140 4q10 0 25 19q4 6 27 76l57 163l45 131q31 86 16 113q-14 18 -48.5 34.5t-59.5 16.5z" />
<glyph unicode="&#xfb03;" horiz-adv-x="1617" d="M852 1386q135 0 209 -73q10 -10 22 -2q164 135 344 135q72 0 123.5 -18.5t73 -46t30.5 -49t9 -40.5q0 -55 -42 -90t-85 -35q-23 0 -44.5 17.5t-21.5 40.5q-6 156 -102 155q-109 0 -201 -163q-88 -158 -141 -375q-2 -8 0 -16.5t6 -8.5q195 0 328 10q115 10 156 21 q10 2 16 -9.5t0 -25.5q-43 -98 -121 -313t-108 -318q-4 -16 1 -26.5t13 -10.5q16 0 68.5 34t101.5 81q16 18 41 19q14 -4 5 -30t-26 -48q-59 -84 -185 -161t-194 -77q-25 0 -48 21.5t-23 52.5q0 37 18 82q162 412 223 598q8 29 -18 28q-188 0 -270 -8q-8 0 -16.5 -8 t-10.5 -16q-154 -539 -233 -789q-68 -205 -250 -323q-59 -37 -149.5 -69t-141.5 -32q-127 0 -195 74q-10 10 -18 0q-49 -47 -132 -89t-143 -42q-86 0 -124.5 34t-36.5 68q4 68 65 111q43 23 56 10q113 -113 161 -112q35 0 59.5 33.5t51.5 107.5q70 195 297 1007q6 16 -14 17 l-134 -4q-16 0 -16 14q2 20 17.5 39.5t27.5 22.5q23 2 127 10q14 0 21 16l51 127q20 49 59 121t90 130t115 103q49 35 126 61.5t132 26.5zM805 1319q-119 0 -205 -184q-57 -119 -111 -312q-4 -14 13 -14l284 6q16 0 27 23q88 229 145 323q12 20 7 33q-20 55 -68.5 90 t-91.5 35zM319 -406q123 0 195 226q29 92 262 897q8 20 -12 20l-287 -10q-14 0 -22 -14l-213 -744q-35 -127 -111 -260q-6 -12 4 -31q29 -39 83 -61.5t101 -22.5z" />
<glyph unicode="&#xfb04;" horiz-adv-x="1591" d="M1427 1446q127 0 191 -53q12 -12 22 2q51 51 74 51q12 0 17.5 -18.5t-0.5 -41.5q-80 -205 -235 -647t-206 -604q-20 -57 13 -57q47 0 223 184q10 8 20 7t10 -11q0 -29 -16 -61q-53 -102 -155.5 -166t-200.5 -64q-49 0 -78 29t-29 63.5t51 186.5l168 485q4 23 -8 23 l-284 -15q-16 0 -21 -20q-150 -528 -231 -791q-70 -211 -252 -325q-61 -39 -149.5 -72t-141.5 -33q-57 0 -113.5 21.5t-83.5 56.5q-8 8 -14 2q-43 -45 -128 -90t-146 -45q-84 0 -125 32.5t-39 65.5q4 72 67 115q14 8 32.5 10t23.5 -2q117 -113 159 -113q35 0 59.5 34 t53.5 108q33 102 295 1007q4 16 -10 17l-140 -4q-16 0 -16 14q2 20 16.5 39.5t26.5 21.5q16 2 66.5 6.5t66.5 4.5q10 0 21 18l54 133t59 120t90.5 130t113.5 100q47 33 124 59.5t128 26.5q147 0 215 -67q8 -12 22 2q160 125 340 125zM502 807l289 12q16 0 26 25 q90 236 146 325q12 18 6 33q-41 115 -164 115q-115 0 -203 -180q-68 -139 -113 -316q-3 -14 13 -14zM324 -406q121 0 196 238l123 421l135 466q4 18 -10 18l-291 -12q-10 0 -20 -14l-215 -746q-37 -127 -109 -254q-8 -12 2 -33q62 -84 189 -84zM1372 1382q-96 0 -166 -96 q-88 -125 -188 -450q-4 -16 16 -17q12 0 137 6t146 6q8 0 18 17q2 2 131 369q29 80 9 108q-37 57 -103 57z" />
</font>
</defs>
</svg>
